G04 (created by PCBNEW (2013-07-07 BZR 4022)-stable) date Sun 28 Jul 2013 01:55:30 PM NZST*
%MOIN*%
G04 Gerber Fmt 3.4, Leading zero omitted, Abs format*
%FSLAX34Y34*%
G01*
G70*
G90*
G04 APERTURE LIST*
%ADD10C,0.00590551*%
%ADD11C,0.008*%
%ADD12C,0.02*%
%ADD13C,0.004*%
%ADD14C,0.005*%
%ADD15C,0.01*%
%ADD16C,0.015*%
%ADD17C,0.0047*%
%ADD18C,0.012*%
%ADD19C,0.0026*%
%ADD20C,0.0125*%
%ADD21C,0.006*%
%ADD22C,0.0039*%
%ADD23C,0.0045*%
%ADD24C,0.01125*%
%ADD25C,0.0043*%
%ADD26C,0.0051*%
G04 APERTURE END LIST*
G54D10*
G54D11*
X22583Y-16661D02*
X22583Y-16261D01*
X22733Y-16661D02*
X22733Y-16452D01*
X22716Y-16414D01*
X22683Y-16395D01*
X22633Y-16395D01*
X22600Y-16414D01*
X22583Y-16433D01*
X22850Y-16395D02*
X22983Y-16395D01*
X22900Y-16261D02*
X22900Y-16604D01*
X22916Y-16642D01*
X22950Y-16661D01*
X22983Y-16661D01*
X23050Y-16395D02*
X23183Y-16395D01*
X23100Y-16261D02*
X23100Y-16604D01*
X23116Y-16642D01*
X23150Y-16661D01*
X23183Y-16661D01*
X23300Y-16395D02*
X23300Y-16795D01*
X23300Y-16414D02*
X23333Y-16395D01*
X23400Y-16395D01*
X23433Y-16414D01*
X23450Y-16433D01*
X23466Y-16471D01*
X23466Y-16585D01*
X23450Y-16623D01*
X23433Y-16642D01*
X23400Y-16661D01*
X23333Y-16661D01*
X23300Y-16642D01*
X23616Y-16623D02*
X23633Y-16642D01*
X23616Y-16661D01*
X23599Y-16642D01*
X23616Y-16623D01*
X23616Y-16661D01*
X23616Y-16414D02*
X23633Y-16433D01*
X23616Y-16452D01*
X23599Y-16433D01*
X23616Y-16414D01*
X23616Y-16452D01*
X24033Y-16242D02*
X23733Y-16757D01*
X24399Y-16242D02*
X24099Y-16757D01*
X24516Y-16661D02*
X24516Y-16261D01*
X24549Y-16509D02*
X24649Y-16661D01*
X24649Y-16395D02*
X24516Y-16547D01*
X24799Y-16661D02*
X24799Y-16395D01*
X24799Y-16261D02*
X24783Y-16280D01*
X24799Y-16300D01*
X24816Y-16280D01*
X24799Y-16261D01*
X24799Y-16300D01*
X25116Y-16642D02*
X25083Y-16661D01*
X25016Y-16661D01*
X24983Y-16642D01*
X24966Y-16623D01*
X24949Y-16585D01*
X24949Y-16471D01*
X24966Y-16433D01*
X24983Y-16414D01*
X25016Y-16395D01*
X25083Y-16395D01*
X25116Y-16414D01*
X25416Y-16661D02*
X25416Y-16452D01*
X25399Y-16414D01*
X25366Y-16395D01*
X25299Y-16395D01*
X25266Y-16414D01*
X25416Y-16642D02*
X25383Y-16661D01*
X25299Y-16661D01*
X25266Y-16642D01*
X25249Y-16604D01*
X25249Y-16566D01*
X25266Y-16528D01*
X25299Y-16509D01*
X25383Y-16509D01*
X25416Y-16490D01*
X25733Y-16661D02*
X25733Y-16261D01*
X25733Y-16642D02*
X25699Y-16661D01*
X25633Y-16661D01*
X25599Y-16642D01*
X25583Y-16623D01*
X25566Y-16585D01*
X25566Y-16471D01*
X25583Y-16433D01*
X25599Y-16414D01*
X25633Y-16395D01*
X25699Y-16395D01*
X25733Y-16414D01*
X26049Y-16395D02*
X26049Y-16661D01*
X25899Y-16395D02*
X25899Y-16604D01*
X25916Y-16642D01*
X25949Y-16661D01*
X25999Y-16661D01*
X26033Y-16642D01*
X26049Y-16623D01*
X26216Y-16661D02*
X26216Y-16395D01*
X26216Y-16261D02*
X26199Y-16280D01*
X26216Y-16300D01*
X26233Y-16280D01*
X26216Y-16261D01*
X26216Y-16300D01*
X26383Y-16395D02*
X26383Y-16661D01*
X26383Y-16433D02*
X26399Y-16414D01*
X26433Y-16395D01*
X26483Y-16395D01*
X26516Y-16414D01*
X26533Y-16452D01*
X26533Y-16661D01*
X26749Y-16661D02*
X26716Y-16642D01*
X26699Y-16623D01*
X26683Y-16585D01*
X26683Y-16471D01*
X26699Y-16433D01*
X26716Y-16414D01*
X26749Y-16395D01*
X26799Y-16395D01*
X26833Y-16414D01*
X26849Y-16433D01*
X26866Y-16471D01*
X26866Y-16585D01*
X26849Y-16623D01*
X26833Y-16642D01*
X26799Y-16661D01*
X26749Y-16661D01*
X27016Y-16623D02*
X27033Y-16642D01*
X27016Y-16661D01*
X26999Y-16642D01*
X27016Y-16623D01*
X27016Y-16661D01*
X27333Y-16395D02*
X27333Y-16719D01*
X27316Y-16757D01*
X27299Y-16776D01*
X27266Y-16795D01*
X27216Y-16795D01*
X27183Y-16776D01*
X27333Y-16642D02*
X27299Y-16661D01*
X27233Y-16661D01*
X27199Y-16642D01*
X27183Y-16623D01*
X27166Y-16585D01*
X27166Y-16471D01*
X27183Y-16433D01*
X27199Y-16414D01*
X27233Y-16395D01*
X27299Y-16395D01*
X27333Y-16414D01*
X27549Y-16661D02*
X27516Y-16642D01*
X27499Y-16623D01*
X27483Y-16585D01*
X27483Y-16471D01*
X27499Y-16433D01*
X27516Y-16414D01*
X27549Y-16395D01*
X27599Y-16395D01*
X27633Y-16414D01*
X27649Y-16433D01*
X27666Y-16471D01*
X27666Y-16585D01*
X27649Y-16623D01*
X27633Y-16642D01*
X27599Y-16661D01*
X27549Y-16661D01*
X27866Y-16661D02*
X27833Y-16642D01*
X27816Y-16623D01*
X27799Y-16585D01*
X27799Y-16471D01*
X27816Y-16433D01*
X27833Y-16414D01*
X27866Y-16395D01*
X27916Y-16395D01*
X27949Y-16414D01*
X27966Y-16433D01*
X27983Y-16471D01*
X27983Y-16585D01*
X27966Y-16623D01*
X27949Y-16642D01*
X27916Y-16661D01*
X27866Y-16661D01*
X28283Y-16395D02*
X28283Y-16719D01*
X28266Y-16757D01*
X28249Y-16776D01*
X28216Y-16795D01*
X28166Y-16795D01*
X28133Y-16776D01*
X28283Y-16642D02*
X28249Y-16661D01*
X28183Y-16661D01*
X28149Y-16642D01*
X28133Y-16623D01*
X28116Y-16585D01*
X28116Y-16471D01*
X28133Y-16433D01*
X28149Y-16414D01*
X28183Y-16395D01*
X28249Y-16395D01*
X28283Y-16414D01*
X28499Y-16661D02*
X28466Y-16642D01*
X28449Y-16604D01*
X28449Y-16261D01*
X28766Y-16642D02*
X28733Y-16661D01*
X28666Y-16661D01*
X28633Y-16642D01*
X28616Y-16604D01*
X28616Y-16452D01*
X28633Y-16414D01*
X28666Y-16395D01*
X28733Y-16395D01*
X28766Y-16414D01*
X28783Y-16452D01*
X28783Y-16490D01*
X28616Y-16528D01*
X29083Y-16642D02*
X29049Y-16661D01*
X28983Y-16661D01*
X28949Y-16642D01*
X28933Y-16623D01*
X28916Y-16585D01*
X28916Y-16471D01*
X28933Y-16433D01*
X28949Y-16414D01*
X28983Y-16395D01*
X29049Y-16395D01*
X29083Y-16414D01*
X29283Y-16661D02*
X29249Y-16642D01*
X29233Y-16623D01*
X29216Y-16585D01*
X29216Y-16471D01*
X29233Y-16433D01*
X29249Y-16414D01*
X29283Y-16395D01*
X29333Y-16395D01*
X29366Y-16414D01*
X29383Y-16433D01*
X29399Y-16471D01*
X29399Y-16585D01*
X29383Y-16623D01*
X29366Y-16642D01*
X29333Y-16661D01*
X29283Y-16661D01*
X29699Y-16661D02*
X29699Y-16261D01*
X29699Y-16642D02*
X29666Y-16661D01*
X29599Y-16661D01*
X29566Y-16642D01*
X29549Y-16623D01*
X29533Y-16585D01*
X29533Y-16471D01*
X29549Y-16433D01*
X29566Y-16414D01*
X29599Y-16395D01*
X29666Y-16395D01*
X29699Y-16414D01*
X29999Y-16642D02*
X29966Y-16661D01*
X29899Y-16661D01*
X29866Y-16642D01*
X29849Y-16604D01*
X29849Y-16452D01*
X29866Y-16414D01*
X29899Y-16395D01*
X29966Y-16395D01*
X29999Y-16414D01*
X30016Y-16452D01*
X30016Y-16490D01*
X29849Y-16528D01*
X30166Y-16623D02*
X30183Y-16642D01*
X30166Y-16661D01*
X30149Y-16642D01*
X30166Y-16623D01*
X30166Y-16661D01*
X30483Y-16642D02*
X30449Y-16661D01*
X30383Y-16661D01*
X30349Y-16642D01*
X30333Y-16623D01*
X30316Y-16585D01*
X30316Y-16471D01*
X30333Y-16433D01*
X30349Y-16414D01*
X30383Y-16395D01*
X30449Y-16395D01*
X30483Y-16414D01*
X30683Y-16661D02*
X30649Y-16642D01*
X30633Y-16623D01*
X30616Y-16585D01*
X30616Y-16471D01*
X30633Y-16433D01*
X30649Y-16414D01*
X30683Y-16395D01*
X30733Y-16395D01*
X30766Y-16414D01*
X30783Y-16433D01*
X30799Y-16471D01*
X30799Y-16585D01*
X30783Y-16623D01*
X30766Y-16642D01*
X30733Y-16661D01*
X30683Y-16661D01*
X30949Y-16661D02*
X30949Y-16395D01*
X30949Y-16433D02*
X30966Y-16414D01*
X30999Y-16395D01*
X31049Y-16395D01*
X31083Y-16414D01*
X31099Y-16452D01*
X31099Y-16661D01*
X31099Y-16452D02*
X31116Y-16414D01*
X31149Y-16395D01*
X31199Y-16395D01*
X31233Y-16414D01*
X31249Y-16452D01*
X31249Y-16661D01*
G54D12*
X22595Y-15923D02*
X22595Y-15123D01*
X23052Y-15923D02*
X22709Y-15466D01*
X23052Y-15123D02*
X22595Y-15580D01*
X23395Y-15923D02*
X23395Y-15390D01*
X23395Y-15123D02*
X23357Y-15161D01*
X23395Y-15200D01*
X23433Y-15161D01*
X23395Y-15123D01*
X23395Y-15200D01*
X24119Y-15885D02*
X24042Y-15923D01*
X23890Y-15923D01*
X23814Y-15885D01*
X23776Y-15847D01*
X23738Y-15771D01*
X23738Y-15542D01*
X23776Y-15466D01*
X23814Y-15428D01*
X23890Y-15390D01*
X24042Y-15390D01*
X24119Y-15428D01*
X24804Y-15923D02*
X24804Y-15504D01*
X24766Y-15428D01*
X24690Y-15390D01*
X24538Y-15390D01*
X24461Y-15428D01*
X24804Y-15885D02*
X24728Y-15923D01*
X24538Y-15923D01*
X24461Y-15885D01*
X24423Y-15809D01*
X24423Y-15733D01*
X24461Y-15657D01*
X24538Y-15619D01*
X24728Y-15619D01*
X24804Y-15580D01*
X25528Y-15923D02*
X25528Y-15123D01*
X25528Y-15885D02*
X25452Y-15923D01*
X25300Y-15923D01*
X25223Y-15885D01*
X25185Y-15847D01*
X25147Y-15771D01*
X25147Y-15542D01*
X25185Y-15466D01*
X25223Y-15428D01*
X25300Y-15390D01*
X25452Y-15390D01*
X25528Y-15428D01*
X26252Y-15390D02*
X26252Y-15923D01*
X25909Y-15390D02*
X25909Y-15809D01*
X25947Y-15885D01*
X26023Y-15923D01*
X26138Y-15923D01*
X26214Y-15885D01*
X26252Y-15847D01*
X26633Y-15923D02*
X26633Y-15390D01*
X26633Y-15123D02*
X26595Y-15161D01*
X26633Y-15200D01*
X26671Y-15161D01*
X26633Y-15123D01*
X26633Y-15200D01*
X27014Y-15390D02*
X27014Y-15923D01*
X27014Y-15466D02*
X27052Y-15428D01*
X27128Y-15390D01*
X27242Y-15390D01*
X27319Y-15428D01*
X27357Y-15504D01*
X27357Y-15923D01*
X27852Y-15923D02*
X27776Y-15885D01*
X27738Y-15847D01*
X27700Y-15771D01*
X27700Y-15542D01*
X27738Y-15466D01*
X27776Y-15428D01*
X27852Y-15390D01*
X27966Y-15390D01*
X28042Y-15428D01*
X28080Y-15466D01*
X28119Y-15542D01*
X28119Y-15771D01*
X28080Y-15847D01*
X28042Y-15885D01*
X27966Y-15923D01*
X27852Y-15923D01*
X28995Y-15390D02*
X29185Y-15923D01*
X29376Y-15390D01*
X30099Y-15923D02*
X29642Y-15923D01*
X29871Y-15923D02*
X29871Y-15123D01*
X29795Y-15238D01*
X29719Y-15314D01*
X29642Y-15352D01*
X30442Y-15847D02*
X30480Y-15885D01*
X30442Y-15923D01*
X30404Y-15885D01*
X30442Y-15847D01*
X30442Y-15923D01*
X30976Y-15123D02*
X31052Y-15123D01*
X31128Y-15161D01*
X31166Y-15200D01*
X31204Y-15276D01*
X31242Y-15428D01*
X31242Y-15619D01*
X31204Y-15771D01*
X31166Y-15847D01*
X31128Y-15885D01*
X31052Y-15923D01*
X30976Y-15923D01*
X30899Y-15885D01*
X30861Y-15847D01*
X30823Y-15771D01*
X30785Y-15619D01*
X30785Y-15428D01*
X30823Y-15276D01*
X30861Y-15200D01*
X30899Y-15161D01*
X30976Y-15123D01*
G54D13*
X35107Y-28642D02*
X35121Y-28600D01*
X35121Y-28528D01*
X35107Y-28500D01*
X35092Y-28485D01*
X35064Y-28471D01*
X35035Y-28471D01*
X35007Y-28485D01*
X34992Y-28500D01*
X34978Y-28528D01*
X34964Y-28585D01*
X34950Y-28614D01*
X34935Y-28628D01*
X34907Y-28642D01*
X34878Y-28642D01*
X34850Y-28628D01*
X34835Y-28614D01*
X34821Y-28585D01*
X34821Y-28514D01*
X34835Y-28471D01*
X35092Y-28171D02*
X35107Y-28185D01*
X35121Y-28228D01*
X35121Y-28257D01*
X35107Y-28300D01*
X35078Y-28328D01*
X35050Y-28342D01*
X34992Y-28357D01*
X34950Y-28357D01*
X34892Y-28342D01*
X34864Y-28328D01*
X34835Y-28300D01*
X34821Y-28257D01*
X34821Y-28228D01*
X34835Y-28185D01*
X34850Y-28171D01*
X35121Y-27900D02*
X35121Y-28042D01*
X34821Y-28042D01*
X34007Y-28642D02*
X34021Y-28600D01*
X34021Y-28528D01*
X34007Y-28500D01*
X33992Y-28485D01*
X33964Y-28471D01*
X33935Y-28471D01*
X33907Y-28485D01*
X33892Y-28500D01*
X33878Y-28528D01*
X33864Y-28585D01*
X33850Y-28614D01*
X33835Y-28628D01*
X33807Y-28642D01*
X33778Y-28642D01*
X33750Y-28628D01*
X33735Y-28614D01*
X33721Y-28585D01*
X33721Y-28514D01*
X33735Y-28471D01*
X34021Y-28342D02*
X33721Y-28342D01*
X33721Y-28271D01*
X33735Y-28228D01*
X33764Y-28200D01*
X33792Y-28185D01*
X33850Y-28171D01*
X33892Y-28171D01*
X33950Y-28185D01*
X33978Y-28200D01*
X34007Y-28228D01*
X34021Y-28271D01*
X34021Y-28342D01*
X33935Y-28057D02*
X33935Y-27914D01*
X34021Y-28085D02*
X33721Y-27985D01*
X34021Y-27885D01*
G54D14*
X28500Y-27500D02*
X23700Y-27500D01*
G54D15*
X25871Y-28061D02*
X25871Y-27661D01*
X26061Y-27661D01*
X26109Y-27680D01*
X26133Y-27700D01*
X26157Y-27738D01*
X26157Y-27795D01*
X26133Y-27833D01*
X26109Y-27852D01*
X26061Y-27871D01*
X25871Y-27871D01*
X26466Y-27661D02*
X26561Y-27661D01*
X26609Y-27680D01*
X26657Y-27719D01*
X26680Y-27795D01*
X26680Y-27928D01*
X26657Y-28004D01*
X26609Y-28042D01*
X26561Y-28061D01*
X26466Y-28061D01*
X26419Y-28042D01*
X26371Y-28004D01*
X26347Y-27928D01*
X26347Y-27795D01*
X26371Y-27719D01*
X26419Y-27680D01*
X26466Y-27661D01*
X26847Y-27661D02*
X26966Y-28061D01*
X27061Y-27776D01*
X27157Y-28061D01*
X27276Y-27661D01*
X27466Y-27852D02*
X27633Y-27852D01*
X27704Y-28061D02*
X27466Y-28061D01*
X27466Y-27661D01*
X27704Y-27661D01*
X28204Y-28061D02*
X28038Y-27871D01*
X27919Y-28061D02*
X27919Y-27661D01*
X28109Y-27661D01*
X28157Y-27680D01*
X28180Y-27700D01*
X28204Y-27738D01*
X28204Y-27795D01*
X28180Y-27833D01*
X28157Y-27852D01*
X28109Y-27871D01*
X27919Y-27871D01*
G54D14*
X29500Y-27500D02*
X35250Y-27500D01*
G54D15*
X29695Y-27947D02*
X29933Y-27947D01*
X29647Y-28061D02*
X29814Y-27661D01*
X29980Y-28061D01*
X30147Y-28061D02*
X30147Y-27661D01*
X30433Y-28061D01*
X30433Y-27661D01*
X30647Y-27947D02*
X30885Y-27947D01*
X30599Y-28061D02*
X30766Y-27661D01*
X30933Y-28061D01*
X31338Y-28061D02*
X31099Y-28061D01*
X31099Y-27661D01*
X31599Y-27661D02*
X31695Y-27661D01*
X31742Y-27680D01*
X31790Y-27719D01*
X31814Y-27795D01*
X31814Y-27928D01*
X31790Y-28004D01*
X31742Y-28042D01*
X31695Y-28061D01*
X31599Y-28061D01*
X31552Y-28042D01*
X31504Y-28004D01*
X31480Y-27928D01*
X31480Y-27795D01*
X31504Y-27719D01*
X31552Y-27680D01*
X31599Y-27661D01*
X32290Y-27680D02*
X32242Y-27661D01*
X32171Y-27661D01*
X32099Y-27680D01*
X32052Y-27719D01*
X32028Y-27757D01*
X32004Y-27833D01*
X32004Y-27890D01*
X32028Y-27966D01*
X32052Y-28004D01*
X32099Y-28042D01*
X32171Y-28061D01*
X32219Y-28061D01*
X32290Y-28042D01*
X32314Y-28023D01*
X32314Y-27890D01*
X32219Y-27890D01*
X32909Y-28061D02*
X32909Y-27661D01*
X33147Y-28061D02*
X33147Y-27661D01*
X33433Y-28061D01*
X33433Y-27661D01*
G54D14*
X35400Y-13800D02*
X19000Y-13800D01*
G54D15*
X24219Y-13461D02*
X24219Y-13061D01*
X24338Y-13061D01*
X24409Y-13080D01*
X24457Y-13119D01*
X24480Y-13157D01*
X24504Y-13233D01*
X24504Y-13290D01*
X24480Y-13366D01*
X24457Y-13404D01*
X24409Y-13442D01*
X24338Y-13461D01*
X24219Y-13461D01*
X24719Y-13461D02*
X24719Y-13061D01*
X25219Y-13080D02*
X25171Y-13061D01*
X25100Y-13061D01*
X25028Y-13080D01*
X24980Y-13119D01*
X24957Y-13157D01*
X24933Y-13233D01*
X24933Y-13290D01*
X24957Y-13366D01*
X24980Y-13404D01*
X25028Y-13442D01*
X25100Y-13461D01*
X25147Y-13461D01*
X25219Y-13442D01*
X25242Y-13423D01*
X25242Y-13290D01*
X25147Y-13290D01*
X25457Y-13461D02*
X25457Y-13061D01*
X25623Y-13061D02*
X25909Y-13061D01*
X25766Y-13461D02*
X25766Y-13061D01*
X26052Y-13347D02*
X26290Y-13347D01*
X26004Y-13461D02*
X26171Y-13061D01*
X26338Y-13461D01*
X26742Y-13461D02*
X26504Y-13461D01*
X26504Y-13061D01*
X27433Y-13614D02*
X27409Y-13595D01*
X27361Y-13538D01*
X27338Y-13500D01*
X27314Y-13442D01*
X27290Y-13347D01*
X27290Y-13271D01*
X27314Y-13176D01*
X27338Y-13119D01*
X27361Y-13080D01*
X27409Y-13023D01*
X27433Y-13004D01*
X27623Y-13309D02*
X28004Y-13309D01*
X28242Y-13461D02*
X28242Y-13061D01*
X28433Y-13061D01*
X28480Y-13080D01*
X28504Y-13100D01*
X28528Y-13138D01*
X28528Y-13195D01*
X28504Y-13233D01*
X28480Y-13252D01*
X28433Y-13271D01*
X28242Y-13271D01*
X28695Y-13061D02*
X28814Y-13461D01*
X28909Y-13176D01*
X29004Y-13461D01*
X29123Y-13061D01*
X29314Y-13461D02*
X29314Y-13061D01*
X29480Y-13347D01*
X29647Y-13061D01*
X29647Y-13461D01*
X29838Y-13614D02*
X29861Y-13595D01*
X29909Y-13538D01*
X29933Y-13500D01*
X29957Y-13442D01*
X29980Y-13347D01*
X29980Y-13271D01*
X29957Y-13176D01*
X29933Y-13119D01*
X29909Y-13080D01*
X29861Y-13023D01*
X29838Y-13004D01*
G54D11*
X23161Y-29076D02*
X22971Y-29209D01*
X23161Y-29304D02*
X22761Y-29304D01*
X22761Y-29152D01*
X22780Y-29114D01*
X22800Y-29095D01*
X22838Y-29076D01*
X22895Y-29076D01*
X22933Y-29095D01*
X22952Y-29114D01*
X22971Y-29152D01*
X22971Y-29304D01*
X22952Y-28904D02*
X22952Y-28771D01*
X23161Y-28714D02*
X23161Y-28904D01*
X22761Y-28904D01*
X22761Y-28714D01*
X23142Y-28561D02*
X23161Y-28504D01*
X23161Y-28409D01*
X23142Y-28371D01*
X23123Y-28352D01*
X23085Y-28333D01*
X23047Y-28333D01*
X23009Y-28352D01*
X22990Y-28371D01*
X22971Y-28409D01*
X22952Y-28485D01*
X22933Y-28523D01*
X22914Y-28542D01*
X22876Y-28561D01*
X22838Y-28561D01*
X22800Y-28542D01*
X22780Y-28523D01*
X22761Y-28485D01*
X22761Y-28390D01*
X22780Y-28333D01*
X22952Y-28161D02*
X22952Y-28028D01*
X23161Y-27971D02*
X23161Y-28161D01*
X22761Y-28161D01*
X22761Y-27971D01*
X22761Y-27857D02*
X22761Y-27628D01*
X23161Y-27742D02*
X22761Y-27742D01*
X23761Y-29342D02*
X23761Y-29095D01*
X23914Y-29228D01*
X23914Y-29171D01*
X23933Y-29133D01*
X23952Y-29114D01*
X23990Y-29095D01*
X24085Y-29095D01*
X24123Y-29114D01*
X24142Y-29133D01*
X24161Y-29171D01*
X24161Y-29285D01*
X24142Y-29323D01*
X24123Y-29342D01*
X23761Y-28980D02*
X24161Y-28847D01*
X23761Y-28714D01*
X23761Y-28619D02*
X23761Y-28371D01*
X23914Y-28504D01*
X23914Y-28447D01*
X23933Y-28409D01*
X23952Y-28390D01*
X23990Y-28371D01*
X24085Y-28371D01*
X24123Y-28390D01*
X24142Y-28409D01*
X24161Y-28447D01*
X24161Y-28561D01*
X24142Y-28600D01*
X24123Y-28619D01*
X24761Y-29114D02*
X24761Y-29304D01*
X24952Y-29323D01*
X24933Y-29304D01*
X24914Y-29266D01*
X24914Y-29171D01*
X24933Y-29133D01*
X24952Y-29114D01*
X24990Y-29095D01*
X25085Y-29095D01*
X25123Y-29114D01*
X25142Y-29133D01*
X25161Y-29171D01*
X25161Y-29266D01*
X25142Y-29304D01*
X25123Y-29323D01*
X24761Y-28980D02*
X25161Y-28847D01*
X24761Y-28714D01*
X25780Y-29095D02*
X25761Y-29133D01*
X25761Y-29190D01*
X25780Y-29247D01*
X25819Y-29285D01*
X25857Y-29304D01*
X25933Y-29323D01*
X25990Y-29323D01*
X26066Y-29304D01*
X26104Y-29285D01*
X26142Y-29247D01*
X26161Y-29190D01*
X26161Y-29152D01*
X26142Y-29095D01*
X26123Y-29076D01*
X25990Y-29076D01*
X25990Y-29152D01*
X26161Y-28904D02*
X25761Y-28904D01*
X26161Y-28676D01*
X25761Y-28676D01*
X26161Y-28485D02*
X25761Y-28485D01*
X25761Y-28390D01*
X25780Y-28333D01*
X25819Y-28295D01*
X25857Y-28276D01*
X25933Y-28257D01*
X25990Y-28257D01*
X26066Y-28276D01*
X26104Y-28295D01*
X26142Y-28333D01*
X26161Y-28390D01*
X26161Y-28485D01*
X26780Y-29095D02*
X26761Y-29133D01*
X26761Y-29190D01*
X26780Y-29247D01*
X26819Y-29285D01*
X26857Y-29304D01*
X26933Y-29323D01*
X26990Y-29323D01*
X27066Y-29304D01*
X27104Y-29285D01*
X27142Y-29247D01*
X27161Y-29190D01*
X27161Y-29152D01*
X27142Y-29095D01*
X27123Y-29076D01*
X26990Y-29076D01*
X26990Y-29152D01*
X27161Y-28904D02*
X26761Y-28904D01*
X27161Y-28676D01*
X26761Y-28676D01*
X27161Y-28485D02*
X26761Y-28485D01*
X26761Y-28390D01*
X26780Y-28333D01*
X26819Y-28295D01*
X26857Y-28276D01*
X26933Y-28257D01*
X26990Y-28257D01*
X27066Y-28276D01*
X27104Y-28295D01*
X27142Y-28333D01*
X27161Y-28390D01*
X27161Y-28485D01*
X27761Y-29361D02*
X28161Y-29228D01*
X27761Y-29095D01*
X28161Y-28961D02*
X27895Y-28961D01*
X27761Y-28961D02*
X27780Y-28980D01*
X27800Y-28961D01*
X27780Y-28942D01*
X27761Y-28961D01*
X27800Y-28961D01*
X27895Y-28771D02*
X28161Y-28771D01*
X27933Y-28771D02*
X27914Y-28752D01*
X27895Y-28714D01*
X27895Y-28657D01*
X27914Y-28619D01*
X27952Y-28600D01*
X28161Y-28600D01*
X29761Y-29228D02*
X29761Y-29190D01*
X29780Y-29152D01*
X29800Y-29133D01*
X29838Y-29114D01*
X29914Y-29095D01*
X30009Y-29095D01*
X30085Y-29114D01*
X30123Y-29133D01*
X30142Y-29152D01*
X30161Y-29190D01*
X30161Y-29228D01*
X30142Y-29266D01*
X30123Y-29285D01*
X30085Y-29304D01*
X30009Y-29323D01*
X29914Y-29323D01*
X29838Y-29304D01*
X29800Y-29285D01*
X29780Y-29266D01*
X29761Y-29228D01*
X31161Y-29095D02*
X31161Y-29323D01*
X31161Y-29209D02*
X30761Y-29209D01*
X30819Y-29247D01*
X30857Y-29285D01*
X30876Y-29323D01*
X31900Y-29323D02*
X31880Y-29304D01*
X31861Y-29266D01*
X31861Y-29171D01*
X31880Y-29133D01*
X31900Y-29114D01*
X31938Y-29095D01*
X31976Y-29095D01*
X32033Y-29114D01*
X32261Y-29342D01*
X32261Y-29095D01*
X32761Y-29342D02*
X32761Y-29095D01*
X32914Y-29228D01*
X32914Y-29171D01*
X32933Y-29133D01*
X32952Y-29114D01*
X32990Y-29095D01*
X33085Y-29095D01*
X33123Y-29114D01*
X33142Y-29133D01*
X33161Y-29171D01*
X33161Y-29285D01*
X33142Y-29323D01*
X33123Y-29342D01*
X33895Y-29133D02*
X34161Y-29133D01*
X33742Y-29228D02*
X34028Y-29323D01*
X34028Y-29076D01*
X34861Y-29114D02*
X34861Y-29304D01*
X35052Y-29323D01*
X35033Y-29304D01*
X35014Y-29266D01*
X35014Y-29171D01*
X35033Y-29133D01*
X35052Y-29114D01*
X35090Y-29095D01*
X35185Y-29095D01*
X35223Y-29114D01*
X35242Y-29133D01*
X35261Y-29171D01*
X35261Y-29266D01*
X35242Y-29304D01*
X35223Y-29323D01*
X35161Y-13428D02*
X34971Y-13561D01*
X35161Y-13657D02*
X34761Y-13657D01*
X34761Y-13504D01*
X34780Y-13466D01*
X34800Y-13447D01*
X34838Y-13428D01*
X34895Y-13428D01*
X34933Y-13447D01*
X34952Y-13466D01*
X34971Y-13504D01*
X34971Y-13657D01*
X34761Y-13295D02*
X35161Y-13028D01*
X34761Y-13028D02*
X35161Y-13295D01*
X34895Y-12571D02*
X35009Y-12876D01*
X35123Y-12571D01*
X35009Y-12380D02*
X35009Y-12076D01*
X34761Y-11809D02*
X34761Y-11771D01*
X34780Y-11733D01*
X34800Y-11714D01*
X34838Y-11695D01*
X34914Y-11676D01*
X35009Y-11676D01*
X35085Y-11695D01*
X35123Y-11714D01*
X35142Y-11733D01*
X35161Y-11771D01*
X35161Y-11809D01*
X35142Y-11847D01*
X35123Y-11866D01*
X35085Y-11885D01*
X35009Y-11904D01*
X34914Y-11904D01*
X34838Y-11885D01*
X34800Y-11866D01*
X34780Y-11847D01*
X34761Y-11809D01*
X33761Y-13619D02*
X33761Y-13390D01*
X34161Y-13504D02*
X33761Y-13504D01*
X33761Y-13295D02*
X34161Y-13028D01*
X33761Y-13028D02*
X34161Y-13295D01*
X34009Y-12876D02*
X34009Y-12571D01*
X33895Y-12380D02*
X34009Y-12076D01*
X34123Y-12380D01*
X34161Y-11676D02*
X34161Y-11904D01*
X34161Y-11790D02*
X33761Y-11790D01*
X33819Y-11828D01*
X33857Y-11866D01*
X33876Y-11904D01*
X32800Y-11904D02*
X32780Y-11885D01*
X32761Y-11847D01*
X32761Y-11752D01*
X32780Y-11714D01*
X32800Y-11695D01*
X32838Y-11676D01*
X32876Y-11676D01*
X32933Y-11695D01*
X33161Y-11923D01*
X33161Y-11676D01*
X32009Y-12380D02*
X32009Y-12076D01*
X31761Y-11923D02*
X31761Y-11676D01*
X31914Y-11809D01*
X31914Y-11752D01*
X31933Y-11714D01*
X31952Y-11695D01*
X31990Y-11676D01*
X32085Y-11676D01*
X32123Y-11695D01*
X32142Y-11714D01*
X32161Y-11752D01*
X32161Y-11866D01*
X32142Y-11904D01*
X32123Y-11923D01*
X30895Y-11714D02*
X31161Y-11714D01*
X30742Y-11809D02*
X31028Y-11904D01*
X31028Y-11657D01*
X30009Y-12380D02*
X30009Y-12076D01*
X29761Y-11695D02*
X29761Y-11885D01*
X29952Y-11904D01*
X29933Y-11885D01*
X29914Y-11847D01*
X29914Y-11752D01*
X29933Y-11714D01*
X29952Y-11695D01*
X29990Y-11676D01*
X30085Y-11676D01*
X30123Y-11695D01*
X30142Y-11714D01*
X30161Y-11752D01*
X30161Y-11847D01*
X30142Y-11885D01*
X30123Y-11904D01*
X29009Y-12380D02*
X29009Y-12076D01*
X28761Y-11714D02*
X28761Y-11790D01*
X28780Y-11828D01*
X28800Y-11847D01*
X28857Y-11885D01*
X28933Y-11904D01*
X29085Y-11904D01*
X29123Y-11885D01*
X29142Y-11866D01*
X29161Y-11828D01*
X29161Y-11752D01*
X29142Y-11714D01*
X29123Y-11695D01*
X29085Y-11676D01*
X28990Y-11676D01*
X28952Y-11695D01*
X28933Y-11714D01*
X28914Y-11752D01*
X28914Y-11828D01*
X28933Y-11866D01*
X28952Y-11885D01*
X28990Y-11904D01*
X27761Y-11923D02*
X27761Y-11657D01*
X28161Y-11828D01*
X26333Y-11828D02*
X26314Y-11866D01*
X26295Y-11885D01*
X26257Y-11904D01*
X26238Y-11904D01*
X26200Y-11885D01*
X26180Y-11866D01*
X26161Y-11828D01*
X26161Y-11752D01*
X26180Y-11714D01*
X26200Y-11695D01*
X26238Y-11676D01*
X26257Y-11676D01*
X26295Y-11695D01*
X26314Y-11714D01*
X26333Y-11752D01*
X26333Y-11828D01*
X26352Y-11866D01*
X26371Y-11885D01*
X26409Y-11904D01*
X26485Y-11904D01*
X26523Y-11885D01*
X26542Y-11866D01*
X26561Y-11828D01*
X26561Y-11752D01*
X26542Y-11714D01*
X26523Y-11695D01*
X26485Y-11676D01*
X26409Y-11676D01*
X26371Y-11695D01*
X26352Y-11714D01*
X26333Y-11752D01*
X25409Y-12380D02*
X25409Y-12076D01*
X25561Y-11866D02*
X25561Y-11790D01*
X25542Y-11752D01*
X25523Y-11733D01*
X25466Y-11695D01*
X25390Y-11676D01*
X25238Y-11676D01*
X25200Y-11695D01*
X25180Y-11714D01*
X25161Y-11752D01*
X25161Y-11828D01*
X25180Y-11866D01*
X25200Y-11885D01*
X25238Y-11904D01*
X25333Y-11904D01*
X25371Y-11885D01*
X25390Y-11866D01*
X25409Y-11828D01*
X25409Y-11752D01*
X25390Y-11714D01*
X25371Y-11695D01*
X25333Y-11676D01*
X24409Y-12761D02*
X24409Y-12457D01*
X24561Y-12057D02*
X24561Y-12285D01*
X24561Y-12171D02*
X24161Y-12171D01*
X24219Y-12209D01*
X24257Y-12247D01*
X24276Y-12285D01*
X24161Y-11809D02*
X24161Y-11771D01*
X24180Y-11733D01*
X24200Y-11714D01*
X24238Y-11695D01*
X24314Y-11676D01*
X24409Y-11676D01*
X24485Y-11695D01*
X24523Y-11714D01*
X24542Y-11733D01*
X24561Y-11771D01*
X24561Y-11809D01*
X24542Y-11847D01*
X24523Y-11866D01*
X24485Y-11885D01*
X24409Y-11904D01*
X24314Y-11904D01*
X24238Y-11885D01*
X24200Y-11866D01*
X24180Y-11847D01*
X24161Y-11809D01*
X23409Y-12761D02*
X23409Y-12457D01*
X23561Y-12057D02*
X23561Y-12285D01*
X23561Y-12171D02*
X23161Y-12171D01*
X23219Y-12209D01*
X23257Y-12247D01*
X23276Y-12285D01*
X23561Y-11676D02*
X23561Y-11904D01*
X23561Y-11790D02*
X23161Y-11790D01*
X23219Y-11828D01*
X23257Y-11866D01*
X23276Y-11904D01*
X22561Y-12057D02*
X22561Y-12285D01*
X22561Y-12171D02*
X22161Y-12171D01*
X22219Y-12209D01*
X22257Y-12247D01*
X22276Y-12285D01*
X22200Y-11904D02*
X22180Y-11885D01*
X22161Y-11847D01*
X22161Y-11752D01*
X22180Y-11714D01*
X22200Y-11695D01*
X22238Y-11676D01*
X22276Y-11676D01*
X22333Y-11695D01*
X22561Y-11923D01*
X22561Y-11676D01*
X21561Y-12057D02*
X21561Y-12285D01*
X21561Y-12171D02*
X21161Y-12171D01*
X21219Y-12209D01*
X21257Y-12247D01*
X21276Y-12285D01*
X21161Y-11923D02*
X21161Y-11676D01*
X21314Y-11809D01*
X21314Y-11752D01*
X21333Y-11714D01*
X21352Y-11695D01*
X21390Y-11676D01*
X21485Y-11676D01*
X21523Y-11695D01*
X21542Y-11714D01*
X21561Y-11752D01*
X21561Y-11866D01*
X21542Y-11904D01*
X21523Y-11923D01*
X20180Y-12514D02*
X20161Y-12552D01*
X20161Y-12609D01*
X20180Y-12666D01*
X20219Y-12704D01*
X20257Y-12723D01*
X20333Y-12742D01*
X20390Y-12742D01*
X20466Y-12723D01*
X20504Y-12704D01*
X20542Y-12666D01*
X20561Y-12609D01*
X20561Y-12571D01*
X20542Y-12514D01*
X20523Y-12495D01*
X20390Y-12495D01*
X20390Y-12571D01*
X20561Y-12323D02*
X20161Y-12323D01*
X20561Y-12095D01*
X20161Y-12095D01*
X20561Y-11904D02*
X20161Y-11904D01*
X20161Y-11809D01*
X20180Y-11752D01*
X20219Y-11714D01*
X20257Y-11695D01*
X20333Y-11676D01*
X20390Y-11676D01*
X20466Y-11695D01*
X20504Y-11714D01*
X20542Y-11752D01*
X20561Y-11809D01*
X20561Y-11904D01*
X19447Y-12971D02*
X19447Y-12780D01*
X19561Y-13009D02*
X19161Y-12876D01*
X19561Y-12742D01*
X19561Y-12380D02*
X19371Y-12514D01*
X19561Y-12609D02*
X19161Y-12609D01*
X19161Y-12457D01*
X19180Y-12419D01*
X19200Y-12400D01*
X19238Y-12380D01*
X19295Y-12380D01*
X19333Y-12400D01*
X19352Y-12419D01*
X19371Y-12457D01*
X19371Y-12609D01*
X19352Y-12209D02*
X19352Y-12076D01*
X19561Y-12019D02*
X19561Y-12209D01*
X19161Y-12209D01*
X19161Y-12019D01*
X19352Y-11714D02*
X19352Y-11847D01*
X19561Y-11847D02*
X19161Y-11847D01*
X19161Y-11657D01*
G54D15*
X35902Y-22807D02*
X35902Y-23092D01*
X35902Y-22950D02*
X35402Y-22950D01*
X35473Y-22997D01*
X35521Y-23045D01*
X35545Y-23092D01*
X16702Y-18457D02*
X16702Y-18742D01*
X16702Y-18600D02*
X16202Y-18600D01*
X16273Y-18647D01*
X16321Y-18695D01*
X16345Y-18742D01*
X35152Y-17807D02*
X35152Y-18092D01*
X35152Y-17950D02*
X34652Y-17950D01*
X34723Y-17997D01*
X34771Y-18045D01*
X34795Y-18092D01*
G54D11*
X15700Y-11800D02*
X18700Y-11800D01*
X18700Y-13800D02*
X15700Y-13800D01*
X15700Y-13800D02*
X15700Y-11800D01*
X18700Y-11800D02*
X18700Y-13800D01*
G54D16*
X13505Y-17398D02*
X13505Y-14602D01*
X13505Y-14602D02*
X9883Y-14602D01*
X9883Y-14602D02*
X9883Y-17398D01*
X9883Y-17398D02*
X13505Y-17398D01*
G54D10*
X13090Y-11550D02*
G75*
G03X13090Y-11550I-590J0D01*
G74*
G01*
X11279Y-10368D02*
X13720Y-10368D01*
X13720Y-10368D02*
X13720Y-12731D01*
X13720Y-12731D02*
X11279Y-12731D01*
X11279Y-12731D02*
X11279Y-10368D01*
G54D14*
X19000Y-25600D02*
X18300Y-25600D01*
X18300Y-25600D02*
X18300Y-24400D01*
X18300Y-24400D02*
X19000Y-24400D01*
X19000Y-24400D02*
X19000Y-25600D01*
G54D11*
X13650Y-25550D02*
X14850Y-25550D01*
X14850Y-25550D02*
X14850Y-22750D01*
X14850Y-22750D02*
X13650Y-22750D01*
X12450Y-25550D02*
X12150Y-25550D01*
X12150Y-25550D02*
X11250Y-24950D01*
X11250Y-24950D02*
X11250Y-23350D01*
X11250Y-23350D02*
X12150Y-22750D01*
X12150Y-22750D02*
X12450Y-22750D01*
G54D14*
X10820Y-19150D02*
G75*
G03X10820Y-19150I-70J0D01*
G74*
G01*
X10800Y-21050D02*
X10800Y-21700D01*
X10800Y-21700D02*
X12400Y-21700D01*
X12400Y-21700D02*
X12400Y-21050D01*
X12400Y-19850D02*
X12400Y-19200D01*
X12400Y-19200D02*
X10800Y-19200D01*
X10800Y-19200D02*
X10800Y-19850D01*
X33850Y-19000D02*
X33850Y-18900D01*
X33850Y-18900D02*
X32950Y-18900D01*
X32950Y-18900D02*
X32950Y-19000D01*
X33850Y-19000D02*
X32950Y-19000D01*
X32950Y-19000D02*
X32950Y-19650D01*
X33850Y-20350D02*
X33850Y-21000D01*
X33850Y-21000D02*
X32950Y-21000D01*
X32950Y-21000D02*
X32950Y-20350D01*
X33850Y-19650D02*
X33850Y-19000D01*
X14700Y-13800D02*
X14700Y-13900D01*
X14700Y-13900D02*
X15600Y-13900D01*
X15600Y-13900D02*
X15600Y-13800D01*
X14700Y-13800D02*
X15600Y-13800D01*
X15600Y-13800D02*
X15600Y-13150D01*
X14700Y-12450D02*
X14700Y-11800D01*
X14700Y-11800D02*
X15600Y-11800D01*
X15600Y-11800D02*
X15600Y-12450D01*
X14700Y-13150D02*
X14700Y-13800D01*
G54D17*
X21197Y-19756D02*
X21472Y-19756D01*
X20803Y-19756D02*
X20528Y-19756D01*
X21197Y-19244D02*
X21472Y-19244D01*
X20528Y-19244D02*
X20803Y-19244D01*
X21472Y-19250D02*
X21472Y-19750D01*
X20528Y-19750D02*
X20528Y-19250D01*
X21197Y-18856D02*
X21472Y-18856D01*
X20803Y-18856D02*
X20528Y-18856D01*
X21197Y-18344D02*
X21472Y-18344D01*
X20528Y-18344D02*
X20803Y-18344D01*
X21472Y-18350D02*
X21472Y-18850D01*
X20528Y-18850D02*
X20528Y-18350D01*
X14803Y-14244D02*
X14528Y-14244D01*
X15197Y-14244D02*
X15472Y-14244D01*
X14803Y-14756D02*
X14528Y-14756D01*
X15472Y-14756D02*
X15197Y-14756D01*
X14528Y-14750D02*
X14528Y-14250D01*
X15472Y-14250D02*
X15472Y-14750D01*
X17506Y-24803D02*
X17506Y-24528D01*
X17506Y-25197D02*
X17506Y-25472D01*
X16994Y-24803D02*
X16994Y-24528D01*
X16994Y-25472D02*
X16994Y-25197D01*
X17000Y-24528D02*
X17500Y-24528D01*
X17500Y-25472D02*
X17000Y-25472D01*
X18947Y-19606D02*
X19222Y-19606D01*
X18553Y-19606D02*
X18278Y-19606D01*
X18947Y-19094D02*
X19222Y-19094D01*
X18278Y-19094D02*
X18553Y-19094D01*
X19222Y-19100D02*
X19222Y-19600D01*
X18278Y-19600D02*
X18278Y-19100D01*
X19794Y-25147D02*
X19794Y-25422D01*
X19794Y-24753D02*
X19794Y-24478D01*
X20306Y-25147D02*
X20306Y-25422D01*
X20306Y-24478D02*
X20306Y-24753D01*
X20300Y-25422D02*
X19800Y-25422D01*
X19800Y-24478D02*
X20300Y-24478D01*
X14947Y-19456D02*
X15222Y-19456D01*
X14553Y-19456D02*
X14278Y-19456D01*
X14947Y-18944D02*
X15222Y-18944D01*
X14278Y-18944D02*
X14553Y-18944D01*
X15222Y-18950D02*
X15222Y-19450D01*
X14278Y-19450D02*
X14278Y-18950D01*
X27297Y-27156D02*
X27572Y-27156D01*
X26903Y-27156D02*
X26628Y-27156D01*
X27297Y-26644D02*
X27572Y-26644D01*
X26628Y-26644D02*
X26903Y-26644D01*
X27572Y-26650D02*
X27572Y-27150D01*
X26628Y-27150D02*
X26628Y-26650D01*
X16103Y-19094D02*
X15828Y-19094D01*
X16497Y-19094D02*
X16772Y-19094D01*
X16103Y-19606D02*
X15828Y-19606D01*
X16772Y-19606D02*
X16497Y-19606D01*
X15828Y-19600D02*
X15828Y-19100D01*
X16772Y-19100D02*
X16772Y-19600D01*
G54D14*
X15450Y-15750D02*
X14550Y-15750D01*
X14550Y-15750D02*
X14550Y-15250D01*
X14550Y-15250D02*
X15450Y-15250D01*
X15450Y-15250D02*
X15450Y-15750D01*
X15450Y-18000D02*
X14550Y-18000D01*
X14550Y-18000D02*
X14550Y-17500D01*
X14550Y-17500D02*
X15450Y-17500D01*
X15450Y-17500D02*
X15450Y-18000D01*
X25800Y-21800D02*
X26700Y-21800D01*
X26700Y-21800D02*
X26700Y-22300D01*
X26700Y-22300D02*
X25800Y-22300D01*
X25800Y-22300D02*
X25800Y-21800D01*
G54D18*
X16700Y-15800D02*
X16700Y-13800D01*
X16700Y-13800D02*
X18700Y-13800D01*
X18700Y-13800D02*
X18700Y-15800D01*
X18700Y-15800D02*
X16700Y-15800D01*
G54D19*
X20823Y-16777D02*
X20823Y-16423D01*
X20823Y-16423D02*
X20666Y-16423D01*
X20666Y-16777D02*
X20666Y-16423D01*
X20823Y-16777D02*
X20666Y-16777D01*
X21334Y-16777D02*
X21334Y-16423D01*
X21334Y-16423D02*
X21177Y-16423D01*
X21177Y-16777D02*
X21177Y-16423D01*
X21334Y-16777D02*
X21177Y-16777D01*
X21000Y-16777D02*
X21000Y-16718D01*
X21000Y-16718D02*
X20882Y-16718D01*
X20882Y-16777D02*
X20882Y-16718D01*
X21000Y-16777D02*
X20882Y-16777D01*
X21000Y-16482D02*
X21000Y-16423D01*
X21000Y-16423D02*
X20882Y-16423D01*
X20882Y-16482D02*
X20882Y-16423D01*
X21000Y-16482D02*
X20882Y-16482D01*
X21000Y-16659D02*
X21000Y-16541D01*
X21000Y-16541D02*
X20882Y-16541D01*
X20882Y-16659D02*
X20882Y-16541D01*
X21000Y-16659D02*
X20882Y-16659D01*
G54D13*
X20823Y-16757D02*
X21177Y-16757D01*
X20823Y-16443D02*
X21177Y-16443D01*
G54D19*
X21177Y-14223D02*
X21177Y-14577D01*
X21177Y-14577D02*
X21334Y-14577D01*
X21334Y-14223D02*
X21334Y-14577D01*
X21177Y-14223D02*
X21334Y-14223D01*
X20666Y-14223D02*
X20666Y-14577D01*
X20666Y-14577D02*
X20823Y-14577D01*
X20823Y-14223D02*
X20823Y-14577D01*
X20666Y-14223D02*
X20823Y-14223D01*
X21000Y-14223D02*
X21000Y-14282D01*
X21000Y-14282D02*
X21118Y-14282D01*
X21118Y-14223D02*
X21118Y-14282D01*
X21000Y-14223D02*
X21118Y-14223D01*
X21000Y-14518D02*
X21000Y-14577D01*
X21000Y-14577D02*
X21118Y-14577D01*
X21118Y-14518D02*
X21118Y-14577D01*
X21000Y-14518D02*
X21118Y-14518D01*
X21000Y-14341D02*
X21000Y-14459D01*
X21000Y-14459D02*
X21118Y-14459D01*
X21118Y-14341D02*
X21118Y-14459D01*
X21000Y-14341D02*
X21118Y-14341D01*
G54D13*
X21177Y-14243D02*
X20823Y-14243D01*
X21177Y-14557D02*
X20823Y-14557D01*
G54D19*
X20823Y-17677D02*
X20823Y-17323D01*
X20823Y-17323D02*
X20666Y-17323D01*
X20666Y-17677D02*
X20666Y-17323D01*
X20823Y-17677D02*
X20666Y-17677D01*
X21334Y-17677D02*
X21334Y-17323D01*
X21334Y-17323D02*
X21177Y-17323D01*
X21177Y-17677D02*
X21177Y-17323D01*
X21334Y-17677D02*
X21177Y-17677D01*
X21000Y-17677D02*
X21000Y-17618D01*
X21000Y-17618D02*
X20882Y-17618D01*
X20882Y-17677D02*
X20882Y-17618D01*
X21000Y-17677D02*
X20882Y-17677D01*
X21000Y-17382D02*
X21000Y-17323D01*
X21000Y-17323D02*
X20882Y-17323D01*
X20882Y-17382D02*
X20882Y-17323D01*
X21000Y-17382D02*
X20882Y-17382D01*
X21000Y-17559D02*
X21000Y-17441D01*
X21000Y-17441D02*
X20882Y-17441D01*
X20882Y-17559D02*
X20882Y-17441D01*
X21000Y-17559D02*
X20882Y-17559D01*
G54D13*
X20823Y-17657D02*
X21177Y-17657D01*
X20823Y-17343D02*
X21177Y-17343D01*
G54D19*
X33177Y-16423D02*
X33177Y-16777D01*
X33177Y-16777D02*
X33334Y-16777D01*
X33334Y-16423D02*
X33334Y-16777D01*
X33177Y-16423D02*
X33334Y-16423D01*
X32666Y-16423D02*
X32666Y-16777D01*
X32666Y-16777D02*
X32823Y-16777D01*
X32823Y-16423D02*
X32823Y-16777D01*
X32666Y-16423D02*
X32823Y-16423D01*
X33000Y-16423D02*
X33000Y-16482D01*
X33000Y-16482D02*
X33118Y-16482D01*
X33118Y-16423D02*
X33118Y-16482D01*
X33000Y-16423D02*
X33118Y-16423D01*
X33000Y-16718D02*
X33000Y-16777D01*
X33000Y-16777D02*
X33118Y-16777D01*
X33118Y-16718D02*
X33118Y-16777D01*
X33000Y-16718D02*
X33118Y-16718D01*
X33000Y-16541D02*
X33000Y-16659D01*
X33000Y-16659D02*
X33118Y-16659D01*
X33118Y-16541D02*
X33118Y-16659D01*
X33000Y-16541D02*
X33118Y-16541D01*
G54D13*
X33177Y-16443D02*
X32823Y-16443D01*
X33177Y-16757D02*
X32823Y-16757D01*
G54D14*
X20606Y-19944D02*
X21383Y-19944D01*
X21383Y-19944D02*
X21383Y-20545D01*
X21383Y-20545D02*
X20606Y-20545D01*
X20606Y-20545D02*
X20606Y-19944D01*
G54D20*
X16200Y-21700D02*
X18700Y-21700D01*
X16200Y-19700D02*
X18700Y-19700D01*
X19700Y-20700D02*
G75*
G03X18700Y-19700I-1000J0D01*
G74*
G01*
X18700Y-21700D02*
G75*
G03X19700Y-20700I0J1000D01*
G74*
G01*
X16200Y-19700D02*
G75*
G03X15200Y-20700I0J-1000D01*
G74*
G01*
X15200Y-20700D02*
G75*
G03X16200Y-21700I1000J0D01*
G74*
G01*
G54D10*
X20025Y-29329D02*
X20025Y-30480D01*
X16944Y-29329D02*
X20143Y-29329D01*
X20143Y-29329D02*
X20143Y-30470D01*
X20143Y-30470D02*
X16944Y-30470D01*
X16944Y-30470D02*
X16944Y-29329D01*
G54D16*
X35750Y-25550D02*
X20750Y-25550D01*
X20750Y-25550D02*
X20750Y-23550D01*
X20750Y-23550D02*
X35750Y-23550D01*
X35750Y-23550D02*
X35750Y-25550D01*
X35750Y-25050D02*
X35250Y-25050D01*
X35250Y-25050D02*
X35250Y-24050D01*
X35250Y-24050D02*
X35750Y-24050D01*
G54D14*
X25620Y-20727D02*
X26879Y-20727D01*
X26879Y-20727D02*
X26879Y-21672D01*
X26879Y-21672D02*
X25620Y-21672D01*
X25620Y-21672D02*
X25620Y-20727D01*
X17000Y-28300D02*
X17550Y-28300D01*
X16900Y-28250D02*
X17600Y-28250D01*
X16750Y-28200D02*
X17750Y-28200D01*
X17800Y-28150D02*
X16700Y-28150D01*
X16650Y-28100D02*
X17850Y-28100D01*
X17900Y-28050D02*
X16600Y-28050D01*
X16550Y-28000D02*
X17950Y-28000D01*
X18200Y-27400D02*
G75*
G03X18200Y-27400I-950J0D01*
G74*
G01*
X16200Y-28450D02*
X16200Y-26650D01*
X16200Y-26650D02*
X16500Y-26350D01*
X16500Y-26350D02*
X18000Y-26350D01*
X18000Y-26350D02*
X18300Y-26650D01*
X18300Y-26650D02*
X18300Y-28450D01*
X18300Y-28450D02*
X16200Y-28450D01*
X17250Y-26550D02*
X17250Y-26850D01*
X17100Y-26700D02*
X17400Y-26700D01*
X19800Y-28300D02*
X20350Y-28300D01*
X19700Y-28250D02*
X20400Y-28250D01*
X19550Y-28200D02*
X20550Y-28200D01*
X20600Y-28150D02*
X19500Y-28150D01*
X19450Y-28100D02*
X20650Y-28100D01*
X20700Y-28050D02*
X19400Y-28050D01*
X19350Y-28000D02*
X20750Y-28000D01*
X21000Y-27400D02*
G75*
G03X21000Y-27400I-950J0D01*
G74*
G01*
X19000Y-28450D02*
X19000Y-26650D01*
X19000Y-26650D02*
X19300Y-26350D01*
X19300Y-26350D02*
X20800Y-26350D01*
X20800Y-26350D02*
X21100Y-26650D01*
X21100Y-26650D02*
X21100Y-28450D01*
X21100Y-28450D02*
X19000Y-28450D01*
X20050Y-26550D02*
X20050Y-26850D01*
X19900Y-26700D02*
X20200Y-26700D01*
G54D21*
X18000Y-23400D02*
G75*
G03X18000Y-23400I-100J0D01*
G74*
G01*
X18100Y-22400D02*
X18100Y-23600D01*
X18100Y-23600D02*
X16900Y-23600D01*
X16900Y-23600D02*
X16900Y-22400D01*
X16900Y-22400D02*
X18100Y-22400D01*
G54D22*
X14400Y-18050D02*
G75*
G03X14400Y-18050I-50J0D01*
G74*
G01*
X14350Y-17600D02*
X14350Y-18000D01*
X14350Y-18000D02*
X13750Y-18000D01*
X13750Y-18000D02*
X13750Y-17600D01*
X13750Y-17200D02*
X13750Y-16800D01*
X13750Y-16800D02*
X14350Y-16800D01*
X14350Y-16800D02*
X14350Y-17200D01*
G54D14*
X17950Y-19600D02*
X17050Y-19600D01*
X17050Y-19600D02*
X17050Y-19100D01*
X17050Y-19100D02*
X17950Y-19100D01*
X17950Y-19100D02*
X17950Y-19600D01*
G54D17*
X13350Y-19950D02*
X13350Y-21150D01*
X13350Y-21150D02*
X13050Y-21150D01*
X13050Y-21150D02*
X13050Y-19950D01*
X13050Y-19950D02*
X13350Y-19950D01*
X20597Y-13656D02*
X20872Y-13656D01*
X20203Y-13656D02*
X19928Y-13656D01*
X20597Y-13144D02*
X20872Y-13144D01*
X19928Y-13144D02*
X20203Y-13144D01*
X20872Y-13150D02*
X20872Y-13650D01*
X19928Y-13650D02*
X19928Y-13150D01*
G54D14*
X20540Y-22090D02*
X20540Y-21120D01*
X20540Y-21120D02*
X21460Y-21120D01*
X21460Y-21120D02*
X21460Y-22090D01*
X21460Y-22090D02*
X20540Y-22090D01*
X14590Y-16990D02*
X14590Y-16020D01*
X14590Y-16020D02*
X15510Y-16020D01*
X15510Y-16020D02*
X15510Y-16990D01*
X15510Y-16990D02*
X14590Y-16990D01*
X21460Y-15010D02*
X21460Y-15980D01*
X21460Y-15980D02*
X20540Y-15980D01*
X20540Y-15980D02*
X20540Y-15010D01*
X20540Y-15010D02*
X21460Y-15010D01*
X32540Y-18190D02*
X32540Y-17220D01*
X32540Y-17220D02*
X33460Y-17220D01*
X33460Y-17220D02*
X33460Y-18190D01*
X33460Y-18190D02*
X32540Y-18190D01*
G54D18*
X35400Y-10600D02*
X35400Y-11400D01*
X27600Y-10600D02*
X27600Y-11400D01*
X35400Y-11400D02*
X27600Y-11400D01*
X27600Y-10600D02*
X35400Y-10600D01*
G54D15*
X35550Y-30400D02*
X35550Y-29650D01*
X29550Y-30400D02*
X29550Y-29650D01*
X29550Y-29608D02*
X35550Y-29608D01*
X35550Y-30400D02*
X29550Y-30400D01*
G54D18*
X26800Y-10600D02*
X26800Y-11400D01*
X17000Y-10600D02*
X17000Y-11400D01*
X26800Y-11400D02*
X17000Y-11400D01*
X17000Y-10600D02*
X26800Y-10600D01*
G54D11*
X34550Y-21500D02*
X34550Y-18500D01*
X36550Y-18500D02*
X36550Y-21500D01*
X36550Y-21500D02*
X34550Y-21500D01*
X34550Y-18500D02*
X36550Y-18500D01*
G54D16*
X9200Y-26200D02*
X8900Y-26200D01*
X8900Y-26200D02*
X8900Y-29600D01*
X8900Y-29600D02*
X9200Y-29600D01*
X10400Y-26200D02*
X10400Y-29600D01*
X14200Y-26200D02*
X14200Y-29600D01*
X9200Y-29600D02*
X14200Y-29600D01*
X9200Y-26200D02*
X14200Y-26200D01*
G54D21*
X16650Y-18175D02*
X16650Y-16525D01*
X16650Y-16525D02*
X16650Y-16150D01*
X16650Y-16150D02*
X19050Y-16150D01*
X19050Y-16150D02*
X19050Y-18550D01*
X19050Y-18550D02*
X17025Y-18550D01*
X17025Y-18550D02*
X16650Y-18175D01*
G54D15*
X28550Y-30400D02*
X28550Y-29650D01*
X22550Y-30400D02*
X22550Y-29650D01*
X22550Y-29608D02*
X28550Y-29608D01*
X28550Y-30400D02*
X22550Y-30400D01*
G54D13*
X15909Y-11580D02*
X15909Y-11380D01*
X15995Y-11571D02*
X16023Y-11580D01*
X16071Y-11580D01*
X16090Y-11571D01*
X16100Y-11561D01*
X16109Y-11542D01*
X16109Y-11523D01*
X16100Y-11504D01*
X16090Y-11495D01*
X16071Y-11485D01*
X16033Y-11476D01*
X16014Y-11466D01*
X16004Y-11457D01*
X15995Y-11438D01*
X15995Y-11419D01*
X16004Y-11400D01*
X16014Y-11390D01*
X16033Y-11380D01*
X16080Y-11380D01*
X16109Y-11390D01*
X16309Y-11561D02*
X16300Y-11571D01*
X16271Y-11580D01*
X16252Y-11580D01*
X16223Y-11571D01*
X16204Y-11552D01*
X16195Y-11533D01*
X16185Y-11495D01*
X16185Y-11466D01*
X16195Y-11428D01*
X16204Y-11409D01*
X16223Y-11390D01*
X16252Y-11380D01*
X16271Y-11380D01*
X16300Y-11390D01*
X16309Y-11400D01*
X16395Y-11580D02*
X16395Y-11380D01*
X16471Y-11380D01*
X16490Y-11390D01*
X16500Y-11400D01*
X16509Y-11419D01*
X16509Y-11447D01*
X16500Y-11466D01*
X16490Y-11476D01*
X16471Y-11485D01*
X16395Y-11485D01*
X16585Y-11400D02*
X16595Y-11390D01*
X16614Y-11380D01*
X16661Y-11380D01*
X16680Y-11390D01*
X16690Y-11400D01*
X16700Y-11419D01*
X16700Y-11438D01*
X16690Y-11466D01*
X16576Y-11580D01*
X16700Y-11580D01*
G54D15*
X13682Y-16695D02*
X14046Y-16695D01*
X14089Y-16676D01*
X14110Y-16657D01*
X14132Y-16619D01*
X14132Y-16542D01*
X14110Y-16504D01*
X14089Y-16485D01*
X14046Y-16466D01*
X13682Y-16466D01*
X14110Y-16295D02*
X14132Y-16238D01*
X14132Y-16142D01*
X14110Y-16104D01*
X14089Y-16085D01*
X14046Y-16066D01*
X14003Y-16066D01*
X13960Y-16085D01*
X13939Y-16104D01*
X13917Y-16142D01*
X13896Y-16219D01*
X13875Y-16257D01*
X13853Y-16276D01*
X13810Y-16295D01*
X13767Y-16295D01*
X13725Y-16276D01*
X13703Y-16257D01*
X13682Y-16219D01*
X13682Y-16123D01*
X13703Y-16066D01*
X13896Y-15761D02*
X13917Y-15704D01*
X13939Y-15685D01*
X13982Y-15666D01*
X14046Y-15666D01*
X14089Y-15685D01*
X14110Y-15704D01*
X14132Y-15742D01*
X14132Y-15895D01*
X13682Y-15895D01*
X13682Y-15761D01*
X13703Y-15723D01*
X13725Y-15704D01*
X13767Y-15685D01*
X13810Y-15685D01*
X13853Y-15704D01*
X13875Y-15723D01*
X13896Y-15761D01*
X13896Y-15895D01*
X14132Y-15285D02*
X14132Y-15514D01*
X14132Y-15399D02*
X13682Y-15399D01*
X13746Y-15438D01*
X13789Y-15476D01*
X13810Y-15514D01*
G54D10*
X10609Y-12121D02*
X10421Y-12253D01*
X10609Y-12346D02*
X10215Y-12346D01*
X10215Y-12196D01*
X10234Y-12159D01*
X10253Y-12140D01*
X10290Y-12121D01*
X10346Y-12121D01*
X10384Y-12140D01*
X10403Y-12159D01*
X10421Y-12196D01*
X10421Y-12346D01*
X10403Y-11953D02*
X10403Y-11821D01*
X10609Y-11765D02*
X10609Y-11953D01*
X10215Y-11953D01*
X10215Y-11765D01*
X10590Y-11615D02*
X10609Y-11559D01*
X10609Y-11465D01*
X10590Y-11428D01*
X10571Y-11409D01*
X10534Y-11390D01*
X10496Y-11390D01*
X10459Y-11409D01*
X10440Y-11428D01*
X10421Y-11465D01*
X10403Y-11540D01*
X10384Y-11578D01*
X10365Y-11596D01*
X10328Y-11615D01*
X10290Y-11615D01*
X10253Y-11596D01*
X10234Y-11578D01*
X10215Y-11540D01*
X10215Y-11446D01*
X10234Y-11390D01*
X10403Y-11221D02*
X10403Y-11090D01*
X10609Y-11034D02*
X10609Y-11221D01*
X10215Y-11221D01*
X10215Y-11034D01*
X10215Y-10921D02*
X10215Y-10696D01*
X10609Y-10809D02*
X10215Y-10809D01*
G54D14*
X18501Y-24290D02*
X18703Y-24290D01*
X18727Y-24278D01*
X18739Y-24266D01*
X18751Y-24242D01*
X18751Y-24195D01*
X18739Y-24171D01*
X18727Y-24159D01*
X18703Y-24147D01*
X18501Y-24147D01*
X18525Y-24040D02*
X18513Y-24028D01*
X18501Y-24004D01*
X18501Y-23945D01*
X18513Y-23921D01*
X18525Y-23909D01*
X18548Y-23897D01*
X18572Y-23897D01*
X18608Y-23909D01*
X18751Y-24052D01*
X18751Y-23897D01*
G54D11*
X15161Y-24404D02*
X15485Y-24404D01*
X15523Y-24385D01*
X15542Y-24366D01*
X15561Y-24328D01*
X15561Y-24252D01*
X15542Y-24214D01*
X15523Y-24195D01*
X15485Y-24176D01*
X15161Y-24176D01*
X15561Y-23776D02*
X15561Y-24004D01*
X15561Y-23890D02*
X15161Y-23890D01*
X15219Y-23928D01*
X15257Y-23966D01*
X15276Y-24004D01*
G54D14*
X10402Y-20449D02*
X10402Y-20549D01*
X10611Y-20549D02*
X10211Y-20549D01*
X10211Y-20407D01*
X10611Y-20135D02*
X10611Y-20307D01*
X10611Y-20221D02*
X10211Y-20221D01*
X10269Y-20249D01*
X10307Y-20278D01*
X10326Y-20307D01*
X32621Y-20221D02*
X32321Y-20221D01*
X32321Y-20150D01*
X32335Y-20107D01*
X32364Y-20078D01*
X32392Y-20064D01*
X32450Y-20050D01*
X32492Y-20050D01*
X32550Y-20064D01*
X32578Y-20078D01*
X32607Y-20107D01*
X32621Y-20150D01*
X32621Y-20221D01*
X32350Y-19935D02*
X32335Y-19921D01*
X32321Y-19892D01*
X32321Y-19821D01*
X32335Y-19792D01*
X32350Y-19778D01*
X32378Y-19764D01*
X32407Y-19764D01*
X32450Y-19778D01*
X32621Y-19950D01*
X32621Y-19764D01*
X15321Y-11621D02*
X15021Y-11621D01*
X15021Y-11550D01*
X15035Y-11507D01*
X15064Y-11478D01*
X15092Y-11464D01*
X15150Y-11450D01*
X15192Y-11450D01*
X15250Y-11464D01*
X15278Y-11478D01*
X15307Y-11507D01*
X15321Y-11550D01*
X15321Y-11621D01*
X15021Y-11350D02*
X15021Y-11164D01*
X15135Y-11264D01*
X15135Y-11221D01*
X15150Y-11192D01*
X15164Y-11178D01*
X15192Y-11164D01*
X15264Y-11164D01*
X15292Y-11178D01*
X15307Y-11192D01*
X15321Y-11221D01*
X15321Y-11307D01*
X15307Y-11335D01*
X15292Y-11350D01*
G54D23*
X21811Y-19530D02*
X21821Y-19538D01*
X21830Y-19564D01*
X21830Y-19581D01*
X21821Y-19607D01*
X21802Y-19624D01*
X21783Y-19632D01*
X21745Y-19641D01*
X21716Y-19641D01*
X21678Y-19632D01*
X21659Y-19624D01*
X21640Y-19607D01*
X21630Y-19581D01*
X21630Y-19564D01*
X21640Y-19538D01*
X21650Y-19530D01*
X21630Y-19367D02*
X21630Y-19452D01*
X21726Y-19461D01*
X21716Y-19452D01*
X21707Y-19435D01*
X21707Y-19392D01*
X21716Y-19375D01*
X21726Y-19367D01*
X21745Y-19358D01*
X21792Y-19358D01*
X21811Y-19367D01*
X21821Y-19375D01*
X21830Y-19392D01*
X21830Y-19435D01*
X21821Y-19452D01*
X21811Y-19461D01*
X21811Y-18630D02*
X21821Y-18638D01*
X21830Y-18664D01*
X21830Y-18681D01*
X21821Y-18707D01*
X21802Y-18724D01*
X21783Y-18732D01*
X21745Y-18741D01*
X21716Y-18741D01*
X21678Y-18732D01*
X21659Y-18724D01*
X21640Y-18707D01*
X21630Y-18681D01*
X21630Y-18664D01*
X21640Y-18638D01*
X21650Y-18630D01*
X21630Y-18570D02*
X21630Y-18450D01*
X21830Y-18527D01*
X15761Y-14530D02*
X15771Y-14538D01*
X15780Y-14564D01*
X15780Y-14581D01*
X15771Y-14607D01*
X15752Y-14624D01*
X15733Y-14632D01*
X15695Y-14641D01*
X15666Y-14641D01*
X15628Y-14632D01*
X15609Y-14624D01*
X15590Y-14607D01*
X15580Y-14581D01*
X15580Y-14564D01*
X15590Y-14538D01*
X15600Y-14530D01*
X15666Y-14427D02*
X15657Y-14444D01*
X15647Y-14452D01*
X15628Y-14461D01*
X15619Y-14461D01*
X15600Y-14452D01*
X15590Y-14444D01*
X15580Y-14427D01*
X15580Y-14392D01*
X15590Y-14375D01*
X15600Y-14367D01*
X15619Y-14358D01*
X15628Y-14358D01*
X15647Y-14367D01*
X15657Y-14375D01*
X15666Y-14392D01*
X15666Y-14427D01*
X15676Y-14444D01*
X15685Y-14452D01*
X15704Y-14461D01*
X15742Y-14461D01*
X15761Y-14452D01*
X15771Y-14444D01*
X15780Y-14427D01*
X15780Y-14392D01*
X15771Y-14375D01*
X15761Y-14367D01*
X15742Y-14358D01*
X15704Y-14358D01*
X15685Y-14367D01*
X15676Y-14375D01*
X15666Y-14392D01*
X17311Y-24280D02*
X17321Y-24288D01*
X17330Y-24314D01*
X17330Y-24331D01*
X17321Y-24357D01*
X17302Y-24374D01*
X17283Y-24382D01*
X17245Y-24391D01*
X17216Y-24391D01*
X17178Y-24382D01*
X17159Y-24374D01*
X17140Y-24357D01*
X17130Y-24331D01*
X17130Y-24314D01*
X17140Y-24288D01*
X17150Y-24280D01*
X17330Y-24108D02*
X17330Y-24211D01*
X17330Y-24160D02*
X17130Y-24160D01*
X17159Y-24177D01*
X17178Y-24194D01*
X17188Y-24211D01*
X19161Y-18880D02*
X19171Y-18888D01*
X19180Y-18914D01*
X19180Y-18931D01*
X19171Y-18957D01*
X19152Y-18974D01*
X19133Y-18982D01*
X19095Y-18991D01*
X19066Y-18991D01*
X19028Y-18982D01*
X19009Y-18974D01*
X18990Y-18957D01*
X18980Y-18931D01*
X18980Y-18914D01*
X18990Y-18888D01*
X19000Y-18880D01*
X19180Y-18794D02*
X19180Y-18760D01*
X19171Y-18742D01*
X19161Y-18734D01*
X19133Y-18717D01*
X19095Y-18708D01*
X19019Y-18708D01*
X19000Y-18717D01*
X18990Y-18725D01*
X18980Y-18742D01*
X18980Y-18777D01*
X18990Y-18794D01*
X19000Y-18802D01*
X19019Y-18811D01*
X19066Y-18811D01*
X19085Y-18802D01*
X19095Y-18794D01*
X19104Y-18777D01*
X19104Y-18742D01*
X19095Y-18725D01*
X19085Y-18717D01*
X19066Y-18708D01*
X20161Y-24230D02*
X20171Y-24238D01*
X20180Y-24264D01*
X20180Y-24281D01*
X20171Y-24307D01*
X20152Y-24324D01*
X20133Y-24332D01*
X20095Y-24341D01*
X20066Y-24341D01*
X20028Y-24332D01*
X20009Y-24324D01*
X19990Y-24307D01*
X19980Y-24281D01*
X19980Y-24264D01*
X19990Y-24238D01*
X20000Y-24230D01*
X19980Y-24170D02*
X19980Y-24058D01*
X20057Y-24118D01*
X20057Y-24092D01*
X20066Y-24075D01*
X20076Y-24067D01*
X20095Y-24058D01*
X20142Y-24058D01*
X20161Y-24067D01*
X20171Y-24075D01*
X20180Y-24092D01*
X20180Y-24144D01*
X20171Y-24161D01*
X20161Y-24170D01*
X14861Y-19780D02*
X14871Y-19788D01*
X14880Y-19814D01*
X14880Y-19831D01*
X14871Y-19857D01*
X14852Y-19874D01*
X14833Y-19882D01*
X14795Y-19891D01*
X14766Y-19891D01*
X14728Y-19882D01*
X14709Y-19874D01*
X14690Y-19857D01*
X14680Y-19831D01*
X14680Y-19814D01*
X14690Y-19788D01*
X14700Y-19780D01*
X14700Y-19711D02*
X14690Y-19702D01*
X14680Y-19685D01*
X14680Y-19642D01*
X14690Y-19625D01*
X14700Y-19617D01*
X14719Y-19608D01*
X14738Y-19608D01*
X14766Y-19617D01*
X14880Y-19720D01*
X14880Y-19608D01*
X27911Y-26930D02*
X27921Y-26938D01*
X27930Y-26964D01*
X27930Y-26981D01*
X27921Y-27007D01*
X27902Y-27024D01*
X27883Y-27032D01*
X27845Y-27041D01*
X27816Y-27041D01*
X27778Y-27032D01*
X27759Y-27024D01*
X27740Y-27007D01*
X27730Y-26981D01*
X27730Y-26964D01*
X27740Y-26938D01*
X27750Y-26930D01*
X27730Y-26775D02*
X27730Y-26810D01*
X27740Y-26827D01*
X27750Y-26835D01*
X27778Y-26852D01*
X27816Y-26861D01*
X27892Y-26861D01*
X27911Y-26852D01*
X27921Y-26844D01*
X27930Y-26827D01*
X27930Y-26792D01*
X27921Y-26775D01*
X27911Y-26767D01*
X27892Y-26758D01*
X27845Y-26758D01*
X27826Y-26767D01*
X27816Y-26775D01*
X27807Y-26792D01*
X27807Y-26827D01*
X27816Y-26844D01*
X27826Y-26852D01*
X27845Y-26861D01*
X15661Y-19465D02*
X15671Y-19474D01*
X15680Y-19500D01*
X15680Y-19517D01*
X15671Y-19542D01*
X15652Y-19560D01*
X15633Y-19568D01*
X15595Y-19577D01*
X15566Y-19577D01*
X15528Y-19568D01*
X15509Y-19560D01*
X15490Y-19542D01*
X15480Y-19517D01*
X15480Y-19500D01*
X15490Y-19474D01*
X15500Y-19465D01*
X15680Y-19294D02*
X15680Y-19397D01*
X15680Y-19345D02*
X15480Y-19345D01*
X15509Y-19362D01*
X15528Y-19380D01*
X15538Y-19397D01*
X15680Y-19122D02*
X15680Y-19225D01*
X15680Y-19174D02*
X15480Y-19174D01*
X15509Y-19191D01*
X15528Y-19208D01*
X15538Y-19225D01*
X15580Y-15645D02*
X15580Y-15525D01*
X15780Y-15645D01*
X15780Y-15525D01*
X15600Y-15465D02*
X15590Y-15457D01*
X15580Y-15440D01*
X15580Y-15397D01*
X15590Y-15380D01*
X15600Y-15371D01*
X15619Y-15362D01*
X15638Y-15362D01*
X15666Y-15371D01*
X15780Y-15474D01*
X15780Y-15362D01*
X15580Y-17845D02*
X15580Y-17725D01*
X15780Y-17845D01*
X15780Y-17725D01*
X15780Y-17562D02*
X15780Y-17665D01*
X15780Y-17614D02*
X15580Y-17614D01*
X15609Y-17631D01*
X15628Y-17648D01*
X15638Y-17665D01*
X27080Y-22080D02*
X26985Y-22140D01*
X27080Y-22182D02*
X26880Y-22182D01*
X26880Y-22114D01*
X26890Y-22097D01*
X26900Y-22088D01*
X26919Y-22080D01*
X26947Y-22080D01*
X26966Y-22088D01*
X26976Y-22097D01*
X26985Y-22114D01*
X26985Y-22182D01*
X26900Y-22011D02*
X26890Y-22002D01*
X26880Y-21985D01*
X26880Y-21942D01*
X26890Y-21925D01*
X26900Y-21917D01*
X26919Y-21908D01*
X26938Y-21908D01*
X26966Y-21917D01*
X27080Y-22020D01*
X27080Y-21908D01*
G54D11*
X18916Y-15168D02*
X19202Y-15168D01*
X19259Y-15187D01*
X19297Y-15225D01*
X19316Y-15282D01*
X19316Y-15320D01*
X19316Y-14977D02*
X18916Y-14977D01*
X18916Y-14825D01*
X18935Y-14787D01*
X18955Y-14768D01*
X18993Y-14749D01*
X19050Y-14749D01*
X19088Y-14768D01*
X19107Y-14787D01*
X19126Y-14825D01*
X19126Y-14977D01*
X18955Y-14596D02*
X18935Y-14577D01*
X18916Y-14539D01*
X18916Y-14444D01*
X18935Y-14406D01*
X18955Y-14387D01*
X18993Y-14368D01*
X19031Y-14368D01*
X19088Y-14387D01*
X19316Y-14615D01*
X19316Y-14368D01*
G54D14*
X21830Y-16773D02*
X21830Y-16869D01*
X21630Y-16869D01*
X21726Y-16707D02*
X21726Y-16640D01*
X21830Y-16611D02*
X21830Y-16707D01*
X21630Y-16707D01*
X21630Y-16611D01*
X21830Y-16526D02*
X21630Y-16526D01*
X21630Y-16478D01*
X21640Y-16450D01*
X21659Y-16430D01*
X21678Y-16421D01*
X21716Y-16411D01*
X21745Y-16411D01*
X21783Y-16421D01*
X21802Y-16430D01*
X21821Y-16450D01*
X21830Y-16478D01*
X21830Y-16526D01*
X21630Y-16345D02*
X21630Y-16221D01*
X21707Y-16288D01*
X21707Y-16259D01*
X21716Y-16240D01*
X21726Y-16230D01*
X21745Y-16221D01*
X21792Y-16221D01*
X21811Y-16230D01*
X21821Y-16240D01*
X21830Y-16259D01*
X21830Y-16316D01*
X21821Y-16335D01*
X21811Y-16345D01*
X21830Y-14623D02*
X21830Y-14719D01*
X21630Y-14719D01*
X21726Y-14557D02*
X21726Y-14490D01*
X21830Y-14461D02*
X21830Y-14557D01*
X21630Y-14557D01*
X21630Y-14461D01*
X21830Y-14376D02*
X21630Y-14376D01*
X21630Y-14328D01*
X21640Y-14300D01*
X21659Y-14280D01*
X21678Y-14271D01*
X21716Y-14261D01*
X21745Y-14261D01*
X21783Y-14271D01*
X21802Y-14280D01*
X21821Y-14300D01*
X21830Y-14328D01*
X21830Y-14376D01*
X21650Y-14185D02*
X21640Y-14176D01*
X21630Y-14157D01*
X21630Y-14109D01*
X21640Y-14090D01*
X21650Y-14080D01*
X21669Y-14071D01*
X21688Y-14071D01*
X21716Y-14080D01*
X21830Y-14195D01*
X21830Y-14071D01*
X21830Y-17723D02*
X21830Y-17819D01*
X21630Y-17819D01*
X21726Y-17657D02*
X21726Y-17590D01*
X21830Y-17561D02*
X21830Y-17657D01*
X21630Y-17657D01*
X21630Y-17561D01*
X21830Y-17476D02*
X21630Y-17476D01*
X21630Y-17428D01*
X21640Y-17400D01*
X21659Y-17380D01*
X21678Y-17371D01*
X21716Y-17361D01*
X21745Y-17361D01*
X21783Y-17371D01*
X21802Y-17380D01*
X21821Y-17400D01*
X21830Y-17428D01*
X21830Y-17476D01*
X21697Y-17190D02*
X21830Y-17190D01*
X21621Y-17238D02*
X21764Y-17285D01*
X21764Y-17161D01*
X33830Y-16723D02*
X33830Y-16819D01*
X33630Y-16819D01*
X33726Y-16657D02*
X33726Y-16590D01*
X33830Y-16561D02*
X33830Y-16657D01*
X33630Y-16657D01*
X33630Y-16561D01*
X33830Y-16476D02*
X33630Y-16476D01*
X33630Y-16428D01*
X33640Y-16400D01*
X33659Y-16380D01*
X33678Y-16371D01*
X33716Y-16361D01*
X33745Y-16361D01*
X33783Y-16371D01*
X33802Y-16380D01*
X33821Y-16400D01*
X33830Y-16428D01*
X33830Y-16476D01*
X33830Y-16171D02*
X33830Y-16285D01*
X33830Y-16228D02*
X33630Y-16228D01*
X33659Y-16247D01*
X33678Y-16266D01*
X33688Y-16285D01*
G54D23*
X21480Y-20260D02*
X21623Y-20260D01*
X21652Y-20268D01*
X21671Y-20285D01*
X21680Y-20311D01*
X21680Y-20328D01*
X21680Y-20080D02*
X21680Y-20182D01*
X21680Y-20131D02*
X21480Y-20131D01*
X21509Y-20148D01*
X21528Y-20165D01*
X21538Y-20182D01*
G54D15*
X19932Y-21076D02*
X20382Y-20809D01*
X19932Y-20809D02*
X20382Y-21076D01*
X19932Y-20714D02*
X19932Y-20485D01*
X20382Y-20599D02*
X19932Y-20599D01*
X20382Y-20142D02*
X20382Y-20371D01*
X20382Y-20257D02*
X19932Y-20257D01*
X19996Y-20295D01*
X20039Y-20333D01*
X20060Y-20371D01*
G54D14*
X15035Y-20963D02*
X15035Y-21077D01*
X15035Y-21020D02*
X14835Y-21020D01*
X14864Y-21039D01*
X14883Y-21058D01*
X14893Y-21077D01*
X14835Y-20791D02*
X14835Y-20829D01*
X14845Y-20848D01*
X14855Y-20858D01*
X14883Y-20877D01*
X14921Y-20886D01*
X14997Y-20886D01*
X15016Y-20877D01*
X15026Y-20867D01*
X15035Y-20848D01*
X15035Y-20810D01*
X15026Y-20791D01*
X15016Y-20782D01*
X14997Y-20772D01*
X14950Y-20772D01*
X14931Y-20782D01*
X14921Y-20791D01*
X14912Y-20810D01*
X14912Y-20848D01*
X14921Y-20867D01*
X14931Y-20877D01*
X14950Y-20886D01*
X15035Y-20686D02*
X14835Y-20686D01*
X14978Y-20620D01*
X14835Y-20553D01*
X15035Y-20553D01*
X15035Y-20458D02*
X14835Y-20458D01*
X14931Y-20458D02*
X14931Y-20344D01*
X15035Y-20344D02*
X14835Y-20344D01*
X14902Y-20267D02*
X14902Y-20163D01*
X15035Y-20267D01*
X15035Y-20163D01*
G54D23*
X16730Y-30032D02*
X16530Y-30032D01*
X16530Y-29990D01*
X16540Y-29964D01*
X16559Y-29947D01*
X16578Y-29938D01*
X16616Y-29930D01*
X16645Y-29930D01*
X16683Y-29938D01*
X16702Y-29947D01*
X16721Y-29964D01*
X16730Y-29990D01*
X16730Y-30032D01*
X16730Y-29758D02*
X16730Y-29861D01*
X16730Y-29810D02*
X16530Y-29810D01*
X16559Y-29827D01*
X16578Y-29844D01*
X16588Y-29861D01*
G54D11*
X36161Y-24966D02*
X36161Y-24733D01*
X36561Y-24966D01*
X36561Y-24733D01*
X36161Y-24599D02*
X36485Y-24599D01*
X36523Y-24583D01*
X36542Y-24566D01*
X36561Y-24533D01*
X36561Y-24466D01*
X36542Y-24433D01*
X36523Y-24416D01*
X36485Y-24399D01*
X36161Y-24399D01*
X36561Y-24050D02*
X36561Y-24250D01*
X36561Y-24150D02*
X36161Y-24150D01*
X36219Y-24183D01*
X36257Y-24216D01*
X36276Y-24250D01*
G54D24*
X25582Y-24677D02*
X25796Y-24677D01*
X25539Y-24849D02*
X25689Y-24249D01*
X25839Y-24849D01*
X25925Y-24249D02*
X26182Y-24249D01*
X26053Y-24849D02*
X26053Y-24249D01*
X26332Y-24849D02*
X26332Y-24249D01*
X26482Y-24677D01*
X26632Y-24249D01*
X26632Y-24849D01*
X26846Y-24534D02*
X26996Y-24534D01*
X27060Y-24849D02*
X26846Y-24849D01*
X26846Y-24249D01*
X27060Y-24249D01*
X27489Y-24277D02*
X27446Y-24249D01*
X27382Y-24249D01*
X27317Y-24277D01*
X27275Y-24334D01*
X27253Y-24392D01*
X27232Y-24506D01*
X27232Y-24592D01*
X27253Y-24706D01*
X27275Y-24763D01*
X27317Y-24820D01*
X27382Y-24849D01*
X27425Y-24849D01*
X27489Y-24820D01*
X27510Y-24792D01*
X27510Y-24592D01*
X27425Y-24592D01*
X27682Y-24677D02*
X27896Y-24677D01*
X27639Y-24849D02*
X27789Y-24249D01*
X27939Y-24849D01*
X28046Y-24249D02*
X28325Y-24249D01*
X28175Y-24477D01*
X28239Y-24477D01*
X28282Y-24506D01*
X28303Y-24534D01*
X28325Y-24592D01*
X28325Y-24734D01*
X28303Y-24792D01*
X28282Y-24820D01*
X28239Y-24849D01*
X28110Y-24849D01*
X28067Y-24820D01*
X28046Y-24792D01*
X28496Y-24306D02*
X28517Y-24277D01*
X28560Y-24249D01*
X28667Y-24249D01*
X28710Y-24277D01*
X28732Y-24306D01*
X28753Y-24363D01*
X28753Y-24420D01*
X28732Y-24506D01*
X28475Y-24849D01*
X28753Y-24849D01*
X29010Y-24506D02*
X28967Y-24477D01*
X28946Y-24449D01*
X28925Y-24392D01*
X28925Y-24363D01*
X28946Y-24306D01*
X28967Y-24277D01*
X29010Y-24249D01*
X29096Y-24249D01*
X29139Y-24277D01*
X29160Y-24306D01*
X29182Y-24363D01*
X29182Y-24392D01*
X29160Y-24449D01*
X29139Y-24477D01*
X29096Y-24506D01*
X29010Y-24506D01*
X28967Y-24534D01*
X28946Y-24563D01*
X28925Y-24620D01*
X28925Y-24734D01*
X28946Y-24792D01*
X28967Y-24820D01*
X29010Y-24849D01*
X29096Y-24849D01*
X29139Y-24820D01*
X29160Y-24792D01*
X29182Y-24734D01*
X29182Y-24620D01*
X29160Y-24563D01*
X29139Y-24534D01*
X29096Y-24506D01*
X29375Y-24849D02*
X29375Y-24249D01*
X29546Y-24249D01*
X29589Y-24277D01*
X29610Y-24306D01*
X29632Y-24363D01*
X29632Y-24449D01*
X29610Y-24506D01*
X29589Y-24534D01*
X29546Y-24563D01*
X29375Y-24563D01*
X29825Y-24620D02*
X30167Y-24620D01*
X30382Y-24849D02*
X30382Y-24249D01*
X30553Y-24249D01*
X30596Y-24277D01*
X30617Y-24306D01*
X30639Y-24363D01*
X30639Y-24449D01*
X30617Y-24506D01*
X30596Y-24534D01*
X30553Y-24563D01*
X30382Y-24563D01*
X30832Y-24249D02*
X30832Y-24734D01*
X30853Y-24792D01*
X30875Y-24820D01*
X30917Y-24849D01*
X31003Y-24849D01*
X31046Y-24820D01*
X31067Y-24792D01*
X31089Y-24734D01*
X31089Y-24249D01*
G54D18*
G54D10*
X26065Y-20518D02*
X26459Y-20256D01*
X26065Y-20256D02*
X26459Y-20518D01*
X26459Y-19900D02*
X26459Y-20125D01*
X26459Y-20012D02*
X26065Y-20012D01*
X26121Y-20050D01*
X26159Y-20087D01*
X26178Y-20125D01*
G54D17*
X16079Y-27643D02*
X15882Y-27643D01*
X15882Y-27568D01*
X15892Y-27550D01*
X15901Y-27540D01*
X15920Y-27531D01*
X15948Y-27531D01*
X15967Y-27540D01*
X15976Y-27550D01*
X15985Y-27568D01*
X15985Y-27643D01*
X16060Y-27334D02*
X16070Y-27343D01*
X16079Y-27371D01*
X16079Y-27390D01*
X16070Y-27418D01*
X16051Y-27437D01*
X16032Y-27446D01*
X15995Y-27456D01*
X15967Y-27456D01*
X15929Y-27446D01*
X15910Y-27437D01*
X15892Y-27418D01*
X15882Y-27390D01*
X15882Y-27371D01*
X15892Y-27343D01*
X15901Y-27334D01*
X15901Y-27259D02*
X15892Y-27249D01*
X15882Y-27231D01*
X15882Y-27184D01*
X15892Y-27165D01*
X15901Y-27156D01*
X15920Y-27146D01*
X15939Y-27146D01*
X15967Y-27156D01*
X16079Y-27268D01*
X16079Y-27146D01*
X18879Y-27643D02*
X18682Y-27643D01*
X18682Y-27568D01*
X18692Y-27550D01*
X18701Y-27540D01*
X18720Y-27531D01*
X18748Y-27531D01*
X18767Y-27540D01*
X18776Y-27550D01*
X18785Y-27568D01*
X18785Y-27643D01*
X18860Y-27334D02*
X18870Y-27343D01*
X18879Y-27371D01*
X18879Y-27390D01*
X18870Y-27418D01*
X18851Y-27437D01*
X18832Y-27446D01*
X18795Y-27456D01*
X18767Y-27456D01*
X18729Y-27446D01*
X18710Y-27437D01*
X18692Y-27418D01*
X18682Y-27390D01*
X18682Y-27371D01*
X18692Y-27343D01*
X18701Y-27334D01*
X18879Y-27146D02*
X18879Y-27259D01*
X18879Y-27203D02*
X18682Y-27203D01*
X18710Y-27221D01*
X18729Y-27240D01*
X18739Y-27259D01*
G54D21*
X18911Y-23304D02*
X19235Y-23304D01*
X19273Y-23285D01*
X19292Y-23266D01*
X19311Y-23228D01*
X19311Y-23152D01*
X19292Y-23114D01*
X19273Y-23095D01*
X19235Y-23076D01*
X18911Y-23076D01*
X18911Y-22695D02*
X18911Y-22885D01*
X19102Y-22904D01*
X19083Y-22885D01*
X19064Y-22847D01*
X19064Y-22752D01*
X19083Y-22714D01*
X19102Y-22695D01*
X19140Y-22676D01*
X19235Y-22676D01*
X19273Y-22695D01*
X19292Y-22714D01*
X19311Y-22752D01*
X19311Y-22847D01*
X19292Y-22885D01*
X19273Y-22904D01*
G54D25*
X13929Y-18232D02*
X13929Y-18326D01*
X13732Y-18326D01*
X13929Y-18063D02*
X13929Y-18176D01*
X13929Y-18120D02*
X13732Y-18120D01*
X13760Y-18139D01*
X13779Y-18157D01*
X13789Y-18176D01*
G54D23*
X17880Y-18880D02*
X17785Y-18940D01*
X17880Y-18982D02*
X17680Y-18982D01*
X17680Y-18914D01*
X17690Y-18897D01*
X17700Y-18888D01*
X17719Y-18880D01*
X17747Y-18880D01*
X17766Y-18888D01*
X17776Y-18897D01*
X17785Y-18914D01*
X17785Y-18982D01*
X17880Y-18708D02*
X17880Y-18811D01*
X17880Y-18760D02*
X17680Y-18760D01*
X17709Y-18777D01*
X17728Y-18794D01*
X17738Y-18811D01*
G54D26*
X14200Y-20578D02*
X14185Y-20607D01*
X14157Y-20635D01*
X14114Y-20678D01*
X14100Y-20707D01*
X14100Y-20735D01*
X14171Y-20721D02*
X14157Y-20750D01*
X14128Y-20778D01*
X14071Y-20792D01*
X13971Y-20792D01*
X13914Y-20778D01*
X13885Y-20750D01*
X13871Y-20721D01*
X13871Y-20664D01*
X13885Y-20635D01*
X13914Y-20607D01*
X13971Y-20592D01*
X14071Y-20592D01*
X14128Y-20607D01*
X14157Y-20635D01*
X14171Y-20664D01*
X14171Y-20721D01*
X14171Y-20307D02*
X14171Y-20478D01*
X14171Y-20392D02*
X13871Y-20392D01*
X13914Y-20421D01*
X13942Y-20450D01*
X13957Y-20478D01*
G54D23*
X20161Y-14215D02*
X20171Y-14224D01*
X20180Y-14250D01*
X20180Y-14267D01*
X20171Y-14292D01*
X20152Y-14310D01*
X20133Y-14318D01*
X20095Y-14327D01*
X20066Y-14327D01*
X20028Y-14318D01*
X20009Y-14310D01*
X19990Y-14292D01*
X19980Y-14267D01*
X19980Y-14250D01*
X19990Y-14224D01*
X20000Y-14215D01*
X20180Y-14044D02*
X20180Y-14147D01*
X20180Y-14095D02*
X19980Y-14095D01*
X20009Y-14112D01*
X20028Y-14130D01*
X20038Y-14147D01*
X20000Y-13975D02*
X19990Y-13967D01*
X19980Y-13950D01*
X19980Y-13907D01*
X19990Y-13890D01*
X20000Y-13881D01*
X20019Y-13872D01*
X20038Y-13872D01*
X20066Y-13881D01*
X20180Y-13984D01*
X20180Y-13872D01*
G54D14*
X21780Y-21788D02*
X21685Y-21854D01*
X21780Y-21902D02*
X21580Y-21902D01*
X21580Y-21826D01*
X21590Y-21807D01*
X21600Y-21797D01*
X21619Y-21788D01*
X21647Y-21788D01*
X21666Y-21797D01*
X21676Y-21807D01*
X21685Y-21826D01*
X21685Y-21902D01*
X21780Y-21702D02*
X21580Y-21702D01*
X21780Y-21588D01*
X21580Y-21588D01*
X21780Y-21388D02*
X21780Y-21502D01*
X21780Y-21445D02*
X21580Y-21445D01*
X21609Y-21464D01*
X21628Y-21483D01*
X21638Y-21502D01*
X15880Y-16638D02*
X15785Y-16704D01*
X15880Y-16752D02*
X15680Y-16752D01*
X15680Y-16676D01*
X15690Y-16657D01*
X15700Y-16647D01*
X15719Y-16638D01*
X15747Y-16638D01*
X15766Y-16647D01*
X15776Y-16657D01*
X15785Y-16676D01*
X15785Y-16752D01*
X15880Y-16552D02*
X15680Y-16552D01*
X15880Y-16438D01*
X15680Y-16438D01*
X15680Y-16361D02*
X15680Y-16238D01*
X15757Y-16304D01*
X15757Y-16276D01*
X15766Y-16257D01*
X15776Y-16247D01*
X15795Y-16238D01*
X15842Y-16238D01*
X15861Y-16247D01*
X15871Y-16257D01*
X15880Y-16276D01*
X15880Y-16333D01*
X15871Y-16352D01*
X15861Y-16361D01*
X21830Y-15638D02*
X21735Y-15704D01*
X21830Y-15752D02*
X21630Y-15752D01*
X21630Y-15676D01*
X21640Y-15657D01*
X21650Y-15647D01*
X21669Y-15638D01*
X21697Y-15638D01*
X21716Y-15647D01*
X21726Y-15657D01*
X21735Y-15676D01*
X21735Y-15752D01*
X21830Y-15552D02*
X21630Y-15552D01*
X21830Y-15438D01*
X21630Y-15438D01*
X21650Y-15352D02*
X21640Y-15342D01*
X21630Y-15323D01*
X21630Y-15276D01*
X21640Y-15257D01*
X21650Y-15247D01*
X21669Y-15238D01*
X21688Y-15238D01*
X21716Y-15247D01*
X21830Y-15361D01*
X21830Y-15238D01*
X33830Y-17788D02*
X33735Y-17854D01*
X33830Y-17902D02*
X33630Y-17902D01*
X33630Y-17826D01*
X33640Y-17807D01*
X33650Y-17797D01*
X33669Y-17788D01*
X33697Y-17788D01*
X33716Y-17797D01*
X33726Y-17807D01*
X33735Y-17826D01*
X33735Y-17902D01*
X33830Y-17702D02*
X33630Y-17702D01*
X33830Y-17588D01*
X33630Y-17588D01*
X33697Y-17407D02*
X33830Y-17407D01*
X33621Y-17454D02*
X33764Y-17502D01*
X33764Y-17378D01*
G54D13*
X35721Y-11152D02*
X35730Y-11123D01*
X35730Y-11076D01*
X35721Y-11057D01*
X35711Y-11047D01*
X35692Y-11038D01*
X35673Y-11038D01*
X35654Y-11047D01*
X35645Y-11057D01*
X35635Y-11076D01*
X35626Y-11114D01*
X35616Y-11133D01*
X35607Y-11142D01*
X35588Y-11152D01*
X35569Y-11152D01*
X35550Y-11142D01*
X35540Y-11133D01*
X35530Y-11114D01*
X35530Y-11066D01*
X35540Y-11038D01*
X35530Y-10971D02*
X35530Y-10847D01*
X35607Y-10914D01*
X35607Y-10885D01*
X35616Y-10866D01*
X35626Y-10857D01*
X35645Y-10847D01*
X35692Y-10847D01*
X35711Y-10857D01*
X35721Y-10866D01*
X35730Y-10885D01*
X35730Y-10942D01*
X35721Y-10961D01*
X35711Y-10971D01*
G54D11*
X31028Y-10261D02*
X31028Y-9861D01*
X31295Y-9861D02*
X31371Y-9861D01*
X31409Y-9880D01*
X31447Y-9919D01*
X31466Y-9995D01*
X31466Y-10128D01*
X31447Y-10204D01*
X31409Y-10242D01*
X31371Y-10261D01*
X31295Y-10261D01*
X31257Y-10242D01*
X31219Y-10204D01*
X31200Y-10128D01*
X31200Y-9995D01*
X31219Y-9919D01*
X31257Y-9880D01*
X31295Y-9861D01*
X31828Y-10261D02*
X31638Y-10261D01*
X31638Y-9861D01*
G54D13*
X35821Y-30202D02*
X35830Y-30173D01*
X35830Y-30126D01*
X35821Y-30107D01*
X35811Y-30097D01*
X35792Y-30088D01*
X35773Y-30088D01*
X35754Y-30097D01*
X35745Y-30107D01*
X35735Y-30126D01*
X35726Y-30164D01*
X35716Y-30183D01*
X35707Y-30192D01*
X35688Y-30202D01*
X35669Y-30202D01*
X35650Y-30192D01*
X35640Y-30183D01*
X35630Y-30164D01*
X35630Y-30116D01*
X35640Y-30088D01*
X35650Y-30011D02*
X35640Y-30002D01*
X35630Y-29983D01*
X35630Y-29935D01*
X35640Y-29916D01*
X35650Y-29907D01*
X35669Y-29897D01*
X35688Y-29897D01*
X35716Y-29907D01*
X35830Y-30021D01*
X35830Y-29897D01*
X27121Y-11152D02*
X27130Y-11123D01*
X27130Y-11076D01*
X27121Y-11057D01*
X27111Y-11047D01*
X27092Y-11038D01*
X27073Y-11038D01*
X27054Y-11047D01*
X27045Y-11057D01*
X27035Y-11076D01*
X27026Y-11114D01*
X27016Y-11133D01*
X27007Y-11142D01*
X26988Y-11152D01*
X26969Y-11152D01*
X26950Y-11142D01*
X26940Y-11133D01*
X26930Y-11114D01*
X26930Y-11066D01*
X26940Y-11038D01*
X26997Y-10866D02*
X27130Y-10866D01*
X26921Y-10914D02*
X27064Y-10961D01*
X27064Y-10838D01*
G54D11*
X36461Y-23180D02*
X36061Y-23180D01*
X36423Y-22761D02*
X36442Y-22780D01*
X36461Y-22838D01*
X36461Y-22876D01*
X36442Y-22933D01*
X36404Y-22971D01*
X36366Y-22990D01*
X36290Y-23009D01*
X36233Y-23009D01*
X36157Y-22990D01*
X36119Y-22971D01*
X36080Y-22933D01*
X36061Y-22876D01*
X36061Y-22838D01*
X36080Y-22780D01*
X36100Y-22761D01*
X36442Y-22609D02*
X36461Y-22552D01*
X36461Y-22457D01*
X36442Y-22419D01*
X36423Y-22400D01*
X36385Y-22380D01*
X36347Y-22380D01*
X36309Y-22400D01*
X36290Y-22419D01*
X36271Y-22457D01*
X36252Y-22533D01*
X36233Y-22571D01*
X36214Y-22590D01*
X36176Y-22609D01*
X36138Y-22609D01*
X36100Y-22590D01*
X36080Y-22571D01*
X36061Y-22533D01*
X36061Y-22438D01*
X36080Y-22380D01*
X36461Y-22209D02*
X36061Y-22209D01*
X36061Y-22057D01*
X36080Y-22019D01*
X36100Y-22000D01*
X36138Y-21980D01*
X36195Y-21980D01*
X36233Y-22000D01*
X36252Y-22019D01*
X36271Y-22057D01*
X36271Y-22209D01*
X36461Y-21600D02*
X36461Y-21828D01*
X36461Y-21714D02*
X36061Y-21714D01*
X36119Y-21752D01*
X36157Y-21790D01*
X36176Y-21828D01*
G54D15*
X10276Y-30361D02*
X10276Y-29961D01*
X10428Y-29961D01*
X10466Y-29980D01*
X10485Y-30000D01*
X10504Y-30038D01*
X10504Y-30095D01*
X10485Y-30133D01*
X10466Y-30152D01*
X10428Y-30171D01*
X10276Y-30171D01*
X10638Y-29961D02*
X10733Y-30361D01*
X10809Y-30076D01*
X10885Y-30361D01*
X10980Y-29961D01*
X11361Y-30361D02*
X11228Y-30171D01*
X11133Y-30361D02*
X11133Y-29961D01*
X11285Y-29961D01*
X11323Y-29980D01*
X11342Y-30000D01*
X11361Y-30038D01*
X11361Y-30095D01*
X11342Y-30133D01*
X11323Y-30152D01*
X11285Y-30171D01*
X11133Y-30171D01*
X11742Y-30361D02*
X11514Y-30361D01*
X11628Y-30361D02*
X11628Y-29961D01*
X11590Y-30019D01*
X11552Y-30057D01*
X11514Y-30076D01*
G54D21*
X19271Y-17478D02*
X19514Y-17478D01*
X19542Y-17464D01*
X19557Y-17450D01*
X19571Y-17421D01*
X19571Y-17364D01*
X19557Y-17335D01*
X19542Y-17321D01*
X19514Y-17307D01*
X19271Y-17307D01*
X19271Y-17192D02*
X19271Y-17007D01*
X19385Y-17107D01*
X19385Y-17064D01*
X19400Y-17035D01*
X19414Y-17021D01*
X19442Y-17007D01*
X19514Y-17007D01*
X19542Y-17021D01*
X19557Y-17035D01*
X19571Y-17064D01*
X19571Y-17150D01*
X19557Y-17178D01*
X19542Y-17192D01*
G54D11*
X25195Y-29292D02*
X25252Y-29311D01*
X25347Y-29311D01*
X25385Y-29292D01*
X25404Y-29273D01*
X25423Y-29235D01*
X25423Y-29197D01*
X25404Y-29159D01*
X25385Y-29140D01*
X25347Y-29121D01*
X25271Y-29102D01*
X25233Y-29083D01*
X25214Y-29064D01*
X25195Y-29026D01*
X25195Y-28988D01*
X25214Y-28950D01*
X25233Y-28930D01*
X25271Y-28911D01*
X25366Y-28911D01*
X25423Y-28930D01*
X25804Y-29311D02*
X25576Y-29311D01*
X25690Y-29311D02*
X25690Y-28911D01*
X25652Y-28969D01*
X25614Y-29007D01*
X25576Y-29026D01*
M02*
