G04 (created by PCBNEW (2013-07-07 BZR 4022)-stable) date Sun 28 Jul 2013 12:26:32 PM NZST*
%MOIN*%
G04 Gerber Fmt 3.4, Leading zero omitted, Abs format*
%FSLAX34Y34*%
G01*
G70*
G90*
G04 APERTURE LIST*
%ADD10C,0.00590551*%
%ADD11R,0.06X0.06*%
%ADD12C,0.06*%
%ADD13C,0.0354*%
%ADD14R,0.0984X0.0787*%
%ADD15R,0.0906X0.0197*%
%ADD16R,0.0787402X0.0551181*%
%ADD17R,0.03X0.02*%
%ADD18R,0.08X0.144*%
%ADD19R,0.08X0.04*%
%ADD20R,0.15X0.055*%
%ADD21R,0.08X0.06*%
%ADD22R,0.025X0.045*%
%ADD23R,0.045X0.025*%
%ADD24R,0.0314X0.0314*%
%ADD25C,0.056*%
%ADD26R,0.07X0.1*%
%ADD27C,0.055*%
%ADD28R,0.055X0.055*%
%ADD29R,0.015748X0.0787402*%
%ADD30R,0.063X0.1181*%
%ADD31R,0.05X0.016*%
%ADD32R,0.055X0.035*%
%ADD33R,0.036X0.036*%
%ADD34R,0.019685X0.0167323*%
%ADD35R,0.019685X0.00984252*%
%ADD36O,0.0984252X0.189*%
%ADD37R,0.0984252X0.19685*%
%ADD38O,0.189X0.0984252*%
%ADD39R,0.037874X0.017874*%
%ADD40R,0.017874X0.037874*%
%ADD41R,0.0708661X0.0708661*%
G04 APERTURE END LIST*
G54D10*
G54D11*
X18200Y-12300D03*
G54D12*
X18200Y-13300D03*
X17200Y-12300D03*
X17200Y-13300D03*
X16200Y-12300D03*
X16200Y-13300D03*
G54D13*
X11950Y-16866D03*
X11950Y-15134D03*
G54D14*
X10769Y-17732D03*
X10769Y-14248D03*
X12934Y-17752D03*
X12934Y-14248D03*
G54D15*
X12934Y-16000D03*
X12934Y-15685D03*
X12934Y-15370D03*
X12934Y-16315D03*
X12934Y-16630D03*
G54D16*
X13877Y-12337D03*
X13877Y-10762D03*
X11122Y-10762D03*
X11122Y-12337D03*
G54D17*
X18150Y-24625D03*
X18150Y-25375D03*
X19150Y-24625D03*
X18150Y-25000D03*
X19150Y-25375D03*
G54D18*
X11750Y-24150D03*
G54D19*
X14350Y-24150D03*
X14350Y-23250D03*
X14350Y-25050D03*
G54D20*
X11600Y-19550D03*
X11600Y-21350D03*
G54D21*
X33400Y-19350D03*
X33400Y-20650D03*
X15150Y-13450D03*
X15150Y-12150D03*
G54D22*
X20700Y-19500D03*
X21300Y-19500D03*
X20700Y-18600D03*
X21300Y-18600D03*
X15300Y-14500D03*
X14700Y-14500D03*
G54D23*
X17250Y-25300D03*
X17250Y-24700D03*
G54D22*
X18450Y-19350D03*
X19050Y-19350D03*
G54D23*
X20050Y-24650D03*
X20050Y-25250D03*
G54D22*
X14450Y-19200D03*
X15050Y-19200D03*
X26800Y-26900D03*
X27400Y-26900D03*
X16600Y-19350D03*
X16000Y-19350D03*
X15300Y-15500D03*
X14700Y-15500D03*
X15300Y-17750D03*
X14700Y-17750D03*
X25950Y-22050D03*
X26550Y-22050D03*
G54D11*
X18200Y-15300D03*
G54D12*
X17200Y-15300D03*
X18200Y-14300D03*
X17200Y-14300D03*
G54D24*
X21295Y-16600D03*
X20705Y-16600D03*
X20705Y-14400D03*
X21295Y-14400D03*
X21295Y-17500D03*
X20705Y-17500D03*
X32705Y-16600D03*
X33295Y-16600D03*
G54D22*
X20812Y-20250D03*
X21187Y-20250D03*
G54D25*
X16450Y-20700D03*
X18450Y-20700D03*
G54D26*
X17370Y-29900D03*
X19630Y-29900D03*
G54D27*
X33750Y-23050D03*
X32750Y-23050D03*
X31750Y-23050D03*
X30750Y-23050D03*
X29750Y-23050D03*
X28750Y-23050D03*
X27750Y-23050D03*
X26750Y-23050D03*
X25750Y-23050D03*
X24750Y-23050D03*
X23750Y-23050D03*
X22750Y-23050D03*
X21750Y-23050D03*
G54D28*
X34750Y-23050D03*
G54D27*
X21750Y-26050D03*
X22750Y-26050D03*
X23750Y-26050D03*
X24750Y-26050D03*
X25750Y-26050D03*
X26750Y-26050D03*
X27750Y-26050D03*
X28750Y-26050D03*
X29750Y-26050D03*
X30750Y-26050D03*
X31750Y-26050D03*
X32750Y-26050D03*
X33750Y-26050D03*
X34750Y-26050D03*
G54D29*
X26250Y-21200D03*
X26722Y-21200D03*
X25777Y-21200D03*
G54D30*
X17250Y-26534D03*
X17250Y-28266D03*
X20050Y-26534D03*
X20050Y-28266D03*
G54D31*
X18375Y-23385D03*
X18375Y-23130D03*
X18375Y-22870D03*
X18375Y-22615D03*
X16625Y-22615D03*
X16625Y-22870D03*
X16625Y-23130D03*
X16625Y-23385D03*
G54D32*
X14050Y-17775D03*
X14050Y-17025D03*
G54D22*
X17800Y-19350D03*
X17200Y-19350D03*
G54D33*
X13600Y-20200D03*
X13600Y-20900D03*
X12800Y-20550D03*
G54D22*
X20100Y-13400D03*
X20700Y-13400D03*
G54D34*
X20704Y-21933D03*
X20704Y-21266D03*
G54D35*
X20704Y-21698D03*
X20704Y-21501D03*
G54D34*
X21295Y-21933D03*
X21295Y-21266D03*
G54D35*
X21295Y-21698D03*
X21295Y-21501D03*
G54D34*
X14754Y-16833D03*
X14754Y-16166D03*
G54D35*
X14754Y-16598D03*
X14754Y-16401D03*
G54D34*
X15345Y-16833D03*
X15345Y-16166D03*
G54D35*
X15345Y-16598D03*
X15345Y-16401D03*
G54D34*
X21295Y-15166D03*
X21295Y-15833D03*
G54D35*
X21295Y-15401D03*
X21295Y-15598D03*
G54D34*
X20704Y-15166D03*
X20704Y-15833D03*
G54D35*
X20704Y-15401D03*
X20704Y-15598D03*
G54D34*
X32704Y-18033D03*
X32704Y-17366D03*
G54D35*
X32704Y-17798D03*
X32704Y-17601D03*
G54D34*
X33295Y-18033D03*
X33295Y-17366D03*
G54D35*
X33295Y-17798D03*
X33295Y-17601D03*
G54D11*
X35000Y-11000D03*
G54D12*
X34000Y-11000D03*
X33000Y-11000D03*
X32000Y-11000D03*
X31000Y-11000D03*
X30000Y-11000D03*
X29000Y-11000D03*
X28000Y-11000D03*
G54D11*
X30000Y-30000D03*
G54D12*
X31000Y-30000D03*
X32000Y-30000D03*
X33000Y-30000D03*
X34000Y-30000D03*
X35000Y-30000D03*
G54D11*
X26400Y-11000D03*
G54D12*
X25400Y-11000D03*
X24400Y-11000D03*
X23400Y-11000D03*
X22400Y-11000D03*
X21400Y-11000D03*
X20400Y-11000D03*
X19400Y-11000D03*
X18400Y-11000D03*
X17400Y-11000D03*
G54D11*
X35050Y-19000D03*
G54D12*
X36050Y-19000D03*
X35050Y-20000D03*
X36050Y-20000D03*
X35050Y-21000D03*
X36050Y-21000D03*
G54D36*
X13000Y-28300D03*
G54D37*
X15400Y-28300D03*
G54D38*
X13900Y-30300D03*
G54D39*
X16866Y-17842D03*
X16866Y-17645D03*
X16866Y-17448D03*
X16866Y-18039D03*
G54D40*
X17161Y-18334D03*
X17358Y-18334D03*
X17555Y-18334D03*
X17752Y-18334D03*
X17948Y-18334D03*
X18145Y-18334D03*
X18342Y-18334D03*
X18539Y-18334D03*
G54D39*
X18834Y-16661D03*
X18834Y-18039D03*
X18834Y-17842D03*
X18834Y-17645D03*
X18834Y-17448D03*
X18834Y-17252D03*
X18834Y-17055D03*
X18834Y-16858D03*
G54D40*
X18539Y-16366D03*
X18342Y-16366D03*
X18145Y-16366D03*
X17948Y-16366D03*
X17752Y-16366D03*
X17555Y-16366D03*
X17358Y-16366D03*
X17161Y-16366D03*
G54D39*
X16866Y-16661D03*
X16866Y-16858D03*
X16866Y-17055D03*
X16866Y-17252D03*
G54D41*
X17535Y-17664D03*
X17535Y-17035D03*
X18164Y-17664D03*
X18164Y-17035D03*
G54D11*
X23000Y-30000D03*
G54D12*
X24000Y-30000D03*
X25000Y-30000D03*
X26000Y-30000D03*
X27000Y-30000D03*
X28000Y-30000D03*
M02*
