M48
;DRILL file {Pcbnew (2013-07-24 BZR 4024)-stable} date Tue 30 Jun 2015 02:25:43 PM NZST
;FORMAT={2:4/ absolute / inch / keep zeros}
FMAT,2
INCH,TZ
T1C0.025
T2C0.030
T3C0.031
T4C0.032
T5C0.035
T6C0.040
T7C0.120
%
G90
G05
M72
T1
X010384Y-013391
X010406Y-010399
X010600Y-027100
X010600Y-030500
X010770Y-018510
X010950Y-022600
X010950Y-024200
X011000Y-025650
X011950Y-025350
X012000Y-022950
X012850Y-019650
X012850Y-021600
X013000Y-023250
X013000Y-025100
X013020Y-018510
X013110Y-011850
X013386Y-022638
X013600Y-025700
X013815Y-013350
X014180Y-016500
X014500Y-030600
X014650Y-018650
X014850Y-022350
X015490Y-019770
X015630Y-024173
X015990Y-013950
X015996Y-018650
X016060Y-016400
X016400Y-030669
X016535Y-026457
X016929Y-024173
X017520Y-022717
X018661Y-026339
X018880Y-014710
X018900Y-012510
X018950Y-023650
X019016Y-021260
X019055Y-022323
X019540Y-020020
X019544Y-018725
X019843Y-011693
X019954Y-010290
X020050Y-023386
X020100Y-021150
X020118Y-015118
X020235Y-016080
X020417Y-019121
X020512Y-022480
X020748Y-025394
X021181Y-027835
X021535Y-028543
X021811Y-018622
X021811Y-019843
X021820Y-014960
X021850Y-016000
X022130Y-014400
X022244Y-021929
X022244Y-026732
X022323Y-019528
X022677Y-019134
X023228Y-020827
X024252Y-019921
X024332Y-011990
X024398Y-017446
X024882Y-024646
X025510Y-030600
X025608Y-019910
X025740Y-017424
X025806Y-012012
X027192Y-017402
X027214Y-012034
X027280Y-010340
X028228Y-021102
X028512Y-012078
X028534Y-017336
X028995Y-019200
X029252Y-021417
X029348Y-020152
X029480Y-017292
X029546Y-012056
X030272Y-020922
X030316Y-019932
X030492Y-015862
X030514Y-012056
X031328Y-020900
X032208Y-012100
X032685Y-018660
X033307Y-023858
X033386Y-021378
X033854Y-018212
X034331Y-024370
X034452Y-010362
X035046Y-012100
X035068Y-016654
X035567Y-030587
X036500Y-025800
T2
X016450Y-020700
X018450Y-020700
T3
X017535Y-017035
X017535Y-017665
X018165Y-017035
X018165Y-017665
T4
X021750Y-023050
X021750Y-026050
X022750Y-023050
X022750Y-026050
X023750Y-023050
X023750Y-026050
X024750Y-023050
X024750Y-026050
X025750Y-023050
X025750Y-026050
X026750Y-023050
X026750Y-026050
X027750Y-023050
X027750Y-026050
X028750Y-023050
X028750Y-026050
X029750Y-023050
X029750Y-026050
X030750Y-023050
X030750Y-026050
X031750Y-023050
X031750Y-026050
X032750Y-023050
X032750Y-026050
X033750Y-023050
X033750Y-026050
X034750Y-023050
X034750Y-026050
T5
X011950Y-015134
X011950Y-016866
T6
X016200Y-012300
X016200Y-013300
X017200Y-012300
X017200Y-013300
X017200Y-014300
X017200Y-015300
X017400Y-011000
X018200Y-012300
X018200Y-013300
X018200Y-014300
X018200Y-015300
X018400Y-011000
X019400Y-011000
X020400Y-011000
X021400Y-011000
X022400Y-011000
X023000Y-030000
X023400Y-011000
X024000Y-030000
X024400Y-011000
X025000Y-030000
X025400Y-011000
X026000Y-030000
X026400Y-011000
X027000Y-030000
X028000Y-011000
X028000Y-030000
X029000Y-011000
X030000Y-011000
X030000Y-030000
X031000Y-011000
X031000Y-030000
X032000Y-011000
X032000Y-030000
X033000Y-011000
X033000Y-030000
X034000Y-011000
X034000Y-030000
X035000Y-011000
X035000Y-030000
X035050Y-019000
X035050Y-020000
X035050Y-021000
X036050Y-019000
X036050Y-020000
X036050Y-021000
T7
X015500Y-030000
X016000Y-011000
X036000Y-017000
X036000Y-028000
T6
X012000Y-027509G85X012000Y-028291
G05
X012509Y-029900G85X013291Y-029900
G05
X014400Y-027411G85X014400Y-028389
G05
T0
M30
