G04 (created by PCBNEW (2013-07-07 BZR 4022)-stable) date Sun 28 Jul 2013 01:55:30 PM NZST*
%MOIN*%
G04 Gerber Fmt 3.4, Leading zero omitted, Abs format*
%FSLAX34Y34*%
G01*
G70*
G90*
G04 APERTURE LIST*
%ADD10C,0.00590551*%
%ADD11R,0.06X0.06*%
%ADD12C,0.06*%
%ADD13C,0.0354*%
%ADD14R,0.0984X0.0787*%
%ADD15R,0.0906X0.0197*%
%ADD16R,0.0787402X0.0551181*%
%ADD17R,0.03X0.02*%
%ADD18R,0.08X0.144*%
%ADD19R,0.08X0.04*%
%ADD20R,0.15X0.055*%
%ADD21R,0.08X0.06*%
%ADD22R,0.025X0.045*%
%ADD23R,0.045X0.025*%
%ADD24R,0.0314X0.0314*%
%ADD25C,0.056*%
%ADD26R,0.07X0.1*%
%ADD27C,0.055*%
%ADD28R,0.055X0.055*%
%ADD29R,0.015748X0.0787402*%
%ADD30R,0.063X0.1181*%
%ADD31R,0.05X0.016*%
%ADD32R,0.055X0.035*%
%ADD33R,0.036X0.036*%
%ADD34R,0.019685X0.0167323*%
%ADD35R,0.019685X0.00984252*%
%ADD36O,0.0984252X0.189*%
%ADD37R,0.0984252X0.19685*%
%ADD38O,0.189X0.0984252*%
%ADD39R,0.03X0.01*%
%ADD40R,0.01X0.03*%
%ADD41R,0.0629921X0.0629921*%
%ADD42C,0.12*%
%ADD43C,0.035*%
%ADD44C,0.01*%
%ADD45C,0.02*%
%ADD46C,0.008*%
%ADD47C,0.04*%
%ADD48C,0.03*%
G04 APERTURE END LIST*
G54D10*
G54D11*
X18200Y-12300D03*
G54D12*
X18200Y-13300D03*
X17200Y-12300D03*
X17200Y-13300D03*
X16200Y-12300D03*
X16200Y-13300D03*
G54D13*
X11950Y-16866D03*
X11950Y-15134D03*
G54D14*
X10769Y-17732D03*
X10769Y-14248D03*
X12934Y-17752D03*
X12934Y-14248D03*
G54D15*
X12934Y-16000D03*
X12934Y-15685D03*
X12934Y-15370D03*
X12934Y-16315D03*
X12934Y-16630D03*
G54D16*
X13877Y-12337D03*
X13877Y-10762D03*
X11122Y-10762D03*
X11122Y-12337D03*
G54D17*
X18150Y-24625D03*
X18150Y-25375D03*
X19150Y-24625D03*
X18150Y-25000D03*
X19150Y-25375D03*
G54D18*
X11750Y-24150D03*
G54D19*
X14350Y-24150D03*
X14350Y-23250D03*
X14350Y-25050D03*
G54D20*
X11600Y-19550D03*
X11600Y-21350D03*
G54D21*
X33400Y-19350D03*
X33400Y-20650D03*
X15150Y-13450D03*
X15150Y-12150D03*
G54D22*
X20700Y-19500D03*
X21300Y-19500D03*
X20700Y-18600D03*
X21300Y-18600D03*
X15300Y-14500D03*
X14700Y-14500D03*
G54D23*
X17250Y-25300D03*
X17250Y-24700D03*
G54D22*
X18450Y-19350D03*
X19050Y-19350D03*
G54D23*
X20050Y-24650D03*
X20050Y-25250D03*
G54D22*
X14450Y-19200D03*
X15050Y-19200D03*
X26800Y-26900D03*
X27400Y-26900D03*
X16600Y-19350D03*
X16000Y-19350D03*
X15300Y-15500D03*
X14700Y-15500D03*
X15300Y-17750D03*
X14700Y-17750D03*
X25950Y-22050D03*
X26550Y-22050D03*
G54D11*
X18200Y-15300D03*
G54D12*
X17200Y-15300D03*
X18200Y-14300D03*
X17200Y-14300D03*
G54D24*
X21295Y-16600D03*
X20705Y-16600D03*
X20705Y-14400D03*
X21295Y-14400D03*
X21295Y-17500D03*
X20705Y-17500D03*
X32705Y-16600D03*
X33295Y-16600D03*
G54D22*
X20812Y-20250D03*
X21187Y-20250D03*
G54D25*
X16450Y-20700D03*
X18450Y-20700D03*
G54D26*
X17370Y-29900D03*
X19630Y-29900D03*
G54D27*
X33750Y-23050D03*
X32750Y-23050D03*
X31750Y-23050D03*
X30750Y-23050D03*
X29750Y-23050D03*
X28750Y-23050D03*
X27750Y-23050D03*
X26750Y-23050D03*
X25750Y-23050D03*
X24750Y-23050D03*
X23750Y-23050D03*
X22750Y-23050D03*
X21750Y-23050D03*
G54D28*
X34750Y-23050D03*
G54D27*
X21750Y-26050D03*
X22750Y-26050D03*
X23750Y-26050D03*
X24750Y-26050D03*
X25750Y-26050D03*
X26750Y-26050D03*
X27750Y-26050D03*
X28750Y-26050D03*
X29750Y-26050D03*
X30750Y-26050D03*
X31750Y-26050D03*
X32750Y-26050D03*
X33750Y-26050D03*
X34750Y-26050D03*
G54D29*
X26250Y-21200D03*
X26722Y-21200D03*
X25777Y-21200D03*
G54D30*
X17250Y-26534D03*
X17250Y-28266D03*
X20050Y-26534D03*
X20050Y-28266D03*
G54D31*
X18375Y-23385D03*
X18375Y-23130D03*
X18375Y-22870D03*
X18375Y-22615D03*
X16625Y-22615D03*
X16625Y-22870D03*
X16625Y-23130D03*
X16625Y-23385D03*
G54D32*
X14050Y-17775D03*
X14050Y-17025D03*
G54D22*
X17800Y-19350D03*
X17200Y-19350D03*
G54D33*
X13600Y-20200D03*
X13600Y-20900D03*
X12800Y-20550D03*
G54D22*
X20100Y-13400D03*
X20700Y-13400D03*
G54D34*
X20704Y-21933D03*
X20704Y-21266D03*
G54D35*
X20704Y-21698D03*
X20704Y-21501D03*
G54D34*
X21295Y-21933D03*
X21295Y-21266D03*
G54D35*
X21295Y-21698D03*
X21295Y-21501D03*
G54D34*
X14754Y-16833D03*
X14754Y-16166D03*
G54D35*
X14754Y-16598D03*
X14754Y-16401D03*
G54D34*
X15345Y-16833D03*
X15345Y-16166D03*
G54D35*
X15345Y-16598D03*
X15345Y-16401D03*
G54D34*
X21295Y-15166D03*
X21295Y-15833D03*
G54D35*
X21295Y-15401D03*
X21295Y-15598D03*
G54D34*
X20704Y-15166D03*
X20704Y-15833D03*
G54D35*
X20704Y-15401D03*
X20704Y-15598D03*
G54D34*
X32704Y-18033D03*
X32704Y-17366D03*
G54D35*
X32704Y-17798D03*
X32704Y-17601D03*
G54D34*
X33295Y-18033D03*
X33295Y-17366D03*
G54D35*
X33295Y-17798D03*
X33295Y-17601D03*
G54D11*
X35000Y-11000D03*
G54D12*
X34000Y-11000D03*
X33000Y-11000D03*
X32000Y-11000D03*
X31000Y-11000D03*
X30000Y-11000D03*
X29000Y-11000D03*
X28000Y-11000D03*
G54D11*
X30000Y-30000D03*
G54D12*
X31000Y-30000D03*
X32000Y-30000D03*
X33000Y-30000D03*
X34000Y-30000D03*
X35000Y-30000D03*
G54D11*
X26400Y-11000D03*
G54D12*
X25400Y-11000D03*
X24400Y-11000D03*
X23400Y-11000D03*
X22400Y-11000D03*
X21400Y-11000D03*
X20400Y-11000D03*
X19400Y-11000D03*
X18400Y-11000D03*
X17400Y-11000D03*
G54D11*
X35050Y-19000D03*
G54D12*
X36050Y-19000D03*
X35050Y-20000D03*
X36050Y-20000D03*
X35050Y-21000D03*
X36050Y-21000D03*
G54D36*
X12000Y-27900D03*
G54D37*
X14400Y-27900D03*
G54D38*
X12900Y-29900D03*
G54D39*
X16866Y-17842D03*
X16866Y-17645D03*
X16866Y-17448D03*
X16866Y-18039D03*
G54D40*
X17161Y-18334D03*
X17358Y-18334D03*
X17555Y-18334D03*
X17752Y-18334D03*
X17948Y-18334D03*
X18145Y-18334D03*
X18342Y-18334D03*
X18539Y-18334D03*
G54D39*
X18834Y-16661D03*
X18834Y-18039D03*
X18834Y-17842D03*
X18834Y-17645D03*
X18834Y-17448D03*
X18834Y-17252D03*
X18834Y-17055D03*
X18834Y-16858D03*
G54D40*
X18539Y-16366D03*
X18342Y-16366D03*
X18145Y-16366D03*
X17948Y-16366D03*
X17752Y-16366D03*
X17555Y-16366D03*
X17358Y-16366D03*
X17161Y-16366D03*
G54D39*
X16866Y-16661D03*
X16866Y-16858D03*
X16866Y-17055D03*
X16866Y-17252D03*
G54D41*
X17535Y-17664D03*
X17535Y-17035D03*
X18164Y-17664D03*
X18164Y-17035D03*
G54D11*
X23000Y-30000D03*
G54D12*
X24000Y-30000D03*
X25000Y-30000D03*
X26000Y-30000D03*
X27000Y-30000D03*
X28000Y-30000D03*
G54D42*
X16000Y-11000D03*
X15500Y-30000D03*
X36000Y-28000D03*
X36000Y-17000D03*
G54D43*
X20050Y-23385D03*
X22244Y-26732D03*
X20118Y-15118D03*
X15995Y-18650D03*
X15990Y-13950D03*
X19544Y-18725D03*
X19540Y-20020D03*
X13385Y-22637D03*
X16535Y-26456D03*
X14650Y-18650D03*
X12850Y-19650D03*
X12850Y-21600D03*
X10950Y-22600D03*
X10950Y-24200D03*
X11000Y-25650D03*
X11950Y-25350D03*
X12000Y-22950D03*
X13600Y-25700D03*
X13000Y-25100D03*
X13000Y-23250D03*
X33307Y-23858D03*
X29251Y-21417D03*
X22677Y-19133D03*
X34330Y-24370D03*
X28228Y-21102D03*
X22322Y-19527D03*
X33854Y-18212D03*
X32685Y-18660D03*
X22244Y-21929D03*
X33385Y-21377D03*
X21811Y-19842D03*
X13110Y-11850D03*
X23228Y-20826D03*
X18880Y-14710D03*
X20196Y-21417D03*
X18900Y-12510D03*
X19842Y-11692D03*
X20235Y-16080D03*
X20417Y-19121D03*
X14500Y-30600D03*
X10600Y-30500D03*
X10600Y-27100D03*
X16400Y-30669D03*
X35068Y-16654D03*
X35046Y-12100D03*
X34452Y-10362D03*
X27280Y-10340D03*
X19954Y-10290D03*
X10406Y-10399D03*
X35567Y-30587D03*
X36500Y-25800D03*
X25510Y-30600D03*
X21535Y-28543D03*
X18661Y-26338D03*
X20748Y-25393D03*
X10384Y-13391D03*
X32208Y-12100D03*
X31328Y-20900D03*
X29546Y-12056D03*
X27214Y-12034D03*
X25806Y-12012D03*
X28512Y-12078D03*
X30514Y-12056D03*
X29348Y-20152D03*
X30316Y-19932D03*
X30272Y-20922D03*
X24398Y-17446D03*
X24332Y-11990D03*
X28534Y-17336D03*
X29480Y-17292D03*
X27192Y-17402D03*
X25608Y-19910D03*
X25740Y-17424D03*
X21672Y-16044D03*
X22130Y-14400D03*
X21811Y-18622D03*
X13815Y-13350D03*
X10770Y-18510D03*
X15490Y-19770D03*
X13020Y-18510D03*
X30492Y-15862D03*
X16929Y-24173D03*
X15629Y-24173D03*
X28995Y-19200D03*
X19055Y-22322D03*
X19015Y-21259D03*
X24251Y-19921D03*
X24881Y-24645D03*
X18950Y-23650D03*
X14850Y-22350D03*
X21834Y-15063D03*
X17519Y-22716D03*
X15894Y-16386D03*
X14300Y-16500D03*
X20511Y-22480D03*
X21181Y-27834D03*
G54D44*
X18375Y-23130D02*
X18937Y-23130D01*
G54D45*
X19822Y-23130D02*
X20050Y-23357D01*
X20050Y-23357D02*
X20050Y-23385D01*
X18937Y-23130D02*
X19822Y-23130D01*
X20050Y-23385D02*
X20050Y-24650D01*
X19150Y-24625D02*
X20025Y-24625D01*
G54D44*
X20025Y-24625D02*
X20050Y-24650D01*
G54D45*
X24000Y-30000D02*
X24000Y-28488D01*
X22244Y-26732D02*
X24000Y-28488D01*
G54D46*
X33295Y-17601D02*
X33618Y-17601D01*
X33666Y-17366D02*
X33295Y-17366D01*
X33734Y-17434D02*
X33666Y-17366D01*
X33734Y-17486D02*
X33734Y-17434D01*
X33618Y-17601D02*
X33734Y-17486D01*
G54D44*
X20118Y-15118D02*
X20180Y-15118D01*
G54D45*
X20180Y-15118D02*
X20511Y-15449D01*
G54D44*
X20704Y-15598D02*
X20544Y-15598D01*
X20544Y-15598D02*
X20511Y-15565D01*
X20511Y-15565D02*
X20511Y-15449D01*
X20558Y-15401D02*
X20704Y-15401D01*
X20511Y-15449D02*
X20558Y-15401D01*
G54D45*
X19802Y-20020D02*
X20704Y-20921D01*
X19540Y-20020D02*
X19802Y-20020D01*
X20704Y-20921D02*
X20704Y-21084D01*
G54D46*
X20704Y-21084D02*
X20704Y-21266D01*
X21295Y-21501D02*
X21102Y-21501D01*
X21102Y-21501D02*
X20982Y-21381D01*
X20982Y-21381D02*
X20982Y-21363D01*
X20982Y-21363D02*
X20885Y-21266D01*
X20885Y-21266D02*
X20704Y-21266D01*
G54D45*
X15150Y-13450D02*
X15490Y-13450D01*
X15990Y-13950D02*
X15490Y-13450D01*
G54D46*
X17752Y-18334D02*
X17752Y-18617D01*
X17859Y-18725D02*
X19544Y-18725D01*
X17752Y-18617D02*
X17859Y-18725D01*
G54D45*
X20360Y-18600D02*
X19540Y-19420D01*
X19540Y-19420D02*
X19540Y-20020D01*
X20700Y-18600D02*
X20360Y-18600D01*
X33740Y-17480D02*
X34566Y-18307D01*
X34448Y-19370D02*
X33420Y-19370D01*
X33420Y-19370D02*
X33400Y-19350D01*
X28750Y-23050D02*
X28779Y-23020D01*
X36050Y-18412D02*
X36050Y-19000D01*
X34566Y-18307D02*
X34685Y-18188D01*
X34685Y-18188D02*
X35826Y-18188D01*
X35826Y-18188D02*
X36050Y-18412D01*
X34448Y-18425D02*
X34566Y-18307D01*
X34448Y-19370D02*
X34448Y-18425D01*
X34448Y-21535D02*
X34448Y-19370D01*
X34055Y-21929D02*
X34448Y-21535D01*
X29448Y-21929D02*
X34055Y-21929D01*
X28779Y-22598D02*
X29448Y-21929D01*
X28779Y-23020D02*
X28779Y-22598D01*
X13000Y-23267D02*
X13000Y-23023D01*
X13000Y-23023D02*
X13385Y-22637D01*
G54D46*
X16866Y-18039D02*
X16606Y-18039D01*
G54D45*
X15995Y-18650D02*
X14650Y-18650D01*
G54D46*
X16606Y-18039D02*
X16476Y-18169D01*
G54D45*
X16476Y-18169D02*
X15995Y-18650D01*
G54D44*
X16612Y-26534D02*
X17250Y-26534D01*
X16535Y-26456D02*
X16612Y-26534D01*
G54D45*
X26800Y-27885D02*
X26800Y-26900D01*
X26750Y-26050D02*
X26750Y-25061D01*
X26750Y-25061D02*
X27244Y-24566D01*
X27244Y-24566D02*
X28228Y-24566D01*
X28228Y-24566D02*
X28750Y-24045D01*
X28750Y-24045D02*
X28750Y-23050D01*
X26800Y-26900D02*
X26800Y-26100D01*
X26800Y-26100D02*
X26750Y-26050D01*
X14450Y-18850D02*
X14450Y-19200D01*
X14650Y-18650D02*
X14450Y-18850D01*
G54D44*
X17250Y-25300D02*
X16750Y-25300D01*
X16450Y-23560D02*
X16625Y-23385D01*
X16450Y-25000D02*
X16450Y-23560D01*
X16750Y-25300D02*
X16450Y-25000D01*
X17700Y-25375D02*
X17700Y-24750D01*
X17825Y-24625D02*
X18150Y-24625D01*
X17700Y-24750D02*
X17825Y-24625D01*
X18150Y-25375D02*
X17700Y-25375D01*
X17700Y-25375D02*
X17325Y-25375D01*
X17325Y-25375D02*
X17250Y-25300D01*
X17250Y-26534D02*
X17250Y-26275D01*
X17250Y-26275D02*
X18150Y-25375D01*
X13000Y-24150D02*
X13000Y-23267D01*
X13000Y-23267D02*
X13000Y-23250D01*
G54D47*
X11750Y-24150D02*
X13000Y-24150D01*
X13000Y-24150D02*
X14350Y-24150D01*
G54D48*
X13600Y-20200D02*
X13400Y-20200D01*
G54D44*
X10950Y-24200D02*
X10950Y-22600D01*
X11650Y-25650D02*
X11000Y-25650D01*
X11950Y-25350D02*
X11650Y-25650D01*
G54D48*
X13400Y-20200D02*
X12850Y-19650D01*
G54D44*
X13000Y-23250D02*
X12700Y-22950D01*
X12700Y-22950D02*
X12000Y-22950D01*
X13000Y-25100D02*
X13600Y-25700D01*
G54D45*
X26299Y-28385D02*
X26800Y-27885D01*
X25000Y-30000D02*
X25000Y-28740D01*
X25000Y-28740D02*
X25354Y-28385D01*
X25354Y-28385D02*
X26299Y-28385D01*
G54D44*
X30000Y-30000D02*
X29750Y-29750D01*
X29750Y-29750D02*
X29750Y-26050D01*
X31000Y-30000D02*
X30750Y-29750D01*
X30750Y-29750D02*
X30750Y-26050D01*
X32000Y-30000D02*
X31750Y-29750D01*
X31750Y-29750D02*
X31750Y-26050D01*
X33000Y-30000D02*
X32750Y-29750D01*
X32750Y-29750D02*
X32750Y-26050D01*
X22677Y-19133D02*
X26968Y-19133D01*
X33750Y-24891D02*
X33750Y-26050D01*
X33307Y-24448D02*
X33750Y-24891D01*
X33307Y-23858D02*
X33307Y-24448D01*
X26968Y-19133D02*
X29251Y-21417D01*
X34000Y-30000D02*
X33750Y-29750D01*
X33750Y-29750D02*
X33750Y-26050D01*
X22322Y-19527D02*
X26653Y-19527D01*
X34750Y-24789D02*
X34750Y-26050D01*
X34330Y-24370D02*
X34750Y-24789D01*
X26653Y-19527D02*
X28228Y-21102D01*
X35000Y-30000D02*
X34750Y-29750D01*
X34750Y-29750D02*
X34750Y-26050D01*
X33295Y-17798D02*
X33575Y-17798D01*
X33854Y-18077D02*
X33854Y-18212D01*
X33575Y-17798D02*
X33854Y-18077D01*
X33295Y-18033D02*
X33295Y-18338D01*
X32974Y-18660D02*
X32685Y-18660D01*
X33295Y-18338D02*
X32974Y-18660D01*
X22244Y-21929D02*
X22244Y-23779D01*
X22244Y-23779D02*
X21732Y-24291D01*
X21732Y-24291D02*
X21732Y-26032D01*
X21732Y-26032D02*
X21750Y-26050D01*
X21295Y-21933D02*
X21295Y-21698D01*
X20950Y-22750D02*
X20950Y-22278D01*
X20830Y-22870D02*
X20950Y-22750D01*
X18375Y-22870D02*
X20830Y-22870D01*
X20950Y-22278D02*
X21295Y-21933D01*
X23000Y-30000D02*
X23000Y-28118D01*
X23000Y-28118D02*
X21220Y-26338D01*
X21295Y-21266D02*
X21560Y-21266D01*
X21560Y-21266D02*
X21614Y-21212D01*
X21177Y-20259D02*
X21187Y-20250D01*
X34750Y-23050D02*
X35050Y-22750D01*
X35050Y-22750D02*
X35050Y-21000D01*
X33385Y-21377D02*
X30000Y-21377D01*
X21811Y-19370D02*
X21811Y-19842D01*
X22480Y-18700D02*
X21811Y-19370D01*
X27322Y-18700D02*
X22480Y-18700D01*
X30000Y-21377D02*
X27322Y-18700D01*
X33400Y-21363D02*
X33400Y-20650D01*
X33385Y-21377D02*
X33400Y-21363D01*
X21403Y-20250D02*
X21187Y-20250D01*
X21811Y-19842D02*
X21403Y-20250D01*
X13877Y-12337D02*
X13390Y-11850D01*
X13390Y-11850D02*
X13110Y-11850D01*
X11122Y-12337D02*
X11658Y-12874D01*
X13341Y-12874D02*
X13877Y-12337D01*
X11658Y-12874D02*
X13341Y-12874D01*
X21614Y-20677D02*
X21187Y-20250D01*
X21614Y-22244D02*
X21614Y-21212D01*
X21614Y-21212D02*
X21614Y-20677D01*
X21220Y-22637D02*
X21614Y-22244D01*
X21220Y-26338D02*
X21220Y-22637D01*
G54D46*
X20812Y-20250D02*
X21187Y-20250D01*
G54D44*
X21300Y-19500D02*
X21300Y-19550D01*
X20812Y-19987D02*
X20812Y-20250D01*
X20900Y-19900D02*
X20812Y-19987D01*
X20950Y-19900D02*
X20900Y-19900D01*
X21300Y-19550D02*
X20950Y-19900D01*
X23228Y-20826D02*
X23228Y-23622D01*
X23228Y-23622D02*
X22750Y-24100D01*
X22750Y-24100D02*
X22750Y-26050D01*
X14754Y-16166D02*
X14754Y-16045D01*
X14754Y-16045D02*
X15300Y-15500D01*
X14406Y-16156D02*
X14744Y-16156D01*
X14744Y-16156D02*
X14754Y-16166D01*
X12934Y-16000D02*
X14250Y-16000D01*
X14250Y-16000D02*
X14406Y-16156D01*
X14406Y-16156D02*
X14400Y-16150D01*
X14450Y-17400D02*
X14754Y-17095D01*
X12465Y-15685D02*
X12246Y-15904D01*
X12246Y-15904D02*
X12246Y-16746D01*
X12246Y-16746D02*
X12650Y-17150D01*
X12650Y-17150D02*
X13500Y-17150D01*
X13500Y-17150D02*
X13750Y-17400D01*
X13750Y-17400D02*
X14450Y-17400D01*
X12934Y-15685D02*
X12465Y-15685D01*
X14754Y-17095D02*
X14754Y-17070D01*
X15300Y-17750D02*
X15300Y-17616D01*
X14754Y-17070D02*
X14754Y-16833D01*
X15300Y-17616D02*
X14754Y-17070D01*
X15300Y-17750D02*
X15300Y-17600D01*
X18539Y-16366D02*
X18539Y-16111D01*
X18880Y-15770D02*
X18880Y-14710D01*
X18539Y-16111D02*
X18880Y-15770D01*
X18834Y-16661D02*
X18889Y-16661D01*
X17690Y-13790D02*
X17200Y-13300D01*
X18670Y-13790D02*
X17690Y-13790D01*
X19270Y-14390D02*
X18670Y-13790D01*
X19270Y-16280D02*
X19270Y-14390D01*
X18889Y-16661D02*
X19270Y-16280D01*
X20704Y-21501D02*
X20281Y-21501D01*
X18900Y-12510D02*
X18898Y-12011D01*
X18898Y-12011D02*
X18740Y-11853D01*
X18740Y-11853D02*
X15446Y-11853D01*
X15446Y-11853D02*
X15150Y-12150D01*
X20281Y-21501D02*
X20196Y-21417D01*
G54D46*
X15850Y-14350D02*
X16130Y-14350D01*
X16710Y-12810D02*
X16200Y-12300D01*
X16710Y-13770D02*
X16710Y-12810D01*
X16130Y-14350D02*
X16710Y-13770D01*
G54D44*
X17161Y-16366D02*
X16816Y-16366D01*
X14500Y-12800D02*
X15150Y-12150D01*
X14500Y-13900D02*
X14500Y-12800D01*
X14650Y-14050D02*
X14500Y-13900D01*
X15550Y-14050D02*
X14650Y-14050D01*
X15850Y-14350D02*
X15550Y-14050D01*
X15850Y-15400D02*
X15850Y-14350D01*
X16816Y-16366D02*
X15850Y-15400D01*
X18834Y-17842D02*
X19818Y-17842D01*
X20160Y-17500D02*
X20705Y-17500D01*
X19818Y-17842D02*
X20160Y-17500D01*
G54D46*
X18834Y-16858D02*
X19172Y-16858D01*
X17710Y-12810D02*
X17200Y-12300D01*
X18680Y-12810D02*
X17710Y-12810D01*
X19560Y-13690D02*
X18680Y-12810D01*
X19560Y-16470D02*
X19560Y-13690D01*
X19172Y-16858D02*
X19560Y-16470D01*
G54D44*
X18834Y-17645D02*
X19565Y-17645D01*
X20610Y-16600D02*
X20705Y-16600D01*
X19565Y-17645D02*
X20610Y-16600D01*
G54D46*
X20100Y-13400D02*
X19842Y-13142D01*
X19842Y-13142D02*
X19842Y-11692D01*
G54D44*
X19842Y-11692D02*
X19400Y-11250D01*
X19400Y-11250D02*
X19400Y-11000D01*
X19528Y-17252D02*
X20235Y-16545D01*
X18834Y-17252D02*
X19528Y-17252D01*
X20235Y-16545D02*
X20235Y-16080D01*
X20704Y-15833D02*
X20481Y-15833D01*
X20481Y-15833D02*
X20235Y-16080D01*
X20417Y-19121D02*
X20417Y-19409D01*
X20508Y-19500D02*
X20700Y-19500D01*
X20417Y-19409D02*
X20508Y-19500D01*
X20444Y-19093D02*
X20417Y-19121D01*
X14500Y-30600D02*
X13800Y-29900D01*
X16169Y-30900D02*
X14800Y-30900D01*
X14800Y-30900D02*
X14500Y-30600D01*
X16384Y-30684D02*
X16169Y-30900D01*
X16400Y-30669D02*
X16384Y-30684D01*
X13800Y-29900D02*
X12900Y-29900D01*
X12900Y-29900D02*
X12000Y-29000D01*
X12000Y-29000D02*
X12000Y-27900D01*
X14350Y-26043D02*
X13893Y-26500D01*
X13400Y-26500D02*
X12000Y-27900D01*
X13893Y-26500D02*
X13400Y-26500D01*
X10600Y-27100D02*
X11400Y-27900D01*
X11400Y-27900D02*
X12000Y-27900D01*
X16400Y-30669D02*
X18307Y-30669D01*
X35068Y-16654D02*
X35068Y-17668D01*
X36740Y-20310D02*
X36050Y-21000D01*
X36740Y-18240D02*
X36740Y-20310D01*
X36400Y-17900D02*
X36740Y-18240D01*
X35300Y-17900D02*
X36400Y-17900D01*
X35068Y-17668D02*
X35300Y-17900D01*
X33295Y-16600D02*
X35014Y-16600D01*
X35046Y-16632D02*
X35068Y-16654D01*
X35046Y-16632D02*
X35046Y-12100D01*
X32208Y-12100D02*
X35046Y-12100D01*
G54D46*
X34452Y-11506D02*
X34452Y-10362D01*
X27280Y-10340D02*
X20004Y-10340D01*
X20004Y-10340D02*
X19954Y-10290D01*
X35046Y-12100D02*
X34452Y-11506D01*
G54D44*
X35014Y-16600D02*
X35068Y-16654D01*
X35567Y-30587D02*
X35567Y-28967D01*
X27478Y-30756D02*
X35398Y-30756D01*
X35398Y-30756D02*
X35567Y-30587D01*
X27000Y-30278D02*
X27478Y-30756D01*
X27000Y-30000D02*
X27000Y-30278D01*
X35684Y-26316D02*
X35684Y-25900D01*
X35100Y-26900D02*
X35684Y-26316D01*
X35100Y-28500D02*
X35100Y-26900D01*
X35567Y-28967D02*
X35100Y-28500D01*
G54D46*
X20700Y-13400D02*
X21300Y-13400D01*
X35684Y-25900D02*
X35784Y-25800D01*
X35784Y-25800D02*
X36500Y-25800D01*
G54D47*
X25490Y-30510D02*
X25510Y-30530D01*
X25510Y-30530D02*
X25510Y-30600D01*
G54D44*
X26000Y-30000D02*
X25490Y-30510D01*
X25490Y-30510D02*
X25330Y-30669D01*
X25330Y-30669D02*
X18307Y-30669D01*
X18307Y-29015D02*
X18307Y-30669D01*
X17557Y-28266D02*
X18307Y-29015D01*
X17250Y-28266D02*
X17557Y-28266D01*
X21258Y-28266D02*
X21535Y-28543D01*
X20604Y-25250D02*
X20748Y-25393D01*
X27000Y-30000D02*
X27000Y-28905D01*
X27000Y-28905D02*
X27400Y-28505D01*
G54D46*
X17535Y-17664D02*
X17535Y-17035D01*
X17535Y-17035D02*
X18164Y-17035D01*
X18164Y-17035D02*
X18164Y-17664D01*
X17555Y-18334D02*
X17555Y-17684D01*
X17555Y-17684D02*
X17535Y-17664D01*
X10395Y-13457D02*
X10384Y-13446D01*
X10384Y-13446D02*
X10384Y-13391D01*
G54D44*
X19921Y-21732D02*
X20423Y-21732D01*
X19015Y-21259D02*
X19448Y-21259D01*
X19921Y-21732D02*
X19448Y-21259D01*
X20457Y-21698D02*
X20704Y-21698D01*
X20423Y-21732D02*
X20457Y-21698D01*
X31328Y-20900D02*
X30294Y-20900D01*
X32164Y-12056D02*
X32208Y-12100D01*
X30514Y-12056D02*
X29546Y-12056D01*
X28534Y-12056D02*
X29546Y-12056D01*
X27214Y-12034D02*
X27258Y-12078D01*
X25828Y-12034D02*
X27214Y-12034D01*
X24332Y-11990D02*
X24354Y-12012D01*
X24354Y-12012D02*
X25806Y-12012D01*
X25806Y-12012D02*
X25828Y-12034D01*
X27258Y-12078D02*
X28512Y-12078D01*
X28512Y-12078D02*
X28534Y-12056D01*
X30514Y-12056D02*
X32164Y-12056D01*
X30096Y-20152D02*
X29348Y-20152D01*
X30316Y-19932D02*
X30096Y-20152D01*
X30294Y-20900D02*
X30272Y-20922D01*
X20400Y-11000D02*
X21390Y-11990D01*
X24420Y-17424D02*
X24398Y-17446D01*
X24420Y-17424D02*
X25740Y-17424D01*
X21390Y-11990D02*
X24332Y-11990D01*
X27192Y-17402D02*
X25762Y-17402D01*
X25762Y-17402D02*
X25740Y-17424D01*
X28534Y-17336D02*
X27258Y-17336D01*
X28578Y-17292D02*
X28534Y-17336D01*
X30492Y-15862D02*
X30492Y-16280D01*
X30492Y-16280D02*
X29480Y-17292D01*
X29480Y-17292D02*
X28578Y-17292D01*
X27258Y-17336D02*
X27192Y-17402D01*
X13877Y-10762D02*
X14647Y-10762D01*
X20400Y-10665D02*
X20400Y-11000D01*
X19925Y-10190D02*
X20400Y-10665D01*
X15220Y-10190D02*
X19925Y-10190D01*
X14647Y-10762D02*
X15220Y-10190D01*
X11122Y-10762D02*
X13877Y-10762D01*
X10769Y-14248D02*
X10395Y-13874D01*
X10597Y-10762D02*
X11122Y-10762D01*
X10395Y-10965D02*
X10597Y-10762D01*
X10395Y-13874D02*
X10395Y-13457D01*
X10395Y-13457D02*
X10395Y-10965D01*
G54D46*
X22130Y-14400D02*
X21295Y-14400D01*
X12934Y-14231D02*
X12934Y-14248D01*
X13815Y-13350D02*
X12934Y-14231D01*
X10769Y-18509D02*
X10769Y-17732D01*
X10770Y-18510D02*
X10769Y-18509D01*
X12934Y-17752D02*
X12934Y-18424D01*
X15480Y-19760D02*
X15480Y-19200D01*
X15490Y-19770D02*
X15480Y-19760D01*
X12934Y-18424D02*
X13020Y-18510D01*
X19015Y-21259D02*
X16149Y-21259D01*
X16000Y-21110D02*
X16000Y-19350D01*
X16149Y-21259D02*
X16000Y-21110D01*
G54D44*
X33295Y-16135D02*
X33295Y-16600D01*
X33022Y-15862D02*
X33295Y-16135D01*
X33000Y-15862D02*
X33022Y-15862D01*
X30492Y-15862D02*
X33000Y-15862D01*
X35684Y-21366D02*
X36050Y-21000D01*
X35684Y-25900D02*
X35684Y-21366D01*
X15629Y-24173D02*
X15629Y-24763D01*
X15629Y-24763D02*
X14371Y-26021D01*
X14371Y-26021D02*
X14350Y-26043D01*
G54D46*
X21788Y-18600D02*
X21811Y-18622D01*
X21788Y-18600D02*
X21300Y-18600D01*
G54D44*
X22028Y-18405D02*
X21811Y-18622D01*
X28995Y-19200D02*
X28200Y-18405D01*
X28200Y-18405D02*
X22028Y-18405D01*
X20050Y-28266D02*
X21258Y-28266D01*
X20050Y-25250D02*
X20604Y-25250D01*
X17250Y-23576D02*
X17250Y-23852D01*
X17250Y-23576D02*
X17834Y-22992D01*
X17834Y-22992D02*
X17834Y-22755D01*
X17834Y-22755D02*
X17975Y-22615D01*
X18375Y-22615D02*
X17975Y-22615D01*
X17250Y-23852D02*
X16929Y-24173D01*
X18582Y-25000D02*
X18582Y-24409D01*
X18582Y-24409D02*
X18346Y-24173D01*
X18346Y-24173D02*
X16929Y-24173D01*
X19055Y-22322D02*
X18762Y-22615D01*
X18375Y-22615D02*
X18762Y-22615D01*
X19050Y-21225D02*
X19050Y-19350D01*
X19015Y-21259D02*
X19050Y-21225D01*
X20050Y-25250D02*
X19935Y-25250D01*
X19685Y-25000D02*
X18582Y-25000D01*
X18582Y-25000D02*
X18150Y-25000D01*
X19935Y-25250D02*
X19685Y-25000D01*
X14350Y-26043D02*
X14350Y-25050D01*
X26250Y-21200D02*
X26250Y-20561D01*
X27750Y-21214D02*
X27750Y-23050D01*
X26889Y-20354D02*
X27750Y-21214D01*
X26456Y-20354D02*
X26889Y-20354D01*
X26250Y-20561D02*
X26456Y-20354D01*
X27400Y-28505D02*
X27400Y-26900D01*
X27400Y-26900D02*
X27900Y-26900D01*
X27900Y-26900D02*
X28750Y-26050D01*
X17250Y-24700D02*
X17250Y-24494D01*
X17250Y-24494D02*
X16929Y-24173D01*
G54D46*
X17555Y-18334D02*
X17555Y-18675D01*
X17555Y-18675D02*
X17822Y-18942D01*
X17822Y-18942D02*
X18981Y-18942D01*
X18981Y-18942D02*
X19050Y-19010D01*
X19050Y-19010D02*
X19050Y-19350D01*
G54D44*
X21295Y-14400D02*
X21295Y-14000D01*
X21295Y-14000D02*
X21295Y-13505D01*
X21295Y-13505D02*
X21300Y-13500D01*
X21300Y-13500D02*
X21300Y-13400D01*
X21300Y-13400D02*
X21300Y-12870D01*
X21300Y-12870D02*
X20400Y-11970D01*
X20400Y-11970D02*
X20400Y-11000D01*
X16000Y-19350D02*
X15850Y-19200D01*
X15850Y-19200D02*
X15480Y-19200D01*
X15480Y-19200D02*
X15050Y-19200D01*
X14700Y-14500D02*
X14448Y-14248D01*
X14448Y-14248D02*
X12934Y-14248D01*
X14700Y-15500D02*
X14700Y-14500D01*
X12934Y-17752D02*
X14027Y-17752D01*
X14029Y-17750D02*
X14700Y-17750D01*
X14027Y-17752D02*
X14029Y-17750D01*
X10769Y-17732D02*
X10769Y-14248D01*
X10769Y-14248D02*
X12934Y-14248D01*
X25236Y-20905D02*
X24251Y-19921D01*
X23750Y-24675D02*
X23750Y-26050D01*
X24212Y-24212D02*
X23750Y-24675D01*
X24960Y-24212D02*
X24212Y-24212D01*
X25236Y-23937D02*
X24960Y-24212D01*
X25236Y-23937D02*
X25236Y-20905D01*
X26550Y-22050D02*
X26722Y-21877D01*
X26722Y-21877D02*
X26722Y-21200D01*
X26750Y-23050D02*
X26750Y-22250D01*
X26750Y-22250D02*
X26550Y-22050D01*
X24750Y-24777D02*
X24750Y-26050D01*
X24881Y-24645D02*
X24750Y-24777D01*
X13600Y-20900D02*
X14200Y-20900D01*
X18685Y-23385D02*
X18375Y-23385D01*
X18950Y-23650D02*
X18685Y-23385D01*
X14450Y-21950D02*
X14850Y-22350D01*
X14450Y-21150D02*
X14450Y-21950D01*
X14200Y-20900D02*
X14450Y-21150D01*
X20705Y-14400D02*
X20705Y-15166D01*
X20705Y-15166D02*
X20704Y-15166D01*
G54D46*
X20822Y-14517D02*
X20705Y-14400D01*
G54D44*
X21295Y-15166D02*
X21730Y-15166D01*
X17366Y-22870D02*
X16625Y-22870D01*
X17366Y-22870D02*
X17519Y-22716D01*
X21730Y-15166D02*
X21834Y-15063D01*
X16625Y-23130D02*
X16625Y-22870D01*
X32704Y-17366D02*
X32456Y-17366D01*
X32456Y-17366D02*
X32400Y-17310D01*
X32400Y-16800D02*
X32400Y-17310D01*
X32400Y-17310D02*
X32400Y-17514D01*
X32400Y-16800D02*
X32600Y-16600D01*
X32705Y-16600D02*
X32600Y-16600D01*
X32487Y-17601D02*
X32704Y-17601D01*
X32400Y-17514D02*
X32487Y-17601D01*
G54D48*
X14700Y-27900D02*
X15370Y-27900D01*
X15370Y-27900D02*
X17370Y-29900D01*
X15100Y-27900D02*
X14700Y-27900D01*
G54D44*
X25950Y-22050D02*
X25777Y-21877D01*
X25777Y-21877D02*
X25777Y-21200D01*
X25750Y-23050D02*
X25750Y-22250D01*
X25750Y-22250D02*
X25950Y-22050D01*
X17752Y-16366D02*
X17752Y-16172D01*
X16700Y-14800D02*
X17200Y-14300D01*
X16700Y-15770D02*
X16700Y-14800D01*
X17000Y-16070D02*
X16700Y-15770D01*
X17650Y-16070D02*
X17000Y-16070D01*
X17752Y-16172D02*
X17650Y-16070D01*
X17700Y-15600D02*
X17710Y-15600D01*
X17700Y-15600D02*
X17700Y-14800D01*
X18200Y-14300D02*
X17700Y-14800D01*
X18145Y-15925D02*
X18145Y-16366D01*
X17990Y-15770D02*
X18145Y-15925D01*
X17880Y-15770D02*
X17990Y-15770D01*
X17710Y-15600D02*
X17880Y-15770D01*
X17948Y-16366D02*
X17948Y-16108D01*
X17200Y-15360D02*
X17200Y-15300D01*
X17948Y-16108D02*
X17200Y-15360D01*
X16866Y-17055D02*
X16555Y-17055D01*
X15500Y-14500D02*
X15300Y-14500D01*
X15650Y-14650D02*
X15500Y-14500D01*
X15650Y-15650D02*
X15650Y-14650D01*
X16200Y-16200D02*
X15650Y-15650D01*
X16200Y-16700D02*
X16200Y-16200D01*
X16555Y-17055D02*
X16200Y-16700D01*
X18342Y-16366D02*
X18342Y-15442D01*
X18342Y-15442D02*
X18200Y-15300D01*
X21295Y-15598D02*
X21878Y-15598D01*
X21700Y-16600D02*
X22030Y-16270D01*
X22030Y-16270D02*
X22030Y-15750D01*
X22030Y-15750D02*
X21878Y-15598D01*
X21700Y-16600D02*
X21295Y-16600D01*
G54D45*
X12934Y-15370D02*
X12330Y-15370D01*
X11600Y-17350D02*
X11300Y-17050D01*
X11600Y-17350D02*
X11600Y-19550D01*
X11300Y-16400D02*
X11300Y-17050D01*
X12330Y-15370D02*
X11300Y-16400D01*
G54D44*
X21295Y-15401D02*
X22055Y-15401D01*
X21397Y-17500D02*
X22244Y-16653D01*
X22244Y-16653D02*
X22244Y-15590D01*
X22244Y-15590D02*
X22055Y-15401D01*
X21397Y-17500D02*
X21295Y-17500D01*
X16314Y-17464D02*
X15585Y-16735D01*
X16314Y-17464D02*
X16866Y-17464D01*
X16866Y-17448D02*
X16866Y-17464D01*
X15530Y-16166D02*
X15345Y-16166D01*
X15585Y-16221D02*
X15530Y-16166D01*
X15585Y-16735D02*
X15585Y-16221D01*
X16195Y-17645D02*
X15383Y-16833D01*
X16866Y-17645D02*
X16195Y-17645D01*
X15383Y-16833D02*
X15345Y-16833D01*
X18450Y-20700D02*
X18450Y-19350D01*
X17800Y-19350D02*
X18450Y-19350D01*
X17358Y-18758D02*
X17358Y-18334D01*
X17800Y-19200D02*
X17358Y-18758D01*
X17800Y-19250D02*
X17800Y-19200D01*
X16450Y-20700D02*
X16600Y-20550D01*
X16600Y-20550D02*
X16600Y-19350D01*
X17200Y-19350D02*
X17200Y-18950D01*
X17161Y-18911D02*
X17161Y-18334D01*
X17200Y-18950D02*
X17161Y-18911D01*
X17200Y-19350D02*
X16600Y-19350D01*
X16402Y-17252D02*
X15894Y-16744D01*
X14300Y-16500D02*
X14050Y-16750D01*
X14050Y-17025D02*
X14050Y-16750D01*
X16402Y-17252D02*
X16866Y-17252D01*
X15894Y-16744D02*
X15894Y-16386D01*
G54D45*
X12934Y-16630D02*
X13655Y-16630D01*
X13655Y-16630D02*
X14050Y-17025D01*
G54D44*
X32408Y-17913D02*
X32522Y-17798D01*
X32522Y-17798D02*
X32704Y-17798D01*
X18834Y-18039D02*
X19992Y-18039D01*
X20118Y-17913D02*
X32408Y-17913D01*
X32408Y-17913D02*
X32401Y-17913D01*
X19992Y-18039D02*
X20118Y-17913D01*
X16625Y-22615D02*
X17232Y-22007D01*
X17232Y-22007D02*
X19370Y-22007D01*
X19370Y-22007D02*
X19842Y-22480D01*
X19842Y-22480D02*
X20511Y-22480D01*
X32126Y-18149D02*
X32588Y-18149D01*
X20118Y-18385D02*
X20354Y-18149D01*
X18590Y-18385D02*
X20118Y-18385D01*
X18539Y-18334D02*
X18590Y-18385D01*
X20354Y-18149D02*
X32126Y-18149D01*
X32588Y-18149D02*
X32704Y-18033D01*
X16866Y-17842D02*
X16158Y-17842D01*
X13900Y-20550D02*
X12800Y-20550D01*
X14050Y-20400D02*
X13900Y-20550D01*
X14050Y-19800D02*
X14050Y-20400D01*
X13750Y-19500D02*
X14050Y-19800D01*
X13750Y-18500D02*
X13750Y-19500D01*
X13950Y-18300D02*
X13750Y-18500D01*
X15700Y-18300D02*
X13950Y-18300D01*
X16158Y-17842D02*
X15700Y-18300D01*
G54D48*
X12800Y-20550D02*
X12400Y-20550D01*
X12400Y-20550D02*
X11600Y-21350D01*
G54D44*
X21181Y-27665D02*
X21181Y-27834D01*
X20491Y-22047D02*
X20591Y-22047D01*
X20591Y-22047D02*
X20704Y-21933D01*
G54D45*
X19803Y-22047D02*
X20491Y-22047D01*
X15551Y-23250D02*
X15551Y-22598D01*
X16456Y-21692D02*
X15551Y-22598D01*
X19448Y-21692D02*
X16456Y-21692D01*
X19803Y-22047D02*
X19448Y-21692D01*
X20491Y-22047D02*
X20493Y-22046D01*
G54D44*
X20050Y-26534D02*
X21181Y-27665D01*
G54D45*
X19000Y-27400D02*
X19000Y-29700D01*
X19200Y-29900D02*
X19630Y-29900D01*
X19000Y-29700D02*
X19200Y-29900D01*
X20050Y-26534D02*
X19866Y-26534D01*
X19866Y-26534D02*
X19000Y-27400D01*
X15650Y-23250D02*
X15551Y-23250D01*
X15551Y-23250D02*
X14350Y-23250D01*
X16100Y-23700D02*
X15650Y-23250D01*
X16100Y-26850D02*
X16100Y-23700D01*
X16650Y-27400D02*
X16100Y-26850D01*
X19000Y-27400D02*
X16650Y-27400D01*
G54D10*
G36*
X15092Y-18101D02*
X14910Y-18101D01*
X14952Y-18060D01*
X14974Y-18004D01*
X14975Y-17945D01*
X14975Y-17837D01*
X14937Y-17800D01*
X14750Y-17800D01*
X14750Y-17807D01*
X14650Y-17807D01*
X14650Y-17800D01*
X14462Y-17800D01*
X14437Y-17825D01*
X14100Y-17825D01*
X14100Y-18062D01*
X14137Y-18100D01*
X14295Y-18100D01*
X14354Y-18099D01*
X14410Y-18077D01*
X14441Y-18045D01*
X14447Y-18060D01*
X14489Y-18101D01*
X14000Y-18101D01*
X14000Y-18062D01*
X14000Y-17825D01*
X13662Y-17825D01*
X13625Y-17862D01*
X13624Y-17979D01*
X13647Y-18034D01*
X13689Y-18077D01*
X13745Y-18099D01*
X13804Y-18100D01*
X13962Y-18100D01*
X14000Y-18062D01*
X14000Y-18101D01*
X13950Y-18101D01*
X13874Y-18116D01*
X13809Y-18159D01*
X13809Y-18159D01*
X13609Y-18359D01*
X13576Y-18410D01*
X13576Y-18175D01*
X13576Y-17839D01*
X13538Y-17802D01*
X12984Y-17802D01*
X12984Y-18258D01*
X13021Y-18295D01*
X13396Y-18295D01*
X13455Y-18295D01*
X13511Y-18272D01*
X13553Y-18230D01*
X13576Y-18175D01*
X13576Y-18410D01*
X13566Y-18424D01*
X13551Y-18500D01*
X13551Y-18900D01*
X12884Y-18900D01*
X12884Y-18258D01*
X12884Y-17802D01*
X12329Y-17802D01*
X12292Y-17839D01*
X12291Y-18175D01*
X12314Y-18230D01*
X12356Y-18272D01*
X12412Y-18295D01*
X12471Y-18295D01*
X12846Y-18295D01*
X12884Y-18258D01*
X12884Y-18900D01*
X11848Y-18900D01*
X11848Y-17350D01*
X11848Y-17349D01*
X11829Y-17254D01*
X11829Y-17254D01*
X11811Y-17228D01*
X11775Y-17174D01*
X11775Y-17174D01*
X11548Y-16947D01*
X11548Y-16502D01*
X12047Y-16003D01*
X12047Y-16554D01*
X12015Y-16540D01*
X11885Y-16540D01*
X11765Y-16589D01*
X11674Y-16681D01*
X11624Y-16800D01*
X11624Y-16930D01*
X11673Y-17050D01*
X11765Y-17141D01*
X11884Y-17191D01*
X12014Y-17191D01*
X12134Y-17142D01*
X12225Y-17050D01*
X12238Y-17019D01*
X12427Y-17208D01*
X12412Y-17208D01*
X12356Y-17231D01*
X12314Y-17273D01*
X12291Y-17328D01*
X12292Y-17664D01*
X12329Y-17702D01*
X12884Y-17702D01*
X12884Y-17694D01*
X12984Y-17694D01*
X12984Y-17702D01*
X13538Y-17702D01*
X13576Y-17664D01*
X13576Y-17506D01*
X13609Y-17540D01*
X13609Y-17540D01*
X13631Y-17554D01*
X13631Y-17554D01*
X13624Y-17570D01*
X13625Y-17687D01*
X13662Y-17725D01*
X14000Y-17725D01*
X14000Y-17717D01*
X14100Y-17717D01*
X14100Y-17725D01*
X14437Y-17725D01*
X14462Y-17700D01*
X14650Y-17700D01*
X14650Y-17692D01*
X14750Y-17692D01*
X14750Y-17700D01*
X14937Y-17700D01*
X14975Y-17662D01*
X14975Y-17571D01*
X15026Y-17623D01*
X15026Y-18004D01*
X15049Y-18058D01*
X15090Y-18100D01*
X15092Y-18101D01*
X15092Y-18101D01*
G37*
G54D44*
X15092Y-18101D02*
X14910Y-18101D01*
X14952Y-18060D01*
X14974Y-18004D01*
X14975Y-17945D01*
X14975Y-17837D01*
X14937Y-17800D01*
X14750Y-17800D01*
X14750Y-17807D01*
X14650Y-17807D01*
X14650Y-17800D01*
X14462Y-17800D01*
X14437Y-17825D01*
X14100Y-17825D01*
X14100Y-18062D01*
X14137Y-18100D01*
X14295Y-18100D01*
X14354Y-18099D01*
X14410Y-18077D01*
X14441Y-18045D01*
X14447Y-18060D01*
X14489Y-18101D01*
X14000Y-18101D01*
X14000Y-18062D01*
X14000Y-17825D01*
X13662Y-17825D01*
X13625Y-17862D01*
X13624Y-17979D01*
X13647Y-18034D01*
X13689Y-18077D01*
X13745Y-18099D01*
X13804Y-18100D01*
X13962Y-18100D01*
X14000Y-18062D01*
X14000Y-18101D01*
X13950Y-18101D01*
X13874Y-18116D01*
X13809Y-18159D01*
X13809Y-18159D01*
X13609Y-18359D01*
X13576Y-18410D01*
X13576Y-18175D01*
X13576Y-17839D01*
X13538Y-17802D01*
X12984Y-17802D01*
X12984Y-18258D01*
X13021Y-18295D01*
X13396Y-18295D01*
X13455Y-18295D01*
X13511Y-18272D01*
X13553Y-18230D01*
X13576Y-18175D01*
X13576Y-18410D01*
X13566Y-18424D01*
X13551Y-18500D01*
X13551Y-18900D01*
X12884Y-18900D01*
X12884Y-18258D01*
X12884Y-17802D01*
X12329Y-17802D01*
X12292Y-17839D01*
X12291Y-18175D01*
X12314Y-18230D01*
X12356Y-18272D01*
X12412Y-18295D01*
X12471Y-18295D01*
X12846Y-18295D01*
X12884Y-18258D01*
X12884Y-18900D01*
X11848Y-18900D01*
X11848Y-17350D01*
X11848Y-17349D01*
X11829Y-17254D01*
X11829Y-17254D01*
X11811Y-17228D01*
X11775Y-17174D01*
X11775Y-17174D01*
X11548Y-16947D01*
X11548Y-16502D01*
X12047Y-16003D01*
X12047Y-16554D01*
X12015Y-16540D01*
X11885Y-16540D01*
X11765Y-16589D01*
X11674Y-16681D01*
X11624Y-16800D01*
X11624Y-16930D01*
X11673Y-17050D01*
X11765Y-17141D01*
X11884Y-17191D01*
X12014Y-17191D01*
X12134Y-17142D01*
X12225Y-17050D01*
X12238Y-17019D01*
X12427Y-17208D01*
X12412Y-17208D01*
X12356Y-17231D01*
X12314Y-17273D01*
X12291Y-17328D01*
X12292Y-17664D01*
X12329Y-17702D01*
X12884Y-17702D01*
X12884Y-17694D01*
X12984Y-17694D01*
X12984Y-17702D01*
X13538Y-17702D01*
X13576Y-17664D01*
X13576Y-17506D01*
X13609Y-17540D01*
X13609Y-17540D01*
X13631Y-17554D01*
X13631Y-17554D01*
X13624Y-17570D01*
X13625Y-17687D01*
X13662Y-17725D01*
X14000Y-17725D01*
X14000Y-17717D01*
X14100Y-17717D01*
X14100Y-17725D01*
X14437Y-17725D01*
X14462Y-17700D01*
X14650Y-17700D01*
X14650Y-17692D01*
X14750Y-17692D01*
X14750Y-17700D01*
X14937Y-17700D01*
X14975Y-17662D01*
X14975Y-17571D01*
X15026Y-17623D01*
X15026Y-18004D01*
X15049Y-18058D01*
X15090Y-18100D01*
X15092Y-18101D01*
G54D10*
G36*
X16521Y-12974D02*
X16488Y-12940D01*
X16460Y-12968D01*
X16427Y-12901D01*
X16257Y-12844D01*
X16079Y-12857D01*
X15972Y-12901D01*
X15939Y-12968D01*
X16200Y-13229D01*
X16205Y-13223D01*
X16276Y-13294D01*
X16270Y-13300D01*
X16276Y-13305D01*
X16205Y-13376D01*
X16200Y-13370D01*
X16194Y-13376D01*
X16123Y-13305D01*
X16129Y-13300D01*
X15868Y-13039D01*
X15801Y-13072D01*
X15744Y-13242D01*
X15753Y-13359D01*
X15700Y-13306D01*
X15700Y-13120D01*
X15677Y-13065D01*
X15635Y-13022D01*
X15579Y-13000D01*
X15520Y-12999D01*
X14720Y-12999D01*
X14698Y-13009D01*
X14698Y-12882D01*
X14982Y-12598D01*
X15579Y-12598D01*
X15633Y-12575D01*
X15675Y-12534D01*
X15698Y-12479D01*
X15698Y-12420D01*
X15698Y-12051D01*
X15817Y-12051D01*
X15751Y-12210D01*
X15751Y-12388D01*
X15819Y-12553D01*
X15945Y-12679D01*
X16110Y-12748D01*
X16288Y-12748D01*
X16354Y-12721D01*
X16521Y-12888D01*
X16521Y-12974D01*
X16521Y-12974D01*
G37*
G54D44*
X16521Y-12974D02*
X16488Y-12940D01*
X16460Y-12968D01*
X16427Y-12901D01*
X16257Y-12844D01*
X16079Y-12857D01*
X15972Y-12901D01*
X15939Y-12968D01*
X16200Y-13229D01*
X16205Y-13223D01*
X16276Y-13294D01*
X16270Y-13300D01*
X16276Y-13305D01*
X16205Y-13376D01*
X16200Y-13370D01*
X16194Y-13376D01*
X16123Y-13305D01*
X16129Y-13300D01*
X15868Y-13039D01*
X15801Y-13072D01*
X15744Y-13242D01*
X15753Y-13359D01*
X15700Y-13306D01*
X15700Y-13120D01*
X15677Y-13065D01*
X15635Y-13022D01*
X15579Y-13000D01*
X15520Y-12999D01*
X14720Y-12999D01*
X14698Y-13009D01*
X14698Y-12882D01*
X14982Y-12598D01*
X15579Y-12598D01*
X15633Y-12575D01*
X15675Y-12534D01*
X15698Y-12479D01*
X15698Y-12420D01*
X15698Y-12051D01*
X15817Y-12051D01*
X15751Y-12210D01*
X15751Y-12388D01*
X15819Y-12553D01*
X15945Y-12679D01*
X16110Y-12748D01*
X16288Y-12748D01*
X16354Y-12721D01*
X16521Y-12888D01*
X16521Y-12974D01*
G54D10*
G36*
X18222Y-17714D02*
X18214Y-17714D01*
X18214Y-17722D01*
X18114Y-17722D01*
X18114Y-17714D01*
X18114Y-17614D01*
X18114Y-17462D01*
X18114Y-17237D01*
X18114Y-17085D01*
X17962Y-17085D01*
X17737Y-17085D01*
X17585Y-17085D01*
X17585Y-17237D01*
X17585Y-17462D01*
X17585Y-17614D01*
X17737Y-17614D01*
X17962Y-17614D01*
X18114Y-17614D01*
X18114Y-17714D01*
X17962Y-17714D01*
X17737Y-17714D01*
X17585Y-17714D01*
X17585Y-17722D01*
X17485Y-17722D01*
X17485Y-17714D01*
X17477Y-17714D01*
X17477Y-17614D01*
X17485Y-17614D01*
X17485Y-17462D01*
X17485Y-17237D01*
X17485Y-17085D01*
X17477Y-17085D01*
X17477Y-16985D01*
X17485Y-16985D01*
X17485Y-16977D01*
X17585Y-16977D01*
X17585Y-16985D01*
X17737Y-16985D01*
X17962Y-16985D01*
X18114Y-16985D01*
X18114Y-16977D01*
X18214Y-16977D01*
X18214Y-16985D01*
X18222Y-16985D01*
X18222Y-17085D01*
X18214Y-17085D01*
X18214Y-17237D01*
X18214Y-17462D01*
X18214Y-17614D01*
X18222Y-17614D01*
X18222Y-17714D01*
X18222Y-17714D01*
G37*
G54D44*
X18222Y-17714D02*
X18214Y-17714D01*
X18214Y-17722D01*
X18114Y-17722D01*
X18114Y-17714D01*
X18114Y-17614D01*
X18114Y-17462D01*
X18114Y-17237D01*
X18114Y-17085D01*
X17962Y-17085D01*
X17737Y-17085D01*
X17585Y-17085D01*
X17585Y-17237D01*
X17585Y-17462D01*
X17585Y-17614D01*
X17737Y-17614D01*
X17962Y-17614D01*
X18114Y-17614D01*
X18114Y-17714D01*
X17962Y-17714D01*
X17737Y-17714D01*
X17585Y-17714D01*
X17585Y-17722D01*
X17485Y-17722D01*
X17485Y-17714D01*
X17477Y-17714D01*
X17477Y-17614D01*
X17485Y-17614D01*
X17485Y-17462D01*
X17485Y-17237D01*
X17485Y-17085D01*
X17477Y-17085D01*
X17477Y-16985D01*
X17485Y-16985D01*
X17485Y-16977D01*
X17585Y-16977D01*
X17585Y-16985D01*
X17737Y-16985D01*
X17962Y-16985D01*
X18114Y-16985D01*
X18114Y-16977D01*
X18214Y-16977D01*
X18214Y-16985D01*
X18222Y-16985D01*
X18222Y-17085D01*
X18214Y-17085D01*
X18214Y-17237D01*
X18214Y-17462D01*
X18214Y-17614D01*
X18222Y-17614D01*
X18222Y-17714D01*
G54D10*
G36*
X20468Y-21748D02*
X20456Y-21760D01*
X20456Y-21777D01*
X20464Y-21797D01*
X19906Y-21797D01*
X19625Y-21516D01*
X19544Y-21461D01*
X19448Y-21442D01*
X19000Y-21442D01*
X19000Y-19687D01*
X19000Y-19400D01*
X19000Y-19300D01*
X19000Y-19012D01*
X18962Y-18975D01*
X18895Y-18974D01*
X18840Y-18997D01*
X18797Y-19039D01*
X18775Y-19095D01*
X18774Y-19154D01*
X18775Y-19262D01*
X18812Y-19300D01*
X19000Y-19300D01*
X19000Y-19400D01*
X18812Y-19400D01*
X18775Y-19437D01*
X18774Y-19545D01*
X18775Y-19604D01*
X18797Y-19660D01*
X18840Y-19702D01*
X18895Y-19725D01*
X18962Y-19725D01*
X19000Y-19687D01*
X19000Y-21442D01*
X16456Y-21442D01*
X16361Y-21461D01*
X16279Y-21516D01*
X15950Y-21846D01*
X15950Y-19687D01*
X15950Y-19400D01*
X15762Y-19400D01*
X15725Y-19437D01*
X15724Y-19545D01*
X15725Y-19604D01*
X15747Y-19660D01*
X15790Y-19702D01*
X15845Y-19725D01*
X15912Y-19725D01*
X15950Y-19687D01*
X15950Y-21846D01*
X15374Y-22421D01*
X15325Y-22495D01*
X15325Y-19395D01*
X15325Y-19287D01*
X15287Y-19250D01*
X15100Y-19250D01*
X15100Y-19537D01*
X15137Y-19575D01*
X15204Y-19575D01*
X15259Y-19552D01*
X15302Y-19510D01*
X15324Y-19454D01*
X15325Y-19395D01*
X15325Y-22495D01*
X15320Y-22502D01*
X15301Y-22598D01*
X15301Y-23000D01*
X15170Y-23000D01*
X14844Y-22673D01*
X14914Y-22673D01*
X15032Y-22624D01*
X15124Y-22533D01*
X15173Y-22414D01*
X15173Y-22285D01*
X15124Y-22167D01*
X15033Y-22075D01*
X15000Y-22062D01*
X15000Y-19537D01*
X15000Y-19250D01*
X14812Y-19250D01*
X14775Y-19287D01*
X14774Y-19395D01*
X14775Y-19454D01*
X14797Y-19510D01*
X14840Y-19552D01*
X14895Y-19575D01*
X14962Y-19575D01*
X15000Y-19537D01*
X15000Y-22062D01*
X14914Y-22026D01*
X14807Y-22026D01*
X14648Y-21867D01*
X14648Y-21150D01*
X14633Y-21074D01*
X14633Y-21074D01*
X14590Y-21009D01*
X14590Y-21009D01*
X14400Y-20819D01*
X14400Y-19575D01*
X14604Y-19575D01*
X14659Y-19552D01*
X14702Y-19510D01*
X14724Y-19454D01*
X14725Y-19395D01*
X14725Y-18970D01*
X14775Y-18949D01*
X14774Y-19004D01*
X14775Y-19112D01*
X14812Y-19150D01*
X15000Y-19150D01*
X15000Y-19142D01*
X15100Y-19142D01*
X15100Y-19150D01*
X15287Y-19150D01*
X15325Y-19112D01*
X15325Y-19004D01*
X15324Y-18945D01*
X15306Y-18900D01*
X15786Y-18900D01*
X15811Y-18925D01*
X15930Y-18974D01*
X15995Y-18975D01*
X15949Y-18975D01*
X15949Y-19012D01*
X15912Y-18975D01*
X15845Y-18974D01*
X15790Y-18997D01*
X15747Y-19039D01*
X15725Y-19095D01*
X15724Y-19154D01*
X15725Y-19262D01*
X15762Y-19300D01*
X15950Y-19300D01*
X15950Y-19292D01*
X16050Y-19292D01*
X16050Y-19300D01*
X16237Y-19300D01*
X16275Y-19262D01*
X16275Y-19154D01*
X16274Y-19095D01*
X16252Y-19039D01*
X16209Y-18997D01*
X16154Y-18974D01*
X16087Y-18975D01*
X16050Y-19012D01*
X16050Y-18975D01*
X16060Y-18975D01*
X16179Y-18925D01*
X16271Y-18834D01*
X16320Y-18714D01*
X16320Y-18678D01*
X16653Y-18346D01*
X16707Y-18264D01*
X16712Y-18237D01*
X16745Y-18237D01*
X16962Y-18237D01*
X16962Y-18513D01*
X16962Y-18513D01*
X16962Y-18911D01*
X16977Y-18986D01*
X16987Y-19002D01*
X16949Y-19040D01*
X16926Y-19095D01*
X16926Y-19151D01*
X16873Y-19151D01*
X16873Y-19095D01*
X16850Y-19041D01*
X16809Y-18999D01*
X16754Y-18976D01*
X16695Y-18976D01*
X16445Y-18976D01*
X16391Y-18999D01*
X16349Y-19040D01*
X16326Y-19095D01*
X16326Y-19154D01*
X16326Y-19604D01*
X16349Y-19658D01*
X16390Y-19700D01*
X16401Y-19705D01*
X16401Y-20271D01*
X16365Y-20271D01*
X16275Y-20308D01*
X16275Y-19545D01*
X16275Y-19437D01*
X16237Y-19400D01*
X16050Y-19400D01*
X16050Y-19687D01*
X16087Y-19725D01*
X16154Y-19725D01*
X16209Y-19702D01*
X16252Y-19660D01*
X16274Y-19604D01*
X16275Y-19545D01*
X16275Y-20308D01*
X16207Y-20336D01*
X16087Y-20456D01*
X16021Y-20614D01*
X16021Y-20784D01*
X16086Y-20942D01*
X16206Y-21062D01*
X16364Y-21128D01*
X16534Y-21128D01*
X16692Y-21063D01*
X16812Y-20943D01*
X16878Y-20785D01*
X16878Y-20615D01*
X16813Y-20457D01*
X16798Y-20442D01*
X16798Y-19705D01*
X16808Y-19700D01*
X16850Y-19659D01*
X16873Y-19604D01*
X16873Y-19548D01*
X16926Y-19548D01*
X16926Y-19604D01*
X16949Y-19658D01*
X16990Y-19700D01*
X17045Y-19723D01*
X17104Y-19723D01*
X17354Y-19723D01*
X17408Y-19700D01*
X17450Y-19659D01*
X17473Y-19604D01*
X17473Y-19545D01*
X17473Y-19154D01*
X17526Y-19207D01*
X17526Y-19604D01*
X17549Y-19658D01*
X17590Y-19700D01*
X17645Y-19723D01*
X17704Y-19723D01*
X17954Y-19723D01*
X18008Y-19700D01*
X18050Y-19659D01*
X18073Y-19604D01*
X18073Y-19548D01*
X18176Y-19548D01*
X18176Y-19604D01*
X18199Y-19658D01*
X18240Y-19700D01*
X18251Y-19705D01*
X18251Y-20318D01*
X18207Y-20336D01*
X18087Y-20456D01*
X18021Y-20614D01*
X18021Y-20784D01*
X18086Y-20942D01*
X18206Y-21062D01*
X18364Y-21128D01*
X18534Y-21128D01*
X18692Y-21063D01*
X18812Y-20943D01*
X18878Y-20785D01*
X18878Y-20615D01*
X18813Y-20457D01*
X18693Y-20337D01*
X18648Y-20318D01*
X18648Y-19705D01*
X18658Y-19700D01*
X18700Y-19659D01*
X18723Y-19604D01*
X18723Y-19545D01*
X18723Y-19095D01*
X18700Y-19041D01*
X18659Y-18999D01*
X18604Y-18976D01*
X18545Y-18976D01*
X18295Y-18976D01*
X18241Y-18999D01*
X18199Y-19040D01*
X18176Y-19095D01*
X18176Y-19151D01*
X18073Y-19151D01*
X18073Y-19095D01*
X18050Y-19041D01*
X18009Y-18999D01*
X17954Y-18976D01*
X17895Y-18976D01*
X17857Y-18976D01*
X17769Y-18889D01*
X17786Y-18900D01*
X17786Y-18900D01*
X17845Y-18912D01*
X17859Y-18915D01*
X17859Y-18914D01*
X17859Y-18915D01*
X19274Y-18915D01*
X19359Y-19000D01*
X19479Y-19049D01*
X19556Y-19050D01*
X19363Y-19243D01*
X19325Y-19300D01*
X19325Y-19300D01*
X19325Y-19299D01*
X19287Y-19299D01*
X19325Y-19262D01*
X19325Y-19154D01*
X19324Y-19095D01*
X19302Y-19039D01*
X19259Y-18997D01*
X19204Y-18974D01*
X19137Y-18975D01*
X19100Y-19012D01*
X19100Y-19300D01*
X19107Y-19300D01*
X19107Y-19400D01*
X19100Y-19400D01*
X19100Y-19687D01*
X19137Y-19725D01*
X19204Y-19725D01*
X19259Y-19702D01*
X19290Y-19672D01*
X19290Y-19810D01*
X19264Y-19835D01*
X19215Y-19955D01*
X19214Y-20084D01*
X19264Y-20203D01*
X19355Y-20295D01*
X19475Y-20344D01*
X19604Y-20345D01*
X19723Y-20295D01*
X19724Y-20295D01*
X20454Y-21025D01*
X20454Y-21084D01*
X20465Y-21135D01*
X20457Y-21153D01*
X20457Y-21212D01*
X20457Y-21220D01*
X20380Y-21143D01*
X20261Y-21093D01*
X20132Y-21093D01*
X20013Y-21142D01*
X19922Y-21233D01*
X19873Y-21352D01*
X19873Y-21481D01*
X19922Y-21600D01*
X20013Y-21691D01*
X20132Y-21740D01*
X20260Y-21740D01*
X20359Y-21700D01*
X20456Y-21700D01*
X20456Y-21748D01*
X20468Y-21748D01*
X20468Y-21748D01*
G37*
G54D44*
X20468Y-21748D02*
X20456Y-21760D01*
X20456Y-21777D01*
X20464Y-21797D01*
X19906Y-21797D01*
X19625Y-21516D01*
X19544Y-21461D01*
X19448Y-21442D01*
X19000Y-21442D01*
X19000Y-19687D01*
X19000Y-19400D01*
X19000Y-19300D01*
X19000Y-19012D01*
X18962Y-18975D01*
X18895Y-18974D01*
X18840Y-18997D01*
X18797Y-19039D01*
X18775Y-19095D01*
X18774Y-19154D01*
X18775Y-19262D01*
X18812Y-19300D01*
X19000Y-19300D01*
X19000Y-19400D01*
X18812Y-19400D01*
X18775Y-19437D01*
X18774Y-19545D01*
X18775Y-19604D01*
X18797Y-19660D01*
X18840Y-19702D01*
X18895Y-19725D01*
X18962Y-19725D01*
X19000Y-19687D01*
X19000Y-21442D01*
X16456Y-21442D01*
X16361Y-21461D01*
X16279Y-21516D01*
X15950Y-21846D01*
X15950Y-19687D01*
X15950Y-19400D01*
X15762Y-19400D01*
X15725Y-19437D01*
X15724Y-19545D01*
X15725Y-19604D01*
X15747Y-19660D01*
X15790Y-19702D01*
X15845Y-19725D01*
X15912Y-19725D01*
X15950Y-19687D01*
X15950Y-21846D01*
X15374Y-22421D01*
X15325Y-22495D01*
X15325Y-19395D01*
X15325Y-19287D01*
X15287Y-19250D01*
X15100Y-19250D01*
X15100Y-19537D01*
X15137Y-19575D01*
X15204Y-19575D01*
X15259Y-19552D01*
X15302Y-19510D01*
X15324Y-19454D01*
X15325Y-19395D01*
X15325Y-22495D01*
X15320Y-22502D01*
X15301Y-22598D01*
X15301Y-23000D01*
X15170Y-23000D01*
X14844Y-22673D01*
X14914Y-22673D01*
X15032Y-22624D01*
X15124Y-22533D01*
X15173Y-22414D01*
X15173Y-22285D01*
X15124Y-22167D01*
X15033Y-22075D01*
X15000Y-22062D01*
X15000Y-19537D01*
X15000Y-19250D01*
X14812Y-19250D01*
X14775Y-19287D01*
X14774Y-19395D01*
X14775Y-19454D01*
X14797Y-19510D01*
X14840Y-19552D01*
X14895Y-19575D01*
X14962Y-19575D01*
X15000Y-19537D01*
X15000Y-22062D01*
X14914Y-22026D01*
X14807Y-22026D01*
X14648Y-21867D01*
X14648Y-21150D01*
X14633Y-21074D01*
X14633Y-21074D01*
X14590Y-21009D01*
X14590Y-21009D01*
X14400Y-20819D01*
X14400Y-19575D01*
X14604Y-19575D01*
X14659Y-19552D01*
X14702Y-19510D01*
X14724Y-19454D01*
X14725Y-19395D01*
X14725Y-18970D01*
X14775Y-18949D01*
X14774Y-19004D01*
X14775Y-19112D01*
X14812Y-19150D01*
X15000Y-19150D01*
X15000Y-19142D01*
X15100Y-19142D01*
X15100Y-19150D01*
X15287Y-19150D01*
X15325Y-19112D01*
X15325Y-19004D01*
X15324Y-18945D01*
X15306Y-18900D01*
X15786Y-18900D01*
X15811Y-18925D01*
X15930Y-18974D01*
X15995Y-18975D01*
X15949Y-18975D01*
X15949Y-19012D01*
X15912Y-18975D01*
X15845Y-18974D01*
X15790Y-18997D01*
X15747Y-19039D01*
X15725Y-19095D01*
X15724Y-19154D01*
X15725Y-19262D01*
X15762Y-19300D01*
X15950Y-19300D01*
X15950Y-19292D01*
X16050Y-19292D01*
X16050Y-19300D01*
X16237Y-19300D01*
X16275Y-19262D01*
X16275Y-19154D01*
X16274Y-19095D01*
X16252Y-19039D01*
X16209Y-18997D01*
X16154Y-18974D01*
X16087Y-18975D01*
X16050Y-19012D01*
X16050Y-18975D01*
X16060Y-18975D01*
X16179Y-18925D01*
X16271Y-18834D01*
X16320Y-18714D01*
X16320Y-18678D01*
X16653Y-18346D01*
X16707Y-18264D01*
X16712Y-18237D01*
X16745Y-18237D01*
X16962Y-18237D01*
X16962Y-18513D01*
X16962Y-18513D01*
X16962Y-18911D01*
X16977Y-18986D01*
X16987Y-19002D01*
X16949Y-19040D01*
X16926Y-19095D01*
X16926Y-19151D01*
X16873Y-19151D01*
X16873Y-19095D01*
X16850Y-19041D01*
X16809Y-18999D01*
X16754Y-18976D01*
X16695Y-18976D01*
X16445Y-18976D01*
X16391Y-18999D01*
X16349Y-19040D01*
X16326Y-19095D01*
X16326Y-19154D01*
X16326Y-19604D01*
X16349Y-19658D01*
X16390Y-19700D01*
X16401Y-19705D01*
X16401Y-20271D01*
X16365Y-20271D01*
X16275Y-20308D01*
X16275Y-19545D01*
X16275Y-19437D01*
X16237Y-19400D01*
X16050Y-19400D01*
X16050Y-19687D01*
X16087Y-19725D01*
X16154Y-19725D01*
X16209Y-19702D01*
X16252Y-19660D01*
X16274Y-19604D01*
X16275Y-19545D01*
X16275Y-20308D01*
X16207Y-20336D01*
X16087Y-20456D01*
X16021Y-20614D01*
X16021Y-20784D01*
X16086Y-20942D01*
X16206Y-21062D01*
X16364Y-21128D01*
X16534Y-21128D01*
X16692Y-21063D01*
X16812Y-20943D01*
X16878Y-20785D01*
X16878Y-20615D01*
X16813Y-20457D01*
X16798Y-20442D01*
X16798Y-19705D01*
X16808Y-19700D01*
X16850Y-19659D01*
X16873Y-19604D01*
X16873Y-19548D01*
X16926Y-19548D01*
X16926Y-19604D01*
X16949Y-19658D01*
X16990Y-19700D01*
X17045Y-19723D01*
X17104Y-19723D01*
X17354Y-19723D01*
X17408Y-19700D01*
X17450Y-19659D01*
X17473Y-19604D01*
X17473Y-19545D01*
X17473Y-19154D01*
X17526Y-19207D01*
X17526Y-19604D01*
X17549Y-19658D01*
X17590Y-19700D01*
X17645Y-19723D01*
X17704Y-19723D01*
X17954Y-19723D01*
X18008Y-19700D01*
X18050Y-19659D01*
X18073Y-19604D01*
X18073Y-19548D01*
X18176Y-19548D01*
X18176Y-19604D01*
X18199Y-19658D01*
X18240Y-19700D01*
X18251Y-19705D01*
X18251Y-20318D01*
X18207Y-20336D01*
X18087Y-20456D01*
X18021Y-20614D01*
X18021Y-20784D01*
X18086Y-20942D01*
X18206Y-21062D01*
X18364Y-21128D01*
X18534Y-21128D01*
X18692Y-21063D01*
X18812Y-20943D01*
X18878Y-20785D01*
X18878Y-20615D01*
X18813Y-20457D01*
X18693Y-20337D01*
X18648Y-20318D01*
X18648Y-19705D01*
X18658Y-19700D01*
X18700Y-19659D01*
X18723Y-19604D01*
X18723Y-19545D01*
X18723Y-19095D01*
X18700Y-19041D01*
X18659Y-18999D01*
X18604Y-18976D01*
X18545Y-18976D01*
X18295Y-18976D01*
X18241Y-18999D01*
X18199Y-19040D01*
X18176Y-19095D01*
X18176Y-19151D01*
X18073Y-19151D01*
X18073Y-19095D01*
X18050Y-19041D01*
X18009Y-18999D01*
X17954Y-18976D01*
X17895Y-18976D01*
X17857Y-18976D01*
X17769Y-18889D01*
X17786Y-18900D01*
X17786Y-18900D01*
X17845Y-18912D01*
X17859Y-18915D01*
X17859Y-18914D01*
X17859Y-18915D01*
X19274Y-18915D01*
X19359Y-19000D01*
X19479Y-19049D01*
X19556Y-19050D01*
X19363Y-19243D01*
X19325Y-19300D01*
X19325Y-19300D01*
X19325Y-19299D01*
X19287Y-19299D01*
X19325Y-19262D01*
X19325Y-19154D01*
X19324Y-19095D01*
X19302Y-19039D01*
X19259Y-18997D01*
X19204Y-18974D01*
X19137Y-18975D01*
X19100Y-19012D01*
X19100Y-19300D01*
X19107Y-19300D01*
X19107Y-19400D01*
X19100Y-19400D01*
X19100Y-19687D01*
X19137Y-19725D01*
X19204Y-19725D01*
X19259Y-19702D01*
X19290Y-19672D01*
X19290Y-19810D01*
X19264Y-19835D01*
X19215Y-19955D01*
X19214Y-20084D01*
X19264Y-20203D01*
X19355Y-20295D01*
X19475Y-20344D01*
X19604Y-20345D01*
X19723Y-20295D01*
X19724Y-20295D01*
X20454Y-21025D01*
X20454Y-21084D01*
X20465Y-21135D01*
X20457Y-21153D01*
X20457Y-21212D01*
X20457Y-21220D01*
X20380Y-21143D01*
X20261Y-21093D01*
X20132Y-21093D01*
X20013Y-21142D01*
X19922Y-21233D01*
X19873Y-21352D01*
X19873Y-21481D01*
X19922Y-21600D01*
X20013Y-21691D01*
X20132Y-21740D01*
X20260Y-21740D01*
X20359Y-21700D01*
X20456Y-21700D01*
X20456Y-21748D01*
X20468Y-21748D01*
G54D10*
G36*
X34225Y-18318D02*
X34217Y-18329D01*
X34198Y-18425D01*
X34198Y-19120D01*
X33950Y-19120D01*
X33950Y-19020D01*
X33927Y-18965D01*
X33885Y-18922D01*
X33829Y-18900D01*
X33770Y-18899D01*
X32970Y-18899D01*
X32915Y-18922D01*
X32872Y-18964D01*
X32850Y-19020D01*
X32849Y-19079D01*
X32849Y-19679D01*
X32872Y-19734D01*
X32914Y-19777D01*
X32970Y-19799D01*
X33029Y-19800D01*
X33829Y-19800D01*
X33884Y-19777D01*
X33927Y-19735D01*
X33949Y-19679D01*
X33950Y-19620D01*
X33950Y-19620D01*
X34198Y-19620D01*
X34198Y-21431D01*
X33951Y-21679D01*
X33503Y-21679D01*
X33568Y-21652D01*
X33659Y-21561D01*
X33709Y-21442D01*
X33709Y-21313D01*
X33660Y-21194D01*
X33598Y-21133D01*
X33598Y-21098D01*
X33829Y-21098D01*
X33883Y-21075D01*
X33925Y-21034D01*
X33948Y-20979D01*
X33948Y-20920D01*
X33948Y-20320D01*
X33925Y-20266D01*
X33884Y-20224D01*
X33829Y-20201D01*
X33770Y-20201D01*
X32970Y-20201D01*
X32916Y-20224D01*
X32874Y-20265D01*
X32851Y-20320D01*
X32851Y-20379D01*
X32851Y-20979D01*
X32874Y-21033D01*
X32915Y-21075D01*
X32970Y-21098D01*
X33029Y-21098D01*
X33201Y-21098D01*
X33201Y-21104D01*
X33126Y-21179D01*
X30082Y-21179D01*
X27463Y-18560D01*
X27398Y-18517D01*
X27322Y-18502D01*
X22480Y-18502D01*
X22404Y-18517D01*
X22340Y-18560D01*
X21670Y-19229D01*
X21627Y-19294D01*
X21612Y-19370D01*
X21612Y-19583D01*
X21575Y-19621D01*
X21575Y-18795D01*
X21575Y-18687D01*
X21537Y-18650D01*
X21350Y-18650D01*
X21350Y-18937D01*
X21387Y-18975D01*
X21454Y-18975D01*
X21509Y-18952D01*
X21552Y-18910D01*
X21574Y-18854D01*
X21575Y-18795D01*
X21575Y-19621D01*
X21573Y-19622D01*
X21573Y-19245D01*
X21550Y-19191D01*
X21509Y-19149D01*
X21454Y-19126D01*
X21395Y-19126D01*
X21250Y-19126D01*
X21250Y-18937D01*
X21250Y-18650D01*
X21062Y-18650D01*
X21025Y-18687D01*
X21024Y-18795D01*
X21025Y-18854D01*
X21047Y-18910D01*
X21090Y-18952D01*
X21145Y-18975D01*
X21212Y-18975D01*
X21250Y-18937D01*
X21250Y-19126D01*
X21145Y-19126D01*
X21091Y-19149D01*
X21049Y-19190D01*
X21026Y-19245D01*
X21026Y-19304D01*
X21026Y-19542D01*
X20973Y-19595D01*
X20973Y-19245D01*
X20950Y-19191D01*
X20909Y-19149D01*
X20854Y-19126D01*
X20795Y-19126D01*
X20740Y-19126D01*
X20740Y-19056D01*
X20706Y-18975D01*
X20854Y-18975D01*
X20909Y-18952D01*
X20952Y-18910D01*
X20974Y-18854D01*
X20975Y-18795D01*
X20975Y-18348D01*
X21025Y-18348D01*
X21024Y-18404D01*
X21025Y-18512D01*
X21062Y-18550D01*
X21250Y-18550D01*
X21250Y-18542D01*
X21350Y-18542D01*
X21350Y-18550D01*
X21537Y-18550D01*
X21575Y-18512D01*
X21575Y-18404D01*
X21574Y-18348D01*
X32126Y-18348D01*
X32588Y-18348D01*
X32597Y-18346D01*
X32502Y-18385D01*
X32410Y-18476D01*
X32361Y-18595D01*
X32361Y-18724D01*
X32410Y-18842D01*
X32501Y-18934D01*
X32620Y-18983D01*
X32749Y-18983D01*
X32867Y-18934D01*
X32944Y-18858D01*
X32974Y-18858D01*
X33049Y-18843D01*
X33049Y-18843D01*
X33114Y-18800D01*
X33435Y-18479D01*
X33435Y-18479D01*
X33435Y-18479D01*
X33478Y-18414D01*
X33478Y-18414D01*
X33490Y-18353D01*
X33493Y-18338D01*
X33493Y-18338D01*
X33493Y-18338D01*
X33493Y-18227D01*
X33519Y-18201D01*
X33530Y-18174D01*
X33530Y-18276D01*
X33579Y-18394D01*
X33670Y-18486D01*
X33789Y-18535D01*
X33918Y-18535D01*
X34036Y-18486D01*
X34128Y-18395D01*
X34177Y-18276D01*
X34177Y-18271D01*
X34225Y-18318D01*
X34225Y-18318D01*
G37*
G54D44*
X34225Y-18318D02*
X34217Y-18329D01*
X34198Y-18425D01*
X34198Y-19120D01*
X33950Y-19120D01*
X33950Y-19020D01*
X33927Y-18965D01*
X33885Y-18922D01*
X33829Y-18900D01*
X33770Y-18899D01*
X32970Y-18899D01*
X32915Y-18922D01*
X32872Y-18964D01*
X32850Y-19020D01*
X32849Y-19079D01*
X32849Y-19679D01*
X32872Y-19734D01*
X32914Y-19777D01*
X32970Y-19799D01*
X33029Y-19800D01*
X33829Y-19800D01*
X33884Y-19777D01*
X33927Y-19735D01*
X33949Y-19679D01*
X33950Y-19620D01*
X33950Y-19620D01*
X34198Y-19620D01*
X34198Y-21431D01*
X33951Y-21679D01*
X33503Y-21679D01*
X33568Y-21652D01*
X33659Y-21561D01*
X33709Y-21442D01*
X33709Y-21313D01*
X33660Y-21194D01*
X33598Y-21133D01*
X33598Y-21098D01*
X33829Y-21098D01*
X33883Y-21075D01*
X33925Y-21034D01*
X33948Y-20979D01*
X33948Y-20920D01*
X33948Y-20320D01*
X33925Y-20266D01*
X33884Y-20224D01*
X33829Y-20201D01*
X33770Y-20201D01*
X32970Y-20201D01*
X32916Y-20224D01*
X32874Y-20265D01*
X32851Y-20320D01*
X32851Y-20379D01*
X32851Y-20979D01*
X32874Y-21033D01*
X32915Y-21075D01*
X32970Y-21098D01*
X33029Y-21098D01*
X33201Y-21098D01*
X33201Y-21104D01*
X33126Y-21179D01*
X30082Y-21179D01*
X27463Y-18560D01*
X27398Y-18517D01*
X27322Y-18502D01*
X22480Y-18502D01*
X22404Y-18517D01*
X22340Y-18560D01*
X21670Y-19229D01*
X21627Y-19294D01*
X21612Y-19370D01*
X21612Y-19583D01*
X21575Y-19621D01*
X21575Y-18795D01*
X21575Y-18687D01*
X21537Y-18650D01*
X21350Y-18650D01*
X21350Y-18937D01*
X21387Y-18975D01*
X21454Y-18975D01*
X21509Y-18952D01*
X21552Y-18910D01*
X21574Y-18854D01*
X21575Y-18795D01*
X21575Y-19621D01*
X21573Y-19622D01*
X21573Y-19245D01*
X21550Y-19191D01*
X21509Y-19149D01*
X21454Y-19126D01*
X21395Y-19126D01*
X21250Y-19126D01*
X21250Y-18937D01*
X21250Y-18650D01*
X21062Y-18650D01*
X21025Y-18687D01*
X21024Y-18795D01*
X21025Y-18854D01*
X21047Y-18910D01*
X21090Y-18952D01*
X21145Y-18975D01*
X21212Y-18975D01*
X21250Y-18937D01*
X21250Y-19126D01*
X21145Y-19126D01*
X21091Y-19149D01*
X21049Y-19190D01*
X21026Y-19245D01*
X21026Y-19304D01*
X21026Y-19542D01*
X20973Y-19595D01*
X20973Y-19245D01*
X20950Y-19191D01*
X20909Y-19149D01*
X20854Y-19126D01*
X20795Y-19126D01*
X20740Y-19126D01*
X20740Y-19056D01*
X20706Y-18975D01*
X20854Y-18975D01*
X20909Y-18952D01*
X20952Y-18910D01*
X20974Y-18854D01*
X20975Y-18795D01*
X20975Y-18348D01*
X21025Y-18348D01*
X21024Y-18404D01*
X21025Y-18512D01*
X21062Y-18550D01*
X21250Y-18550D01*
X21250Y-18542D01*
X21350Y-18542D01*
X21350Y-18550D01*
X21537Y-18550D01*
X21575Y-18512D01*
X21575Y-18404D01*
X21574Y-18348D01*
X32126Y-18348D01*
X32588Y-18348D01*
X32597Y-18346D01*
X32502Y-18385D01*
X32410Y-18476D01*
X32361Y-18595D01*
X32361Y-18724D01*
X32410Y-18842D01*
X32501Y-18934D01*
X32620Y-18983D01*
X32749Y-18983D01*
X32867Y-18934D01*
X32944Y-18858D01*
X32974Y-18858D01*
X33049Y-18843D01*
X33049Y-18843D01*
X33114Y-18800D01*
X33435Y-18479D01*
X33435Y-18479D01*
X33435Y-18479D01*
X33478Y-18414D01*
X33478Y-18414D01*
X33490Y-18353D01*
X33493Y-18338D01*
X33493Y-18338D01*
X33493Y-18338D01*
X33493Y-18227D01*
X33519Y-18201D01*
X33530Y-18174D01*
X33530Y-18276D01*
X33579Y-18394D01*
X33670Y-18486D01*
X33789Y-18535D01*
X33918Y-18535D01*
X34036Y-18486D01*
X34128Y-18395D01*
X34177Y-18276D01*
X34177Y-18271D01*
X34225Y-18318D01*
G54D10*
G36*
X36801Y-28917D02*
X36748Y-28970D01*
X36748Y-27851D01*
X36748Y-16851D01*
X36634Y-16576D01*
X36424Y-16365D01*
X36149Y-16251D01*
X35851Y-16251D01*
X35576Y-16365D01*
X35448Y-16493D01*
X35448Y-11270D01*
X35448Y-10670D01*
X35425Y-10616D01*
X35384Y-10574D01*
X35329Y-10551D01*
X35270Y-10551D01*
X34670Y-10551D01*
X34616Y-10574D01*
X34574Y-10615D01*
X34551Y-10670D01*
X34551Y-10729D01*
X34551Y-11329D01*
X34574Y-11383D01*
X34615Y-11425D01*
X34670Y-11448D01*
X34729Y-11448D01*
X35329Y-11448D01*
X35383Y-11425D01*
X35425Y-11384D01*
X35448Y-11329D01*
X35448Y-11270D01*
X35448Y-16493D01*
X35365Y-16575D01*
X35251Y-16850D01*
X35251Y-17148D01*
X35365Y-17423D01*
X35575Y-17634D01*
X35850Y-17748D01*
X36148Y-17748D01*
X36423Y-17634D01*
X36634Y-17424D01*
X36748Y-17149D01*
X36748Y-16851D01*
X36748Y-27851D01*
X36634Y-27576D01*
X36505Y-27446D01*
X36505Y-21057D01*
X36498Y-20962D01*
X36498Y-19911D01*
X36430Y-19746D01*
X36304Y-19620D01*
X36139Y-19551D01*
X35961Y-19551D01*
X35796Y-19619D01*
X35670Y-19745D01*
X35601Y-19910D01*
X35601Y-20088D01*
X35669Y-20253D01*
X35795Y-20379D01*
X35960Y-20448D01*
X36138Y-20448D01*
X36303Y-20380D01*
X36429Y-20254D01*
X36498Y-20089D01*
X36498Y-19911D01*
X36498Y-20962D01*
X36492Y-20879D01*
X36448Y-20772D01*
X36381Y-20739D01*
X36310Y-20810D01*
X36310Y-20668D01*
X36277Y-20601D01*
X36107Y-20544D01*
X35929Y-20557D01*
X35822Y-20601D01*
X35789Y-20668D01*
X36050Y-20929D01*
X36310Y-20668D01*
X36310Y-20810D01*
X36120Y-21000D01*
X36381Y-21260D01*
X36448Y-21227D01*
X36505Y-21057D01*
X36505Y-27446D01*
X36424Y-27365D01*
X36310Y-27318D01*
X36310Y-21331D01*
X36050Y-21070D01*
X35979Y-21141D01*
X35979Y-21000D01*
X35718Y-20739D01*
X35651Y-20772D01*
X35594Y-20942D01*
X35607Y-21120D01*
X35651Y-21227D01*
X35718Y-21260D01*
X35979Y-21000D01*
X35979Y-21141D01*
X35789Y-21331D01*
X35822Y-21398D01*
X35992Y-21455D01*
X36170Y-21442D01*
X36277Y-21398D01*
X36310Y-21331D01*
X36310Y-27318D01*
X36149Y-27251D01*
X35851Y-27251D01*
X35576Y-27365D01*
X35365Y-27575D01*
X35251Y-27850D01*
X35251Y-28148D01*
X35365Y-28423D01*
X35575Y-28634D01*
X35850Y-28748D01*
X36148Y-28748D01*
X36423Y-28634D01*
X36634Y-28424D01*
X36748Y-28149D01*
X36748Y-27851D01*
X36748Y-28970D01*
X35859Y-29859D01*
X35816Y-29924D01*
X35801Y-30000D01*
X35801Y-30579D01*
X35782Y-30675D01*
X35740Y-30739D01*
X35675Y-30782D01*
X35580Y-30801D01*
X35448Y-30801D01*
X35448Y-29911D01*
X35380Y-29746D01*
X35254Y-29620D01*
X35089Y-29551D01*
X34948Y-29551D01*
X34948Y-26426D01*
X34989Y-26409D01*
X35108Y-26290D01*
X35173Y-26134D01*
X35173Y-25966D01*
X35109Y-25810D01*
X34990Y-25691D01*
X34948Y-25673D01*
X34948Y-24789D01*
X34933Y-24713D01*
X34933Y-24713D01*
X34890Y-24649D01*
X34654Y-24412D01*
X34654Y-24306D01*
X34605Y-24187D01*
X34514Y-24096D01*
X34395Y-24046D01*
X34266Y-24046D01*
X34173Y-24085D01*
X34173Y-22966D01*
X34109Y-22810D01*
X33990Y-22691D01*
X33834Y-22626D01*
X33666Y-22626D01*
X33510Y-22690D01*
X33391Y-22809D01*
X33326Y-22965D01*
X33326Y-23133D01*
X33390Y-23289D01*
X33509Y-23408D01*
X33665Y-23473D01*
X33833Y-23473D01*
X33989Y-23409D01*
X34108Y-23290D01*
X34173Y-23134D01*
X34173Y-22966D01*
X34173Y-24085D01*
X34147Y-24095D01*
X34056Y-24186D01*
X34007Y-24305D01*
X34007Y-24434D01*
X34056Y-24553D01*
X34147Y-24644D01*
X34266Y-24693D01*
X34373Y-24693D01*
X34551Y-24871D01*
X34551Y-25673D01*
X34510Y-25690D01*
X34391Y-25809D01*
X34326Y-25965D01*
X34326Y-26133D01*
X34390Y-26289D01*
X34509Y-26408D01*
X34551Y-26426D01*
X34551Y-29750D01*
X34566Y-29825D01*
X34579Y-29844D01*
X34551Y-29910D01*
X34551Y-30088D01*
X34619Y-30253D01*
X34745Y-30379D01*
X34910Y-30448D01*
X35088Y-30448D01*
X35253Y-30380D01*
X35379Y-30254D01*
X35448Y-30089D01*
X35448Y-29911D01*
X35448Y-30801D01*
X34448Y-30801D01*
X34448Y-29911D01*
X34380Y-29746D01*
X34254Y-29620D01*
X34089Y-29551D01*
X33948Y-29551D01*
X33948Y-26426D01*
X33989Y-26409D01*
X34108Y-26290D01*
X34173Y-26134D01*
X34173Y-25966D01*
X34109Y-25810D01*
X33990Y-25691D01*
X33948Y-25673D01*
X33948Y-24891D01*
X33933Y-24815D01*
X33933Y-24815D01*
X33890Y-24751D01*
X33505Y-24366D01*
X33505Y-24117D01*
X33581Y-24041D01*
X33630Y-23922D01*
X33630Y-23794D01*
X33581Y-23675D01*
X33490Y-23584D01*
X33371Y-23534D01*
X33243Y-23534D01*
X33173Y-23563D01*
X33173Y-22966D01*
X33109Y-22810D01*
X32990Y-22691D01*
X32834Y-22626D01*
X32666Y-22626D01*
X32510Y-22690D01*
X32391Y-22809D01*
X32326Y-22965D01*
X32326Y-23133D01*
X32390Y-23289D01*
X32509Y-23408D01*
X32665Y-23473D01*
X32833Y-23473D01*
X32989Y-23409D01*
X33108Y-23290D01*
X33173Y-23134D01*
X33173Y-22966D01*
X33173Y-23563D01*
X33124Y-23583D01*
X33033Y-23674D01*
X32983Y-23793D01*
X32983Y-23922D01*
X33032Y-24041D01*
X33108Y-24117D01*
X33108Y-24448D01*
X33123Y-24524D01*
X33166Y-24589D01*
X33551Y-24973D01*
X33551Y-25673D01*
X33510Y-25690D01*
X33391Y-25809D01*
X33326Y-25965D01*
X33326Y-26133D01*
X33390Y-26289D01*
X33509Y-26408D01*
X33551Y-26426D01*
X33551Y-29750D01*
X33566Y-29825D01*
X33579Y-29844D01*
X33551Y-29910D01*
X33551Y-30088D01*
X33619Y-30253D01*
X33745Y-30379D01*
X33910Y-30448D01*
X34088Y-30448D01*
X34253Y-30380D01*
X34379Y-30254D01*
X34448Y-30089D01*
X34448Y-29911D01*
X34448Y-30801D01*
X33448Y-30801D01*
X33448Y-29911D01*
X33380Y-29746D01*
X33254Y-29620D01*
X33089Y-29551D01*
X32948Y-29551D01*
X32948Y-26426D01*
X32989Y-26409D01*
X33108Y-26290D01*
X33173Y-26134D01*
X33173Y-25966D01*
X33109Y-25810D01*
X32990Y-25691D01*
X32834Y-25626D01*
X32666Y-25626D01*
X32510Y-25690D01*
X32391Y-25809D01*
X32326Y-25965D01*
X32326Y-26133D01*
X32390Y-26289D01*
X32509Y-26408D01*
X32551Y-26426D01*
X32551Y-29750D01*
X32566Y-29825D01*
X32579Y-29844D01*
X32551Y-29910D01*
X32551Y-30088D01*
X32619Y-30253D01*
X32745Y-30379D01*
X32910Y-30448D01*
X33088Y-30448D01*
X33253Y-30380D01*
X33379Y-30254D01*
X33448Y-30089D01*
X33448Y-29911D01*
X33448Y-30801D01*
X32448Y-30801D01*
X32448Y-29911D01*
X32380Y-29746D01*
X32254Y-29620D01*
X32089Y-29551D01*
X31948Y-29551D01*
X31948Y-26426D01*
X31989Y-26409D01*
X32108Y-26290D01*
X32173Y-26134D01*
X32173Y-25966D01*
X32173Y-22966D01*
X32109Y-22810D01*
X31990Y-22691D01*
X31834Y-22626D01*
X31666Y-22626D01*
X31510Y-22690D01*
X31391Y-22809D01*
X31326Y-22965D01*
X31326Y-23133D01*
X31390Y-23289D01*
X31509Y-23408D01*
X31665Y-23473D01*
X31833Y-23473D01*
X31989Y-23409D01*
X32108Y-23290D01*
X32173Y-23134D01*
X32173Y-22966D01*
X32173Y-25966D01*
X32109Y-25810D01*
X31990Y-25691D01*
X31834Y-25626D01*
X31666Y-25626D01*
X31510Y-25690D01*
X31391Y-25809D01*
X31326Y-25965D01*
X31326Y-26133D01*
X31390Y-26289D01*
X31509Y-26408D01*
X31551Y-26426D01*
X31551Y-29750D01*
X31566Y-29825D01*
X31579Y-29844D01*
X31551Y-29910D01*
X31551Y-30088D01*
X31619Y-30253D01*
X31745Y-30379D01*
X31910Y-30448D01*
X32088Y-30448D01*
X32253Y-30380D01*
X32379Y-30254D01*
X32448Y-30089D01*
X32448Y-29911D01*
X32448Y-30801D01*
X31448Y-30801D01*
X31448Y-29911D01*
X31380Y-29746D01*
X31254Y-29620D01*
X31089Y-29551D01*
X30948Y-29551D01*
X30948Y-26426D01*
X30989Y-26409D01*
X31108Y-26290D01*
X31173Y-26134D01*
X31173Y-25966D01*
X31173Y-22966D01*
X31109Y-22810D01*
X30990Y-22691D01*
X30834Y-22626D01*
X30666Y-22626D01*
X30510Y-22690D01*
X30391Y-22809D01*
X30326Y-22965D01*
X30326Y-23133D01*
X30390Y-23289D01*
X30509Y-23408D01*
X30665Y-23473D01*
X30833Y-23473D01*
X30989Y-23409D01*
X31108Y-23290D01*
X31173Y-23134D01*
X31173Y-22966D01*
X31173Y-25966D01*
X31109Y-25810D01*
X30990Y-25691D01*
X30834Y-25626D01*
X30666Y-25626D01*
X30510Y-25690D01*
X30391Y-25809D01*
X30326Y-25965D01*
X30326Y-26133D01*
X30390Y-26289D01*
X30509Y-26408D01*
X30551Y-26426D01*
X30551Y-29750D01*
X30566Y-29825D01*
X30579Y-29844D01*
X30551Y-29910D01*
X30551Y-30088D01*
X30619Y-30253D01*
X30745Y-30379D01*
X30910Y-30448D01*
X31088Y-30448D01*
X31253Y-30380D01*
X31379Y-30254D01*
X31448Y-30089D01*
X31448Y-29911D01*
X31448Y-30801D01*
X30448Y-30801D01*
X30448Y-30270D01*
X30448Y-29670D01*
X30425Y-29616D01*
X30384Y-29574D01*
X30329Y-29551D01*
X30270Y-29551D01*
X29948Y-29551D01*
X29948Y-26426D01*
X29989Y-26409D01*
X30108Y-26290D01*
X30173Y-26134D01*
X30173Y-25966D01*
X30173Y-22966D01*
X30109Y-22810D01*
X29990Y-22691D01*
X29834Y-22626D01*
X29666Y-22626D01*
X29510Y-22690D01*
X29391Y-22809D01*
X29326Y-22965D01*
X29326Y-23133D01*
X29390Y-23289D01*
X29509Y-23408D01*
X29665Y-23473D01*
X29833Y-23473D01*
X29989Y-23409D01*
X30108Y-23290D01*
X30173Y-23134D01*
X30173Y-22966D01*
X30173Y-25966D01*
X30109Y-25810D01*
X29990Y-25691D01*
X29834Y-25626D01*
X29666Y-25626D01*
X29510Y-25690D01*
X29391Y-25809D01*
X29326Y-25965D01*
X29326Y-26133D01*
X29390Y-26289D01*
X29509Y-26408D01*
X29551Y-26426D01*
X29551Y-29700D01*
X29551Y-29729D01*
X29551Y-30329D01*
X29574Y-30383D01*
X29615Y-30425D01*
X29670Y-30448D01*
X29729Y-30448D01*
X30329Y-30448D01*
X30383Y-30425D01*
X30425Y-30384D01*
X30448Y-30329D01*
X30448Y-30270D01*
X30448Y-30801D01*
X29180Y-30801D01*
X29180Y-26101D01*
X29167Y-25933D01*
X29127Y-25837D01*
X29063Y-25807D01*
X28992Y-25878D01*
X28992Y-25736D01*
X28962Y-25672D01*
X28801Y-25619D01*
X28633Y-25632D01*
X28537Y-25672D01*
X28507Y-25736D01*
X28750Y-25979D01*
X28992Y-25736D01*
X28992Y-25878D01*
X28820Y-26050D01*
X29063Y-26292D01*
X29127Y-26262D01*
X29180Y-26101D01*
X29180Y-30801D01*
X28992Y-30801D01*
X28992Y-26363D01*
X28750Y-26120D01*
X28679Y-26191D01*
X28679Y-26050D01*
X28436Y-25807D01*
X28372Y-25837D01*
X28319Y-25998D01*
X28332Y-26166D01*
X28372Y-26262D01*
X28436Y-26292D01*
X28679Y-26050D01*
X28679Y-26191D01*
X28507Y-26363D01*
X28537Y-26427D01*
X28698Y-26480D01*
X28866Y-26467D01*
X28962Y-26427D01*
X28992Y-26363D01*
X28992Y-30801D01*
X28450Y-30801D01*
X28450Y-29910D01*
X28381Y-29745D01*
X28255Y-29618D01*
X28173Y-29584D01*
X28173Y-25966D01*
X28109Y-25810D01*
X27990Y-25691D01*
X27834Y-25626D01*
X27666Y-25626D01*
X27510Y-25690D01*
X27391Y-25809D01*
X27326Y-25965D01*
X27326Y-26133D01*
X27390Y-26289D01*
X27509Y-26408D01*
X27665Y-26473D01*
X27833Y-26473D01*
X27989Y-26409D01*
X28108Y-26290D01*
X28173Y-26134D01*
X28173Y-25966D01*
X28173Y-29584D01*
X28089Y-29550D01*
X27910Y-29549D01*
X27745Y-29618D01*
X27675Y-29688D01*
X27675Y-27095D01*
X27675Y-26704D01*
X27674Y-26645D01*
X27652Y-26589D01*
X27609Y-26547D01*
X27554Y-26524D01*
X27487Y-26525D01*
X27450Y-26562D01*
X27450Y-26850D01*
X27637Y-26850D01*
X27675Y-26812D01*
X27675Y-26704D01*
X27675Y-27095D01*
X27675Y-26987D01*
X27637Y-26950D01*
X27450Y-26950D01*
X27450Y-27237D01*
X27487Y-27275D01*
X27554Y-27275D01*
X27609Y-27252D01*
X27652Y-27210D01*
X27674Y-27154D01*
X27675Y-27095D01*
X27675Y-29688D01*
X27618Y-29744D01*
X27550Y-29910D01*
X27549Y-30089D01*
X27618Y-30254D01*
X27744Y-30381D01*
X27910Y-30449D01*
X28089Y-30450D01*
X28254Y-30381D01*
X28381Y-30255D01*
X28449Y-30089D01*
X28450Y-29910D01*
X28450Y-30801D01*
X27455Y-30801D01*
X27455Y-30057D01*
X27442Y-29879D01*
X27398Y-29772D01*
X27350Y-29748D01*
X27350Y-27237D01*
X27350Y-26950D01*
X27350Y-26850D01*
X27350Y-26562D01*
X27312Y-26525D01*
X27245Y-26524D01*
X27190Y-26547D01*
X27147Y-26589D01*
X27125Y-26645D01*
X27124Y-26704D01*
X27125Y-26812D01*
X27162Y-26850D01*
X27350Y-26850D01*
X27350Y-26950D01*
X27162Y-26950D01*
X27125Y-26987D01*
X27124Y-27095D01*
X27125Y-27154D01*
X27147Y-27210D01*
X27190Y-27252D01*
X27245Y-27275D01*
X27312Y-27275D01*
X27350Y-27237D01*
X27350Y-29748D01*
X27331Y-29739D01*
X27260Y-29810D01*
X27260Y-29668D01*
X27227Y-29601D01*
X27057Y-29544D01*
X26879Y-29557D01*
X26772Y-29601D01*
X26739Y-29668D01*
X27000Y-29929D01*
X27260Y-29668D01*
X27260Y-29810D01*
X27070Y-30000D01*
X27331Y-30260D01*
X27398Y-30227D01*
X27455Y-30057D01*
X27455Y-30801D01*
X27260Y-30801D01*
X27260Y-30331D01*
X27000Y-30070D01*
X26929Y-30141D01*
X26929Y-30000D01*
X26668Y-29739D01*
X26601Y-29772D01*
X26544Y-29942D01*
X26557Y-30120D01*
X26601Y-30227D01*
X26668Y-30260D01*
X26929Y-30000D01*
X26929Y-30141D01*
X26739Y-30331D01*
X26772Y-30398D01*
X26942Y-30455D01*
X27120Y-30442D01*
X27227Y-30398D01*
X27260Y-30331D01*
X27260Y-30801D01*
X26455Y-30801D01*
X26455Y-30057D01*
X26442Y-29879D01*
X26398Y-29772D01*
X26331Y-29739D01*
X26260Y-29810D01*
X26260Y-29668D01*
X26227Y-29601D01*
X26057Y-29544D01*
X25879Y-29557D01*
X25772Y-29601D01*
X25739Y-29668D01*
X26000Y-29929D01*
X26260Y-29668D01*
X26260Y-29810D01*
X26070Y-30000D01*
X26331Y-30260D01*
X26398Y-30227D01*
X26455Y-30057D01*
X26455Y-30801D01*
X26260Y-30801D01*
X26260Y-30331D01*
X26000Y-30070D01*
X25929Y-30141D01*
X25929Y-30000D01*
X25668Y-29739D01*
X25601Y-29772D01*
X25544Y-29942D01*
X25557Y-30120D01*
X25601Y-30227D01*
X25668Y-30260D01*
X25929Y-30000D01*
X25929Y-30141D01*
X25739Y-30331D01*
X25772Y-30398D01*
X25942Y-30455D01*
X26120Y-30442D01*
X26227Y-30398D01*
X26260Y-30331D01*
X26260Y-30801D01*
X20515Y-30801D01*
X20515Y-28886D01*
X20515Y-27645D01*
X20492Y-27590D01*
X20450Y-27548D01*
X20394Y-27525D01*
X20335Y-27525D01*
X20137Y-27525D01*
X20100Y-27563D01*
X20100Y-28216D01*
X20477Y-28216D01*
X20515Y-28178D01*
X20515Y-27645D01*
X20515Y-28886D01*
X20515Y-28353D01*
X20477Y-28316D01*
X20100Y-28316D01*
X20100Y-28969D01*
X20137Y-29006D01*
X20335Y-29006D01*
X20394Y-29006D01*
X20450Y-28983D01*
X20492Y-28941D01*
X20515Y-28886D01*
X20515Y-30801D01*
X17868Y-30801D01*
X17868Y-30370D01*
X17868Y-29370D01*
X17845Y-29316D01*
X17804Y-29274D01*
X17749Y-29251D01*
X17715Y-29251D01*
X17715Y-28886D01*
X17715Y-28353D01*
X17677Y-28316D01*
X17300Y-28316D01*
X17300Y-28969D01*
X17337Y-29006D01*
X17535Y-29006D01*
X17594Y-29006D01*
X17650Y-28983D01*
X17692Y-28941D01*
X17715Y-28886D01*
X17715Y-29251D01*
X17690Y-29251D01*
X17143Y-29251D01*
X16893Y-29001D01*
X16905Y-29006D01*
X16964Y-29006D01*
X17162Y-29006D01*
X17200Y-28969D01*
X17200Y-28316D01*
X16822Y-28316D01*
X16785Y-28353D01*
X16784Y-28886D01*
X16789Y-28897D01*
X15581Y-27688D01*
X15484Y-27624D01*
X15370Y-27601D01*
X15100Y-27601D01*
X15040Y-27601D01*
X15040Y-26886D01*
X15018Y-26831D01*
X14976Y-26789D01*
X14921Y-26767D01*
X14862Y-26767D01*
X13878Y-26767D01*
X13823Y-26789D01*
X13782Y-26831D01*
X13759Y-26886D01*
X13759Y-26945D01*
X13759Y-28913D01*
X13781Y-28968D01*
X13823Y-29010D01*
X13878Y-29032D01*
X13937Y-29032D01*
X14921Y-29032D01*
X14976Y-29010D01*
X15017Y-28968D01*
X15040Y-28913D01*
X15040Y-28854D01*
X15040Y-28198D01*
X15100Y-28198D01*
X15246Y-28198D01*
X16871Y-29823D01*
X16871Y-30429D01*
X16894Y-30483D01*
X16935Y-30525D01*
X16990Y-30548D01*
X17049Y-30548D01*
X17749Y-30548D01*
X17803Y-30525D01*
X17845Y-30484D01*
X17868Y-30429D01*
X17868Y-30370D01*
X17868Y-30801D01*
X16248Y-30801D01*
X16248Y-29851D01*
X16134Y-29576D01*
X15924Y-29365D01*
X15649Y-29251D01*
X15351Y-29251D01*
X15076Y-29365D01*
X14865Y-29575D01*
X14751Y-29850D01*
X14751Y-30148D01*
X14865Y-30423D01*
X15075Y-30634D01*
X15350Y-30748D01*
X15648Y-30748D01*
X15923Y-30634D01*
X16134Y-30424D01*
X16248Y-30149D01*
X16248Y-29851D01*
X16248Y-30801D01*
X13977Y-30801D01*
X13977Y-30049D01*
X13977Y-29750D01*
X13965Y-29700D01*
X13842Y-29481D01*
X13644Y-29325D01*
X13402Y-29257D01*
X12950Y-29257D01*
X12950Y-29850D01*
X13955Y-29850D01*
X13977Y-29750D01*
X13977Y-30049D01*
X13955Y-29950D01*
X12950Y-29950D01*
X12950Y-30542D01*
X13402Y-30542D01*
X13644Y-30474D01*
X13842Y-30318D01*
X13965Y-30099D01*
X13977Y-30049D01*
X13977Y-30801D01*
X12850Y-30801D01*
X12850Y-30542D01*
X12850Y-29950D01*
X12850Y-29850D01*
X12850Y-29257D01*
X12642Y-29257D01*
X12642Y-28402D01*
X12642Y-27950D01*
X12642Y-27850D01*
X12642Y-27397D01*
X12574Y-27155D01*
X12418Y-26957D01*
X12199Y-26834D01*
X12149Y-26822D01*
X12050Y-26844D01*
X12050Y-27850D01*
X12642Y-27850D01*
X12642Y-27950D01*
X12050Y-27950D01*
X12050Y-28955D01*
X12149Y-28977D01*
X12199Y-28965D01*
X12418Y-28842D01*
X12574Y-28644D01*
X12642Y-28402D01*
X12642Y-29257D01*
X12397Y-29257D01*
X12155Y-29325D01*
X11957Y-29481D01*
X11950Y-29495D01*
X11950Y-28955D01*
X11950Y-27950D01*
X11950Y-27850D01*
X11950Y-26844D01*
X11850Y-26822D01*
X11800Y-26834D01*
X11581Y-26957D01*
X11425Y-27155D01*
X11357Y-27397D01*
X11357Y-27850D01*
X11950Y-27850D01*
X11950Y-27950D01*
X11357Y-27950D01*
X11357Y-28402D01*
X11425Y-28644D01*
X11581Y-28842D01*
X11800Y-28965D01*
X11850Y-28977D01*
X11950Y-28955D01*
X11950Y-29495D01*
X11834Y-29700D01*
X11822Y-29750D01*
X11844Y-29850D01*
X12850Y-29850D01*
X12850Y-29950D01*
X11844Y-29950D01*
X11822Y-30049D01*
X11834Y-30099D01*
X11957Y-30318D01*
X12155Y-30474D01*
X12397Y-30542D01*
X12850Y-30542D01*
X12850Y-30801D01*
X10420Y-30801D01*
X10324Y-30782D01*
X10260Y-30740D01*
X10217Y-30675D01*
X10198Y-30580D01*
X10198Y-26318D01*
X10324Y-26234D01*
X10499Y-26200D01*
X13797Y-26200D01*
X14003Y-26159D01*
X14178Y-26042D01*
X15192Y-25028D01*
X15309Y-24853D01*
X15350Y-24647D01*
X15350Y-23500D01*
X15546Y-23500D01*
X15850Y-23803D01*
X15850Y-26850D01*
X15869Y-26945D01*
X15923Y-27026D01*
X16473Y-27576D01*
X16554Y-27630D01*
X16554Y-27630D01*
X16650Y-27650D01*
X16784Y-27650D01*
X16785Y-28178D01*
X16822Y-28216D01*
X17200Y-28216D01*
X17200Y-28208D01*
X17300Y-28208D01*
X17300Y-28216D01*
X17677Y-28216D01*
X17715Y-28178D01*
X17715Y-27650D01*
X18750Y-27650D01*
X18750Y-29700D01*
X18769Y-29795D01*
X18823Y-29876D01*
X19023Y-30076D01*
X19023Y-30076D01*
X19071Y-30109D01*
X19104Y-30130D01*
X19104Y-30130D01*
X19129Y-30136D01*
X19129Y-30429D01*
X19152Y-30484D01*
X19194Y-30527D01*
X19250Y-30549D01*
X19309Y-30550D01*
X20009Y-30550D01*
X20064Y-30527D01*
X20107Y-30485D01*
X20129Y-30429D01*
X20130Y-30370D01*
X20130Y-29370D01*
X20107Y-29315D01*
X20065Y-29272D01*
X20009Y-29250D01*
X20000Y-29250D01*
X20000Y-28969D01*
X20000Y-28316D01*
X20000Y-28216D01*
X20000Y-27563D01*
X19962Y-27525D01*
X19764Y-27525D01*
X19705Y-27525D01*
X19649Y-27548D01*
X19607Y-27590D01*
X19584Y-27645D01*
X19585Y-28178D01*
X19622Y-28216D01*
X20000Y-28216D01*
X20000Y-28316D01*
X19622Y-28316D01*
X19585Y-28353D01*
X19584Y-28886D01*
X19607Y-28941D01*
X19649Y-28983D01*
X19705Y-29006D01*
X19764Y-29006D01*
X19962Y-29006D01*
X20000Y-28969D01*
X20000Y-29250D01*
X19950Y-29249D01*
X19250Y-29249D01*
X19250Y-29250D01*
X19250Y-27503D01*
X19589Y-27164D01*
X19607Y-27209D01*
X19649Y-27251D01*
X19705Y-27274D01*
X19764Y-27274D01*
X20394Y-27274D01*
X20449Y-27251D01*
X20467Y-27234D01*
X20899Y-27666D01*
X20856Y-27769D01*
X20856Y-27899D01*
X20905Y-28018D01*
X20996Y-28110D01*
X21116Y-28159D01*
X21245Y-28159D01*
X21364Y-28110D01*
X21456Y-28018D01*
X21506Y-27899D01*
X21506Y-27770D01*
X21456Y-27650D01*
X21365Y-27559D01*
X21338Y-27548D01*
X21338Y-27548D01*
X21322Y-27523D01*
X21322Y-27523D01*
X20515Y-26716D01*
X20515Y-25913D01*
X20492Y-25858D01*
X20450Y-25816D01*
X20425Y-25806D01*
X20425Y-25404D01*
X20425Y-25095D01*
X20402Y-25040D01*
X20360Y-24997D01*
X20304Y-24975D01*
X20245Y-24974D01*
X20137Y-24975D01*
X20100Y-25012D01*
X20100Y-25200D01*
X20387Y-25200D01*
X20425Y-25162D01*
X20425Y-25095D01*
X20425Y-25404D01*
X20425Y-25337D01*
X20387Y-25300D01*
X20100Y-25300D01*
X20100Y-25487D01*
X20137Y-25525D01*
X20245Y-25525D01*
X20304Y-25524D01*
X20360Y-25502D01*
X20402Y-25459D01*
X20425Y-25404D01*
X20425Y-25806D01*
X20394Y-25793D01*
X20335Y-25793D01*
X20000Y-25793D01*
X20000Y-25487D01*
X20000Y-25300D01*
X20000Y-25200D01*
X20000Y-25012D01*
X19962Y-24975D01*
X19854Y-24974D01*
X19795Y-24975D01*
X19739Y-24997D01*
X19697Y-25040D01*
X19674Y-25095D01*
X19675Y-25162D01*
X19712Y-25200D01*
X20000Y-25200D01*
X20000Y-25300D01*
X19712Y-25300D01*
X19675Y-25337D01*
X19674Y-25404D01*
X19697Y-25459D01*
X19739Y-25502D01*
X19795Y-25524D01*
X19854Y-25525D01*
X19962Y-25525D01*
X20000Y-25487D01*
X20000Y-25793D01*
X19705Y-25793D01*
X19650Y-25816D01*
X19607Y-25858D01*
X19585Y-25913D01*
X19584Y-25973D01*
X19584Y-26461D01*
X19448Y-26597D01*
X19448Y-25445D01*
X19448Y-25245D01*
X19425Y-25191D01*
X19384Y-25149D01*
X19329Y-25126D01*
X19270Y-25126D01*
X18970Y-25126D01*
X18916Y-25149D01*
X18874Y-25190D01*
X18851Y-25245D01*
X18851Y-25304D01*
X18851Y-25504D01*
X18874Y-25558D01*
X18915Y-25600D01*
X18970Y-25623D01*
X19029Y-25623D01*
X19329Y-25623D01*
X19383Y-25600D01*
X19425Y-25559D01*
X19448Y-25504D01*
X19448Y-25445D01*
X19448Y-26597D01*
X18896Y-27150D01*
X17714Y-27150D01*
X17715Y-27094D01*
X17715Y-26092D01*
X18182Y-25625D01*
X18329Y-25625D01*
X18384Y-25602D01*
X18427Y-25560D01*
X18449Y-25504D01*
X18450Y-25445D01*
X18450Y-25245D01*
X18427Y-25190D01*
X18424Y-25187D01*
X18427Y-25184D01*
X18450Y-25129D01*
X18450Y-25087D01*
X18412Y-25050D01*
X18200Y-25050D01*
X18200Y-25057D01*
X18100Y-25057D01*
X18100Y-25050D01*
X18092Y-25050D01*
X18092Y-24950D01*
X18100Y-24950D01*
X18100Y-24942D01*
X18200Y-24942D01*
X18200Y-24950D01*
X18412Y-24950D01*
X18450Y-24912D01*
X18450Y-24870D01*
X18427Y-24815D01*
X18424Y-24812D01*
X18427Y-24810D01*
X18449Y-24754D01*
X18450Y-24695D01*
X18450Y-24495D01*
X18427Y-24440D01*
X18385Y-24397D01*
X18329Y-24375D01*
X18270Y-24374D01*
X17970Y-24374D01*
X17915Y-24397D01*
X17887Y-24425D01*
X17825Y-24425D01*
X17748Y-24440D01*
X17726Y-24454D01*
X17683Y-24483D01*
X17624Y-24543D01*
X17602Y-24490D01*
X17560Y-24447D01*
X17504Y-24425D01*
X17445Y-24424D01*
X17337Y-24425D01*
X17300Y-24462D01*
X17300Y-24650D01*
X17307Y-24650D01*
X17307Y-24750D01*
X17300Y-24750D01*
X17300Y-24937D01*
X17337Y-24975D01*
X17445Y-24975D01*
X17500Y-24974D01*
X17500Y-25025D01*
X17445Y-25024D01*
X17200Y-25024D01*
X17200Y-24937D01*
X17200Y-24750D01*
X17200Y-24650D01*
X17200Y-24462D01*
X17162Y-24425D01*
X17054Y-24424D01*
X16995Y-24425D01*
X16939Y-24447D01*
X16897Y-24490D01*
X16874Y-24545D01*
X16875Y-24612D01*
X16912Y-24650D01*
X17200Y-24650D01*
X17200Y-24750D01*
X16912Y-24750D01*
X16875Y-24787D01*
X16874Y-24854D01*
X16897Y-24909D01*
X16939Y-24952D01*
X16995Y-24974D01*
X17054Y-24975D01*
X17162Y-24975D01*
X17200Y-24937D01*
X17200Y-25024D01*
X16995Y-25024D01*
X16940Y-25047D01*
X16897Y-25089D01*
X16893Y-25100D01*
X16832Y-25100D01*
X16650Y-24917D01*
X16650Y-23642D01*
X16679Y-23613D01*
X16904Y-23613D01*
X16958Y-23590D01*
X17000Y-23549D01*
X17023Y-23494D01*
X17023Y-23435D01*
X17023Y-23275D01*
X17015Y-23257D01*
X17023Y-23239D01*
X17023Y-23180D01*
X17023Y-23068D01*
X17366Y-23068D01*
X17442Y-23053D01*
X17442Y-23053D01*
X17462Y-23039D01*
X17583Y-23040D01*
X17702Y-22990D01*
X17793Y-22899D01*
X17843Y-22781D01*
X17843Y-22652D01*
X17794Y-22533D01*
X17703Y-22442D01*
X17584Y-22393D01*
X17455Y-22393D01*
X17336Y-22442D01*
X17245Y-22533D01*
X17196Y-22651D01*
X17196Y-22671D01*
X17023Y-22671D01*
X17023Y-22665D01*
X17023Y-22505D01*
X17020Y-22499D01*
X17314Y-22206D01*
X19287Y-22206D01*
X19702Y-22620D01*
X19766Y-22663D01*
X19766Y-22663D01*
X19806Y-22671D01*
X18775Y-22671D01*
X18775Y-22505D01*
X18752Y-22450D01*
X18710Y-22407D01*
X18654Y-22385D01*
X18595Y-22384D01*
X18462Y-22385D01*
X18425Y-22422D01*
X18425Y-22575D01*
X18737Y-22575D01*
X18775Y-22537D01*
X18775Y-22505D01*
X18775Y-22671D01*
X18754Y-22671D01*
X18737Y-22655D01*
X18686Y-22655D01*
X18654Y-22641D01*
X18595Y-22641D01*
X18325Y-22641D01*
X18325Y-22575D01*
X18325Y-22422D01*
X18287Y-22385D01*
X18154Y-22384D01*
X18095Y-22385D01*
X18039Y-22407D01*
X17997Y-22450D01*
X17974Y-22505D01*
X17975Y-22537D01*
X18012Y-22575D01*
X18325Y-22575D01*
X18325Y-22641D01*
X18095Y-22641D01*
X18063Y-22655D01*
X18012Y-22655D01*
X17975Y-22692D01*
X17974Y-22724D01*
X17983Y-22744D01*
X17976Y-22760D01*
X17976Y-22819D01*
X17976Y-22979D01*
X17985Y-22999D01*
X17976Y-23020D01*
X17976Y-23079D01*
X17976Y-23239D01*
X17984Y-23257D01*
X17976Y-23275D01*
X17976Y-23334D01*
X17976Y-23494D01*
X17999Y-23548D01*
X18040Y-23590D01*
X18095Y-23613D01*
X18154Y-23613D01*
X18626Y-23613D01*
X18626Y-23714D01*
X18675Y-23832D01*
X18766Y-23924D01*
X18885Y-23973D01*
X19014Y-23973D01*
X19132Y-23924D01*
X19224Y-23833D01*
X19273Y-23714D01*
X19273Y-23585D01*
X19224Y-23467D01*
X19137Y-23380D01*
X19719Y-23380D01*
X19724Y-23385D01*
X19724Y-23450D01*
X19774Y-23569D01*
X19800Y-23595D01*
X19800Y-24374D01*
X19795Y-24374D01*
X19795Y-24375D01*
X19300Y-24375D01*
X19270Y-24374D01*
X18970Y-24374D01*
X18915Y-24397D01*
X18872Y-24439D01*
X18850Y-24495D01*
X18849Y-24554D01*
X18849Y-24754D01*
X18872Y-24809D01*
X18914Y-24852D01*
X18970Y-24874D01*
X19029Y-24875D01*
X19329Y-24875D01*
X19329Y-24875D01*
X19712Y-24875D01*
X19739Y-24902D01*
X19795Y-24924D01*
X19854Y-24925D01*
X20304Y-24925D01*
X20359Y-24902D01*
X20402Y-24860D01*
X20424Y-24804D01*
X20425Y-24745D01*
X20425Y-24495D01*
X20402Y-24440D01*
X20360Y-24397D01*
X20304Y-24375D01*
X20300Y-24375D01*
X20300Y-23595D01*
X20325Y-23570D01*
X20374Y-23450D01*
X20375Y-23321D01*
X20325Y-23201D01*
X20234Y-23110D01*
X20133Y-23068D01*
X20830Y-23068D01*
X20905Y-23053D01*
X20905Y-23053D01*
X20970Y-23010D01*
X21022Y-22958D01*
X21022Y-26338D01*
X21037Y-26414D01*
X21080Y-26478D01*
X22801Y-28200D01*
X22801Y-29551D01*
X22670Y-29551D01*
X22616Y-29574D01*
X22574Y-29615D01*
X22551Y-29670D01*
X22551Y-29729D01*
X22551Y-30329D01*
X22574Y-30383D01*
X22615Y-30425D01*
X22670Y-30448D01*
X22729Y-30448D01*
X23329Y-30448D01*
X23383Y-30425D01*
X23425Y-30384D01*
X23448Y-30329D01*
X23448Y-30270D01*
X23448Y-29670D01*
X23425Y-29616D01*
X23384Y-29574D01*
X23329Y-29551D01*
X23270Y-29551D01*
X23198Y-29551D01*
X23198Y-28118D01*
X23183Y-28042D01*
X23183Y-28042D01*
X23148Y-27990D01*
X23750Y-28591D01*
X23750Y-29616D01*
X23745Y-29618D01*
X23618Y-29744D01*
X23550Y-29910D01*
X23549Y-30089D01*
X23618Y-30254D01*
X23744Y-30381D01*
X23910Y-30449D01*
X24089Y-30450D01*
X24254Y-30381D01*
X24381Y-30255D01*
X24449Y-30089D01*
X24450Y-29910D01*
X24381Y-29745D01*
X24255Y-29618D01*
X24250Y-29616D01*
X24250Y-28488D01*
X24230Y-28392D01*
X24230Y-28392D01*
X24209Y-28360D01*
X24176Y-28311D01*
X24176Y-28311D01*
X22569Y-26703D01*
X22569Y-26667D01*
X22519Y-26548D01*
X22428Y-26456D01*
X22309Y-26407D01*
X22179Y-26407D01*
X22060Y-26456D01*
X21968Y-26547D01*
X21919Y-26667D01*
X21919Y-26756D01*
X21614Y-26452D01*
X21665Y-26473D01*
X21833Y-26473D01*
X21989Y-26409D01*
X22108Y-26290D01*
X22173Y-26134D01*
X22173Y-25966D01*
X22109Y-25810D01*
X21990Y-25691D01*
X21930Y-25666D01*
X21930Y-24373D01*
X22384Y-23919D01*
X22384Y-23919D01*
X22384Y-23919D01*
X22427Y-23855D01*
X22427Y-23855D01*
X22442Y-23779D01*
X22442Y-23341D01*
X22509Y-23408D01*
X22665Y-23473D01*
X22833Y-23473D01*
X22989Y-23409D01*
X23029Y-23368D01*
X23029Y-23539D01*
X22609Y-23960D01*
X22566Y-24024D01*
X22551Y-24100D01*
X22551Y-25673D01*
X22510Y-25690D01*
X22391Y-25809D01*
X22326Y-25965D01*
X22326Y-26133D01*
X22390Y-26289D01*
X22509Y-26408D01*
X22665Y-26473D01*
X22833Y-26473D01*
X22989Y-26409D01*
X23108Y-26290D01*
X23173Y-26134D01*
X23173Y-25966D01*
X23109Y-25810D01*
X22990Y-25691D01*
X22948Y-25673D01*
X22948Y-24182D01*
X23368Y-23762D01*
X23368Y-23762D01*
X23368Y-23762D01*
X23411Y-23697D01*
X23411Y-23697D01*
X23426Y-23622D01*
X23426Y-23325D01*
X23509Y-23408D01*
X23665Y-23473D01*
X23833Y-23473D01*
X23989Y-23409D01*
X24108Y-23290D01*
X24173Y-23134D01*
X24173Y-22966D01*
X24109Y-22810D01*
X23990Y-22691D01*
X23834Y-22626D01*
X23666Y-22626D01*
X23510Y-22690D01*
X23426Y-22774D01*
X23426Y-21085D01*
X23502Y-21010D01*
X23551Y-20891D01*
X23551Y-20762D01*
X23502Y-20643D01*
X23411Y-20552D01*
X23292Y-20503D01*
X23164Y-20503D01*
X23045Y-20552D01*
X22954Y-20643D01*
X22904Y-20762D01*
X22904Y-20890D01*
X22954Y-21009D01*
X23029Y-21085D01*
X23029Y-22731D01*
X22990Y-22691D01*
X22834Y-22626D01*
X22666Y-22626D01*
X22510Y-22690D01*
X22442Y-22758D01*
X22442Y-22188D01*
X22518Y-22112D01*
X22567Y-21993D01*
X22567Y-21865D01*
X22518Y-21746D01*
X22427Y-21655D01*
X22308Y-21605D01*
X22180Y-21605D01*
X22061Y-21654D01*
X21970Y-21745D01*
X21920Y-21864D01*
X21920Y-21993D01*
X21969Y-22112D01*
X22045Y-22188D01*
X22045Y-22746D01*
X21990Y-22691D01*
X21834Y-22626D01*
X21666Y-22626D01*
X21510Y-22690D01*
X21418Y-22782D01*
X21418Y-22719D01*
X21754Y-22384D01*
X21754Y-22384D01*
X21754Y-22384D01*
X21797Y-22320D01*
X21797Y-22320D01*
X21812Y-22244D01*
X21812Y-21212D01*
X21812Y-21212D01*
X21812Y-20677D01*
X21812Y-20677D01*
X21812Y-20677D01*
X21809Y-20662D01*
X21797Y-20601D01*
X21797Y-20601D01*
X21754Y-20536D01*
X21754Y-20536D01*
X21575Y-20358D01*
X21768Y-20165D01*
X21875Y-20166D01*
X21993Y-20116D01*
X22085Y-20025D01*
X22134Y-19907D01*
X22134Y-19796D01*
X22139Y-19801D01*
X22258Y-19850D01*
X22386Y-19851D01*
X22505Y-19801D01*
X22581Y-19725D01*
X23989Y-19725D01*
X23977Y-19737D01*
X23928Y-19856D01*
X23928Y-19985D01*
X23977Y-20104D01*
X24068Y-20195D01*
X24187Y-20244D01*
X24294Y-20244D01*
X25037Y-20987D01*
X25037Y-22738D01*
X24990Y-22691D01*
X24834Y-22626D01*
X24666Y-22626D01*
X24510Y-22690D01*
X24391Y-22809D01*
X24326Y-22965D01*
X24326Y-23133D01*
X24390Y-23289D01*
X24509Y-23408D01*
X24665Y-23473D01*
X24833Y-23473D01*
X24989Y-23409D01*
X25037Y-23360D01*
X25037Y-23854D01*
X24878Y-24014D01*
X24212Y-24014D01*
X24212Y-24014D01*
X24197Y-24017D01*
X24136Y-24029D01*
X24072Y-24072D01*
X24072Y-24072D01*
X23609Y-24534D01*
X23566Y-24599D01*
X23551Y-24675D01*
X23551Y-25673D01*
X23510Y-25690D01*
X23391Y-25809D01*
X23326Y-25965D01*
X23326Y-26133D01*
X23390Y-26289D01*
X23509Y-26408D01*
X23665Y-26473D01*
X23833Y-26473D01*
X23989Y-26409D01*
X24108Y-26290D01*
X24173Y-26134D01*
X24173Y-25966D01*
X24109Y-25810D01*
X23990Y-25691D01*
X23948Y-25673D01*
X23948Y-24757D01*
X24294Y-24411D01*
X24659Y-24411D01*
X24607Y-24462D01*
X24558Y-24581D01*
X24558Y-24709D01*
X24562Y-24720D01*
X24551Y-24777D01*
X24551Y-25673D01*
X24510Y-25690D01*
X24391Y-25809D01*
X24326Y-25965D01*
X24326Y-26133D01*
X24390Y-26289D01*
X24509Y-26408D01*
X24665Y-26473D01*
X24833Y-26473D01*
X24989Y-26409D01*
X25108Y-26290D01*
X25173Y-26134D01*
X25173Y-25966D01*
X25109Y-25810D01*
X24990Y-25691D01*
X24948Y-25673D01*
X24948Y-24968D01*
X25064Y-24920D01*
X25155Y-24829D01*
X25205Y-24710D01*
X25205Y-24581D01*
X25156Y-24462D01*
X25068Y-24374D01*
X25068Y-24374D01*
X25100Y-24352D01*
X25376Y-24077D01*
X25376Y-24077D01*
X25376Y-24077D01*
X25419Y-24012D01*
X25419Y-24012D01*
X25434Y-23937D01*
X25434Y-23333D01*
X25509Y-23408D01*
X25665Y-23473D01*
X25833Y-23473D01*
X25989Y-23409D01*
X26108Y-23290D01*
X26173Y-23134D01*
X26173Y-22966D01*
X26109Y-22810D01*
X25990Y-22691D01*
X25948Y-22673D01*
X25948Y-22423D01*
X26104Y-22423D01*
X26158Y-22400D01*
X26200Y-22359D01*
X26223Y-22304D01*
X26223Y-22245D01*
X26223Y-21795D01*
X26200Y-21741D01*
X26188Y-21728D01*
X26210Y-21706D01*
X26210Y-21250D01*
X26210Y-21150D01*
X26210Y-20693D01*
X26173Y-20656D01*
X26141Y-20656D01*
X26086Y-20679D01*
X26044Y-20721D01*
X26021Y-20776D01*
X26021Y-20836D01*
X26021Y-21112D01*
X26058Y-21150D01*
X26210Y-21150D01*
X26210Y-21250D01*
X26058Y-21250D01*
X26021Y-21287D01*
X26021Y-21563D01*
X26021Y-21623D01*
X26043Y-21676D01*
X25982Y-21676D01*
X26004Y-21623D01*
X26004Y-21564D01*
X26004Y-20776D01*
X25982Y-20722D01*
X25940Y-20680D01*
X25885Y-20657D01*
X25826Y-20657D01*
X25669Y-20657D01*
X25614Y-20680D01*
X25573Y-20722D01*
X25550Y-20776D01*
X25550Y-20835D01*
X25550Y-21623D01*
X25572Y-21677D01*
X25579Y-21683D01*
X25579Y-21877D01*
X25594Y-21953D01*
X25637Y-22017D01*
X25669Y-22050D01*
X25609Y-22109D01*
X25566Y-22174D01*
X25551Y-22250D01*
X25551Y-22673D01*
X25510Y-22690D01*
X25434Y-22766D01*
X25434Y-20905D01*
X25434Y-20905D01*
X25434Y-20905D01*
X25431Y-20890D01*
X25419Y-20829D01*
X25419Y-20829D01*
X25376Y-20765D01*
X25376Y-20765D01*
X24575Y-19964D01*
X24575Y-19857D01*
X24526Y-19738D01*
X24514Y-19725D01*
X26571Y-19725D01*
X27904Y-21059D01*
X27904Y-21166D01*
X27954Y-21285D01*
X28044Y-21376D01*
X28163Y-21425D01*
X28292Y-21425D01*
X28411Y-21376D01*
X28502Y-21285D01*
X28551Y-21166D01*
X28551Y-21038D01*
X28523Y-20969D01*
X28928Y-21374D01*
X28928Y-21481D01*
X28977Y-21600D01*
X29068Y-21691D01*
X29187Y-21740D01*
X29289Y-21740D01*
X29272Y-21752D01*
X28602Y-22421D01*
X28548Y-22502D01*
X28529Y-22598D01*
X28529Y-22681D01*
X28509Y-22689D01*
X28389Y-22808D01*
X28325Y-22965D01*
X28324Y-23134D01*
X28389Y-23290D01*
X28500Y-23401D01*
X28500Y-23941D01*
X28180Y-24261D01*
X28180Y-23101D01*
X28167Y-22933D01*
X28127Y-22837D01*
X28063Y-22807D01*
X27992Y-22878D01*
X27992Y-22736D01*
X27962Y-22672D01*
X27801Y-22619D01*
X27633Y-22632D01*
X27537Y-22672D01*
X27507Y-22736D01*
X27750Y-22979D01*
X27992Y-22736D01*
X27992Y-22878D01*
X27820Y-23050D01*
X28063Y-23292D01*
X28127Y-23262D01*
X28180Y-23101D01*
X28180Y-24261D01*
X28124Y-24316D01*
X27992Y-24316D01*
X27992Y-23363D01*
X27750Y-23120D01*
X27679Y-23191D01*
X27679Y-23050D01*
X27436Y-22807D01*
X27372Y-22837D01*
X27319Y-22998D01*
X27332Y-23166D01*
X27372Y-23262D01*
X27436Y-23292D01*
X27679Y-23050D01*
X27679Y-23191D01*
X27507Y-23363D01*
X27537Y-23427D01*
X27698Y-23480D01*
X27866Y-23467D01*
X27962Y-23427D01*
X27992Y-23363D01*
X27992Y-24316D01*
X27244Y-24316D01*
X27173Y-24330D01*
X27173Y-22966D01*
X27109Y-22810D01*
X26990Y-22691D01*
X26948Y-22673D01*
X26948Y-22250D01*
X26933Y-22174D01*
X26933Y-22174D01*
X26890Y-22109D01*
X26890Y-22109D01*
X26830Y-22049D01*
X26862Y-22017D01*
X26862Y-22017D01*
X26862Y-22017D01*
X26905Y-21953D01*
X26905Y-21953D01*
X26920Y-21877D01*
X26920Y-21683D01*
X26926Y-21677D01*
X26949Y-21623D01*
X26949Y-21564D01*
X26949Y-20776D01*
X26927Y-20722D01*
X26885Y-20680D01*
X26830Y-20657D01*
X26771Y-20657D01*
X26614Y-20657D01*
X26559Y-20680D01*
X26517Y-20722D01*
X26495Y-20776D01*
X26495Y-20835D01*
X26495Y-21623D01*
X26517Y-21676D01*
X26456Y-21676D01*
X26478Y-21623D01*
X26478Y-21563D01*
X26478Y-20836D01*
X26478Y-20776D01*
X26455Y-20721D01*
X26413Y-20679D01*
X26358Y-20656D01*
X26326Y-20656D01*
X26289Y-20693D01*
X26289Y-21150D01*
X26441Y-21150D01*
X26478Y-21112D01*
X26478Y-20836D01*
X26478Y-21563D01*
X26478Y-21287D01*
X26441Y-21250D01*
X26289Y-21250D01*
X26289Y-21706D01*
X26311Y-21728D01*
X26299Y-21740D01*
X26276Y-21795D01*
X26276Y-21854D01*
X26276Y-22304D01*
X26299Y-22358D01*
X26340Y-22400D01*
X26395Y-22423D01*
X26454Y-22423D01*
X26551Y-22423D01*
X26551Y-22673D01*
X26510Y-22690D01*
X26391Y-22809D01*
X26326Y-22965D01*
X26326Y-23133D01*
X26390Y-23289D01*
X26509Y-23408D01*
X26665Y-23473D01*
X26833Y-23473D01*
X26989Y-23409D01*
X27108Y-23290D01*
X27173Y-23134D01*
X27173Y-22966D01*
X27173Y-24330D01*
X27148Y-24335D01*
X27067Y-24390D01*
X26573Y-24884D01*
X26519Y-24965D01*
X26500Y-25061D01*
X26500Y-25699D01*
X26389Y-25808D01*
X26325Y-25965D01*
X26324Y-26134D01*
X26389Y-26290D01*
X26508Y-26410D01*
X26550Y-26427D01*
X26550Y-26587D01*
X26547Y-26589D01*
X26525Y-26645D01*
X26524Y-26704D01*
X26524Y-27154D01*
X26547Y-27209D01*
X26550Y-27212D01*
X26550Y-27781D01*
X26195Y-28135D01*
X26173Y-28135D01*
X26173Y-25966D01*
X26109Y-25810D01*
X25990Y-25691D01*
X25834Y-25626D01*
X25666Y-25626D01*
X25510Y-25690D01*
X25391Y-25809D01*
X25326Y-25965D01*
X25326Y-26133D01*
X25390Y-26289D01*
X25509Y-26408D01*
X25665Y-26473D01*
X25833Y-26473D01*
X25989Y-26409D01*
X26108Y-26290D01*
X26173Y-26134D01*
X26173Y-25966D01*
X26173Y-28135D01*
X25354Y-28135D01*
X25258Y-28154D01*
X25177Y-28209D01*
X24823Y-28563D01*
X24769Y-28644D01*
X24750Y-28740D01*
X24750Y-29616D01*
X24745Y-29618D01*
X24618Y-29744D01*
X24550Y-29910D01*
X24549Y-30089D01*
X24618Y-30254D01*
X24744Y-30381D01*
X24910Y-30449D01*
X25089Y-30450D01*
X25254Y-30381D01*
X25381Y-30255D01*
X25449Y-30089D01*
X25450Y-29910D01*
X25381Y-29745D01*
X25255Y-29618D01*
X25250Y-29616D01*
X25250Y-28843D01*
X25457Y-28635D01*
X26299Y-28635D01*
X26394Y-28616D01*
X26475Y-28562D01*
X26976Y-28061D01*
X26976Y-28061D01*
X26976Y-28061D01*
X27030Y-27980D01*
X27030Y-27980D01*
X27050Y-27885D01*
X27050Y-27212D01*
X27052Y-27210D01*
X27074Y-27154D01*
X27075Y-27095D01*
X27075Y-26645D01*
X27052Y-26590D01*
X27050Y-26587D01*
X27050Y-26351D01*
X27110Y-26291D01*
X27174Y-26134D01*
X27175Y-25965D01*
X27110Y-25809D01*
X27000Y-25698D01*
X27000Y-25164D01*
X27347Y-24816D01*
X28228Y-24816D01*
X28324Y-24797D01*
X28405Y-24743D01*
X28926Y-24222D01*
X28926Y-24222D01*
X28926Y-24222D01*
X28980Y-24140D01*
X28980Y-24140D01*
X28996Y-24064D01*
X29000Y-24045D01*
X28999Y-24045D01*
X29000Y-24045D01*
X29000Y-23400D01*
X29110Y-23291D01*
X29174Y-23134D01*
X29175Y-22965D01*
X29110Y-22809D01*
X29029Y-22728D01*
X29029Y-22701D01*
X29552Y-22179D01*
X34055Y-22179D01*
X34150Y-22160D01*
X34231Y-22105D01*
X34625Y-21712D01*
X34625Y-21712D01*
X34625Y-21712D01*
X34679Y-21631D01*
X34679Y-21631D01*
X34698Y-21535D01*
X34698Y-21282D01*
X34795Y-21379D01*
X34851Y-21403D01*
X34851Y-22626D01*
X34445Y-22626D01*
X34391Y-22649D01*
X34349Y-22690D01*
X34326Y-22745D01*
X34326Y-22804D01*
X34326Y-23354D01*
X34349Y-23408D01*
X34390Y-23450D01*
X34445Y-23473D01*
X34504Y-23473D01*
X35054Y-23473D01*
X35108Y-23450D01*
X35150Y-23409D01*
X35173Y-23354D01*
X35173Y-23295D01*
X35173Y-22907D01*
X35190Y-22890D01*
X35190Y-22890D01*
X35190Y-22890D01*
X35233Y-22825D01*
X35233Y-22825D01*
X35245Y-22765D01*
X35248Y-22750D01*
X35248Y-22750D01*
X35248Y-22750D01*
X35248Y-21403D01*
X35303Y-21380D01*
X35429Y-21254D01*
X35498Y-21089D01*
X35498Y-20911D01*
X35430Y-20746D01*
X35304Y-20620D01*
X35139Y-20551D01*
X34961Y-20551D01*
X34796Y-20619D01*
X34698Y-20716D01*
X34698Y-20282D01*
X34795Y-20379D01*
X34960Y-20448D01*
X35138Y-20448D01*
X35303Y-20380D01*
X35429Y-20254D01*
X35498Y-20089D01*
X35498Y-19911D01*
X35430Y-19746D01*
X35304Y-19620D01*
X35139Y-19551D01*
X34961Y-19551D01*
X34796Y-19619D01*
X34698Y-19716D01*
X34698Y-19439D01*
X34720Y-19448D01*
X34779Y-19448D01*
X35379Y-19448D01*
X35433Y-19425D01*
X35475Y-19384D01*
X35498Y-19329D01*
X35498Y-19270D01*
X35498Y-18670D01*
X35475Y-18616D01*
X35434Y-18574D01*
X35379Y-18551D01*
X35320Y-18551D01*
X34720Y-18551D01*
X34698Y-18560D01*
X34698Y-18528D01*
X34743Y-18483D01*
X34788Y-18438D01*
X35723Y-18438D01*
X35800Y-18515D01*
X35800Y-18616D01*
X35795Y-18618D01*
X35668Y-18744D01*
X35600Y-18910D01*
X35599Y-19089D01*
X35668Y-19254D01*
X35794Y-19381D01*
X35960Y-19449D01*
X36139Y-19450D01*
X36304Y-19381D01*
X36431Y-19255D01*
X36499Y-19089D01*
X36500Y-18910D01*
X36431Y-18745D01*
X36305Y-18618D01*
X36300Y-18616D01*
X36300Y-18412D01*
X36280Y-18316D01*
X36226Y-18235D01*
X36003Y-18012D01*
X35922Y-17958D01*
X35826Y-17938D01*
X34685Y-17938D01*
X34589Y-17958D01*
X34578Y-17965D01*
X34448Y-17835D01*
X34448Y-10911D01*
X34380Y-10746D01*
X34254Y-10620D01*
X34089Y-10551D01*
X33911Y-10551D01*
X33746Y-10619D01*
X33620Y-10745D01*
X33551Y-10910D01*
X33551Y-11088D01*
X33619Y-11253D01*
X33745Y-11379D01*
X33910Y-11448D01*
X34088Y-11448D01*
X34253Y-11380D01*
X34379Y-11254D01*
X34448Y-11089D01*
X34448Y-10911D01*
X34448Y-17835D01*
X33916Y-17303D01*
X33835Y-17249D01*
X33813Y-17244D01*
X33800Y-17231D01*
X33739Y-17190D01*
X33666Y-17176D01*
X33602Y-17176D01*
X33602Y-16727D01*
X33602Y-16472D01*
X33601Y-16413D01*
X33579Y-16357D01*
X33536Y-16315D01*
X33481Y-16292D01*
X33448Y-16292D01*
X33448Y-10911D01*
X33380Y-10746D01*
X33254Y-10620D01*
X33089Y-10551D01*
X32911Y-10551D01*
X32746Y-10619D01*
X32620Y-10745D01*
X32551Y-10910D01*
X32551Y-11088D01*
X32619Y-11253D01*
X32745Y-11379D01*
X32910Y-11448D01*
X33088Y-11448D01*
X33253Y-11380D01*
X33379Y-11254D01*
X33448Y-11089D01*
X33448Y-10911D01*
X33448Y-16292D01*
X33382Y-16293D01*
X33345Y-16330D01*
X33345Y-16550D01*
X33564Y-16550D01*
X33602Y-16512D01*
X33602Y-16472D01*
X33602Y-16727D01*
X33602Y-16687D01*
X33564Y-16650D01*
X33345Y-16650D01*
X33345Y-16869D01*
X33382Y-16907D01*
X33481Y-16907D01*
X33536Y-16884D01*
X33579Y-16842D01*
X33601Y-16786D01*
X33602Y-16727D01*
X33602Y-17176D01*
X33497Y-17176D01*
X33477Y-17156D01*
X33423Y-17134D01*
X33364Y-17134D01*
X33167Y-17134D01*
X33112Y-17156D01*
X33071Y-17198D01*
X33048Y-17253D01*
X33048Y-17312D01*
X33048Y-17479D01*
X33057Y-17501D01*
X33048Y-17522D01*
X33048Y-17581D01*
X33048Y-17680D01*
X33056Y-17699D01*
X33048Y-17719D01*
X33048Y-17778D01*
X33048Y-17877D01*
X33057Y-17898D01*
X33048Y-17920D01*
X33048Y-17979D01*
X33048Y-18146D01*
X33070Y-18201D01*
X33096Y-18227D01*
X33096Y-18256D01*
X32917Y-18435D01*
X32868Y-18385D01*
X32749Y-18336D01*
X32646Y-18336D01*
X32664Y-18332D01*
X32664Y-18332D01*
X32729Y-18289D01*
X32753Y-18265D01*
X32832Y-18265D01*
X32887Y-18243D01*
X32928Y-18201D01*
X32951Y-18146D01*
X32951Y-18087D01*
X32951Y-17920D01*
X32942Y-17898D01*
X32951Y-17877D01*
X32951Y-17818D01*
X32951Y-17719D01*
X32943Y-17700D01*
X32951Y-17680D01*
X32951Y-17621D01*
X32951Y-17522D01*
X32942Y-17501D01*
X32951Y-17479D01*
X32951Y-17420D01*
X32951Y-17253D01*
X32929Y-17198D01*
X32887Y-17156D01*
X32832Y-17134D01*
X32773Y-17134D01*
X32598Y-17134D01*
X32598Y-16905D01*
X32891Y-16905D01*
X32945Y-16882D01*
X32987Y-16841D01*
X32999Y-16813D01*
X33010Y-16842D01*
X33053Y-16884D01*
X33108Y-16907D01*
X33207Y-16907D01*
X33245Y-16869D01*
X33245Y-16650D01*
X33237Y-16650D01*
X33237Y-16550D01*
X33245Y-16550D01*
X33245Y-16330D01*
X33207Y-16293D01*
X33108Y-16292D01*
X33053Y-16315D01*
X33010Y-16357D01*
X32999Y-16386D01*
X32987Y-16359D01*
X32946Y-16317D01*
X32891Y-16294D01*
X32832Y-16294D01*
X32518Y-16294D01*
X32464Y-16317D01*
X32448Y-16332D01*
X32448Y-10911D01*
X32380Y-10746D01*
X32254Y-10620D01*
X32089Y-10551D01*
X31911Y-10551D01*
X31746Y-10619D01*
X31620Y-10745D01*
X31551Y-10910D01*
X31551Y-11088D01*
X31619Y-11253D01*
X31745Y-11379D01*
X31910Y-11448D01*
X32088Y-11448D01*
X32253Y-11380D01*
X32379Y-11254D01*
X32448Y-11089D01*
X32448Y-10911D01*
X32448Y-16332D01*
X32422Y-16358D01*
X32399Y-16413D01*
X32399Y-16472D01*
X32399Y-16519D01*
X32259Y-16659D01*
X32216Y-16724D01*
X32201Y-16800D01*
X32201Y-17310D01*
X32201Y-17514D01*
X32216Y-17589D01*
X32259Y-17654D01*
X32320Y-17714D01*
X31448Y-17714D01*
X31448Y-10911D01*
X31380Y-10746D01*
X31254Y-10620D01*
X31089Y-10551D01*
X30911Y-10551D01*
X30746Y-10619D01*
X30620Y-10745D01*
X30551Y-10910D01*
X30551Y-11088D01*
X30619Y-11253D01*
X30745Y-11379D01*
X30910Y-11448D01*
X31088Y-11448D01*
X31253Y-11380D01*
X31379Y-11254D01*
X31448Y-11089D01*
X31448Y-10911D01*
X31448Y-17714D01*
X30448Y-17714D01*
X30448Y-10911D01*
X30380Y-10746D01*
X30254Y-10620D01*
X30089Y-10551D01*
X29911Y-10551D01*
X29746Y-10619D01*
X29620Y-10745D01*
X29551Y-10910D01*
X29551Y-11088D01*
X29619Y-11253D01*
X29745Y-11379D01*
X29910Y-11448D01*
X30088Y-11448D01*
X30253Y-11380D01*
X30379Y-11254D01*
X30448Y-11089D01*
X30448Y-10911D01*
X30448Y-17714D01*
X29448Y-17714D01*
X29448Y-10911D01*
X29380Y-10746D01*
X29254Y-10620D01*
X29089Y-10551D01*
X28911Y-10551D01*
X28746Y-10619D01*
X28620Y-10745D01*
X28551Y-10910D01*
X28551Y-11088D01*
X28619Y-11253D01*
X28745Y-11379D01*
X28910Y-11448D01*
X29088Y-11448D01*
X29253Y-11380D01*
X29379Y-11254D01*
X29448Y-11089D01*
X29448Y-10911D01*
X29448Y-17714D01*
X28448Y-17714D01*
X28448Y-10911D01*
X28380Y-10746D01*
X28254Y-10620D01*
X28089Y-10551D01*
X27911Y-10551D01*
X27746Y-10619D01*
X27620Y-10745D01*
X27551Y-10910D01*
X27551Y-11088D01*
X27619Y-11253D01*
X27745Y-11379D01*
X27910Y-11448D01*
X28088Y-11448D01*
X28253Y-11380D01*
X28379Y-11254D01*
X28448Y-11089D01*
X28448Y-10911D01*
X28448Y-17714D01*
X26848Y-17714D01*
X26848Y-11270D01*
X26848Y-10670D01*
X26825Y-10616D01*
X26784Y-10574D01*
X26729Y-10551D01*
X26670Y-10551D01*
X26070Y-10551D01*
X26016Y-10574D01*
X25974Y-10615D01*
X25951Y-10670D01*
X25951Y-10729D01*
X25951Y-11329D01*
X25974Y-11383D01*
X26015Y-11425D01*
X26070Y-11448D01*
X26129Y-11448D01*
X26729Y-11448D01*
X26783Y-11425D01*
X26825Y-11384D01*
X26848Y-11329D01*
X26848Y-11270D01*
X26848Y-17714D01*
X25848Y-17714D01*
X25848Y-10911D01*
X25780Y-10746D01*
X25654Y-10620D01*
X25489Y-10551D01*
X25311Y-10551D01*
X25146Y-10619D01*
X25020Y-10745D01*
X24951Y-10910D01*
X24951Y-11088D01*
X25019Y-11253D01*
X25145Y-11379D01*
X25310Y-11448D01*
X25488Y-11448D01*
X25653Y-11380D01*
X25779Y-11254D01*
X25848Y-11089D01*
X25848Y-10911D01*
X25848Y-17714D01*
X24848Y-17714D01*
X24848Y-10911D01*
X24780Y-10746D01*
X24654Y-10620D01*
X24489Y-10551D01*
X24311Y-10551D01*
X24146Y-10619D01*
X24020Y-10745D01*
X23951Y-10910D01*
X23951Y-11088D01*
X24019Y-11253D01*
X24145Y-11379D01*
X24310Y-11448D01*
X24488Y-11448D01*
X24653Y-11380D01*
X24779Y-11254D01*
X24848Y-11089D01*
X24848Y-10911D01*
X24848Y-17714D01*
X23848Y-17714D01*
X23848Y-10911D01*
X23780Y-10746D01*
X23654Y-10620D01*
X23489Y-10551D01*
X23311Y-10551D01*
X23146Y-10619D01*
X23020Y-10745D01*
X22951Y-10910D01*
X22951Y-11088D01*
X23019Y-11253D01*
X23145Y-11379D01*
X23310Y-11448D01*
X23488Y-11448D01*
X23653Y-11380D01*
X23779Y-11254D01*
X23848Y-11089D01*
X23848Y-10911D01*
X23848Y-17714D01*
X22848Y-17714D01*
X22848Y-10911D01*
X22780Y-10746D01*
X22654Y-10620D01*
X22489Y-10551D01*
X22311Y-10551D01*
X22146Y-10619D01*
X22020Y-10745D01*
X21951Y-10910D01*
X21951Y-11088D01*
X22019Y-11253D01*
X22145Y-11379D01*
X22310Y-11448D01*
X22488Y-11448D01*
X22653Y-11380D01*
X22779Y-11254D01*
X22848Y-11089D01*
X22848Y-10911D01*
X22848Y-17714D01*
X21588Y-17714D01*
X21600Y-17686D01*
X21600Y-17627D01*
X21600Y-17577D01*
X22384Y-16793D01*
X22427Y-16729D01*
X22427Y-16729D01*
X22442Y-16653D01*
X22442Y-15590D01*
X22427Y-15514D01*
X22427Y-15514D01*
X22384Y-15450D01*
X22384Y-15450D01*
X22195Y-15261D01*
X22131Y-15218D01*
X22120Y-15216D01*
X22157Y-15127D01*
X22157Y-14998D01*
X22108Y-14880D01*
X22017Y-14788D01*
X21898Y-14739D01*
X21848Y-14739D01*
X21848Y-10911D01*
X21780Y-10746D01*
X21654Y-10620D01*
X21489Y-10551D01*
X21311Y-10551D01*
X21146Y-10619D01*
X21020Y-10745D01*
X20951Y-10910D01*
X20951Y-11088D01*
X21019Y-11253D01*
X21145Y-11379D01*
X21310Y-11448D01*
X21488Y-11448D01*
X21653Y-11380D01*
X21779Y-11254D01*
X21848Y-11089D01*
X21848Y-10911D01*
X21848Y-14739D01*
X21769Y-14739D01*
X21651Y-14788D01*
X21602Y-14837D01*
X21602Y-14527D01*
X21602Y-14272D01*
X21601Y-14213D01*
X21579Y-14157D01*
X21536Y-14115D01*
X21481Y-14092D01*
X21382Y-14093D01*
X21345Y-14130D01*
X21345Y-14350D01*
X21564Y-14350D01*
X21602Y-14312D01*
X21602Y-14272D01*
X21602Y-14527D01*
X21602Y-14487D01*
X21564Y-14450D01*
X21345Y-14450D01*
X21345Y-14669D01*
X21382Y-14707D01*
X21481Y-14707D01*
X21536Y-14684D01*
X21579Y-14642D01*
X21601Y-14586D01*
X21602Y-14527D01*
X21602Y-14837D01*
X21559Y-14879D01*
X21523Y-14967D01*
X21488Y-14967D01*
X21477Y-14956D01*
X21423Y-14934D01*
X21364Y-14934D01*
X21167Y-14934D01*
X21112Y-14956D01*
X21071Y-14998D01*
X21048Y-15053D01*
X21048Y-15112D01*
X21048Y-15279D01*
X21057Y-15301D01*
X21048Y-15322D01*
X21048Y-15381D01*
X21048Y-15480D01*
X21056Y-15499D01*
X21048Y-15519D01*
X21048Y-15578D01*
X21048Y-15677D01*
X21056Y-15696D01*
X21046Y-15720D01*
X21046Y-15754D01*
X21084Y-15791D01*
X21157Y-15791D01*
X21167Y-15796D01*
X21226Y-15796D01*
X21291Y-15796D01*
X21295Y-15796D01*
X21796Y-15796D01*
X21831Y-15832D01*
X21831Y-16187D01*
X21617Y-16401D01*
X21595Y-16401D01*
X21577Y-16359D01*
X21543Y-16324D01*
X21543Y-15947D01*
X21543Y-15912D01*
X21506Y-15875D01*
X21344Y-15875D01*
X21344Y-16029D01*
X21381Y-16067D01*
X21363Y-16067D01*
X21423Y-16067D01*
X21478Y-16044D01*
X21520Y-16002D01*
X21543Y-15947D01*
X21543Y-16324D01*
X21536Y-16317D01*
X21481Y-16294D01*
X21422Y-16294D01*
X21246Y-16294D01*
X21246Y-16029D01*
X21246Y-15875D01*
X21084Y-15875D01*
X21046Y-15912D01*
X21046Y-15947D01*
X21069Y-16002D01*
X21111Y-16044D01*
X21166Y-16067D01*
X21226Y-16067D01*
X21208Y-16067D01*
X21246Y-16029D01*
X21246Y-16294D01*
X21108Y-16294D01*
X21054Y-16317D01*
X21012Y-16358D01*
X20999Y-16388D01*
X20987Y-16359D01*
X20946Y-16317D01*
X20891Y-16294D01*
X20832Y-16294D01*
X20518Y-16294D01*
X20464Y-16317D01*
X20433Y-16347D01*
X20433Y-16338D01*
X20509Y-16263D01*
X20558Y-16144D01*
X20558Y-16058D01*
X20576Y-16065D01*
X20635Y-16065D01*
X20832Y-16065D01*
X20887Y-16043D01*
X20928Y-16001D01*
X20951Y-15946D01*
X20951Y-15887D01*
X20951Y-15720D01*
X20942Y-15698D01*
X20951Y-15677D01*
X20951Y-15618D01*
X20951Y-15519D01*
X20943Y-15500D01*
X20951Y-15480D01*
X20951Y-15421D01*
X20951Y-15322D01*
X20942Y-15301D01*
X20951Y-15279D01*
X20951Y-15220D01*
X20951Y-15053D01*
X20929Y-14998D01*
X20903Y-14973D01*
X20903Y-14700D01*
X20945Y-14682D01*
X20987Y-14641D01*
X20999Y-14613D01*
X21010Y-14642D01*
X21053Y-14684D01*
X21108Y-14707D01*
X21207Y-14707D01*
X21245Y-14669D01*
X21245Y-14450D01*
X21237Y-14450D01*
X21237Y-14350D01*
X21245Y-14350D01*
X21245Y-14130D01*
X21207Y-14093D01*
X21108Y-14092D01*
X21053Y-14115D01*
X21010Y-14157D01*
X20999Y-14186D01*
X20987Y-14159D01*
X20975Y-14146D01*
X20975Y-13595D01*
X20975Y-13204D01*
X20974Y-13145D01*
X20952Y-13089D01*
X20909Y-13047D01*
X20855Y-13025D01*
X20855Y-11057D01*
X20842Y-10879D01*
X20798Y-10772D01*
X20731Y-10739D01*
X20660Y-10810D01*
X20660Y-10668D01*
X20627Y-10601D01*
X20457Y-10544D01*
X20279Y-10557D01*
X20172Y-10601D01*
X20139Y-10668D01*
X20400Y-10929D01*
X20660Y-10668D01*
X20660Y-10810D01*
X20470Y-11000D01*
X20731Y-11260D01*
X20798Y-11227D01*
X20855Y-11057D01*
X20855Y-13025D01*
X20854Y-13024D01*
X20787Y-13025D01*
X20750Y-13062D01*
X20750Y-13350D01*
X20937Y-13350D01*
X20975Y-13312D01*
X20975Y-13204D01*
X20975Y-13595D01*
X20975Y-13487D01*
X20937Y-13450D01*
X20750Y-13450D01*
X20750Y-13737D01*
X20787Y-13775D01*
X20854Y-13775D01*
X20909Y-13752D01*
X20952Y-13710D01*
X20974Y-13654D01*
X20975Y-13595D01*
X20975Y-14146D01*
X20946Y-14117D01*
X20891Y-14094D01*
X20832Y-14094D01*
X20660Y-14094D01*
X20660Y-11331D01*
X20400Y-11070D01*
X20329Y-11141D01*
X20329Y-11000D01*
X20068Y-10739D01*
X20001Y-10772D01*
X19944Y-10942D01*
X19957Y-11120D01*
X20001Y-11227D01*
X20068Y-11260D01*
X20329Y-11000D01*
X20329Y-11141D01*
X20139Y-11331D01*
X20172Y-11398D01*
X20342Y-11455D01*
X20520Y-11442D01*
X20627Y-11398D01*
X20660Y-11331D01*
X20660Y-14094D01*
X20650Y-14094D01*
X20650Y-13737D01*
X20650Y-13450D01*
X20650Y-13350D01*
X20650Y-13062D01*
X20612Y-13025D01*
X20545Y-13024D01*
X20490Y-13047D01*
X20447Y-13089D01*
X20425Y-13145D01*
X20424Y-13204D01*
X20425Y-13312D01*
X20462Y-13350D01*
X20650Y-13350D01*
X20650Y-13450D01*
X20462Y-13450D01*
X20425Y-13487D01*
X20424Y-13595D01*
X20425Y-13654D01*
X20447Y-13710D01*
X20490Y-13752D01*
X20545Y-13775D01*
X20612Y-13775D01*
X20650Y-13737D01*
X20650Y-14094D01*
X20518Y-14094D01*
X20464Y-14117D01*
X20422Y-14158D01*
X20399Y-14213D01*
X20399Y-14272D01*
X20399Y-14586D01*
X20422Y-14640D01*
X20463Y-14682D01*
X20506Y-14700D01*
X20506Y-14972D01*
X20480Y-14998D01*
X20461Y-15045D01*
X20424Y-15009D01*
X20393Y-14934D01*
X20373Y-14913D01*
X20373Y-13595D01*
X20373Y-13145D01*
X20350Y-13091D01*
X20309Y-13049D01*
X20254Y-13026D01*
X20195Y-13026D01*
X20030Y-13026D01*
X20030Y-11961D01*
X20116Y-11876D01*
X20165Y-11757D01*
X20166Y-11628D01*
X20116Y-11509D01*
X20025Y-11418D01*
X19907Y-11369D01*
X19799Y-11369D01*
X19732Y-11301D01*
X19779Y-11254D01*
X19848Y-11089D01*
X19848Y-10911D01*
X19780Y-10746D01*
X19654Y-10620D01*
X19489Y-10551D01*
X19311Y-10551D01*
X19146Y-10619D01*
X19020Y-10745D01*
X18951Y-10910D01*
X18951Y-11088D01*
X19019Y-11253D01*
X19145Y-11379D01*
X19310Y-11448D01*
X19317Y-11448D01*
X19519Y-11650D01*
X19519Y-11756D01*
X19568Y-11875D01*
X19654Y-11961D01*
X19654Y-13142D01*
X19668Y-13214D01*
X19709Y-13275D01*
X19826Y-13393D01*
X19826Y-13654D01*
X19849Y-13708D01*
X19890Y-13750D01*
X19945Y-13773D01*
X20004Y-13773D01*
X20254Y-13773D01*
X20308Y-13750D01*
X20350Y-13709D01*
X20373Y-13654D01*
X20373Y-13595D01*
X20373Y-14913D01*
X20302Y-14842D01*
X20183Y-14793D01*
X20053Y-14793D01*
X19934Y-14842D01*
X19842Y-14933D01*
X19793Y-15053D01*
X19793Y-15182D01*
X19842Y-15301D01*
X19933Y-15393D01*
X20053Y-15443D01*
X20151Y-15443D01*
X20320Y-15611D01*
X20326Y-15641D01*
X20354Y-15684D01*
X20341Y-15693D01*
X20277Y-15756D01*
X20170Y-15756D01*
X20052Y-15805D01*
X19960Y-15896D01*
X19911Y-16015D01*
X19911Y-16144D01*
X19960Y-16262D01*
X20036Y-16339D01*
X20036Y-16462D01*
X19445Y-17053D01*
X19132Y-17053D01*
X19132Y-17046D01*
X19172Y-17046D01*
X19244Y-17032D01*
X19244Y-17032D01*
X19305Y-16991D01*
X19693Y-16603D01*
X19693Y-16603D01*
X19720Y-16562D01*
X19734Y-16542D01*
X19734Y-16542D01*
X19748Y-16470D01*
X19748Y-16470D01*
X19748Y-13690D01*
X19736Y-13629D01*
X19734Y-13617D01*
X19734Y-13617D01*
X19693Y-13556D01*
X18968Y-12831D01*
X19082Y-12784D01*
X19174Y-12693D01*
X19223Y-12574D01*
X19223Y-12445D01*
X19174Y-12327D01*
X19097Y-12250D01*
X19096Y-12011D01*
X19089Y-11973D01*
X19081Y-11935D01*
X19081Y-11935D01*
X19081Y-11935D01*
X19059Y-11903D01*
X19038Y-11871D01*
X18880Y-11713D01*
X18848Y-11691D01*
X18848Y-10911D01*
X18780Y-10746D01*
X18654Y-10620D01*
X18489Y-10551D01*
X18311Y-10551D01*
X18146Y-10619D01*
X18020Y-10745D01*
X17951Y-10910D01*
X17951Y-11088D01*
X18019Y-11253D01*
X18145Y-11379D01*
X18310Y-11448D01*
X18488Y-11448D01*
X18653Y-11380D01*
X18779Y-11254D01*
X18848Y-11089D01*
X18848Y-10911D01*
X18848Y-11691D01*
X18816Y-11670D01*
X18740Y-11655D01*
X17848Y-11655D01*
X17848Y-10911D01*
X17780Y-10746D01*
X17654Y-10620D01*
X17489Y-10551D01*
X17311Y-10551D01*
X17146Y-10619D01*
X17020Y-10745D01*
X16951Y-10910D01*
X16951Y-11088D01*
X17019Y-11253D01*
X17145Y-11379D01*
X17310Y-11448D01*
X17488Y-11448D01*
X17653Y-11380D01*
X17779Y-11254D01*
X17848Y-11089D01*
X17848Y-10911D01*
X17848Y-11655D01*
X16374Y-11655D01*
X16423Y-11634D01*
X16634Y-11424D01*
X16748Y-11149D01*
X16748Y-10851D01*
X16634Y-10576D01*
X16424Y-10365D01*
X16149Y-10251D01*
X15851Y-10251D01*
X15576Y-10365D01*
X15365Y-10575D01*
X15251Y-10850D01*
X15251Y-11148D01*
X15365Y-11423D01*
X15575Y-11634D01*
X15626Y-11655D01*
X15446Y-11655D01*
X15446Y-11655D01*
X15431Y-11658D01*
X15370Y-11670D01*
X15323Y-11701D01*
X14720Y-11701D01*
X14666Y-11724D01*
X14624Y-11765D01*
X14601Y-11820D01*
X14601Y-11879D01*
X14601Y-12417D01*
X14421Y-12597D01*
X14421Y-11008D01*
X14421Y-10516D01*
X14421Y-10457D01*
X14398Y-10401D01*
X14356Y-10359D01*
X14301Y-10336D01*
X13965Y-10337D01*
X13927Y-10374D01*
X13927Y-10712D01*
X14384Y-10712D01*
X14421Y-10675D01*
X14421Y-10516D01*
X14421Y-11008D01*
X14421Y-10850D01*
X14384Y-10812D01*
X13927Y-10812D01*
X13927Y-11150D01*
X13965Y-11188D01*
X14301Y-11188D01*
X14356Y-11165D01*
X14398Y-11123D01*
X14421Y-11068D01*
X14421Y-11008D01*
X14421Y-12597D01*
X14420Y-12599D01*
X14420Y-12583D01*
X14420Y-12032D01*
X14397Y-11977D01*
X14355Y-11936D01*
X14301Y-11913D01*
X14242Y-11913D01*
X13827Y-11913D01*
X13827Y-11150D01*
X13827Y-10812D01*
X13827Y-10712D01*
X13827Y-10374D01*
X13790Y-10337D01*
X13454Y-10336D01*
X13399Y-10359D01*
X13357Y-10401D01*
X13334Y-10457D01*
X13334Y-10516D01*
X13334Y-10675D01*
X13371Y-10712D01*
X13827Y-10712D01*
X13827Y-10812D01*
X13371Y-10812D01*
X13334Y-10850D01*
X13334Y-11008D01*
X13334Y-11068D01*
X13357Y-11123D01*
X13399Y-11165D01*
X13454Y-11188D01*
X13790Y-11188D01*
X13827Y-11150D01*
X13827Y-11913D01*
X13734Y-11913D01*
X13531Y-11710D01*
X13466Y-11667D01*
X13390Y-11651D01*
X13369Y-11651D01*
X13293Y-11576D01*
X13174Y-11527D01*
X13046Y-11526D01*
X12927Y-11576D01*
X12836Y-11666D01*
X12786Y-11785D01*
X12786Y-11914D01*
X12835Y-12033D01*
X12926Y-12124D01*
X13045Y-12173D01*
X13174Y-12173D01*
X13293Y-12124D01*
X13335Y-12082D01*
X13335Y-12091D01*
X13335Y-12598D01*
X13259Y-12675D01*
X11740Y-12675D01*
X11665Y-12600D01*
X11665Y-11008D01*
X11665Y-10516D01*
X11665Y-10457D01*
X11642Y-10401D01*
X11600Y-10359D01*
X11545Y-10336D01*
X11209Y-10337D01*
X11172Y-10374D01*
X11172Y-10712D01*
X11628Y-10712D01*
X11665Y-10675D01*
X11665Y-10516D01*
X11665Y-11008D01*
X11665Y-10850D01*
X11628Y-10812D01*
X11172Y-10812D01*
X11172Y-11150D01*
X11209Y-11188D01*
X11545Y-11188D01*
X11600Y-11165D01*
X11642Y-11123D01*
X11665Y-11068D01*
X11665Y-11008D01*
X11665Y-12600D01*
X11664Y-12598D01*
X11664Y-12583D01*
X11664Y-12032D01*
X11641Y-11977D01*
X11599Y-11936D01*
X11545Y-11913D01*
X11486Y-11913D01*
X11072Y-11913D01*
X11072Y-11150D01*
X11072Y-10812D01*
X11072Y-10712D01*
X11072Y-10374D01*
X11034Y-10337D01*
X10698Y-10336D01*
X10643Y-10359D01*
X10601Y-10401D01*
X10578Y-10457D01*
X10578Y-10516D01*
X10578Y-10675D01*
X10615Y-10712D01*
X11072Y-10712D01*
X11072Y-10812D01*
X10615Y-10812D01*
X10578Y-10850D01*
X10578Y-11008D01*
X10578Y-11068D01*
X10601Y-11123D01*
X10643Y-11165D01*
X10698Y-11188D01*
X11034Y-11188D01*
X11072Y-11150D01*
X11072Y-11913D01*
X10698Y-11913D01*
X10644Y-11935D01*
X10602Y-11977D01*
X10579Y-12032D01*
X10579Y-12091D01*
X10579Y-12642D01*
X10602Y-12696D01*
X10644Y-12738D01*
X10698Y-12761D01*
X10757Y-12761D01*
X11265Y-12761D01*
X11518Y-13014D01*
X11582Y-13057D01*
X11582Y-13057D01*
X11658Y-13072D01*
X13341Y-13072D01*
X13417Y-13057D01*
X13417Y-13057D01*
X13481Y-13014D01*
X13734Y-12761D01*
X14301Y-12761D01*
X14309Y-12757D01*
X14301Y-12800D01*
X14301Y-13900D01*
X14316Y-13975D01*
X14359Y-14040D01*
X14478Y-14159D01*
X14447Y-14189D01*
X14425Y-14245D01*
X14424Y-14304D01*
X14425Y-14412D01*
X14462Y-14450D01*
X14650Y-14450D01*
X14650Y-14442D01*
X14750Y-14442D01*
X14750Y-14450D01*
X14937Y-14450D01*
X14975Y-14412D01*
X14975Y-14304D01*
X14974Y-14248D01*
X15026Y-14248D01*
X15026Y-14304D01*
X15026Y-14754D01*
X15049Y-14808D01*
X15090Y-14850D01*
X15145Y-14873D01*
X15204Y-14873D01*
X15451Y-14873D01*
X15451Y-15126D01*
X15395Y-15126D01*
X15145Y-15126D01*
X15091Y-15149D01*
X15049Y-15190D01*
X15026Y-15245D01*
X15026Y-15304D01*
X15026Y-15492D01*
X14975Y-15544D01*
X14975Y-15304D01*
X14975Y-14695D01*
X14975Y-14587D01*
X14937Y-14550D01*
X14750Y-14550D01*
X14750Y-14837D01*
X14787Y-14875D01*
X14854Y-14875D01*
X14909Y-14852D01*
X14952Y-14810D01*
X14974Y-14754D01*
X14975Y-14695D01*
X14975Y-15304D01*
X14974Y-15245D01*
X14952Y-15189D01*
X14909Y-15147D01*
X14854Y-15124D01*
X14787Y-15125D01*
X14750Y-15162D01*
X14750Y-15450D01*
X14937Y-15450D01*
X14975Y-15412D01*
X14975Y-15304D01*
X14975Y-15544D01*
X14953Y-15565D01*
X14937Y-15550D01*
X14750Y-15550D01*
X14750Y-15557D01*
X14650Y-15557D01*
X14650Y-15550D01*
X14650Y-15450D01*
X14650Y-15162D01*
X14650Y-14837D01*
X14650Y-14550D01*
X14462Y-14550D01*
X14425Y-14587D01*
X14424Y-14695D01*
X14425Y-14754D01*
X14447Y-14810D01*
X14490Y-14852D01*
X14545Y-14875D01*
X14612Y-14875D01*
X14650Y-14837D01*
X14650Y-15162D01*
X14612Y-15125D01*
X14545Y-15124D01*
X14490Y-15147D01*
X14447Y-15189D01*
X14425Y-15245D01*
X14424Y-15304D01*
X14425Y-15412D01*
X14462Y-15450D01*
X14650Y-15450D01*
X14650Y-15550D01*
X14462Y-15550D01*
X14425Y-15587D01*
X14424Y-15695D01*
X14425Y-15754D01*
X14447Y-15810D01*
X14490Y-15852D01*
X14545Y-15875D01*
X14612Y-15875D01*
X14649Y-15837D01*
X14649Y-15869D01*
X14614Y-15904D01*
X14582Y-15952D01*
X14582Y-15952D01*
X14572Y-15956D01*
X14571Y-15957D01*
X14488Y-15957D01*
X14390Y-15859D01*
X14325Y-15816D01*
X14250Y-15801D01*
X13576Y-15801D01*
X13576Y-14671D01*
X13576Y-13824D01*
X13553Y-13769D01*
X13511Y-13727D01*
X13455Y-13704D01*
X13396Y-13704D01*
X13021Y-13704D01*
X12984Y-13742D01*
X12984Y-14198D01*
X13538Y-14198D01*
X13576Y-14160D01*
X13576Y-13824D01*
X13576Y-14671D01*
X13576Y-14335D01*
X13538Y-14298D01*
X12984Y-14298D01*
X12984Y-14754D01*
X13021Y-14791D01*
X13396Y-14791D01*
X13455Y-14791D01*
X13511Y-14768D01*
X13553Y-14726D01*
X13576Y-14671D01*
X13576Y-15801D01*
X13535Y-15801D01*
X13535Y-15754D01*
X13535Y-15557D01*
X13523Y-15527D01*
X13535Y-15498D01*
X13535Y-15439D01*
X13535Y-15242D01*
X13512Y-15187D01*
X13471Y-15145D01*
X13416Y-15123D01*
X13357Y-15123D01*
X12941Y-15123D01*
X12934Y-15121D01*
X12884Y-15121D01*
X12884Y-14754D01*
X12884Y-14298D01*
X12884Y-14198D01*
X12884Y-13742D01*
X12846Y-13704D01*
X12471Y-13704D01*
X12412Y-13704D01*
X12356Y-13727D01*
X12314Y-13769D01*
X12291Y-13824D01*
X12292Y-14160D01*
X12329Y-14198D01*
X12884Y-14198D01*
X12884Y-14298D01*
X12329Y-14298D01*
X12292Y-14335D01*
X12291Y-14671D01*
X12314Y-14726D01*
X12356Y-14768D01*
X12412Y-14791D01*
X12471Y-14791D01*
X12846Y-14791D01*
X12884Y-14754D01*
X12884Y-15121D01*
X12330Y-15121D01*
X12275Y-15132D01*
X12275Y-15069D01*
X12226Y-14949D01*
X12134Y-14858D01*
X12015Y-14808D01*
X11885Y-14808D01*
X11765Y-14857D01*
X11674Y-14949D01*
X11624Y-15068D01*
X11624Y-15198D01*
X11673Y-15318D01*
X11765Y-15409D01*
X11884Y-15459D01*
X11889Y-15459D01*
X11411Y-15937D01*
X11411Y-14671D01*
X11411Y-13824D01*
X11388Y-13769D01*
X11346Y-13727D01*
X11290Y-13704D01*
X11231Y-13704D01*
X10856Y-13704D01*
X10819Y-13742D01*
X10819Y-14198D01*
X11373Y-14198D01*
X11411Y-14160D01*
X11411Y-13824D01*
X11411Y-14671D01*
X11411Y-14335D01*
X11373Y-14298D01*
X10819Y-14298D01*
X10819Y-14754D01*
X10856Y-14791D01*
X11231Y-14791D01*
X11290Y-14791D01*
X11346Y-14768D01*
X11388Y-14726D01*
X11411Y-14671D01*
X11411Y-15937D01*
X11124Y-16224D01*
X11070Y-16304D01*
X11051Y-16400D01*
X11051Y-17050D01*
X11070Y-17145D01*
X11099Y-17188D01*
X10856Y-17188D01*
X10819Y-17226D01*
X10819Y-17682D01*
X10826Y-17682D01*
X10826Y-17782D01*
X10819Y-17782D01*
X10819Y-18238D01*
X10856Y-18275D01*
X11231Y-18275D01*
X11290Y-18275D01*
X11346Y-18252D01*
X11351Y-18247D01*
X11351Y-18900D01*
X10552Y-18900D01*
X10375Y-18865D01*
X10230Y-18768D01*
X10198Y-18720D01*
X10198Y-18255D01*
X10247Y-18275D01*
X10306Y-18275D01*
X10681Y-18275D01*
X10719Y-18238D01*
X10719Y-17782D01*
X10711Y-17782D01*
X10711Y-17682D01*
X10719Y-17682D01*
X10719Y-17226D01*
X10681Y-17188D01*
X10306Y-17188D01*
X10247Y-17188D01*
X10198Y-17208D01*
X10198Y-14771D01*
X10247Y-14791D01*
X10306Y-14791D01*
X10681Y-14791D01*
X10719Y-14754D01*
X10719Y-14298D01*
X10711Y-14298D01*
X10711Y-14198D01*
X10719Y-14198D01*
X10719Y-13742D01*
X10681Y-13704D01*
X10306Y-13704D01*
X10247Y-13704D01*
X10198Y-13724D01*
X10198Y-10419D01*
X10217Y-10324D01*
X10260Y-10259D01*
X10324Y-10217D01*
X10420Y-10198D01*
X35317Y-10198D01*
X35801Y-10682D01*
X35801Y-15100D01*
X35816Y-15175D01*
X35859Y-15240D01*
X36801Y-16182D01*
X36801Y-28917D01*
X36801Y-28917D01*
G37*
G54D44*
X36801Y-28917D02*
X36748Y-28970D01*
X36748Y-27851D01*
X36748Y-16851D01*
X36634Y-16576D01*
X36424Y-16365D01*
X36149Y-16251D01*
X35851Y-16251D01*
X35576Y-16365D01*
X35448Y-16493D01*
X35448Y-11270D01*
X35448Y-10670D01*
X35425Y-10616D01*
X35384Y-10574D01*
X35329Y-10551D01*
X35270Y-10551D01*
X34670Y-10551D01*
X34616Y-10574D01*
X34574Y-10615D01*
X34551Y-10670D01*
X34551Y-10729D01*
X34551Y-11329D01*
X34574Y-11383D01*
X34615Y-11425D01*
X34670Y-11448D01*
X34729Y-11448D01*
X35329Y-11448D01*
X35383Y-11425D01*
X35425Y-11384D01*
X35448Y-11329D01*
X35448Y-11270D01*
X35448Y-16493D01*
X35365Y-16575D01*
X35251Y-16850D01*
X35251Y-17148D01*
X35365Y-17423D01*
X35575Y-17634D01*
X35850Y-17748D01*
X36148Y-17748D01*
X36423Y-17634D01*
X36634Y-17424D01*
X36748Y-17149D01*
X36748Y-16851D01*
X36748Y-27851D01*
X36634Y-27576D01*
X36505Y-27446D01*
X36505Y-21057D01*
X36498Y-20962D01*
X36498Y-19911D01*
X36430Y-19746D01*
X36304Y-19620D01*
X36139Y-19551D01*
X35961Y-19551D01*
X35796Y-19619D01*
X35670Y-19745D01*
X35601Y-19910D01*
X35601Y-20088D01*
X35669Y-20253D01*
X35795Y-20379D01*
X35960Y-20448D01*
X36138Y-20448D01*
X36303Y-20380D01*
X36429Y-20254D01*
X36498Y-20089D01*
X36498Y-19911D01*
X36498Y-20962D01*
X36492Y-20879D01*
X36448Y-20772D01*
X36381Y-20739D01*
X36310Y-20810D01*
X36310Y-20668D01*
X36277Y-20601D01*
X36107Y-20544D01*
X35929Y-20557D01*
X35822Y-20601D01*
X35789Y-20668D01*
X36050Y-20929D01*
X36310Y-20668D01*
X36310Y-20810D01*
X36120Y-21000D01*
X36381Y-21260D01*
X36448Y-21227D01*
X36505Y-21057D01*
X36505Y-27446D01*
X36424Y-27365D01*
X36310Y-27318D01*
X36310Y-21331D01*
X36050Y-21070D01*
X35979Y-21141D01*
X35979Y-21000D01*
X35718Y-20739D01*
X35651Y-20772D01*
X35594Y-20942D01*
X35607Y-21120D01*
X35651Y-21227D01*
X35718Y-21260D01*
X35979Y-21000D01*
X35979Y-21141D01*
X35789Y-21331D01*
X35822Y-21398D01*
X35992Y-21455D01*
X36170Y-21442D01*
X36277Y-21398D01*
X36310Y-21331D01*
X36310Y-27318D01*
X36149Y-27251D01*
X35851Y-27251D01*
X35576Y-27365D01*
X35365Y-27575D01*
X35251Y-27850D01*
X35251Y-28148D01*
X35365Y-28423D01*
X35575Y-28634D01*
X35850Y-28748D01*
X36148Y-28748D01*
X36423Y-28634D01*
X36634Y-28424D01*
X36748Y-28149D01*
X36748Y-27851D01*
X36748Y-28970D01*
X35859Y-29859D01*
X35816Y-29924D01*
X35801Y-30000D01*
X35801Y-30579D01*
X35782Y-30675D01*
X35740Y-30739D01*
X35675Y-30782D01*
X35580Y-30801D01*
X35448Y-30801D01*
X35448Y-29911D01*
X35380Y-29746D01*
X35254Y-29620D01*
X35089Y-29551D01*
X34948Y-29551D01*
X34948Y-26426D01*
X34989Y-26409D01*
X35108Y-26290D01*
X35173Y-26134D01*
X35173Y-25966D01*
X35109Y-25810D01*
X34990Y-25691D01*
X34948Y-25673D01*
X34948Y-24789D01*
X34933Y-24713D01*
X34933Y-24713D01*
X34890Y-24649D01*
X34654Y-24412D01*
X34654Y-24306D01*
X34605Y-24187D01*
X34514Y-24096D01*
X34395Y-24046D01*
X34266Y-24046D01*
X34173Y-24085D01*
X34173Y-22966D01*
X34109Y-22810D01*
X33990Y-22691D01*
X33834Y-22626D01*
X33666Y-22626D01*
X33510Y-22690D01*
X33391Y-22809D01*
X33326Y-22965D01*
X33326Y-23133D01*
X33390Y-23289D01*
X33509Y-23408D01*
X33665Y-23473D01*
X33833Y-23473D01*
X33989Y-23409D01*
X34108Y-23290D01*
X34173Y-23134D01*
X34173Y-22966D01*
X34173Y-24085D01*
X34147Y-24095D01*
X34056Y-24186D01*
X34007Y-24305D01*
X34007Y-24434D01*
X34056Y-24553D01*
X34147Y-24644D01*
X34266Y-24693D01*
X34373Y-24693D01*
X34551Y-24871D01*
X34551Y-25673D01*
X34510Y-25690D01*
X34391Y-25809D01*
X34326Y-25965D01*
X34326Y-26133D01*
X34390Y-26289D01*
X34509Y-26408D01*
X34551Y-26426D01*
X34551Y-29750D01*
X34566Y-29825D01*
X34579Y-29844D01*
X34551Y-29910D01*
X34551Y-30088D01*
X34619Y-30253D01*
X34745Y-30379D01*
X34910Y-30448D01*
X35088Y-30448D01*
X35253Y-30380D01*
X35379Y-30254D01*
X35448Y-30089D01*
X35448Y-29911D01*
X35448Y-30801D01*
X34448Y-30801D01*
X34448Y-29911D01*
X34380Y-29746D01*
X34254Y-29620D01*
X34089Y-29551D01*
X33948Y-29551D01*
X33948Y-26426D01*
X33989Y-26409D01*
X34108Y-26290D01*
X34173Y-26134D01*
X34173Y-25966D01*
X34109Y-25810D01*
X33990Y-25691D01*
X33948Y-25673D01*
X33948Y-24891D01*
X33933Y-24815D01*
X33933Y-24815D01*
X33890Y-24751D01*
X33505Y-24366D01*
X33505Y-24117D01*
X33581Y-24041D01*
X33630Y-23922D01*
X33630Y-23794D01*
X33581Y-23675D01*
X33490Y-23584D01*
X33371Y-23534D01*
X33243Y-23534D01*
X33173Y-23563D01*
X33173Y-22966D01*
X33109Y-22810D01*
X32990Y-22691D01*
X32834Y-22626D01*
X32666Y-22626D01*
X32510Y-22690D01*
X32391Y-22809D01*
X32326Y-22965D01*
X32326Y-23133D01*
X32390Y-23289D01*
X32509Y-23408D01*
X32665Y-23473D01*
X32833Y-23473D01*
X32989Y-23409D01*
X33108Y-23290D01*
X33173Y-23134D01*
X33173Y-22966D01*
X33173Y-23563D01*
X33124Y-23583D01*
X33033Y-23674D01*
X32983Y-23793D01*
X32983Y-23922D01*
X33032Y-24041D01*
X33108Y-24117D01*
X33108Y-24448D01*
X33123Y-24524D01*
X33166Y-24589D01*
X33551Y-24973D01*
X33551Y-25673D01*
X33510Y-25690D01*
X33391Y-25809D01*
X33326Y-25965D01*
X33326Y-26133D01*
X33390Y-26289D01*
X33509Y-26408D01*
X33551Y-26426D01*
X33551Y-29750D01*
X33566Y-29825D01*
X33579Y-29844D01*
X33551Y-29910D01*
X33551Y-30088D01*
X33619Y-30253D01*
X33745Y-30379D01*
X33910Y-30448D01*
X34088Y-30448D01*
X34253Y-30380D01*
X34379Y-30254D01*
X34448Y-30089D01*
X34448Y-29911D01*
X34448Y-30801D01*
X33448Y-30801D01*
X33448Y-29911D01*
X33380Y-29746D01*
X33254Y-29620D01*
X33089Y-29551D01*
X32948Y-29551D01*
X32948Y-26426D01*
X32989Y-26409D01*
X33108Y-26290D01*
X33173Y-26134D01*
X33173Y-25966D01*
X33109Y-25810D01*
X32990Y-25691D01*
X32834Y-25626D01*
X32666Y-25626D01*
X32510Y-25690D01*
X32391Y-25809D01*
X32326Y-25965D01*
X32326Y-26133D01*
X32390Y-26289D01*
X32509Y-26408D01*
X32551Y-26426D01*
X32551Y-29750D01*
X32566Y-29825D01*
X32579Y-29844D01*
X32551Y-29910D01*
X32551Y-30088D01*
X32619Y-30253D01*
X32745Y-30379D01*
X32910Y-30448D01*
X33088Y-30448D01*
X33253Y-30380D01*
X33379Y-30254D01*
X33448Y-30089D01*
X33448Y-29911D01*
X33448Y-30801D01*
X32448Y-30801D01*
X32448Y-29911D01*
X32380Y-29746D01*
X32254Y-29620D01*
X32089Y-29551D01*
X31948Y-29551D01*
X31948Y-26426D01*
X31989Y-26409D01*
X32108Y-26290D01*
X32173Y-26134D01*
X32173Y-25966D01*
X32173Y-22966D01*
X32109Y-22810D01*
X31990Y-22691D01*
X31834Y-22626D01*
X31666Y-22626D01*
X31510Y-22690D01*
X31391Y-22809D01*
X31326Y-22965D01*
X31326Y-23133D01*
X31390Y-23289D01*
X31509Y-23408D01*
X31665Y-23473D01*
X31833Y-23473D01*
X31989Y-23409D01*
X32108Y-23290D01*
X32173Y-23134D01*
X32173Y-22966D01*
X32173Y-25966D01*
X32109Y-25810D01*
X31990Y-25691D01*
X31834Y-25626D01*
X31666Y-25626D01*
X31510Y-25690D01*
X31391Y-25809D01*
X31326Y-25965D01*
X31326Y-26133D01*
X31390Y-26289D01*
X31509Y-26408D01*
X31551Y-26426D01*
X31551Y-29750D01*
X31566Y-29825D01*
X31579Y-29844D01*
X31551Y-29910D01*
X31551Y-30088D01*
X31619Y-30253D01*
X31745Y-30379D01*
X31910Y-30448D01*
X32088Y-30448D01*
X32253Y-30380D01*
X32379Y-30254D01*
X32448Y-30089D01*
X32448Y-29911D01*
X32448Y-30801D01*
X31448Y-30801D01*
X31448Y-29911D01*
X31380Y-29746D01*
X31254Y-29620D01*
X31089Y-29551D01*
X30948Y-29551D01*
X30948Y-26426D01*
X30989Y-26409D01*
X31108Y-26290D01*
X31173Y-26134D01*
X31173Y-25966D01*
X31173Y-22966D01*
X31109Y-22810D01*
X30990Y-22691D01*
X30834Y-22626D01*
X30666Y-22626D01*
X30510Y-22690D01*
X30391Y-22809D01*
X30326Y-22965D01*
X30326Y-23133D01*
X30390Y-23289D01*
X30509Y-23408D01*
X30665Y-23473D01*
X30833Y-23473D01*
X30989Y-23409D01*
X31108Y-23290D01*
X31173Y-23134D01*
X31173Y-22966D01*
X31173Y-25966D01*
X31109Y-25810D01*
X30990Y-25691D01*
X30834Y-25626D01*
X30666Y-25626D01*
X30510Y-25690D01*
X30391Y-25809D01*
X30326Y-25965D01*
X30326Y-26133D01*
X30390Y-26289D01*
X30509Y-26408D01*
X30551Y-26426D01*
X30551Y-29750D01*
X30566Y-29825D01*
X30579Y-29844D01*
X30551Y-29910D01*
X30551Y-30088D01*
X30619Y-30253D01*
X30745Y-30379D01*
X30910Y-30448D01*
X31088Y-30448D01*
X31253Y-30380D01*
X31379Y-30254D01*
X31448Y-30089D01*
X31448Y-29911D01*
X31448Y-30801D01*
X30448Y-30801D01*
X30448Y-30270D01*
X30448Y-29670D01*
X30425Y-29616D01*
X30384Y-29574D01*
X30329Y-29551D01*
X30270Y-29551D01*
X29948Y-29551D01*
X29948Y-26426D01*
X29989Y-26409D01*
X30108Y-26290D01*
X30173Y-26134D01*
X30173Y-25966D01*
X30173Y-22966D01*
X30109Y-22810D01*
X29990Y-22691D01*
X29834Y-22626D01*
X29666Y-22626D01*
X29510Y-22690D01*
X29391Y-22809D01*
X29326Y-22965D01*
X29326Y-23133D01*
X29390Y-23289D01*
X29509Y-23408D01*
X29665Y-23473D01*
X29833Y-23473D01*
X29989Y-23409D01*
X30108Y-23290D01*
X30173Y-23134D01*
X30173Y-22966D01*
X30173Y-25966D01*
X30109Y-25810D01*
X29990Y-25691D01*
X29834Y-25626D01*
X29666Y-25626D01*
X29510Y-25690D01*
X29391Y-25809D01*
X29326Y-25965D01*
X29326Y-26133D01*
X29390Y-26289D01*
X29509Y-26408D01*
X29551Y-26426D01*
X29551Y-29700D01*
X29551Y-29729D01*
X29551Y-30329D01*
X29574Y-30383D01*
X29615Y-30425D01*
X29670Y-30448D01*
X29729Y-30448D01*
X30329Y-30448D01*
X30383Y-30425D01*
X30425Y-30384D01*
X30448Y-30329D01*
X30448Y-30270D01*
X30448Y-30801D01*
X29180Y-30801D01*
X29180Y-26101D01*
X29167Y-25933D01*
X29127Y-25837D01*
X29063Y-25807D01*
X28992Y-25878D01*
X28992Y-25736D01*
X28962Y-25672D01*
X28801Y-25619D01*
X28633Y-25632D01*
X28537Y-25672D01*
X28507Y-25736D01*
X28750Y-25979D01*
X28992Y-25736D01*
X28992Y-25878D01*
X28820Y-26050D01*
X29063Y-26292D01*
X29127Y-26262D01*
X29180Y-26101D01*
X29180Y-30801D01*
X28992Y-30801D01*
X28992Y-26363D01*
X28750Y-26120D01*
X28679Y-26191D01*
X28679Y-26050D01*
X28436Y-25807D01*
X28372Y-25837D01*
X28319Y-25998D01*
X28332Y-26166D01*
X28372Y-26262D01*
X28436Y-26292D01*
X28679Y-26050D01*
X28679Y-26191D01*
X28507Y-26363D01*
X28537Y-26427D01*
X28698Y-26480D01*
X28866Y-26467D01*
X28962Y-26427D01*
X28992Y-26363D01*
X28992Y-30801D01*
X28450Y-30801D01*
X28450Y-29910D01*
X28381Y-29745D01*
X28255Y-29618D01*
X28173Y-29584D01*
X28173Y-25966D01*
X28109Y-25810D01*
X27990Y-25691D01*
X27834Y-25626D01*
X27666Y-25626D01*
X27510Y-25690D01*
X27391Y-25809D01*
X27326Y-25965D01*
X27326Y-26133D01*
X27390Y-26289D01*
X27509Y-26408D01*
X27665Y-26473D01*
X27833Y-26473D01*
X27989Y-26409D01*
X28108Y-26290D01*
X28173Y-26134D01*
X28173Y-25966D01*
X28173Y-29584D01*
X28089Y-29550D01*
X27910Y-29549D01*
X27745Y-29618D01*
X27675Y-29688D01*
X27675Y-27095D01*
X27675Y-26704D01*
X27674Y-26645D01*
X27652Y-26589D01*
X27609Y-26547D01*
X27554Y-26524D01*
X27487Y-26525D01*
X27450Y-26562D01*
X27450Y-26850D01*
X27637Y-26850D01*
X27675Y-26812D01*
X27675Y-26704D01*
X27675Y-27095D01*
X27675Y-26987D01*
X27637Y-26950D01*
X27450Y-26950D01*
X27450Y-27237D01*
X27487Y-27275D01*
X27554Y-27275D01*
X27609Y-27252D01*
X27652Y-27210D01*
X27674Y-27154D01*
X27675Y-27095D01*
X27675Y-29688D01*
X27618Y-29744D01*
X27550Y-29910D01*
X27549Y-30089D01*
X27618Y-30254D01*
X27744Y-30381D01*
X27910Y-30449D01*
X28089Y-30450D01*
X28254Y-30381D01*
X28381Y-30255D01*
X28449Y-30089D01*
X28450Y-29910D01*
X28450Y-30801D01*
X27455Y-30801D01*
X27455Y-30057D01*
X27442Y-29879D01*
X27398Y-29772D01*
X27350Y-29748D01*
X27350Y-27237D01*
X27350Y-26950D01*
X27350Y-26850D01*
X27350Y-26562D01*
X27312Y-26525D01*
X27245Y-26524D01*
X27190Y-26547D01*
X27147Y-26589D01*
X27125Y-26645D01*
X27124Y-26704D01*
X27125Y-26812D01*
X27162Y-26850D01*
X27350Y-26850D01*
X27350Y-26950D01*
X27162Y-26950D01*
X27125Y-26987D01*
X27124Y-27095D01*
X27125Y-27154D01*
X27147Y-27210D01*
X27190Y-27252D01*
X27245Y-27275D01*
X27312Y-27275D01*
X27350Y-27237D01*
X27350Y-29748D01*
X27331Y-29739D01*
X27260Y-29810D01*
X27260Y-29668D01*
X27227Y-29601D01*
X27057Y-29544D01*
X26879Y-29557D01*
X26772Y-29601D01*
X26739Y-29668D01*
X27000Y-29929D01*
X27260Y-29668D01*
X27260Y-29810D01*
X27070Y-30000D01*
X27331Y-30260D01*
X27398Y-30227D01*
X27455Y-30057D01*
X27455Y-30801D01*
X27260Y-30801D01*
X27260Y-30331D01*
X27000Y-30070D01*
X26929Y-30141D01*
X26929Y-30000D01*
X26668Y-29739D01*
X26601Y-29772D01*
X26544Y-29942D01*
X26557Y-30120D01*
X26601Y-30227D01*
X26668Y-30260D01*
X26929Y-30000D01*
X26929Y-30141D01*
X26739Y-30331D01*
X26772Y-30398D01*
X26942Y-30455D01*
X27120Y-30442D01*
X27227Y-30398D01*
X27260Y-30331D01*
X27260Y-30801D01*
X26455Y-30801D01*
X26455Y-30057D01*
X26442Y-29879D01*
X26398Y-29772D01*
X26331Y-29739D01*
X26260Y-29810D01*
X26260Y-29668D01*
X26227Y-29601D01*
X26057Y-29544D01*
X25879Y-29557D01*
X25772Y-29601D01*
X25739Y-29668D01*
X26000Y-29929D01*
X26260Y-29668D01*
X26260Y-29810D01*
X26070Y-30000D01*
X26331Y-30260D01*
X26398Y-30227D01*
X26455Y-30057D01*
X26455Y-30801D01*
X26260Y-30801D01*
X26260Y-30331D01*
X26000Y-30070D01*
X25929Y-30141D01*
X25929Y-30000D01*
X25668Y-29739D01*
X25601Y-29772D01*
X25544Y-29942D01*
X25557Y-30120D01*
X25601Y-30227D01*
X25668Y-30260D01*
X25929Y-30000D01*
X25929Y-30141D01*
X25739Y-30331D01*
X25772Y-30398D01*
X25942Y-30455D01*
X26120Y-30442D01*
X26227Y-30398D01*
X26260Y-30331D01*
X26260Y-30801D01*
X20515Y-30801D01*
X20515Y-28886D01*
X20515Y-27645D01*
X20492Y-27590D01*
X20450Y-27548D01*
X20394Y-27525D01*
X20335Y-27525D01*
X20137Y-27525D01*
X20100Y-27563D01*
X20100Y-28216D01*
X20477Y-28216D01*
X20515Y-28178D01*
X20515Y-27645D01*
X20515Y-28886D01*
X20515Y-28353D01*
X20477Y-28316D01*
X20100Y-28316D01*
X20100Y-28969D01*
X20137Y-29006D01*
X20335Y-29006D01*
X20394Y-29006D01*
X20450Y-28983D01*
X20492Y-28941D01*
X20515Y-28886D01*
X20515Y-30801D01*
X17868Y-30801D01*
X17868Y-30370D01*
X17868Y-29370D01*
X17845Y-29316D01*
X17804Y-29274D01*
X17749Y-29251D01*
X17715Y-29251D01*
X17715Y-28886D01*
X17715Y-28353D01*
X17677Y-28316D01*
X17300Y-28316D01*
X17300Y-28969D01*
X17337Y-29006D01*
X17535Y-29006D01*
X17594Y-29006D01*
X17650Y-28983D01*
X17692Y-28941D01*
X17715Y-28886D01*
X17715Y-29251D01*
X17690Y-29251D01*
X17143Y-29251D01*
X16893Y-29001D01*
X16905Y-29006D01*
X16964Y-29006D01*
X17162Y-29006D01*
X17200Y-28969D01*
X17200Y-28316D01*
X16822Y-28316D01*
X16785Y-28353D01*
X16784Y-28886D01*
X16789Y-28897D01*
X15581Y-27688D01*
X15484Y-27624D01*
X15370Y-27601D01*
X15100Y-27601D01*
X15040Y-27601D01*
X15040Y-26886D01*
X15018Y-26831D01*
X14976Y-26789D01*
X14921Y-26767D01*
X14862Y-26767D01*
X13878Y-26767D01*
X13823Y-26789D01*
X13782Y-26831D01*
X13759Y-26886D01*
X13759Y-26945D01*
X13759Y-28913D01*
X13781Y-28968D01*
X13823Y-29010D01*
X13878Y-29032D01*
X13937Y-29032D01*
X14921Y-29032D01*
X14976Y-29010D01*
X15017Y-28968D01*
X15040Y-28913D01*
X15040Y-28854D01*
X15040Y-28198D01*
X15100Y-28198D01*
X15246Y-28198D01*
X16871Y-29823D01*
X16871Y-30429D01*
X16894Y-30483D01*
X16935Y-30525D01*
X16990Y-30548D01*
X17049Y-30548D01*
X17749Y-30548D01*
X17803Y-30525D01*
X17845Y-30484D01*
X17868Y-30429D01*
X17868Y-30370D01*
X17868Y-30801D01*
X16248Y-30801D01*
X16248Y-29851D01*
X16134Y-29576D01*
X15924Y-29365D01*
X15649Y-29251D01*
X15351Y-29251D01*
X15076Y-29365D01*
X14865Y-29575D01*
X14751Y-29850D01*
X14751Y-30148D01*
X14865Y-30423D01*
X15075Y-30634D01*
X15350Y-30748D01*
X15648Y-30748D01*
X15923Y-30634D01*
X16134Y-30424D01*
X16248Y-30149D01*
X16248Y-29851D01*
X16248Y-30801D01*
X13977Y-30801D01*
X13977Y-30049D01*
X13977Y-29750D01*
X13965Y-29700D01*
X13842Y-29481D01*
X13644Y-29325D01*
X13402Y-29257D01*
X12950Y-29257D01*
X12950Y-29850D01*
X13955Y-29850D01*
X13977Y-29750D01*
X13977Y-30049D01*
X13955Y-29950D01*
X12950Y-29950D01*
X12950Y-30542D01*
X13402Y-30542D01*
X13644Y-30474D01*
X13842Y-30318D01*
X13965Y-30099D01*
X13977Y-30049D01*
X13977Y-30801D01*
X12850Y-30801D01*
X12850Y-30542D01*
X12850Y-29950D01*
X12850Y-29850D01*
X12850Y-29257D01*
X12642Y-29257D01*
X12642Y-28402D01*
X12642Y-27950D01*
X12642Y-27850D01*
X12642Y-27397D01*
X12574Y-27155D01*
X12418Y-26957D01*
X12199Y-26834D01*
X12149Y-26822D01*
X12050Y-26844D01*
X12050Y-27850D01*
X12642Y-27850D01*
X12642Y-27950D01*
X12050Y-27950D01*
X12050Y-28955D01*
X12149Y-28977D01*
X12199Y-28965D01*
X12418Y-28842D01*
X12574Y-28644D01*
X12642Y-28402D01*
X12642Y-29257D01*
X12397Y-29257D01*
X12155Y-29325D01*
X11957Y-29481D01*
X11950Y-29495D01*
X11950Y-28955D01*
X11950Y-27950D01*
X11950Y-27850D01*
X11950Y-26844D01*
X11850Y-26822D01*
X11800Y-26834D01*
X11581Y-26957D01*
X11425Y-27155D01*
X11357Y-27397D01*
X11357Y-27850D01*
X11950Y-27850D01*
X11950Y-27950D01*
X11357Y-27950D01*
X11357Y-28402D01*
X11425Y-28644D01*
X11581Y-28842D01*
X11800Y-28965D01*
X11850Y-28977D01*
X11950Y-28955D01*
X11950Y-29495D01*
X11834Y-29700D01*
X11822Y-29750D01*
X11844Y-29850D01*
X12850Y-29850D01*
X12850Y-29950D01*
X11844Y-29950D01*
X11822Y-30049D01*
X11834Y-30099D01*
X11957Y-30318D01*
X12155Y-30474D01*
X12397Y-30542D01*
X12850Y-30542D01*
X12850Y-30801D01*
X10420Y-30801D01*
X10324Y-30782D01*
X10260Y-30740D01*
X10217Y-30675D01*
X10198Y-30580D01*
X10198Y-26318D01*
X10324Y-26234D01*
X10499Y-26200D01*
X13797Y-26200D01*
X14003Y-26159D01*
X14178Y-26042D01*
X15192Y-25028D01*
X15309Y-24853D01*
X15350Y-24647D01*
X15350Y-23500D01*
X15546Y-23500D01*
X15850Y-23803D01*
X15850Y-26850D01*
X15869Y-26945D01*
X15923Y-27026D01*
X16473Y-27576D01*
X16554Y-27630D01*
X16554Y-27630D01*
X16650Y-27650D01*
X16784Y-27650D01*
X16785Y-28178D01*
X16822Y-28216D01*
X17200Y-28216D01*
X17200Y-28208D01*
X17300Y-28208D01*
X17300Y-28216D01*
X17677Y-28216D01*
X17715Y-28178D01*
X17715Y-27650D01*
X18750Y-27650D01*
X18750Y-29700D01*
X18769Y-29795D01*
X18823Y-29876D01*
X19023Y-30076D01*
X19023Y-30076D01*
X19071Y-30109D01*
X19104Y-30130D01*
X19104Y-30130D01*
X19129Y-30136D01*
X19129Y-30429D01*
X19152Y-30484D01*
X19194Y-30527D01*
X19250Y-30549D01*
X19309Y-30550D01*
X20009Y-30550D01*
X20064Y-30527D01*
X20107Y-30485D01*
X20129Y-30429D01*
X20130Y-30370D01*
X20130Y-29370D01*
X20107Y-29315D01*
X20065Y-29272D01*
X20009Y-29250D01*
X20000Y-29250D01*
X20000Y-28969D01*
X20000Y-28316D01*
X20000Y-28216D01*
X20000Y-27563D01*
X19962Y-27525D01*
X19764Y-27525D01*
X19705Y-27525D01*
X19649Y-27548D01*
X19607Y-27590D01*
X19584Y-27645D01*
X19585Y-28178D01*
X19622Y-28216D01*
X20000Y-28216D01*
X20000Y-28316D01*
X19622Y-28316D01*
X19585Y-28353D01*
X19584Y-28886D01*
X19607Y-28941D01*
X19649Y-28983D01*
X19705Y-29006D01*
X19764Y-29006D01*
X19962Y-29006D01*
X20000Y-28969D01*
X20000Y-29250D01*
X19950Y-29249D01*
X19250Y-29249D01*
X19250Y-29250D01*
X19250Y-27503D01*
X19589Y-27164D01*
X19607Y-27209D01*
X19649Y-27251D01*
X19705Y-27274D01*
X19764Y-27274D01*
X20394Y-27274D01*
X20449Y-27251D01*
X20467Y-27234D01*
X20899Y-27666D01*
X20856Y-27769D01*
X20856Y-27899D01*
X20905Y-28018D01*
X20996Y-28110D01*
X21116Y-28159D01*
X21245Y-28159D01*
X21364Y-28110D01*
X21456Y-28018D01*
X21506Y-27899D01*
X21506Y-27770D01*
X21456Y-27650D01*
X21365Y-27559D01*
X21338Y-27548D01*
X21338Y-27548D01*
X21322Y-27523D01*
X21322Y-27523D01*
X20515Y-26716D01*
X20515Y-25913D01*
X20492Y-25858D01*
X20450Y-25816D01*
X20425Y-25806D01*
X20425Y-25404D01*
X20425Y-25095D01*
X20402Y-25040D01*
X20360Y-24997D01*
X20304Y-24975D01*
X20245Y-24974D01*
X20137Y-24975D01*
X20100Y-25012D01*
X20100Y-25200D01*
X20387Y-25200D01*
X20425Y-25162D01*
X20425Y-25095D01*
X20425Y-25404D01*
X20425Y-25337D01*
X20387Y-25300D01*
X20100Y-25300D01*
X20100Y-25487D01*
X20137Y-25525D01*
X20245Y-25525D01*
X20304Y-25524D01*
X20360Y-25502D01*
X20402Y-25459D01*
X20425Y-25404D01*
X20425Y-25806D01*
X20394Y-25793D01*
X20335Y-25793D01*
X20000Y-25793D01*
X20000Y-25487D01*
X20000Y-25300D01*
X20000Y-25200D01*
X20000Y-25012D01*
X19962Y-24975D01*
X19854Y-24974D01*
X19795Y-24975D01*
X19739Y-24997D01*
X19697Y-25040D01*
X19674Y-25095D01*
X19675Y-25162D01*
X19712Y-25200D01*
X20000Y-25200D01*
X20000Y-25300D01*
X19712Y-25300D01*
X19675Y-25337D01*
X19674Y-25404D01*
X19697Y-25459D01*
X19739Y-25502D01*
X19795Y-25524D01*
X19854Y-25525D01*
X19962Y-25525D01*
X20000Y-25487D01*
X20000Y-25793D01*
X19705Y-25793D01*
X19650Y-25816D01*
X19607Y-25858D01*
X19585Y-25913D01*
X19584Y-25973D01*
X19584Y-26461D01*
X19448Y-26597D01*
X19448Y-25445D01*
X19448Y-25245D01*
X19425Y-25191D01*
X19384Y-25149D01*
X19329Y-25126D01*
X19270Y-25126D01*
X18970Y-25126D01*
X18916Y-25149D01*
X18874Y-25190D01*
X18851Y-25245D01*
X18851Y-25304D01*
X18851Y-25504D01*
X18874Y-25558D01*
X18915Y-25600D01*
X18970Y-25623D01*
X19029Y-25623D01*
X19329Y-25623D01*
X19383Y-25600D01*
X19425Y-25559D01*
X19448Y-25504D01*
X19448Y-25445D01*
X19448Y-26597D01*
X18896Y-27150D01*
X17714Y-27150D01*
X17715Y-27094D01*
X17715Y-26092D01*
X18182Y-25625D01*
X18329Y-25625D01*
X18384Y-25602D01*
X18427Y-25560D01*
X18449Y-25504D01*
X18450Y-25445D01*
X18450Y-25245D01*
X18427Y-25190D01*
X18424Y-25187D01*
X18427Y-25184D01*
X18450Y-25129D01*
X18450Y-25087D01*
X18412Y-25050D01*
X18200Y-25050D01*
X18200Y-25057D01*
X18100Y-25057D01*
X18100Y-25050D01*
X18092Y-25050D01*
X18092Y-24950D01*
X18100Y-24950D01*
X18100Y-24942D01*
X18200Y-24942D01*
X18200Y-24950D01*
X18412Y-24950D01*
X18450Y-24912D01*
X18450Y-24870D01*
X18427Y-24815D01*
X18424Y-24812D01*
X18427Y-24810D01*
X18449Y-24754D01*
X18450Y-24695D01*
X18450Y-24495D01*
X18427Y-24440D01*
X18385Y-24397D01*
X18329Y-24375D01*
X18270Y-24374D01*
X17970Y-24374D01*
X17915Y-24397D01*
X17887Y-24425D01*
X17825Y-24425D01*
X17748Y-24440D01*
X17726Y-24454D01*
X17683Y-24483D01*
X17624Y-24543D01*
X17602Y-24490D01*
X17560Y-24447D01*
X17504Y-24425D01*
X17445Y-24424D01*
X17337Y-24425D01*
X17300Y-24462D01*
X17300Y-24650D01*
X17307Y-24650D01*
X17307Y-24750D01*
X17300Y-24750D01*
X17300Y-24937D01*
X17337Y-24975D01*
X17445Y-24975D01*
X17500Y-24974D01*
X17500Y-25025D01*
X17445Y-25024D01*
X17200Y-25024D01*
X17200Y-24937D01*
X17200Y-24750D01*
X17200Y-24650D01*
X17200Y-24462D01*
X17162Y-24425D01*
X17054Y-24424D01*
X16995Y-24425D01*
X16939Y-24447D01*
X16897Y-24490D01*
X16874Y-24545D01*
X16875Y-24612D01*
X16912Y-24650D01*
X17200Y-24650D01*
X17200Y-24750D01*
X16912Y-24750D01*
X16875Y-24787D01*
X16874Y-24854D01*
X16897Y-24909D01*
X16939Y-24952D01*
X16995Y-24974D01*
X17054Y-24975D01*
X17162Y-24975D01*
X17200Y-24937D01*
X17200Y-25024D01*
X16995Y-25024D01*
X16940Y-25047D01*
X16897Y-25089D01*
X16893Y-25100D01*
X16832Y-25100D01*
X16650Y-24917D01*
X16650Y-23642D01*
X16679Y-23613D01*
X16904Y-23613D01*
X16958Y-23590D01*
X17000Y-23549D01*
X17023Y-23494D01*
X17023Y-23435D01*
X17023Y-23275D01*
X17015Y-23257D01*
X17023Y-23239D01*
X17023Y-23180D01*
X17023Y-23068D01*
X17366Y-23068D01*
X17442Y-23053D01*
X17442Y-23053D01*
X17462Y-23039D01*
X17583Y-23040D01*
X17702Y-22990D01*
X17793Y-22899D01*
X17843Y-22781D01*
X17843Y-22652D01*
X17794Y-22533D01*
X17703Y-22442D01*
X17584Y-22393D01*
X17455Y-22393D01*
X17336Y-22442D01*
X17245Y-22533D01*
X17196Y-22651D01*
X17196Y-22671D01*
X17023Y-22671D01*
X17023Y-22665D01*
X17023Y-22505D01*
X17020Y-22499D01*
X17314Y-22206D01*
X19287Y-22206D01*
X19702Y-22620D01*
X19766Y-22663D01*
X19766Y-22663D01*
X19806Y-22671D01*
X18775Y-22671D01*
X18775Y-22505D01*
X18752Y-22450D01*
X18710Y-22407D01*
X18654Y-22385D01*
X18595Y-22384D01*
X18462Y-22385D01*
X18425Y-22422D01*
X18425Y-22575D01*
X18737Y-22575D01*
X18775Y-22537D01*
X18775Y-22505D01*
X18775Y-22671D01*
X18754Y-22671D01*
X18737Y-22655D01*
X18686Y-22655D01*
X18654Y-22641D01*
X18595Y-22641D01*
X18325Y-22641D01*
X18325Y-22575D01*
X18325Y-22422D01*
X18287Y-22385D01*
X18154Y-22384D01*
X18095Y-22385D01*
X18039Y-22407D01*
X17997Y-22450D01*
X17974Y-22505D01*
X17975Y-22537D01*
X18012Y-22575D01*
X18325Y-22575D01*
X18325Y-22641D01*
X18095Y-22641D01*
X18063Y-22655D01*
X18012Y-22655D01*
X17975Y-22692D01*
X17974Y-22724D01*
X17983Y-22744D01*
X17976Y-22760D01*
X17976Y-22819D01*
X17976Y-22979D01*
X17985Y-22999D01*
X17976Y-23020D01*
X17976Y-23079D01*
X17976Y-23239D01*
X17984Y-23257D01*
X17976Y-23275D01*
X17976Y-23334D01*
X17976Y-23494D01*
X17999Y-23548D01*
X18040Y-23590D01*
X18095Y-23613D01*
X18154Y-23613D01*
X18626Y-23613D01*
X18626Y-23714D01*
X18675Y-23832D01*
X18766Y-23924D01*
X18885Y-23973D01*
X19014Y-23973D01*
X19132Y-23924D01*
X19224Y-23833D01*
X19273Y-23714D01*
X19273Y-23585D01*
X19224Y-23467D01*
X19137Y-23380D01*
X19719Y-23380D01*
X19724Y-23385D01*
X19724Y-23450D01*
X19774Y-23569D01*
X19800Y-23595D01*
X19800Y-24374D01*
X19795Y-24374D01*
X19795Y-24375D01*
X19300Y-24375D01*
X19270Y-24374D01*
X18970Y-24374D01*
X18915Y-24397D01*
X18872Y-24439D01*
X18850Y-24495D01*
X18849Y-24554D01*
X18849Y-24754D01*
X18872Y-24809D01*
X18914Y-24852D01*
X18970Y-24874D01*
X19029Y-24875D01*
X19329Y-24875D01*
X19329Y-24875D01*
X19712Y-24875D01*
X19739Y-24902D01*
X19795Y-24924D01*
X19854Y-24925D01*
X20304Y-24925D01*
X20359Y-24902D01*
X20402Y-24860D01*
X20424Y-24804D01*
X20425Y-24745D01*
X20425Y-24495D01*
X20402Y-24440D01*
X20360Y-24397D01*
X20304Y-24375D01*
X20300Y-24375D01*
X20300Y-23595D01*
X20325Y-23570D01*
X20374Y-23450D01*
X20375Y-23321D01*
X20325Y-23201D01*
X20234Y-23110D01*
X20133Y-23068D01*
X20830Y-23068D01*
X20905Y-23053D01*
X20905Y-23053D01*
X20970Y-23010D01*
X21022Y-22958D01*
X21022Y-26338D01*
X21037Y-26414D01*
X21080Y-26478D01*
X22801Y-28200D01*
X22801Y-29551D01*
X22670Y-29551D01*
X22616Y-29574D01*
X22574Y-29615D01*
X22551Y-29670D01*
X22551Y-29729D01*
X22551Y-30329D01*
X22574Y-30383D01*
X22615Y-30425D01*
X22670Y-30448D01*
X22729Y-30448D01*
X23329Y-30448D01*
X23383Y-30425D01*
X23425Y-30384D01*
X23448Y-30329D01*
X23448Y-30270D01*
X23448Y-29670D01*
X23425Y-29616D01*
X23384Y-29574D01*
X23329Y-29551D01*
X23270Y-29551D01*
X23198Y-29551D01*
X23198Y-28118D01*
X23183Y-28042D01*
X23183Y-28042D01*
X23148Y-27990D01*
X23750Y-28591D01*
X23750Y-29616D01*
X23745Y-29618D01*
X23618Y-29744D01*
X23550Y-29910D01*
X23549Y-30089D01*
X23618Y-30254D01*
X23744Y-30381D01*
X23910Y-30449D01*
X24089Y-30450D01*
X24254Y-30381D01*
X24381Y-30255D01*
X24449Y-30089D01*
X24450Y-29910D01*
X24381Y-29745D01*
X24255Y-29618D01*
X24250Y-29616D01*
X24250Y-28488D01*
X24230Y-28392D01*
X24230Y-28392D01*
X24209Y-28360D01*
X24176Y-28311D01*
X24176Y-28311D01*
X22569Y-26703D01*
X22569Y-26667D01*
X22519Y-26548D01*
X22428Y-26456D01*
X22309Y-26407D01*
X22179Y-26407D01*
X22060Y-26456D01*
X21968Y-26547D01*
X21919Y-26667D01*
X21919Y-26756D01*
X21614Y-26452D01*
X21665Y-26473D01*
X21833Y-26473D01*
X21989Y-26409D01*
X22108Y-26290D01*
X22173Y-26134D01*
X22173Y-25966D01*
X22109Y-25810D01*
X21990Y-25691D01*
X21930Y-25666D01*
X21930Y-24373D01*
X22384Y-23919D01*
X22384Y-23919D01*
X22384Y-23919D01*
X22427Y-23855D01*
X22427Y-23855D01*
X22442Y-23779D01*
X22442Y-23341D01*
X22509Y-23408D01*
X22665Y-23473D01*
X22833Y-23473D01*
X22989Y-23409D01*
X23029Y-23368D01*
X23029Y-23539D01*
X22609Y-23960D01*
X22566Y-24024D01*
X22551Y-24100D01*
X22551Y-25673D01*
X22510Y-25690D01*
X22391Y-25809D01*
X22326Y-25965D01*
X22326Y-26133D01*
X22390Y-26289D01*
X22509Y-26408D01*
X22665Y-26473D01*
X22833Y-26473D01*
X22989Y-26409D01*
X23108Y-26290D01*
X23173Y-26134D01*
X23173Y-25966D01*
X23109Y-25810D01*
X22990Y-25691D01*
X22948Y-25673D01*
X22948Y-24182D01*
X23368Y-23762D01*
X23368Y-23762D01*
X23368Y-23762D01*
X23411Y-23697D01*
X23411Y-23697D01*
X23426Y-23622D01*
X23426Y-23325D01*
X23509Y-23408D01*
X23665Y-23473D01*
X23833Y-23473D01*
X23989Y-23409D01*
X24108Y-23290D01*
X24173Y-23134D01*
X24173Y-22966D01*
X24109Y-22810D01*
X23990Y-22691D01*
X23834Y-22626D01*
X23666Y-22626D01*
X23510Y-22690D01*
X23426Y-22774D01*
X23426Y-21085D01*
X23502Y-21010D01*
X23551Y-20891D01*
X23551Y-20762D01*
X23502Y-20643D01*
X23411Y-20552D01*
X23292Y-20503D01*
X23164Y-20503D01*
X23045Y-20552D01*
X22954Y-20643D01*
X22904Y-20762D01*
X22904Y-20890D01*
X22954Y-21009D01*
X23029Y-21085D01*
X23029Y-22731D01*
X22990Y-22691D01*
X22834Y-22626D01*
X22666Y-22626D01*
X22510Y-22690D01*
X22442Y-22758D01*
X22442Y-22188D01*
X22518Y-22112D01*
X22567Y-21993D01*
X22567Y-21865D01*
X22518Y-21746D01*
X22427Y-21655D01*
X22308Y-21605D01*
X22180Y-21605D01*
X22061Y-21654D01*
X21970Y-21745D01*
X21920Y-21864D01*
X21920Y-21993D01*
X21969Y-22112D01*
X22045Y-22188D01*
X22045Y-22746D01*
X21990Y-22691D01*
X21834Y-22626D01*
X21666Y-22626D01*
X21510Y-22690D01*
X21418Y-22782D01*
X21418Y-22719D01*
X21754Y-22384D01*
X21754Y-22384D01*
X21754Y-22384D01*
X21797Y-22320D01*
X21797Y-22320D01*
X21812Y-22244D01*
X21812Y-21212D01*
X21812Y-21212D01*
X21812Y-20677D01*
X21812Y-20677D01*
X21812Y-20677D01*
X21809Y-20662D01*
X21797Y-20601D01*
X21797Y-20601D01*
X21754Y-20536D01*
X21754Y-20536D01*
X21575Y-20358D01*
X21768Y-20165D01*
X21875Y-20166D01*
X21993Y-20116D01*
X22085Y-20025D01*
X22134Y-19907D01*
X22134Y-19796D01*
X22139Y-19801D01*
X22258Y-19850D01*
X22386Y-19851D01*
X22505Y-19801D01*
X22581Y-19725D01*
X23989Y-19725D01*
X23977Y-19737D01*
X23928Y-19856D01*
X23928Y-19985D01*
X23977Y-20104D01*
X24068Y-20195D01*
X24187Y-20244D01*
X24294Y-20244D01*
X25037Y-20987D01*
X25037Y-22738D01*
X24990Y-22691D01*
X24834Y-22626D01*
X24666Y-22626D01*
X24510Y-22690D01*
X24391Y-22809D01*
X24326Y-22965D01*
X24326Y-23133D01*
X24390Y-23289D01*
X24509Y-23408D01*
X24665Y-23473D01*
X24833Y-23473D01*
X24989Y-23409D01*
X25037Y-23360D01*
X25037Y-23854D01*
X24878Y-24014D01*
X24212Y-24014D01*
X24212Y-24014D01*
X24197Y-24017D01*
X24136Y-24029D01*
X24072Y-24072D01*
X24072Y-24072D01*
X23609Y-24534D01*
X23566Y-24599D01*
X23551Y-24675D01*
X23551Y-25673D01*
X23510Y-25690D01*
X23391Y-25809D01*
X23326Y-25965D01*
X23326Y-26133D01*
X23390Y-26289D01*
X23509Y-26408D01*
X23665Y-26473D01*
X23833Y-26473D01*
X23989Y-26409D01*
X24108Y-26290D01*
X24173Y-26134D01*
X24173Y-25966D01*
X24109Y-25810D01*
X23990Y-25691D01*
X23948Y-25673D01*
X23948Y-24757D01*
X24294Y-24411D01*
X24659Y-24411D01*
X24607Y-24462D01*
X24558Y-24581D01*
X24558Y-24709D01*
X24562Y-24720D01*
X24551Y-24777D01*
X24551Y-25673D01*
X24510Y-25690D01*
X24391Y-25809D01*
X24326Y-25965D01*
X24326Y-26133D01*
X24390Y-26289D01*
X24509Y-26408D01*
X24665Y-26473D01*
X24833Y-26473D01*
X24989Y-26409D01*
X25108Y-26290D01*
X25173Y-26134D01*
X25173Y-25966D01*
X25109Y-25810D01*
X24990Y-25691D01*
X24948Y-25673D01*
X24948Y-24968D01*
X25064Y-24920D01*
X25155Y-24829D01*
X25205Y-24710D01*
X25205Y-24581D01*
X25156Y-24462D01*
X25068Y-24374D01*
X25068Y-24374D01*
X25100Y-24352D01*
X25376Y-24077D01*
X25376Y-24077D01*
X25376Y-24077D01*
X25419Y-24012D01*
X25419Y-24012D01*
X25434Y-23937D01*
X25434Y-23333D01*
X25509Y-23408D01*
X25665Y-23473D01*
X25833Y-23473D01*
X25989Y-23409D01*
X26108Y-23290D01*
X26173Y-23134D01*
X26173Y-22966D01*
X26109Y-22810D01*
X25990Y-22691D01*
X25948Y-22673D01*
X25948Y-22423D01*
X26104Y-22423D01*
X26158Y-22400D01*
X26200Y-22359D01*
X26223Y-22304D01*
X26223Y-22245D01*
X26223Y-21795D01*
X26200Y-21741D01*
X26188Y-21728D01*
X26210Y-21706D01*
X26210Y-21250D01*
X26210Y-21150D01*
X26210Y-20693D01*
X26173Y-20656D01*
X26141Y-20656D01*
X26086Y-20679D01*
X26044Y-20721D01*
X26021Y-20776D01*
X26021Y-20836D01*
X26021Y-21112D01*
X26058Y-21150D01*
X26210Y-21150D01*
X26210Y-21250D01*
X26058Y-21250D01*
X26021Y-21287D01*
X26021Y-21563D01*
X26021Y-21623D01*
X26043Y-21676D01*
X25982Y-21676D01*
X26004Y-21623D01*
X26004Y-21564D01*
X26004Y-20776D01*
X25982Y-20722D01*
X25940Y-20680D01*
X25885Y-20657D01*
X25826Y-20657D01*
X25669Y-20657D01*
X25614Y-20680D01*
X25573Y-20722D01*
X25550Y-20776D01*
X25550Y-20835D01*
X25550Y-21623D01*
X25572Y-21677D01*
X25579Y-21683D01*
X25579Y-21877D01*
X25594Y-21953D01*
X25637Y-22017D01*
X25669Y-22050D01*
X25609Y-22109D01*
X25566Y-22174D01*
X25551Y-22250D01*
X25551Y-22673D01*
X25510Y-22690D01*
X25434Y-22766D01*
X25434Y-20905D01*
X25434Y-20905D01*
X25434Y-20905D01*
X25431Y-20890D01*
X25419Y-20829D01*
X25419Y-20829D01*
X25376Y-20765D01*
X25376Y-20765D01*
X24575Y-19964D01*
X24575Y-19857D01*
X24526Y-19738D01*
X24514Y-19725D01*
X26571Y-19725D01*
X27904Y-21059D01*
X27904Y-21166D01*
X27954Y-21285D01*
X28044Y-21376D01*
X28163Y-21425D01*
X28292Y-21425D01*
X28411Y-21376D01*
X28502Y-21285D01*
X28551Y-21166D01*
X28551Y-21038D01*
X28523Y-20969D01*
X28928Y-21374D01*
X28928Y-21481D01*
X28977Y-21600D01*
X29068Y-21691D01*
X29187Y-21740D01*
X29289Y-21740D01*
X29272Y-21752D01*
X28602Y-22421D01*
X28548Y-22502D01*
X28529Y-22598D01*
X28529Y-22681D01*
X28509Y-22689D01*
X28389Y-22808D01*
X28325Y-22965D01*
X28324Y-23134D01*
X28389Y-23290D01*
X28500Y-23401D01*
X28500Y-23941D01*
X28180Y-24261D01*
X28180Y-23101D01*
X28167Y-22933D01*
X28127Y-22837D01*
X28063Y-22807D01*
X27992Y-22878D01*
X27992Y-22736D01*
X27962Y-22672D01*
X27801Y-22619D01*
X27633Y-22632D01*
X27537Y-22672D01*
X27507Y-22736D01*
X27750Y-22979D01*
X27992Y-22736D01*
X27992Y-22878D01*
X27820Y-23050D01*
X28063Y-23292D01*
X28127Y-23262D01*
X28180Y-23101D01*
X28180Y-24261D01*
X28124Y-24316D01*
X27992Y-24316D01*
X27992Y-23363D01*
X27750Y-23120D01*
X27679Y-23191D01*
X27679Y-23050D01*
X27436Y-22807D01*
X27372Y-22837D01*
X27319Y-22998D01*
X27332Y-23166D01*
X27372Y-23262D01*
X27436Y-23292D01*
X27679Y-23050D01*
X27679Y-23191D01*
X27507Y-23363D01*
X27537Y-23427D01*
X27698Y-23480D01*
X27866Y-23467D01*
X27962Y-23427D01*
X27992Y-23363D01*
X27992Y-24316D01*
X27244Y-24316D01*
X27173Y-24330D01*
X27173Y-22966D01*
X27109Y-22810D01*
X26990Y-22691D01*
X26948Y-22673D01*
X26948Y-22250D01*
X26933Y-22174D01*
X26933Y-22174D01*
X26890Y-22109D01*
X26890Y-22109D01*
X26830Y-22049D01*
X26862Y-22017D01*
X26862Y-22017D01*
X26862Y-22017D01*
X26905Y-21953D01*
X26905Y-21953D01*
X26920Y-21877D01*
X26920Y-21683D01*
X26926Y-21677D01*
X26949Y-21623D01*
X26949Y-21564D01*
X26949Y-20776D01*
X26927Y-20722D01*
X26885Y-20680D01*
X26830Y-20657D01*
X26771Y-20657D01*
X26614Y-20657D01*
X26559Y-20680D01*
X26517Y-20722D01*
X26495Y-20776D01*
X26495Y-20835D01*
X26495Y-21623D01*
X26517Y-21676D01*
X26456Y-21676D01*
X26478Y-21623D01*
X26478Y-21563D01*
X26478Y-20836D01*
X26478Y-20776D01*
X26455Y-20721D01*
X26413Y-20679D01*
X26358Y-20656D01*
X26326Y-20656D01*
X26289Y-20693D01*
X26289Y-21150D01*
X26441Y-21150D01*
X26478Y-21112D01*
X26478Y-20836D01*
X26478Y-21563D01*
X26478Y-21287D01*
X26441Y-21250D01*
X26289Y-21250D01*
X26289Y-21706D01*
X26311Y-21728D01*
X26299Y-21740D01*
X26276Y-21795D01*
X26276Y-21854D01*
X26276Y-22304D01*
X26299Y-22358D01*
X26340Y-22400D01*
X26395Y-22423D01*
X26454Y-22423D01*
X26551Y-22423D01*
X26551Y-22673D01*
X26510Y-22690D01*
X26391Y-22809D01*
X26326Y-22965D01*
X26326Y-23133D01*
X26390Y-23289D01*
X26509Y-23408D01*
X26665Y-23473D01*
X26833Y-23473D01*
X26989Y-23409D01*
X27108Y-23290D01*
X27173Y-23134D01*
X27173Y-22966D01*
X27173Y-24330D01*
X27148Y-24335D01*
X27067Y-24390D01*
X26573Y-24884D01*
X26519Y-24965D01*
X26500Y-25061D01*
X26500Y-25699D01*
X26389Y-25808D01*
X26325Y-25965D01*
X26324Y-26134D01*
X26389Y-26290D01*
X26508Y-26410D01*
X26550Y-26427D01*
X26550Y-26587D01*
X26547Y-26589D01*
X26525Y-26645D01*
X26524Y-26704D01*
X26524Y-27154D01*
X26547Y-27209D01*
X26550Y-27212D01*
X26550Y-27781D01*
X26195Y-28135D01*
X26173Y-28135D01*
X26173Y-25966D01*
X26109Y-25810D01*
X25990Y-25691D01*
X25834Y-25626D01*
X25666Y-25626D01*
X25510Y-25690D01*
X25391Y-25809D01*
X25326Y-25965D01*
X25326Y-26133D01*
X25390Y-26289D01*
X25509Y-26408D01*
X25665Y-26473D01*
X25833Y-26473D01*
X25989Y-26409D01*
X26108Y-26290D01*
X26173Y-26134D01*
X26173Y-25966D01*
X26173Y-28135D01*
X25354Y-28135D01*
X25258Y-28154D01*
X25177Y-28209D01*
X24823Y-28563D01*
X24769Y-28644D01*
X24750Y-28740D01*
X24750Y-29616D01*
X24745Y-29618D01*
X24618Y-29744D01*
X24550Y-29910D01*
X24549Y-30089D01*
X24618Y-30254D01*
X24744Y-30381D01*
X24910Y-30449D01*
X25089Y-30450D01*
X25254Y-30381D01*
X25381Y-30255D01*
X25449Y-30089D01*
X25450Y-29910D01*
X25381Y-29745D01*
X25255Y-29618D01*
X25250Y-29616D01*
X25250Y-28843D01*
X25457Y-28635D01*
X26299Y-28635D01*
X26394Y-28616D01*
X26475Y-28562D01*
X26976Y-28061D01*
X26976Y-28061D01*
X26976Y-28061D01*
X27030Y-27980D01*
X27030Y-27980D01*
X27050Y-27885D01*
X27050Y-27212D01*
X27052Y-27210D01*
X27074Y-27154D01*
X27075Y-27095D01*
X27075Y-26645D01*
X27052Y-26590D01*
X27050Y-26587D01*
X27050Y-26351D01*
X27110Y-26291D01*
X27174Y-26134D01*
X27175Y-25965D01*
X27110Y-25809D01*
X27000Y-25698D01*
X27000Y-25164D01*
X27347Y-24816D01*
X28228Y-24816D01*
X28324Y-24797D01*
X28405Y-24743D01*
X28926Y-24222D01*
X28926Y-24222D01*
X28926Y-24222D01*
X28980Y-24140D01*
X28980Y-24140D01*
X28996Y-24064D01*
X29000Y-24045D01*
X28999Y-24045D01*
X29000Y-24045D01*
X29000Y-23400D01*
X29110Y-23291D01*
X29174Y-23134D01*
X29175Y-22965D01*
X29110Y-22809D01*
X29029Y-22728D01*
X29029Y-22701D01*
X29552Y-22179D01*
X34055Y-22179D01*
X34150Y-22160D01*
X34231Y-22105D01*
X34625Y-21712D01*
X34625Y-21712D01*
X34625Y-21712D01*
X34679Y-21631D01*
X34679Y-21631D01*
X34698Y-21535D01*
X34698Y-21282D01*
X34795Y-21379D01*
X34851Y-21403D01*
X34851Y-22626D01*
X34445Y-22626D01*
X34391Y-22649D01*
X34349Y-22690D01*
X34326Y-22745D01*
X34326Y-22804D01*
X34326Y-23354D01*
X34349Y-23408D01*
X34390Y-23450D01*
X34445Y-23473D01*
X34504Y-23473D01*
X35054Y-23473D01*
X35108Y-23450D01*
X35150Y-23409D01*
X35173Y-23354D01*
X35173Y-23295D01*
X35173Y-22907D01*
X35190Y-22890D01*
X35190Y-22890D01*
X35190Y-22890D01*
X35233Y-22825D01*
X35233Y-22825D01*
X35245Y-22765D01*
X35248Y-22750D01*
X35248Y-22750D01*
X35248Y-22750D01*
X35248Y-21403D01*
X35303Y-21380D01*
X35429Y-21254D01*
X35498Y-21089D01*
X35498Y-20911D01*
X35430Y-20746D01*
X35304Y-20620D01*
X35139Y-20551D01*
X34961Y-20551D01*
X34796Y-20619D01*
X34698Y-20716D01*
X34698Y-20282D01*
X34795Y-20379D01*
X34960Y-20448D01*
X35138Y-20448D01*
X35303Y-20380D01*
X35429Y-20254D01*
X35498Y-20089D01*
X35498Y-19911D01*
X35430Y-19746D01*
X35304Y-19620D01*
X35139Y-19551D01*
X34961Y-19551D01*
X34796Y-19619D01*
X34698Y-19716D01*
X34698Y-19439D01*
X34720Y-19448D01*
X34779Y-19448D01*
X35379Y-19448D01*
X35433Y-19425D01*
X35475Y-19384D01*
X35498Y-19329D01*
X35498Y-19270D01*
X35498Y-18670D01*
X35475Y-18616D01*
X35434Y-18574D01*
X35379Y-18551D01*
X35320Y-18551D01*
X34720Y-18551D01*
X34698Y-18560D01*
X34698Y-18528D01*
X34743Y-18483D01*
X34788Y-18438D01*
X35723Y-18438D01*
X35800Y-18515D01*
X35800Y-18616D01*
X35795Y-18618D01*
X35668Y-18744D01*
X35600Y-18910D01*
X35599Y-19089D01*
X35668Y-19254D01*
X35794Y-19381D01*
X35960Y-19449D01*
X36139Y-19450D01*
X36304Y-19381D01*
X36431Y-19255D01*
X36499Y-19089D01*
X36500Y-18910D01*
X36431Y-18745D01*
X36305Y-18618D01*
X36300Y-18616D01*
X36300Y-18412D01*
X36280Y-18316D01*
X36226Y-18235D01*
X36003Y-18012D01*
X35922Y-17958D01*
X35826Y-17938D01*
X34685Y-17938D01*
X34589Y-17958D01*
X34578Y-17965D01*
X34448Y-17835D01*
X34448Y-10911D01*
X34380Y-10746D01*
X34254Y-10620D01*
X34089Y-10551D01*
X33911Y-10551D01*
X33746Y-10619D01*
X33620Y-10745D01*
X33551Y-10910D01*
X33551Y-11088D01*
X33619Y-11253D01*
X33745Y-11379D01*
X33910Y-11448D01*
X34088Y-11448D01*
X34253Y-11380D01*
X34379Y-11254D01*
X34448Y-11089D01*
X34448Y-10911D01*
X34448Y-17835D01*
X33916Y-17303D01*
X33835Y-17249D01*
X33813Y-17244D01*
X33800Y-17231D01*
X33739Y-17190D01*
X33666Y-17176D01*
X33602Y-17176D01*
X33602Y-16727D01*
X33602Y-16472D01*
X33601Y-16413D01*
X33579Y-16357D01*
X33536Y-16315D01*
X33481Y-16292D01*
X33448Y-16292D01*
X33448Y-10911D01*
X33380Y-10746D01*
X33254Y-10620D01*
X33089Y-10551D01*
X32911Y-10551D01*
X32746Y-10619D01*
X32620Y-10745D01*
X32551Y-10910D01*
X32551Y-11088D01*
X32619Y-11253D01*
X32745Y-11379D01*
X32910Y-11448D01*
X33088Y-11448D01*
X33253Y-11380D01*
X33379Y-11254D01*
X33448Y-11089D01*
X33448Y-10911D01*
X33448Y-16292D01*
X33382Y-16293D01*
X33345Y-16330D01*
X33345Y-16550D01*
X33564Y-16550D01*
X33602Y-16512D01*
X33602Y-16472D01*
X33602Y-16727D01*
X33602Y-16687D01*
X33564Y-16650D01*
X33345Y-16650D01*
X33345Y-16869D01*
X33382Y-16907D01*
X33481Y-16907D01*
X33536Y-16884D01*
X33579Y-16842D01*
X33601Y-16786D01*
X33602Y-16727D01*
X33602Y-17176D01*
X33497Y-17176D01*
X33477Y-17156D01*
X33423Y-17134D01*
X33364Y-17134D01*
X33167Y-17134D01*
X33112Y-17156D01*
X33071Y-17198D01*
X33048Y-17253D01*
X33048Y-17312D01*
X33048Y-17479D01*
X33057Y-17501D01*
X33048Y-17522D01*
X33048Y-17581D01*
X33048Y-17680D01*
X33056Y-17699D01*
X33048Y-17719D01*
X33048Y-17778D01*
X33048Y-17877D01*
X33057Y-17898D01*
X33048Y-17920D01*
X33048Y-17979D01*
X33048Y-18146D01*
X33070Y-18201D01*
X33096Y-18227D01*
X33096Y-18256D01*
X32917Y-18435D01*
X32868Y-18385D01*
X32749Y-18336D01*
X32646Y-18336D01*
X32664Y-18332D01*
X32664Y-18332D01*
X32729Y-18289D01*
X32753Y-18265D01*
X32832Y-18265D01*
X32887Y-18243D01*
X32928Y-18201D01*
X32951Y-18146D01*
X32951Y-18087D01*
X32951Y-17920D01*
X32942Y-17898D01*
X32951Y-17877D01*
X32951Y-17818D01*
X32951Y-17719D01*
X32943Y-17700D01*
X32951Y-17680D01*
X32951Y-17621D01*
X32951Y-17522D01*
X32942Y-17501D01*
X32951Y-17479D01*
X32951Y-17420D01*
X32951Y-17253D01*
X32929Y-17198D01*
X32887Y-17156D01*
X32832Y-17134D01*
X32773Y-17134D01*
X32598Y-17134D01*
X32598Y-16905D01*
X32891Y-16905D01*
X32945Y-16882D01*
X32987Y-16841D01*
X32999Y-16813D01*
X33010Y-16842D01*
X33053Y-16884D01*
X33108Y-16907D01*
X33207Y-16907D01*
X33245Y-16869D01*
X33245Y-16650D01*
X33237Y-16650D01*
X33237Y-16550D01*
X33245Y-16550D01*
X33245Y-16330D01*
X33207Y-16293D01*
X33108Y-16292D01*
X33053Y-16315D01*
X33010Y-16357D01*
X32999Y-16386D01*
X32987Y-16359D01*
X32946Y-16317D01*
X32891Y-16294D01*
X32832Y-16294D01*
X32518Y-16294D01*
X32464Y-16317D01*
X32448Y-16332D01*
X32448Y-10911D01*
X32380Y-10746D01*
X32254Y-10620D01*
X32089Y-10551D01*
X31911Y-10551D01*
X31746Y-10619D01*
X31620Y-10745D01*
X31551Y-10910D01*
X31551Y-11088D01*
X31619Y-11253D01*
X31745Y-11379D01*
X31910Y-11448D01*
X32088Y-11448D01*
X32253Y-11380D01*
X32379Y-11254D01*
X32448Y-11089D01*
X32448Y-10911D01*
X32448Y-16332D01*
X32422Y-16358D01*
X32399Y-16413D01*
X32399Y-16472D01*
X32399Y-16519D01*
X32259Y-16659D01*
X32216Y-16724D01*
X32201Y-16800D01*
X32201Y-17310D01*
X32201Y-17514D01*
X32216Y-17589D01*
X32259Y-17654D01*
X32320Y-17714D01*
X31448Y-17714D01*
X31448Y-10911D01*
X31380Y-10746D01*
X31254Y-10620D01*
X31089Y-10551D01*
X30911Y-10551D01*
X30746Y-10619D01*
X30620Y-10745D01*
X30551Y-10910D01*
X30551Y-11088D01*
X30619Y-11253D01*
X30745Y-11379D01*
X30910Y-11448D01*
X31088Y-11448D01*
X31253Y-11380D01*
X31379Y-11254D01*
X31448Y-11089D01*
X31448Y-10911D01*
X31448Y-17714D01*
X30448Y-17714D01*
X30448Y-10911D01*
X30380Y-10746D01*
X30254Y-10620D01*
X30089Y-10551D01*
X29911Y-10551D01*
X29746Y-10619D01*
X29620Y-10745D01*
X29551Y-10910D01*
X29551Y-11088D01*
X29619Y-11253D01*
X29745Y-11379D01*
X29910Y-11448D01*
X30088Y-11448D01*
X30253Y-11380D01*
X30379Y-11254D01*
X30448Y-11089D01*
X30448Y-10911D01*
X30448Y-17714D01*
X29448Y-17714D01*
X29448Y-10911D01*
X29380Y-10746D01*
X29254Y-10620D01*
X29089Y-10551D01*
X28911Y-10551D01*
X28746Y-10619D01*
X28620Y-10745D01*
X28551Y-10910D01*
X28551Y-11088D01*
X28619Y-11253D01*
X28745Y-11379D01*
X28910Y-11448D01*
X29088Y-11448D01*
X29253Y-11380D01*
X29379Y-11254D01*
X29448Y-11089D01*
X29448Y-10911D01*
X29448Y-17714D01*
X28448Y-17714D01*
X28448Y-10911D01*
X28380Y-10746D01*
X28254Y-10620D01*
X28089Y-10551D01*
X27911Y-10551D01*
X27746Y-10619D01*
X27620Y-10745D01*
X27551Y-10910D01*
X27551Y-11088D01*
X27619Y-11253D01*
X27745Y-11379D01*
X27910Y-11448D01*
X28088Y-11448D01*
X28253Y-11380D01*
X28379Y-11254D01*
X28448Y-11089D01*
X28448Y-10911D01*
X28448Y-17714D01*
X26848Y-17714D01*
X26848Y-11270D01*
X26848Y-10670D01*
X26825Y-10616D01*
X26784Y-10574D01*
X26729Y-10551D01*
X26670Y-10551D01*
X26070Y-10551D01*
X26016Y-10574D01*
X25974Y-10615D01*
X25951Y-10670D01*
X25951Y-10729D01*
X25951Y-11329D01*
X25974Y-11383D01*
X26015Y-11425D01*
X26070Y-11448D01*
X26129Y-11448D01*
X26729Y-11448D01*
X26783Y-11425D01*
X26825Y-11384D01*
X26848Y-11329D01*
X26848Y-11270D01*
X26848Y-17714D01*
X25848Y-17714D01*
X25848Y-10911D01*
X25780Y-10746D01*
X25654Y-10620D01*
X25489Y-10551D01*
X25311Y-10551D01*
X25146Y-10619D01*
X25020Y-10745D01*
X24951Y-10910D01*
X24951Y-11088D01*
X25019Y-11253D01*
X25145Y-11379D01*
X25310Y-11448D01*
X25488Y-11448D01*
X25653Y-11380D01*
X25779Y-11254D01*
X25848Y-11089D01*
X25848Y-10911D01*
X25848Y-17714D01*
X24848Y-17714D01*
X24848Y-10911D01*
X24780Y-10746D01*
X24654Y-10620D01*
X24489Y-10551D01*
X24311Y-10551D01*
X24146Y-10619D01*
X24020Y-10745D01*
X23951Y-10910D01*
X23951Y-11088D01*
X24019Y-11253D01*
X24145Y-11379D01*
X24310Y-11448D01*
X24488Y-11448D01*
X24653Y-11380D01*
X24779Y-11254D01*
X24848Y-11089D01*
X24848Y-10911D01*
X24848Y-17714D01*
X23848Y-17714D01*
X23848Y-10911D01*
X23780Y-10746D01*
X23654Y-10620D01*
X23489Y-10551D01*
X23311Y-10551D01*
X23146Y-10619D01*
X23020Y-10745D01*
X22951Y-10910D01*
X22951Y-11088D01*
X23019Y-11253D01*
X23145Y-11379D01*
X23310Y-11448D01*
X23488Y-11448D01*
X23653Y-11380D01*
X23779Y-11254D01*
X23848Y-11089D01*
X23848Y-10911D01*
X23848Y-17714D01*
X22848Y-17714D01*
X22848Y-10911D01*
X22780Y-10746D01*
X22654Y-10620D01*
X22489Y-10551D01*
X22311Y-10551D01*
X22146Y-10619D01*
X22020Y-10745D01*
X21951Y-10910D01*
X21951Y-11088D01*
X22019Y-11253D01*
X22145Y-11379D01*
X22310Y-11448D01*
X22488Y-11448D01*
X22653Y-11380D01*
X22779Y-11254D01*
X22848Y-11089D01*
X22848Y-10911D01*
X22848Y-17714D01*
X21588Y-17714D01*
X21600Y-17686D01*
X21600Y-17627D01*
X21600Y-17577D01*
X22384Y-16793D01*
X22427Y-16729D01*
X22427Y-16729D01*
X22442Y-16653D01*
X22442Y-15590D01*
X22427Y-15514D01*
X22427Y-15514D01*
X22384Y-15450D01*
X22384Y-15450D01*
X22195Y-15261D01*
X22131Y-15218D01*
X22120Y-15216D01*
X22157Y-15127D01*
X22157Y-14998D01*
X22108Y-14880D01*
X22017Y-14788D01*
X21898Y-14739D01*
X21848Y-14739D01*
X21848Y-10911D01*
X21780Y-10746D01*
X21654Y-10620D01*
X21489Y-10551D01*
X21311Y-10551D01*
X21146Y-10619D01*
X21020Y-10745D01*
X20951Y-10910D01*
X20951Y-11088D01*
X21019Y-11253D01*
X21145Y-11379D01*
X21310Y-11448D01*
X21488Y-11448D01*
X21653Y-11380D01*
X21779Y-11254D01*
X21848Y-11089D01*
X21848Y-10911D01*
X21848Y-14739D01*
X21769Y-14739D01*
X21651Y-14788D01*
X21602Y-14837D01*
X21602Y-14527D01*
X21602Y-14272D01*
X21601Y-14213D01*
X21579Y-14157D01*
X21536Y-14115D01*
X21481Y-14092D01*
X21382Y-14093D01*
X21345Y-14130D01*
X21345Y-14350D01*
X21564Y-14350D01*
X21602Y-14312D01*
X21602Y-14272D01*
X21602Y-14527D01*
X21602Y-14487D01*
X21564Y-14450D01*
X21345Y-14450D01*
X21345Y-14669D01*
X21382Y-14707D01*
X21481Y-14707D01*
X21536Y-14684D01*
X21579Y-14642D01*
X21601Y-14586D01*
X21602Y-14527D01*
X21602Y-14837D01*
X21559Y-14879D01*
X21523Y-14967D01*
X21488Y-14967D01*
X21477Y-14956D01*
X21423Y-14934D01*
X21364Y-14934D01*
X21167Y-14934D01*
X21112Y-14956D01*
X21071Y-14998D01*
X21048Y-15053D01*
X21048Y-15112D01*
X21048Y-15279D01*
X21057Y-15301D01*
X21048Y-15322D01*
X21048Y-15381D01*
X21048Y-15480D01*
X21056Y-15499D01*
X21048Y-15519D01*
X21048Y-15578D01*
X21048Y-15677D01*
X21056Y-15696D01*
X21046Y-15720D01*
X21046Y-15754D01*
X21084Y-15791D01*
X21157Y-15791D01*
X21167Y-15796D01*
X21226Y-15796D01*
X21291Y-15796D01*
X21295Y-15796D01*
X21796Y-15796D01*
X21831Y-15832D01*
X21831Y-16187D01*
X21617Y-16401D01*
X21595Y-16401D01*
X21577Y-16359D01*
X21543Y-16324D01*
X21543Y-15947D01*
X21543Y-15912D01*
X21506Y-15875D01*
X21344Y-15875D01*
X21344Y-16029D01*
X21381Y-16067D01*
X21363Y-16067D01*
X21423Y-16067D01*
X21478Y-16044D01*
X21520Y-16002D01*
X21543Y-15947D01*
X21543Y-16324D01*
X21536Y-16317D01*
X21481Y-16294D01*
X21422Y-16294D01*
X21246Y-16294D01*
X21246Y-16029D01*
X21246Y-15875D01*
X21084Y-15875D01*
X21046Y-15912D01*
X21046Y-15947D01*
X21069Y-16002D01*
X21111Y-16044D01*
X21166Y-16067D01*
X21226Y-16067D01*
X21208Y-16067D01*
X21246Y-16029D01*
X21246Y-16294D01*
X21108Y-16294D01*
X21054Y-16317D01*
X21012Y-16358D01*
X20999Y-16388D01*
X20987Y-16359D01*
X20946Y-16317D01*
X20891Y-16294D01*
X20832Y-16294D01*
X20518Y-16294D01*
X20464Y-16317D01*
X20433Y-16347D01*
X20433Y-16338D01*
X20509Y-16263D01*
X20558Y-16144D01*
X20558Y-16058D01*
X20576Y-16065D01*
X20635Y-16065D01*
X20832Y-16065D01*
X20887Y-16043D01*
X20928Y-16001D01*
X20951Y-15946D01*
X20951Y-15887D01*
X20951Y-15720D01*
X20942Y-15698D01*
X20951Y-15677D01*
X20951Y-15618D01*
X20951Y-15519D01*
X20943Y-15500D01*
X20951Y-15480D01*
X20951Y-15421D01*
X20951Y-15322D01*
X20942Y-15301D01*
X20951Y-15279D01*
X20951Y-15220D01*
X20951Y-15053D01*
X20929Y-14998D01*
X20903Y-14973D01*
X20903Y-14700D01*
X20945Y-14682D01*
X20987Y-14641D01*
X20999Y-14613D01*
X21010Y-14642D01*
X21053Y-14684D01*
X21108Y-14707D01*
X21207Y-14707D01*
X21245Y-14669D01*
X21245Y-14450D01*
X21237Y-14450D01*
X21237Y-14350D01*
X21245Y-14350D01*
X21245Y-14130D01*
X21207Y-14093D01*
X21108Y-14092D01*
X21053Y-14115D01*
X21010Y-14157D01*
X20999Y-14186D01*
X20987Y-14159D01*
X20975Y-14146D01*
X20975Y-13595D01*
X20975Y-13204D01*
X20974Y-13145D01*
X20952Y-13089D01*
X20909Y-13047D01*
X20855Y-13025D01*
X20855Y-11057D01*
X20842Y-10879D01*
X20798Y-10772D01*
X20731Y-10739D01*
X20660Y-10810D01*
X20660Y-10668D01*
X20627Y-10601D01*
X20457Y-10544D01*
X20279Y-10557D01*
X20172Y-10601D01*
X20139Y-10668D01*
X20400Y-10929D01*
X20660Y-10668D01*
X20660Y-10810D01*
X20470Y-11000D01*
X20731Y-11260D01*
X20798Y-11227D01*
X20855Y-11057D01*
X20855Y-13025D01*
X20854Y-13024D01*
X20787Y-13025D01*
X20750Y-13062D01*
X20750Y-13350D01*
X20937Y-13350D01*
X20975Y-13312D01*
X20975Y-13204D01*
X20975Y-13595D01*
X20975Y-13487D01*
X20937Y-13450D01*
X20750Y-13450D01*
X20750Y-13737D01*
X20787Y-13775D01*
X20854Y-13775D01*
X20909Y-13752D01*
X20952Y-13710D01*
X20974Y-13654D01*
X20975Y-13595D01*
X20975Y-14146D01*
X20946Y-14117D01*
X20891Y-14094D01*
X20832Y-14094D01*
X20660Y-14094D01*
X20660Y-11331D01*
X20400Y-11070D01*
X20329Y-11141D01*
X20329Y-11000D01*
X20068Y-10739D01*
X20001Y-10772D01*
X19944Y-10942D01*
X19957Y-11120D01*
X20001Y-11227D01*
X20068Y-11260D01*
X20329Y-11000D01*
X20329Y-11141D01*
X20139Y-11331D01*
X20172Y-11398D01*
X20342Y-11455D01*
X20520Y-11442D01*
X20627Y-11398D01*
X20660Y-11331D01*
X20660Y-14094D01*
X20650Y-14094D01*
X20650Y-13737D01*
X20650Y-13450D01*
X20650Y-13350D01*
X20650Y-13062D01*
X20612Y-13025D01*
X20545Y-13024D01*
X20490Y-13047D01*
X20447Y-13089D01*
X20425Y-13145D01*
X20424Y-13204D01*
X20425Y-13312D01*
X20462Y-13350D01*
X20650Y-13350D01*
X20650Y-13450D01*
X20462Y-13450D01*
X20425Y-13487D01*
X20424Y-13595D01*
X20425Y-13654D01*
X20447Y-13710D01*
X20490Y-13752D01*
X20545Y-13775D01*
X20612Y-13775D01*
X20650Y-13737D01*
X20650Y-14094D01*
X20518Y-14094D01*
X20464Y-14117D01*
X20422Y-14158D01*
X20399Y-14213D01*
X20399Y-14272D01*
X20399Y-14586D01*
X20422Y-14640D01*
X20463Y-14682D01*
X20506Y-14700D01*
X20506Y-14972D01*
X20480Y-14998D01*
X20461Y-15045D01*
X20424Y-15009D01*
X20393Y-14934D01*
X20373Y-14913D01*
X20373Y-13595D01*
X20373Y-13145D01*
X20350Y-13091D01*
X20309Y-13049D01*
X20254Y-13026D01*
X20195Y-13026D01*
X20030Y-13026D01*
X20030Y-11961D01*
X20116Y-11876D01*
X20165Y-11757D01*
X20166Y-11628D01*
X20116Y-11509D01*
X20025Y-11418D01*
X19907Y-11369D01*
X19799Y-11369D01*
X19732Y-11301D01*
X19779Y-11254D01*
X19848Y-11089D01*
X19848Y-10911D01*
X19780Y-10746D01*
X19654Y-10620D01*
X19489Y-10551D01*
X19311Y-10551D01*
X19146Y-10619D01*
X19020Y-10745D01*
X18951Y-10910D01*
X18951Y-11088D01*
X19019Y-11253D01*
X19145Y-11379D01*
X19310Y-11448D01*
X19317Y-11448D01*
X19519Y-11650D01*
X19519Y-11756D01*
X19568Y-11875D01*
X19654Y-11961D01*
X19654Y-13142D01*
X19668Y-13214D01*
X19709Y-13275D01*
X19826Y-13393D01*
X19826Y-13654D01*
X19849Y-13708D01*
X19890Y-13750D01*
X19945Y-13773D01*
X20004Y-13773D01*
X20254Y-13773D01*
X20308Y-13750D01*
X20350Y-13709D01*
X20373Y-13654D01*
X20373Y-13595D01*
X20373Y-14913D01*
X20302Y-14842D01*
X20183Y-14793D01*
X20053Y-14793D01*
X19934Y-14842D01*
X19842Y-14933D01*
X19793Y-15053D01*
X19793Y-15182D01*
X19842Y-15301D01*
X19933Y-15393D01*
X20053Y-15443D01*
X20151Y-15443D01*
X20320Y-15611D01*
X20326Y-15641D01*
X20354Y-15684D01*
X20341Y-15693D01*
X20277Y-15756D01*
X20170Y-15756D01*
X20052Y-15805D01*
X19960Y-15896D01*
X19911Y-16015D01*
X19911Y-16144D01*
X19960Y-16262D01*
X20036Y-16339D01*
X20036Y-16462D01*
X19445Y-17053D01*
X19132Y-17053D01*
X19132Y-17046D01*
X19172Y-17046D01*
X19244Y-17032D01*
X19244Y-17032D01*
X19305Y-16991D01*
X19693Y-16603D01*
X19693Y-16603D01*
X19720Y-16562D01*
X19734Y-16542D01*
X19734Y-16542D01*
X19748Y-16470D01*
X19748Y-16470D01*
X19748Y-13690D01*
X19736Y-13629D01*
X19734Y-13617D01*
X19734Y-13617D01*
X19693Y-13556D01*
X18968Y-12831D01*
X19082Y-12784D01*
X19174Y-12693D01*
X19223Y-12574D01*
X19223Y-12445D01*
X19174Y-12327D01*
X19097Y-12250D01*
X19096Y-12011D01*
X19089Y-11973D01*
X19081Y-11935D01*
X19081Y-11935D01*
X19081Y-11935D01*
X19059Y-11903D01*
X19038Y-11871D01*
X18880Y-11713D01*
X18848Y-11691D01*
X18848Y-10911D01*
X18780Y-10746D01*
X18654Y-10620D01*
X18489Y-10551D01*
X18311Y-10551D01*
X18146Y-10619D01*
X18020Y-10745D01*
X17951Y-10910D01*
X17951Y-11088D01*
X18019Y-11253D01*
X18145Y-11379D01*
X18310Y-11448D01*
X18488Y-11448D01*
X18653Y-11380D01*
X18779Y-11254D01*
X18848Y-11089D01*
X18848Y-10911D01*
X18848Y-11691D01*
X18816Y-11670D01*
X18740Y-11655D01*
X17848Y-11655D01*
X17848Y-10911D01*
X17780Y-10746D01*
X17654Y-10620D01*
X17489Y-10551D01*
X17311Y-10551D01*
X17146Y-10619D01*
X17020Y-10745D01*
X16951Y-10910D01*
X16951Y-11088D01*
X17019Y-11253D01*
X17145Y-11379D01*
X17310Y-11448D01*
X17488Y-11448D01*
X17653Y-11380D01*
X17779Y-11254D01*
X17848Y-11089D01*
X17848Y-10911D01*
X17848Y-11655D01*
X16374Y-11655D01*
X16423Y-11634D01*
X16634Y-11424D01*
X16748Y-11149D01*
X16748Y-10851D01*
X16634Y-10576D01*
X16424Y-10365D01*
X16149Y-10251D01*
X15851Y-10251D01*
X15576Y-10365D01*
X15365Y-10575D01*
X15251Y-10850D01*
X15251Y-11148D01*
X15365Y-11423D01*
X15575Y-11634D01*
X15626Y-11655D01*
X15446Y-11655D01*
X15446Y-11655D01*
X15431Y-11658D01*
X15370Y-11670D01*
X15323Y-11701D01*
X14720Y-11701D01*
X14666Y-11724D01*
X14624Y-11765D01*
X14601Y-11820D01*
X14601Y-11879D01*
X14601Y-12417D01*
X14421Y-12597D01*
X14421Y-11008D01*
X14421Y-10516D01*
X14421Y-10457D01*
X14398Y-10401D01*
X14356Y-10359D01*
X14301Y-10336D01*
X13965Y-10337D01*
X13927Y-10374D01*
X13927Y-10712D01*
X14384Y-10712D01*
X14421Y-10675D01*
X14421Y-10516D01*
X14421Y-11008D01*
X14421Y-10850D01*
X14384Y-10812D01*
X13927Y-10812D01*
X13927Y-11150D01*
X13965Y-11188D01*
X14301Y-11188D01*
X14356Y-11165D01*
X14398Y-11123D01*
X14421Y-11068D01*
X14421Y-11008D01*
X14421Y-12597D01*
X14420Y-12599D01*
X14420Y-12583D01*
X14420Y-12032D01*
X14397Y-11977D01*
X14355Y-11936D01*
X14301Y-11913D01*
X14242Y-11913D01*
X13827Y-11913D01*
X13827Y-11150D01*
X13827Y-10812D01*
X13827Y-10712D01*
X13827Y-10374D01*
X13790Y-10337D01*
X13454Y-10336D01*
X13399Y-10359D01*
X13357Y-10401D01*
X13334Y-10457D01*
X13334Y-10516D01*
X13334Y-10675D01*
X13371Y-10712D01*
X13827Y-10712D01*
X13827Y-10812D01*
X13371Y-10812D01*
X13334Y-10850D01*
X13334Y-11008D01*
X13334Y-11068D01*
X13357Y-11123D01*
X13399Y-11165D01*
X13454Y-11188D01*
X13790Y-11188D01*
X13827Y-11150D01*
X13827Y-11913D01*
X13734Y-11913D01*
X13531Y-11710D01*
X13466Y-11667D01*
X13390Y-11651D01*
X13369Y-11651D01*
X13293Y-11576D01*
X13174Y-11527D01*
X13046Y-11526D01*
X12927Y-11576D01*
X12836Y-11666D01*
X12786Y-11785D01*
X12786Y-11914D01*
X12835Y-12033D01*
X12926Y-12124D01*
X13045Y-12173D01*
X13174Y-12173D01*
X13293Y-12124D01*
X13335Y-12082D01*
X13335Y-12091D01*
X13335Y-12598D01*
X13259Y-12675D01*
X11740Y-12675D01*
X11665Y-12600D01*
X11665Y-11008D01*
X11665Y-10516D01*
X11665Y-10457D01*
X11642Y-10401D01*
X11600Y-10359D01*
X11545Y-10336D01*
X11209Y-10337D01*
X11172Y-10374D01*
X11172Y-10712D01*
X11628Y-10712D01*
X11665Y-10675D01*
X11665Y-10516D01*
X11665Y-11008D01*
X11665Y-10850D01*
X11628Y-10812D01*
X11172Y-10812D01*
X11172Y-11150D01*
X11209Y-11188D01*
X11545Y-11188D01*
X11600Y-11165D01*
X11642Y-11123D01*
X11665Y-11068D01*
X11665Y-11008D01*
X11665Y-12600D01*
X11664Y-12598D01*
X11664Y-12583D01*
X11664Y-12032D01*
X11641Y-11977D01*
X11599Y-11936D01*
X11545Y-11913D01*
X11486Y-11913D01*
X11072Y-11913D01*
X11072Y-11150D01*
X11072Y-10812D01*
X11072Y-10712D01*
X11072Y-10374D01*
X11034Y-10337D01*
X10698Y-10336D01*
X10643Y-10359D01*
X10601Y-10401D01*
X10578Y-10457D01*
X10578Y-10516D01*
X10578Y-10675D01*
X10615Y-10712D01*
X11072Y-10712D01*
X11072Y-10812D01*
X10615Y-10812D01*
X10578Y-10850D01*
X10578Y-11008D01*
X10578Y-11068D01*
X10601Y-11123D01*
X10643Y-11165D01*
X10698Y-11188D01*
X11034Y-11188D01*
X11072Y-11150D01*
X11072Y-11913D01*
X10698Y-11913D01*
X10644Y-11935D01*
X10602Y-11977D01*
X10579Y-12032D01*
X10579Y-12091D01*
X10579Y-12642D01*
X10602Y-12696D01*
X10644Y-12738D01*
X10698Y-12761D01*
X10757Y-12761D01*
X11265Y-12761D01*
X11518Y-13014D01*
X11582Y-13057D01*
X11582Y-13057D01*
X11658Y-13072D01*
X13341Y-13072D01*
X13417Y-13057D01*
X13417Y-13057D01*
X13481Y-13014D01*
X13734Y-12761D01*
X14301Y-12761D01*
X14309Y-12757D01*
X14301Y-12800D01*
X14301Y-13900D01*
X14316Y-13975D01*
X14359Y-14040D01*
X14478Y-14159D01*
X14447Y-14189D01*
X14425Y-14245D01*
X14424Y-14304D01*
X14425Y-14412D01*
X14462Y-14450D01*
X14650Y-14450D01*
X14650Y-14442D01*
X14750Y-14442D01*
X14750Y-14450D01*
X14937Y-14450D01*
X14975Y-14412D01*
X14975Y-14304D01*
X14974Y-14248D01*
X15026Y-14248D01*
X15026Y-14304D01*
X15026Y-14754D01*
X15049Y-14808D01*
X15090Y-14850D01*
X15145Y-14873D01*
X15204Y-14873D01*
X15451Y-14873D01*
X15451Y-15126D01*
X15395Y-15126D01*
X15145Y-15126D01*
X15091Y-15149D01*
X15049Y-15190D01*
X15026Y-15245D01*
X15026Y-15304D01*
X15026Y-15492D01*
X14975Y-15544D01*
X14975Y-15304D01*
X14975Y-14695D01*
X14975Y-14587D01*
X14937Y-14550D01*
X14750Y-14550D01*
X14750Y-14837D01*
X14787Y-14875D01*
X14854Y-14875D01*
X14909Y-14852D01*
X14952Y-14810D01*
X14974Y-14754D01*
X14975Y-14695D01*
X14975Y-15304D01*
X14974Y-15245D01*
X14952Y-15189D01*
X14909Y-15147D01*
X14854Y-15124D01*
X14787Y-15125D01*
X14750Y-15162D01*
X14750Y-15450D01*
X14937Y-15450D01*
X14975Y-15412D01*
X14975Y-15304D01*
X14975Y-15544D01*
X14953Y-15565D01*
X14937Y-15550D01*
X14750Y-15550D01*
X14750Y-15557D01*
X14650Y-15557D01*
X14650Y-15550D01*
X14650Y-15450D01*
X14650Y-15162D01*
X14650Y-14837D01*
X14650Y-14550D01*
X14462Y-14550D01*
X14425Y-14587D01*
X14424Y-14695D01*
X14425Y-14754D01*
X14447Y-14810D01*
X14490Y-14852D01*
X14545Y-14875D01*
X14612Y-14875D01*
X14650Y-14837D01*
X14650Y-15162D01*
X14612Y-15125D01*
X14545Y-15124D01*
X14490Y-15147D01*
X14447Y-15189D01*
X14425Y-15245D01*
X14424Y-15304D01*
X14425Y-15412D01*
X14462Y-15450D01*
X14650Y-15450D01*
X14650Y-15550D01*
X14462Y-15550D01*
X14425Y-15587D01*
X14424Y-15695D01*
X14425Y-15754D01*
X14447Y-15810D01*
X14490Y-15852D01*
X14545Y-15875D01*
X14612Y-15875D01*
X14649Y-15837D01*
X14649Y-15869D01*
X14614Y-15904D01*
X14582Y-15952D01*
X14582Y-15952D01*
X14572Y-15956D01*
X14571Y-15957D01*
X14488Y-15957D01*
X14390Y-15859D01*
X14325Y-15816D01*
X14250Y-15801D01*
X13576Y-15801D01*
X13576Y-14671D01*
X13576Y-13824D01*
X13553Y-13769D01*
X13511Y-13727D01*
X13455Y-13704D01*
X13396Y-13704D01*
X13021Y-13704D01*
X12984Y-13742D01*
X12984Y-14198D01*
X13538Y-14198D01*
X13576Y-14160D01*
X13576Y-13824D01*
X13576Y-14671D01*
X13576Y-14335D01*
X13538Y-14298D01*
X12984Y-14298D01*
X12984Y-14754D01*
X13021Y-14791D01*
X13396Y-14791D01*
X13455Y-14791D01*
X13511Y-14768D01*
X13553Y-14726D01*
X13576Y-14671D01*
X13576Y-15801D01*
X13535Y-15801D01*
X13535Y-15754D01*
X13535Y-15557D01*
X13523Y-15527D01*
X13535Y-15498D01*
X13535Y-15439D01*
X13535Y-15242D01*
X13512Y-15187D01*
X13471Y-15145D01*
X13416Y-15123D01*
X13357Y-15123D01*
X12941Y-15123D01*
X12934Y-15121D01*
X12884Y-15121D01*
X12884Y-14754D01*
X12884Y-14298D01*
X12884Y-14198D01*
X12884Y-13742D01*
X12846Y-13704D01*
X12471Y-13704D01*
X12412Y-13704D01*
X12356Y-13727D01*
X12314Y-13769D01*
X12291Y-13824D01*
X12292Y-14160D01*
X12329Y-14198D01*
X12884Y-14198D01*
X12884Y-14298D01*
X12329Y-14298D01*
X12292Y-14335D01*
X12291Y-14671D01*
X12314Y-14726D01*
X12356Y-14768D01*
X12412Y-14791D01*
X12471Y-14791D01*
X12846Y-14791D01*
X12884Y-14754D01*
X12884Y-15121D01*
X12330Y-15121D01*
X12275Y-15132D01*
X12275Y-15069D01*
X12226Y-14949D01*
X12134Y-14858D01*
X12015Y-14808D01*
X11885Y-14808D01*
X11765Y-14857D01*
X11674Y-14949D01*
X11624Y-15068D01*
X11624Y-15198D01*
X11673Y-15318D01*
X11765Y-15409D01*
X11884Y-15459D01*
X11889Y-15459D01*
X11411Y-15937D01*
X11411Y-14671D01*
X11411Y-13824D01*
X11388Y-13769D01*
X11346Y-13727D01*
X11290Y-13704D01*
X11231Y-13704D01*
X10856Y-13704D01*
X10819Y-13742D01*
X10819Y-14198D01*
X11373Y-14198D01*
X11411Y-14160D01*
X11411Y-13824D01*
X11411Y-14671D01*
X11411Y-14335D01*
X11373Y-14298D01*
X10819Y-14298D01*
X10819Y-14754D01*
X10856Y-14791D01*
X11231Y-14791D01*
X11290Y-14791D01*
X11346Y-14768D01*
X11388Y-14726D01*
X11411Y-14671D01*
X11411Y-15937D01*
X11124Y-16224D01*
X11070Y-16304D01*
X11051Y-16400D01*
X11051Y-17050D01*
X11070Y-17145D01*
X11099Y-17188D01*
X10856Y-17188D01*
X10819Y-17226D01*
X10819Y-17682D01*
X10826Y-17682D01*
X10826Y-17782D01*
X10819Y-17782D01*
X10819Y-18238D01*
X10856Y-18275D01*
X11231Y-18275D01*
X11290Y-18275D01*
X11346Y-18252D01*
X11351Y-18247D01*
X11351Y-18900D01*
X10552Y-18900D01*
X10375Y-18865D01*
X10230Y-18768D01*
X10198Y-18720D01*
X10198Y-18255D01*
X10247Y-18275D01*
X10306Y-18275D01*
X10681Y-18275D01*
X10719Y-18238D01*
X10719Y-17782D01*
X10711Y-17782D01*
X10711Y-17682D01*
X10719Y-17682D01*
X10719Y-17226D01*
X10681Y-17188D01*
X10306Y-17188D01*
X10247Y-17188D01*
X10198Y-17208D01*
X10198Y-14771D01*
X10247Y-14791D01*
X10306Y-14791D01*
X10681Y-14791D01*
X10719Y-14754D01*
X10719Y-14298D01*
X10711Y-14298D01*
X10711Y-14198D01*
X10719Y-14198D01*
X10719Y-13742D01*
X10681Y-13704D01*
X10306Y-13704D01*
X10247Y-13704D01*
X10198Y-13724D01*
X10198Y-10419D01*
X10217Y-10324D01*
X10260Y-10259D01*
X10324Y-10217D01*
X10420Y-10198D01*
X35317Y-10198D01*
X35801Y-10682D01*
X35801Y-15100D01*
X35816Y-15175D01*
X35859Y-15240D01*
X36801Y-16182D01*
X36801Y-28917D01*
G54D10*
G36*
X14100Y-25401D02*
X14083Y-25525D01*
X14035Y-25636D01*
X13957Y-25733D01*
X13864Y-25822D01*
X13716Y-25916D01*
X13544Y-25949D01*
X12300Y-25945D01*
X12300Y-24899D01*
X12300Y-23400D01*
X12277Y-23345D01*
X12235Y-23302D01*
X12179Y-23280D01*
X12120Y-23279D01*
X11837Y-23280D01*
X11800Y-23317D01*
X11800Y-24100D01*
X12262Y-24100D01*
X12300Y-24062D01*
X12300Y-23400D01*
X12300Y-24899D01*
X12300Y-24237D01*
X12262Y-24200D01*
X11800Y-24200D01*
X11800Y-24982D01*
X11837Y-25020D01*
X12120Y-25020D01*
X12179Y-25019D01*
X12235Y-24997D01*
X12277Y-24954D01*
X12300Y-24899D01*
X12300Y-25945D01*
X11700Y-25943D01*
X11700Y-24982D01*
X11700Y-24200D01*
X11700Y-24100D01*
X11700Y-23317D01*
X11662Y-23280D01*
X11379Y-23279D01*
X11320Y-23280D01*
X11264Y-23302D01*
X11222Y-23345D01*
X11199Y-23400D01*
X11200Y-24062D01*
X11237Y-24100D01*
X11700Y-24100D01*
X11700Y-24200D01*
X11237Y-24200D01*
X11200Y-24237D01*
X11199Y-24899D01*
X11222Y-24954D01*
X11264Y-24997D01*
X11320Y-25019D01*
X11379Y-25020D01*
X11662Y-25020D01*
X11700Y-24982D01*
X11700Y-25943D01*
X10440Y-25940D01*
X10449Y-19654D01*
X10484Y-19477D01*
X10581Y-19332D01*
X10701Y-19252D01*
X10701Y-19304D01*
X10701Y-19854D01*
X10724Y-19908D01*
X10765Y-19950D01*
X10820Y-19973D01*
X10879Y-19973D01*
X12379Y-19973D01*
X12433Y-19950D01*
X12475Y-19909D01*
X12498Y-19854D01*
X12498Y-19795D01*
X12498Y-19245D01*
X12479Y-19200D01*
X13551Y-19200D01*
X13551Y-19500D01*
X13566Y-19575D01*
X13609Y-19640D01*
X13851Y-19882D01*
X13851Y-19887D01*
X13809Y-19870D01*
X13750Y-19869D01*
X13687Y-19870D01*
X13650Y-19907D01*
X13650Y-20150D01*
X13657Y-20150D01*
X13657Y-20250D01*
X13650Y-20250D01*
X13650Y-20257D01*
X13550Y-20257D01*
X13550Y-20250D01*
X13550Y-20150D01*
X13550Y-19907D01*
X13512Y-19870D01*
X13449Y-19869D01*
X13390Y-19870D01*
X13334Y-19892D01*
X13292Y-19935D01*
X13269Y-19990D01*
X13270Y-20112D01*
X13307Y-20150D01*
X13550Y-20150D01*
X13550Y-20250D01*
X13307Y-20250D01*
X13270Y-20287D01*
X13269Y-20351D01*
X13128Y-20351D01*
X13128Y-20340D01*
X13105Y-20286D01*
X13064Y-20244D01*
X13009Y-20221D01*
X12950Y-20221D01*
X12590Y-20221D01*
X12536Y-20244D01*
X12528Y-20251D01*
X12400Y-20251D01*
X12285Y-20274D01*
X12188Y-20338D01*
X12188Y-20338D01*
X12188Y-20338D01*
X11601Y-20926D01*
X10820Y-20926D01*
X10766Y-20949D01*
X10724Y-20990D01*
X10701Y-21045D01*
X10701Y-21104D01*
X10701Y-21654D01*
X10724Y-21708D01*
X10765Y-21750D01*
X10820Y-21773D01*
X10879Y-21773D01*
X12379Y-21773D01*
X12433Y-21750D01*
X12475Y-21709D01*
X12498Y-21654D01*
X12498Y-21595D01*
X12498Y-21045D01*
X12475Y-20991D01*
X12434Y-20949D01*
X12426Y-20945D01*
X12523Y-20848D01*
X12528Y-20848D01*
X12535Y-20855D01*
X12590Y-20878D01*
X12649Y-20878D01*
X13009Y-20878D01*
X13063Y-20855D01*
X13105Y-20814D01*
X13128Y-20759D01*
X13128Y-20748D01*
X13271Y-20748D01*
X13271Y-20749D01*
X13271Y-21109D01*
X13294Y-21163D01*
X13335Y-21205D01*
X13390Y-21228D01*
X13449Y-21228D01*
X13809Y-21228D01*
X13863Y-21205D01*
X13905Y-21164D01*
X13928Y-21109D01*
X13928Y-21098D01*
X14100Y-21098D01*
X14100Y-22899D01*
X13920Y-22899D01*
X13865Y-22922D01*
X13822Y-22964D01*
X13800Y-23020D01*
X13799Y-23079D01*
X13799Y-23479D01*
X13822Y-23534D01*
X13864Y-23577D01*
X13920Y-23599D01*
X13979Y-23600D01*
X14100Y-23600D01*
X14100Y-23799D01*
X13979Y-23799D01*
X13920Y-23800D01*
X13864Y-23822D01*
X13822Y-23865D01*
X13799Y-23920D01*
X13800Y-24062D01*
X13837Y-24100D01*
X14100Y-24100D01*
X14100Y-24200D01*
X13837Y-24200D01*
X13800Y-24237D01*
X13799Y-24379D01*
X13822Y-24434D01*
X13864Y-24477D01*
X13920Y-24499D01*
X13979Y-24500D01*
X14100Y-24500D01*
X14100Y-24701D01*
X13920Y-24701D01*
X13866Y-24724D01*
X13824Y-24765D01*
X13801Y-24820D01*
X13801Y-24879D01*
X13801Y-25279D01*
X13824Y-25333D01*
X13865Y-25375D01*
X13920Y-25398D01*
X13979Y-25398D01*
X14100Y-25398D01*
X14100Y-25401D01*
X14100Y-25401D01*
G37*
G54D44*
X14100Y-25401D02*
X14083Y-25525D01*
X14035Y-25636D01*
X13957Y-25733D01*
X13864Y-25822D01*
X13716Y-25916D01*
X13544Y-25949D01*
X12300Y-25945D01*
X12300Y-24899D01*
X12300Y-23400D01*
X12277Y-23345D01*
X12235Y-23302D01*
X12179Y-23280D01*
X12120Y-23279D01*
X11837Y-23280D01*
X11800Y-23317D01*
X11800Y-24100D01*
X12262Y-24100D01*
X12300Y-24062D01*
X12300Y-23400D01*
X12300Y-24899D01*
X12300Y-24237D01*
X12262Y-24200D01*
X11800Y-24200D01*
X11800Y-24982D01*
X11837Y-25020D01*
X12120Y-25020D01*
X12179Y-25019D01*
X12235Y-24997D01*
X12277Y-24954D01*
X12300Y-24899D01*
X12300Y-25945D01*
X11700Y-25943D01*
X11700Y-24982D01*
X11700Y-24200D01*
X11700Y-24100D01*
X11700Y-23317D01*
X11662Y-23280D01*
X11379Y-23279D01*
X11320Y-23280D01*
X11264Y-23302D01*
X11222Y-23345D01*
X11199Y-23400D01*
X11200Y-24062D01*
X11237Y-24100D01*
X11700Y-24100D01*
X11700Y-24200D01*
X11237Y-24200D01*
X11200Y-24237D01*
X11199Y-24899D01*
X11222Y-24954D01*
X11264Y-24997D01*
X11320Y-25019D01*
X11379Y-25020D01*
X11662Y-25020D01*
X11700Y-24982D01*
X11700Y-25943D01*
X10440Y-25940D01*
X10449Y-19654D01*
X10484Y-19477D01*
X10581Y-19332D01*
X10701Y-19252D01*
X10701Y-19304D01*
X10701Y-19854D01*
X10724Y-19908D01*
X10765Y-19950D01*
X10820Y-19973D01*
X10879Y-19973D01*
X12379Y-19973D01*
X12433Y-19950D01*
X12475Y-19909D01*
X12498Y-19854D01*
X12498Y-19795D01*
X12498Y-19245D01*
X12479Y-19200D01*
X13551Y-19200D01*
X13551Y-19500D01*
X13566Y-19575D01*
X13609Y-19640D01*
X13851Y-19882D01*
X13851Y-19887D01*
X13809Y-19870D01*
X13750Y-19869D01*
X13687Y-19870D01*
X13650Y-19907D01*
X13650Y-20150D01*
X13657Y-20150D01*
X13657Y-20250D01*
X13650Y-20250D01*
X13650Y-20257D01*
X13550Y-20257D01*
X13550Y-20250D01*
X13550Y-20150D01*
X13550Y-19907D01*
X13512Y-19870D01*
X13449Y-19869D01*
X13390Y-19870D01*
X13334Y-19892D01*
X13292Y-19935D01*
X13269Y-19990D01*
X13270Y-20112D01*
X13307Y-20150D01*
X13550Y-20150D01*
X13550Y-20250D01*
X13307Y-20250D01*
X13270Y-20287D01*
X13269Y-20351D01*
X13128Y-20351D01*
X13128Y-20340D01*
X13105Y-20286D01*
X13064Y-20244D01*
X13009Y-20221D01*
X12950Y-20221D01*
X12590Y-20221D01*
X12536Y-20244D01*
X12528Y-20251D01*
X12400Y-20251D01*
X12285Y-20274D01*
X12188Y-20338D01*
X12188Y-20338D01*
X12188Y-20338D01*
X11601Y-20926D01*
X10820Y-20926D01*
X10766Y-20949D01*
X10724Y-20990D01*
X10701Y-21045D01*
X10701Y-21104D01*
X10701Y-21654D01*
X10724Y-21708D01*
X10765Y-21750D01*
X10820Y-21773D01*
X10879Y-21773D01*
X12379Y-21773D01*
X12433Y-21750D01*
X12475Y-21709D01*
X12498Y-21654D01*
X12498Y-21595D01*
X12498Y-21045D01*
X12475Y-20991D01*
X12434Y-20949D01*
X12426Y-20945D01*
X12523Y-20848D01*
X12528Y-20848D01*
X12535Y-20855D01*
X12590Y-20878D01*
X12649Y-20878D01*
X13009Y-20878D01*
X13063Y-20855D01*
X13105Y-20814D01*
X13128Y-20759D01*
X13128Y-20748D01*
X13271Y-20748D01*
X13271Y-20749D01*
X13271Y-21109D01*
X13294Y-21163D01*
X13335Y-21205D01*
X13390Y-21228D01*
X13449Y-21228D01*
X13809Y-21228D01*
X13863Y-21205D01*
X13905Y-21164D01*
X13928Y-21109D01*
X13928Y-21098D01*
X14100Y-21098D01*
X14100Y-22899D01*
X13920Y-22899D01*
X13865Y-22922D01*
X13822Y-22964D01*
X13800Y-23020D01*
X13799Y-23079D01*
X13799Y-23479D01*
X13822Y-23534D01*
X13864Y-23577D01*
X13920Y-23599D01*
X13979Y-23600D01*
X14100Y-23600D01*
X14100Y-23799D01*
X13979Y-23799D01*
X13920Y-23800D01*
X13864Y-23822D01*
X13822Y-23865D01*
X13799Y-23920D01*
X13800Y-24062D01*
X13837Y-24100D01*
X14100Y-24100D01*
X14100Y-24200D01*
X13837Y-24200D01*
X13800Y-24237D01*
X13799Y-24379D01*
X13822Y-24434D01*
X13864Y-24477D01*
X13920Y-24499D01*
X13979Y-24500D01*
X14100Y-24500D01*
X14100Y-24701D01*
X13920Y-24701D01*
X13866Y-24724D01*
X13824Y-24765D01*
X13801Y-24820D01*
X13801Y-24879D01*
X13801Y-25279D01*
X13824Y-25333D01*
X13865Y-25375D01*
X13920Y-25398D01*
X13979Y-25398D01*
X14100Y-25398D01*
X14100Y-25401D01*
M02*
