G04 (created by PCBNEW (2013-07-07 BZR 4022)-stable) date Sun 28 Jul 2013 12:26:32 PM NZST*
%MOIN*%
G04 Gerber Fmt 3.4, Leading zero omitted, Abs format*
%FSLAX34Y34*%
G01*
G70*
G90*
G04 APERTURE LIST*
%ADD10C,0.00590551*%
%ADD11R,0.06X0.06*%
%ADD12C,0.06*%
%ADD13C,0.0354*%
%ADD14C,0.056*%
%ADD15C,0.055*%
%ADD16R,0.055X0.055*%
%ADD17O,0.0984252X0.189*%
%ADD18R,0.0984252X0.19685*%
%ADD19O,0.189X0.0984252*%
%ADD20R,0.0629921X0.0629921*%
%ADD21R,0.045X0.025*%
%ADD22C,0.035*%
%ADD23C,0.02*%
%ADD24C,0.008*%
%ADD25C,0.01*%
%ADD26C,0.04*%
G04 APERTURE END LIST*
G54D10*
G54D11*
X18200Y-12300D03*
G54D12*
X18200Y-13300D03*
X17200Y-12300D03*
X17200Y-13300D03*
X16200Y-12300D03*
X16200Y-13300D03*
G54D13*
X11950Y-16866D03*
X11950Y-15134D03*
G54D11*
X18200Y-15300D03*
G54D12*
X17200Y-15300D03*
X18200Y-14300D03*
X17200Y-14300D03*
G54D14*
X16450Y-20700D03*
X18450Y-20700D03*
G54D15*
X33750Y-23050D03*
X32750Y-23050D03*
X31750Y-23050D03*
X30750Y-23050D03*
X29750Y-23050D03*
X28750Y-23050D03*
X27750Y-23050D03*
X26750Y-23050D03*
X25750Y-23050D03*
X24750Y-23050D03*
X23750Y-23050D03*
X22750Y-23050D03*
X21750Y-23050D03*
G54D16*
X34750Y-23050D03*
G54D15*
X21750Y-26050D03*
X22750Y-26050D03*
X23750Y-26050D03*
X24750Y-26050D03*
X25750Y-26050D03*
X26750Y-26050D03*
X27750Y-26050D03*
X28750Y-26050D03*
X29750Y-26050D03*
X30750Y-26050D03*
X31750Y-26050D03*
X32750Y-26050D03*
X33750Y-26050D03*
X34750Y-26050D03*
G54D11*
X35000Y-11000D03*
G54D12*
X34000Y-11000D03*
X33000Y-11000D03*
X32000Y-11000D03*
X31000Y-11000D03*
X30000Y-11000D03*
X29000Y-11000D03*
X28000Y-11000D03*
G54D11*
X30000Y-30000D03*
G54D12*
X31000Y-30000D03*
X32000Y-30000D03*
X33000Y-30000D03*
X34000Y-30000D03*
X35000Y-30000D03*
G54D11*
X26400Y-11000D03*
G54D12*
X25400Y-11000D03*
X24400Y-11000D03*
X23400Y-11000D03*
X22400Y-11000D03*
X21400Y-11000D03*
X20400Y-11000D03*
X19400Y-11000D03*
X18400Y-11000D03*
X17400Y-11000D03*
G54D11*
X35050Y-19000D03*
G54D12*
X36050Y-19000D03*
X35050Y-20000D03*
X36050Y-20000D03*
X35050Y-21000D03*
X36050Y-21000D03*
G54D17*
X13000Y-28300D03*
G54D18*
X15400Y-28300D03*
G54D19*
X13900Y-30300D03*
G54D20*
X17535Y-17664D03*
X17535Y-17035D03*
X18164Y-17664D03*
X18164Y-17035D03*
G54D21*
X15048Y-15520D03*
X15048Y-15895D03*
G54D11*
X23000Y-30000D03*
G54D12*
X24000Y-30000D03*
X25000Y-30000D03*
X26000Y-30000D03*
X27000Y-30000D03*
X28000Y-30000D03*
G54D22*
X20050Y-23385D03*
X22244Y-26732D03*
X20118Y-15118D03*
X15995Y-18650D03*
X15990Y-13950D03*
X19544Y-18725D03*
X19540Y-20020D03*
X13385Y-22637D03*
X16535Y-26456D03*
X14650Y-18650D03*
X12850Y-19650D03*
X12850Y-21600D03*
X10950Y-22600D03*
X10950Y-24200D03*
X11000Y-25650D03*
X11950Y-25350D03*
X12000Y-22950D03*
X13600Y-25700D03*
X13000Y-25100D03*
X13000Y-23250D03*
X33307Y-23858D03*
X29251Y-21417D03*
X22677Y-19133D03*
X34330Y-24370D03*
X28228Y-21102D03*
X22322Y-19527D03*
X33854Y-18212D03*
X32685Y-18660D03*
X22244Y-21929D03*
X33385Y-21377D03*
X21811Y-19842D03*
X13110Y-11850D03*
X23228Y-20826D03*
X18880Y-14710D03*
X20196Y-21417D03*
X18900Y-12510D03*
X19842Y-11692D03*
X20235Y-16080D03*
X20417Y-19121D03*
X36500Y-25800D03*
X10600Y-30500D03*
X10600Y-27100D03*
X25510Y-30600D03*
X14784Y-30580D03*
X21535Y-28543D03*
X18661Y-26338D03*
X20748Y-25393D03*
X35567Y-30587D03*
X10384Y-13391D03*
X35046Y-12100D03*
X10406Y-10399D03*
X19954Y-10290D03*
X27280Y-10340D03*
X34452Y-10362D03*
X35068Y-16654D03*
X32208Y-12100D03*
X31328Y-20900D03*
X29546Y-12056D03*
X27214Y-12034D03*
X25806Y-12012D03*
X28512Y-12078D03*
X30514Y-12056D03*
X29348Y-20152D03*
X30316Y-19932D03*
X30272Y-20922D03*
X24398Y-17446D03*
X24332Y-11990D03*
X28534Y-17336D03*
X29480Y-17292D03*
X27192Y-17402D03*
X25608Y-19910D03*
X25740Y-17424D03*
X21672Y-16044D03*
X22130Y-14400D03*
X21811Y-18622D03*
X13815Y-13350D03*
X10770Y-18510D03*
X15490Y-19770D03*
X13020Y-18510D03*
X30492Y-15862D03*
X16929Y-24173D03*
X15629Y-24173D03*
X28995Y-19200D03*
X19055Y-22322D03*
X19015Y-21259D03*
X24251Y-19921D03*
X24881Y-24645D03*
X18950Y-23650D03*
X14850Y-22350D03*
X21834Y-15063D03*
X17519Y-22716D03*
X15894Y-16386D03*
X14300Y-16500D03*
X20511Y-22480D03*
X21181Y-27834D03*
G54D23*
X20050Y-24065D02*
X20050Y-23385D01*
X20050Y-24065D02*
X21141Y-25157D01*
X21141Y-25157D02*
X21141Y-26377D01*
X21496Y-26732D02*
X22244Y-26732D01*
X21141Y-26377D02*
X21496Y-26732D01*
X14318Y-13950D02*
X15990Y-13950D01*
X13860Y-14408D02*
X14318Y-13950D01*
X13860Y-16750D02*
X13860Y-14408D01*
X14200Y-17090D02*
X13860Y-16750D01*
X14435Y-17090D02*
X14200Y-17090D01*
X14435Y-17090D02*
X15995Y-18650D01*
G54D24*
X19544Y-18725D02*
X19550Y-18725D01*
G54D23*
X19540Y-20020D02*
X19550Y-20020D01*
X13385Y-22637D02*
X13385Y-22204D01*
X13385Y-22204D02*
X13700Y-21889D01*
X13700Y-21889D02*
X15157Y-21889D01*
X15157Y-21889D02*
X15590Y-22322D01*
X15590Y-22322D02*
X17992Y-22322D01*
X17992Y-22322D02*
X18425Y-22755D01*
X18425Y-22755D02*
X19212Y-22755D01*
X19212Y-22755D02*
X19550Y-22418D01*
X19550Y-22418D02*
X19550Y-20020D01*
X19550Y-20020D02*
X19550Y-18725D01*
X19550Y-18725D02*
X19550Y-15331D01*
X19550Y-15331D02*
X19763Y-15118D01*
X19763Y-15118D02*
X20118Y-15118D01*
G54D25*
X18693Y-13300D02*
X18200Y-13300D01*
X20118Y-15118D02*
X19094Y-14094D01*
X19094Y-14094D02*
X19094Y-13700D01*
X19094Y-13700D02*
X18693Y-13300D01*
G54D23*
X16535Y-26456D02*
X13328Y-23250D01*
X13328Y-23250D02*
X13000Y-23250D01*
X19212Y-29133D02*
X16535Y-26456D01*
X12850Y-19650D02*
X14250Y-19650D01*
X14650Y-19250D02*
X14650Y-18650D01*
X14250Y-19650D02*
X14650Y-19250D01*
G54D25*
X12200Y-25100D02*
X13000Y-25100D01*
X11850Y-22600D02*
X12850Y-21600D01*
X10950Y-22600D02*
X11850Y-22600D01*
X10950Y-25600D02*
X10950Y-24200D01*
X11000Y-25650D02*
X10950Y-25600D01*
X12200Y-25100D02*
X11950Y-25350D01*
X12850Y-19650D02*
X12850Y-21600D01*
X13000Y-23250D02*
X13000Y-25100D01*
G54D23*
X22000Y-29133D02*
X19212Y-29133D01*
X22000Y-29133D02*
X22000Y-29141D01*
X22000Y-29141D02*
X22007Y-29133D01*
X22007Y-29133D02*
X24685Y-29133D01*
X24685Y-29133D02*
X25000Y-29448D01*
X25000Y-29448D02*
X25000Y-30000D01*
G54D25*
X21732Y-12125D02*
X22952Y-13346D01*
X22952Y-13346D02*
X22952Y-18858D01*
X22952Y-18858D02*
X22677Y-19133D01*
X18400Y-11000D02*
X18519Y-11000D01*
X29763Y-23858D02*
X33307Y-23858D01*
X29251Y-23346D02*
X29763Y-23858D01*
X29251Y-21417D02*
X29251Y-23346D01*
X18519Y-11000D02*
X19645Y-12125D01*
X19645Y-12125D02*
X21732Y-12125D01*
X22755Y-13582D02*
X22755Y-18543D01*
X22755Y-18543D02*
X22322Y-18976D01*
X22322Y-18976D02*
X22322Y-19527D01*
X17400Y-11000D02*
X17417Y-11000D01*
X34291Y-24330D02*
X34330Y-24370D01*
X28740Y-24330D02*
X34291Y-24330D01*
X28228Y-23818D02*
X28740Y-24330D01*
X28228Y-21102D02*
X28228Y-23818D01*
X19566Y-12362D02*
X21535Y-12362D01*
X18661Y-11456D02*
X19566Y-12362D01*
X17874Y-11456D02*
X18661Y-11456D01*
X17417Y-11000D02*
X17874Y-11456D01*
X21535Y-12362D02*
X22755Y-13582D01*
X33854Y-18212D02*
X33827Y-18239D01*
X33827Y-18239D02*
X33031Y-18239D01*
X33031Y-13346D02*
X35000Y-11377D01*
X33031Y-13346D02*
X33031Y-18239D01*
X33031Y-18239D02*
X33031Y-22331D01*
X33750Y-23050D02*
X33031Y-22331D01*
X35000Y-11377D02*
X35000Y-11000D01*
X32685Y-18660D02*
X32322Y-18660D01*
X34000Y-11000D02*
X34000Y-12024D01*
X32322Y-13701D02*
X32322Y-18660D01*
X34000Y-12024D02*
X32322Y-13701D01*
X32322Y-18660D02*
X32355Y-18660D01*
X32355Y-18660D02*
X32322Y-18660D01*
X32322Y-22622D02*
X32750Y-23050D01*
X32322Y-18660D02*
X32322Y-22622D01*
X31750Y-23050D02*
X31968Y-22831D01*
X33000Y-12474D02*
X33000Y-11000D01*
X31968Y-13505D02*
X33000Y-12474D01*
X31968Y-22831D02*
X31968Y-13505D01*
X32000Y-11000D02*
X32000Y-11188D01*
X30750Y-19190D02*
X30750Y-23050D01*
X31417Y-18523D02*
X30750Y-19190D01*
X31417Y-11771D02*
X31417Y-18523D01*
X32000Y-11188D02*
X31417Y-11771D01*
X31000Y-11000D02*
X31000Y-18500D01*
X29750Y-19750D02*
X29750Y-23050D01*
X31000Y-18500D02*
X29750Y-19750D01*
X24750Y-23050D02*
X24750Y-22651D01*
X30000Y-17401D02*
X30000Y-11000D01*
X24750Y-22651D02*
X30000Y-17401D01*
X23750Y-23050D02*
X23750Y-22706D01*
X29000Y-17995D02*
X29000Y-11000D01*
X24672Y-22322D02*
X29000Y-17995D01*
X24133Y-22322D02*
X24672Y-22322D01*
X23750Y-22706D02*
X24133Y-22322D01*
X22750Y-23050D02*
X22750Y-22643D01*
X28000Y-18487D02*
X28000Y-11000D01*
X24519Y-21968D02*
X28000Y-18487D01*
X23425Y-21968D02*
X24519Y-21968D01*
X22750Y-22643D02*
X23425Y-21968D01*
X26400Y-11000D02*
X26400Y-19664D01*
X21750Y-23053D02*
X21750Y-23050D01*
X23228Y-21574D02*
X21750Y-23053D01*
X24489Y-21574D02*
X23228Y-21574D01*
X26400Y-19664D02*
X24489Y-21574D01*
X25400Y-11000D02*
X25400Y-11411D01*
X22913Y-21259D02*
X22244Y-21929D01*
X23945Y-21259D02*
X22913Y-21259D01*
X25118Y-20086D02*
X23945Y-21259D01*
X25118Y-11692D02*
X25118Y-20086D01*
X25400Y-11411D02*
X25118Y-11692D01*
X34750Y-23050D02*
X34750Y-22742D01*
X34750Y-22742D02*
X33385Y-21377D01*
X22125Y-17913D02*
X22125Y-18897D01*
X21811Y-19212D02*
X21811Y-19842D01*
X22125Y-18897D02*
X21811Y-19212D01*
X22559Y-17480D02*
X22125Y-17913D01*
X22125Y-17913D02*
X22125Y-17913D01*
X22559Y-13779D02*
X22559Y-17480D01*
X21417Y-12637D02*
X22559Y-13779D01*
X19488Y-12637D02*
X21417Y-12637D01*
X18582Y-11732D02*
X19488Y-12637D01*
X13228Y-11732D02*
X18582Y-11732D01*
X13110Y-11850D02*
X13228Y-11732D01*
X24763Y-11363D02*
X24763Y-19973D01*
X23910Y-20826D02*
X23228Y-20826D01*
X24763Y-19973D02*
X23910Y-20826D01*
X24400Y-11000D02*
X24763Y-11363D01*
X24763Y-11363D02*
X24724Y-11324D01*
X17720Y-12780D02*
X18200Y-12300D01*
X17720Y-13640D02*
X17720Y-12780D01*
X17880Y-13800D02*
X17720Y-13640D01*
X18690Y-13800D02*
X17880Y-13800D01*
X18880Y-13990D02*
X18690Y-13800D01*
X18880Y-14710D02*
X18880Y-13990D01*
X19910Y-15877D02*
X19910Y-17340D01*
X19910Y-17340D02*
X19910Y-19350D01*
X19910Y-19350D02*
X19910Y-19380D01*
X19910Y-19380D02*
X20196Y-19666D01*
X20196Y-19666D02*
X20196Y-21417D01*
X20472Y-15314D02*
X20472Y-14960D01*
X20472Y-14960D02*
X20236Y-14724D01*
X20236Y-14724D02*
X20039Y-14724D01*
X20039Y-14724D02*
X19330Y-14015D01*
X19330Y-14015D02*
X19330Y-13543D01*
X19330Y-13543D02*
X18897Y-13110D01*
X18897Y-13110D02*
X18900Y-12510D01*
X20472Y-15314D02*
X19910Y-15877D01*
X19842Y-11692D02*
X21653Y-11692D01*
X27750Y-26344D02*
X27750Y-26050D01*
X27480Y-26614D02*
X27750Y-26344D01*
X25472Y-26614D02*
X27480Y-26614D01*
X25255Y-26397D02*
X25472Y-26614D01*
X25255Y-25610D02*
X25255Y-26397D01*
X24921Y-25275D02*
X25255Y-25610D01*
X21771Y-25275D02*
X24921Y-25275D01*
X20511Y-24015D02*
X21771Y-25275D01*
X20511Y-23070D02*
X20511Y-24015D01*
X20118Y-22677D02*
X20511Y-23070D01*
X20118Y-22401D02*
X20118Y-22677D01*
X23188Y-19330D02*
X20118Y-22401D01*
X23188Y-13228D02*
X23188Y-19330D01*
X21653Y-11692D02*
X23188Y-13228D01*
X20235Y-18939D02*
X20235Y-16080D01*
X20235Y-18939D02*
X20417Y-19121D01*
G54D24*
X10600Y-27100D02*
X10600Y-30500D01*
G54D25*
X26000Y-30000D02*
X27000Y-30000D01*
X26000Y-29188D02*
X26000Y-30000D01*
X25354Y-28543D02*
X26000Y-29188D01*
X21535Y-28543D02*
X25354Y-28543D01*
X18661Y-26338D02*
X20866Y-28543D01*
X19606Y-25393D02*
X18661Y-26338D01*
X20748Y-25393D02*
X19606Y-25393D01*
X20866Y-28543D02*
X21535Y-28543D01*
G54D26*
X35590Y-30580D02*
X35583Y-30587D01*
X35583Y-30587D02*
X35567Y-30587D01*
G54D24*
X10515Y-10290D02*
X10406Y-10399D01*
X19954Y-10290D02*
X10515Y-10290D01*
X27302Y-10362D02*
X27280Y-10340D01*
X34452Y-10362D02*
X27302Y-10362D01*
G54D25*
X32208Y-12100D02*
X31680Y-12628D01*
X31680Y-12628D02*
X31680Y-20548D01*
X31680Y-20548D02*
X31328Y-20900D01*
X28995Y-19799D02*
X28995Y-19200D01*
X29348Y-20152D02*
X28995Y-19799D01*
X30316Y-20878D02*
X30316Y-19932D01*
X30272Y-20922D02*
X30316Y-20878D01*
X24332Y-17380D02*
X24398Y-17446D01*
X24332Y-11990D02*
X24332Y-17380D01*
X25740Y-17424D02*
X25608Y-17556D01*
X25608Y-17556D02*
X25608Y-19910D01*
G54D24*
X22130Y-15586D02*
X22130Y-14400D01*
X21672Y-16044D02*
X22130Y-15586D01*
X21811Y-18622D02*
X21811Y-17801D01*
X22351Y-14621D02*
X22130Y-14400D01*
X22351Y-17262D02*
X22351Y-14621D01*
X21811Y-17801D02*
X22351Y-17262D01*
X16200Y-13300D02*
X13865Y-13300D01*
X13865Y-13300D02*
X13815Y-13350D01*
X13020Y-18510D02*
X10770Y-18510D01*
X15490Y-18660D02*
X15490Y-19770D01*
X15010Y-18180D02*
X15490Y-18660D01*
X13350Y-18180D02*
X15010Y-18180D01*
X13020Y-18510D02*
X13350Y-18180D01*
G54D25*
X28995Y-19200D02*
X30492Y-17703D01*
X30492Y-17703D02*
X30492Y-15862D01*
X16929Y-24173D02*
X15629Y-24173D01*
X27750Y-23050D02*
X27750Y-20445D01*
X27750Y-20445D02*
X28995Y-19200D01*
X19055Y-22322D02*
X19055Y-21299D01*
X19055Y-21299D02*
X19015Y-21259D01*
X23400Y-11000D02*
X23400Y-11740D01*
X23980Y-19649D02*
X24251Y-19921D01*
X23980Y-12320D02*
X23980Y-19649D01*
X23400Y-11740D02*
X23980Y-12320D01*
X35196Y-25551D02*
X36062Y-24685D01*
X23750Y-26466D02*
X24724Y-27440D01*
X24724Y-27440D02*
X28346Y-27440D01*
X28346Y-27440D02*
X29251Y-26535D01*
X29251Y-26535D02*
X29251Y-25866D01*
X29251Y-25866D02*
X29566Y-25551D01*
X29566Y-25551D02*
X35196Y-25551D01*
X36050Y-20000D02*
X35551Y-20498D01*
X23750Y-26466D02*
X23750Y-26050D01*
X35551Y-21811D02*
X35551Y-20498D01*
X36062Y-22322D02*
X35551Y-21811D01*
X36062Y-24685D02*
X36062Y-22322D01*
X24881Y-24645D02*
X25669Y-24645D01*
X34622Y-19000D02*
X35050Y-19000D01*
X34291Y-19330D02*
X34622Y-19000D01*
X34291Y-21496D02*
X34291Y-19330D01*
X35393Y-22598D02*
X34291Y-21496D01*
X35393Y-24370D02*
X35393Y-22598D01*
X34921Y-24842D02*
X35393Y-24370D01*
X25866Y-24842D02*
X34921Y-24842D01*
X25669Y-24645D02*
X25866Y-24842D01*
X21102Y-23543D02*
X22204Y-24645D01*
X22400Y-11494D02*
X23661Y-12755D01*
X23661Y-12755D02*
X23661Y-19803D01*
X23661Y-19803D02*
X21102Y-22362D01*
X21102Y-22362D02*
X21102Y-23543D01*
X22400Y-11000D02*
X22400Y-11494D01*
X22204Y-24645D02*
X24881Y-24645D01*
X18700Y-23400D02*
X18950Y-23650D01*
X15900Y-23400D02*
X18700Y-23400D01*
X14850Y-22350D02*
X15900Y-23400D01*
X21299Y-15597D02*
X21834Y-15063D01*
X21299Y-20944D02*
X21299Y-16173D01*
X19842Y-22401D02*
X21299Y-20944D01*
X19842Y-22716D02*
X19842Y-22401D01*
X19488Y-23070D02*
X19842Y-22716D01*
X17874Y-23070D02*
X19488Y-23070D01*
X17519Y-22716D02*
X17874Y-23070D01*
X21299Y-16173D02*
X21299Y-15597D01*
G54D24*
X15048Y-15895D02*
X15048Y-16398D01*
X15048Y-16398D02*
X15142Y-16492D01*
G54D25*
X15894Y-16386D02*
X15794Y-16486D01*
X15794Y-16486D02*
X15142Y-16492D01*
X15142Y-16492D02*
X14300Y-16500D01*
X25750Y-26050D02*
X25750Y-25549D01*
X34527Y-20522D02*
X35050Y-20000D01*
X34527Y-21259D02*
X34527Y-20522D01*
X35748Y-22480D02*
X34527Y-21259D01*
X35748Y-24527D02*
X35748Y-22480D01*
X35039Y-25236D02*
X35748Y-24527D01*
X26062Y-25236D02*
X35039Y-25236D01*
X25750Y-25549D02*
X26062Y-25236D01*
X21400Y-11000D02*
X23425Y-13025D01*
X23425Y-19566D02*
X20511Y-22480D01*
X23425Y-13025D02*
X23425Y-19566D01*
X21400Y-10966D02*
X21400Y-11000D01*
X25750Y-25277D02*
X25750Y-26050D01*
X20511Y-22480D02*
X20787Y-22755D01*
X20787Y-22755D02*
X20787Y-23779D01*
X20787Y-23779D02*
X22047Y-25039D01*
X22047Y-25039D02*
X25511Y-25039D01*
X25511Y-25039D02*
X25750Y-25277D01*
X28000Y-28393D02*
X28000Y-30000D01*
X27440Y-27834D02*
X28000Y-28393D01*
X21181Y-27834D02*
X27440Y-27834D01*
G54D10*
G36*
X15050Y-24629D02*
X13729Y-25950D01*
X10450Y-25950D01*
X10450Y-19200D01*
X14100Y-19200D01*
X14100Y-22370D01*
X15050Y-23320D01*
X15050Y-24629D01*
X15050Y-24629D01*
G37*
G54D25*
X15050Y-24629D02*
X13729Y-25950D01*
X10450Y-25950D01*
X10450Y-19200D01*
X14100Y-19200D01*
X14100Y-22370D01*
X15050Y-23320D01*
X15050Y-24629D01*
G54D10*
G36*
X22360Y-17398D02*
X21985Y-17773D01*
X21942Y-17837D01*
X21927Y-17913D01*
X21927Y-18815D01*
X21670Y-19072D01*
X21627Y-19136D01*
X21612Y-19212D01*
X21612Y-19583D01*
X21536Y-19659D01*
X21497Y-19753D01*
X21497Y-16173D01*
X21497Y-15679D01*
X21791Y-15386D01*
X21898Y-15386D01*
X22016Y-15337D01*
X22108Y-15246D01*
X22157Y-15127D01*
X22157Y-14998D01*
X22108Y-14880D01*
X22017Y-14788D01*
X21898Y-14739D01*
X21769Y-14739D01*
X21651Y-14788D01*
X21559Y-14879D01*
X21510Y-14998D01*
X21510Y-15105D01*
X21158Y-15457D01*
X21115Y-15521D01*
X21100Y-15597D01*
X21100Y-16173D01*
X21100Y-20862D01*
X20520Y-21443D01*
X20520Y-21353D01*
X20471Y-21234D01*
X20395Y-21158D01*
X20395Y-19666D01*
X20380Y-19590D01*
X20380Y-19590D01*
X20337Y-19526D01*
X20108Y-19297D01*
X20108Y-19221D01*
X20142Y-19303D01*
X20233Y-19395D01*
X20352Y-19444D01*
X20481Y-19444D01*
X20599Y-19395D01*
X20691Y-19304D01*
X20740Y-19185D01*
X20740Y-19056D01*
X20691Y-18938D01*
X20600Y-18846D01*
X20481Y-18797D01*
X20433Y-18797D01*
X20433Y-16338D01*
X20509Y-16263D01*
X20558Y-16144D01*
X20558Y-16015D01*
X20509Y-15897D01*
X20418Y-15805D01*
X20307Y-15760D01*
X20612Y-15455D01*
X20612Y-15455D01*
X20612Y-15455D01*
X20655Y-15390D01*
X20655Y-15390D01*
X20670Y-15314D01*
X20670Y-14960D01*
X20655Y-14884D01*
X20655Y-14884D01*
X20612Y-14820D01*
X20376Y-14584D01*
X20312Y-14541D01*
X20236Y-14525D01*
X20121Y-14525D01*
X19529Y-13933D01*
X19529Y-13543D01*
X19529Y-13543D01*
X19529Y-13543D01*
X19526Y-13528D01*
X19514Y-13467D01*
X19514Y-13467D01*
X19471Y-13402D01*
X19471Y-13402D01*
X19096Y-13028D01*
X19097Y-12770D01*
X19174Y-12693D01*
X19200Y-12630D01*
X19347Y-12778D01*
X19412Y-12821D01*
X19412Y-12821D01*
X19488Y-12836D01*
X21335Y-12836D01*
X22360Y-13861D01*
X22360Y-17398D01*
X22360Y-17398D01*
G37*
G54D25*
X22360Y-17398D02*
X21985Y-17773D01*
X21942Y-17837D01*
X21927Y-17913D01*
X21927Y-18815D01*
X21670Y-19072D01*
X21627Y-19136D01*
X21612Y-19212D01*
X21612Y-19583D01*
X21536Y-19659D01*
X21497Y-19753D01*
X21497Y-16173D01*
X21497Y-15679D01*
X21791Y-15386D01*
X21898Y-15386D01*
X22016Y-15337D01*
X22108Y-15246D01*
X22157Y-15127D01*
X22157Y-14998D01*
X22108Y-14880D01*
X22017Y-14788D01*
X21898Y-14739D01*
X21769Y-14739D01*
X21651Y-14788D01*
X21559Y-14879D01*
X21510Y-14998D01*
X21510Y-15105D01*
X21158Y-15457D01*
X21115Y-15521D01*
X21100Y-15597D01*
X21100Y-16173D01*
X21100Y-20862D01*
X20520Y-21443D01*
X20520Y-21353D01*
X20471Y-21234D01*
X20395Y-21158D01*
X20395Y-19666D01*
X20380Y-19590D01*
X20380Y-19590D01*
X20337Y-19526D01*
X20108Y-19297D01*
X20108Y-19221D01*
X20142Y-19303D01*
X20233Y-19395D01*
X20352Y-19444D01*
X20481Y-19444D01*
X20599Y-19395D01*
X20691Y-19304D01*
X20740Y-19185D01*
X20740Y-19056D01*
X20691Y-18938D01*
X20600Y-18846D01*
X20481Y-18797D01*
X20433Y-18797D01*
X20433Y-16338D01*
X20509Y-16263D01*
X20558Y-16144D01*
X20558Y-16015D01*
X20509Y-15897D01*
X20418Y-15805D01*
X20307Y-15760D01*
X20612Y-15455D01*
X20612Y-15455D01*
X20612Y-15455D01*
X20655Y-15390D01*
X20655Y-15390D01*
X20670Y-15314D01*
X20670Y-14960D01*
X20655Y-14884D01*
X20655Y-14884D01*
X20612Y-14820D01*
X20376Y-14584D01*
X20312Y-14541D01*
X20236Y-14525D01*
X20121Y-14525D01*
X19529Y-13933D01*
X19529Y-13543D01*
X19529Y-13543D01*
X19529Y-13543D01*
X19526Y-13528D01*
X19514Y-13467D01*
X19514Y-13467D01*
X19471Y-13402D01*
X19471Y-13402D01*
X19096Y-13028D01*
X19097Y-12770D01*
X19174Y-12693D01*
X19200Y-12630D01*
X19347Y-12778D01*
X19412Y-12821D01*
X19412Y-12821D01*
X19488Y-12836D01*
X21335Y-12836D01*
X22360Y-13861D01*
X22360Y-17398D01*
G54D10*
G36*
X36801Y-28917D02*
X36505Y-29214D01*
X36505Y-21057D01*
X36500Y-20985D01*
X36500Y-18910D01*
X36431Y-18745D01*
X36305Y-18618D01*
X36139Y-18550D01*
X35960Y-18549D01*
X35795Y-18618D01*
X35668Y-18744D01*
X35600Y-18910D01*
X35599Y-19089D01*
X35668Y-19254D01*
X35794Y-19381D01*
X35960Y-19449D01*
X36139Y-19450D01*
X36304Y-19381D01*
X36431Y-19255D01*
X36499Y-19089D01*
X36500Y-18910D01*
X36500Y-20985D01*
X36492Y-20879D01*
X36448Y-20772D01*
X36381Y-20739D01*
X36310Y-20810D01*
X36120Y-21000D01*
X36381Y-21260D01*
X36448Y-21227D01*
X36505Y-21057D01*
X36505Y-29214D01*
X36310Y-29408D01*
X35859Y-29859D01*
X35816Y-29924D01*
X35801Y-30000D01*
X35801Y-30579D01*
X35782Y-30675D01*
X35740Y-30739D01*
X35675Y-30782D01*
X35580Y-30801D01*
X35448Y-30801D01*
X35448Y-29911D01*
X35380Y-29746D01*
X35254Y-29620D01*
X35089Y-29551D01*
X34911Y-29551D01*
X34746Y-29619D01*
X34620Y-29745D01*
X34551Y-29910D01*
X34551Y-30088D01*
X34619Y-30253D01*
X34745Y-30379D01*
X34910Y-30448D01*
X35088Y-30448D01*
X35253Y-30380D01*
X35379Y-30254D01*
X35448Y-30089D01*
X35448Y-29911D01*
X35448Y-30801D01*
X34448Y-30801D01*
X34448Y-29911D01*
X34380Y-29746D01*
X34254Y-29620D01*
X34089Y-29551D01*
X33911Y-29551D01*
X33746Y-29619D01*
X33620Y-29745D01*
X33551Y-29910D01*
X33551Y-30088D01*
X33619Y-30253D01*
X33745Y-30379D01*
X33910Y-30448D01*
X34088Y-30448D01*
X34253Y-30380D01*
X34379Y-30254D01*
X34448Y-30089D01*
X34448Y-29911D01*
X34448Y-30801D01*
X33448Y-30801D01*
X33448Y-29911D01*
X33380Y-29746D01*
X33254Y-29620D01*
X33089Y-29551D01*
X32911Y-29551D01*
X32746Y-29619D01*
X32620Y-29745D01*
X32551Y-29910D01*
X32551Y-30088D01*
X32619Y-30253D01*
X32745Y-30379D01*
X32910Y-30448D01*
X33088Y-30448D01*
X33253Y-30380D01*
X33379Y-30254D01*
X33448Y-30089D01*
X33448Y-29911D01*
X33448Y-30801D01*
X32448Y-30801D01*
X32448Y-29911D01*
X32380Y-29746D01*
X32254Y-29620D01*
X32089Y-29551D01*
X31911Y-29551D01*
X31746Y-29619D01*
X31620Y-29745D01*
X31551Y-29910D01*
X31551Y-30088D01*
X31619Y-30253D01*
X31745Y-30379D01*
X31910Y-30448D01*
X32088Y-30448D01*
X32253Y-30380D01*
X32379Y-30254D01*
X32448Y-30089D01*
X32448Y-29911D01*
X32448Y-30801D01*
X31448Y-30801D01*
X31448Y-29911D01*
X31380Y-29746D01*
X31254Y-29620D01*
X31089Y-29551D01*
X30911Y-29551D01*
X30746Y-29619D01*
X30620Y-29745D01*
X30551Y-29910D01*
X30551Y-30088D01*
X30619Y-30253D01*
X30745Y-30379D01*
X30910Y-30448D01*
X31088Y-30448D01*
X31253Y-30380D01*
X31379Y-30254D01*
X31448Y-30089D01*
X31448Y-29911D01*
X31448Y-30801D01*
X30448Y-30801D01*
X30448Y-30270D01*
X30448Y-29670D01*
X30425Y-29616D01*
X30384Y-29574D01*
X30329Y-29551D01*
X30270Y-29551D01*
X29670Y-29551D01*
X29616Y-29574D01*
X29574Y-29615D01*
X29551Y-29670D01*
X29551Y-29729D01*
X29551Y-30329D01*
X29574Y-30383D01*
X29615Y-30425D01*
X29670Y-30448D01*
X29729Y-30448D01*
X30329Y-30448D01*
X30383Y-30425D01*
X30425Y-30384D01*
X30448Y-30329D01*
X30448Y-30270D01*
X30448Y-30801D01*
X27455Y-30801D01*
X27455Y-30057D01*
X27442Y-29879D01*
X27398Y-29772D01*
X27331Y-29739D01*
X27260Y-29810D01*
X27260Y-29668D01*
X27227Y-29601D01*
X27057Y-29544D01*
X26879Y-29557D01*
X26772Y-29601D01*
X26739Y-29668D01*
X27000Y-29929D01*
X27260Y-29668D01*
X27260Y-29810D01*
X27070Y-30000D01*
X27331Y-30260D01*
X27398Y-30227D01*
X27455Y-30057D01*
X27455Y-30801D01*
X27260Y-30801D01*
X27260Y-30331D01*
X27000Y-30070D01*
X26929Y-30141D01*
X26929Y-30000D01*
X26668Y-29739D01*
X26601Y-29772D01*
X26544Y-29942D01*
X26557Y-30120D01*
X26601Y-30227D01*
X26668Y-30260D01*
X26929Y-30000D01*
X26929Y-30141D01*
X26739Y-30331D01*
X26772Y-30398D01*
X26942Y-30455D01*
X27120Y-30442D01*
X27227Y-30398D01*
X27260Y-30331D01*
X27260Y-30801D01*
X26455Y-30801D01*
X26455Y-30057D01*
X26442Y-29879D01*
X26398Y-29772D01*
X26331Y-29739D01*
X26260Y-29810D01*
X26260Y-29668D01*
X26227Y-29601D01*
X26057Y-29544D01*
X25879Y-29557D01*
X25772Y-29601D01*
X25739Y-29668D01*
X26000Y-29929D01*
X26260Y-29668D01*
X26260Y-29810D01*
X26070Y-30000D01*
X26331Y-30260D01*
X26398Y-30227D01*
X26455Y-30057D01*
X26455Y-30801D01*
X26260Y-30801D01*
X26260Y-30331D01*
X26000Y-30070D01*
X25929Y-30141D01*
X25929Y-30000D01*
X25668Y-29739D01*
X25601Y-29772D01*
X25544Y-29942D01*
X25557Y-30120D01*
X25601Y-30227D01*
X25668Y-30260D01*
X25929Y-30000D01*
X25929Y-30141D01*
X25739Y-30331D01*
X25772Y-30398D01*
X25942Y-30455D01*
X26120Y-30442D01*
X26227Y-30398D01*
X26260Y-30331D01*
X26260Y-30801D01*
X24450Y-30801D01*
X24450Y-29910D01*
X24381Y-29745D01*
X24255Y-29618D01*
X24089Y-29550D01*
X23910Y-29549D01*
X23745Y-29618D01*
X23618Y-29744D01*
X23550Y-29910D01*
X23549Y-30089D01*
X23618Y-30254D01*
X23744Y-30381D01*
X23910Y-30449D01*
X24089Y-30450D01*
X24254Y-30381D01*
X24381Y-30255D01*
X24449Y-30089D01*
X24450Y-29910D01*
X24450Y-30801D01*
X23448Y-30801D01*
X23448Y-30270D01*
X23448Y-29670D01*
X23425Y-29616D01*
X23384Y-29574D01*
X23329Y-29551D01*
X23270Y-29551D01*
X22670Y-29551D01*
X22616Y-29574D01*
X22574Y-29615D01*
X22551Y-29670D01*
X22551Y-29729D01*
X22551Y-30329D01*
X22574Y-30383D01*
X22615Y-30425D01*
X22670Y-30448D01*
X22729Y-30448D01*
X23329Y-30448D01*
X23383Y-30425D01*
X23425Y-30384D01*
X23448Y-30329D01*
X23448Y-30270D01*
X23448Y-30801D01*
X16040Y-30801D01*
X16040Y-29254D01*
X16040Y-27286D01*
X16018Y-27231D01*
X15976Y-27189D01*
X15921Y-27167D01*
X15862Y-27167D01*
X14878Y-27167D01*
X14823Y-27189D01*
X14782Y-27231D01*
X14759Y-27286D01*
X14759Y-27345D01*
X14759Y-29313D01*
X14781Y-29368D01*
X14823Y-29410D01*
X14878Y-29432D01*
X14937Y-29432D01*
X15921Y-29432D01*
X15976Y-29410D01*
X16017Y-29368D01*
X16040Y-29313D01*
X16040Y-29254D01*
X16040Y-30801D01*
X14736Y-30801D01*
X14842Y-30718D01*
X14965Y-30499D01*
X14977Y-30449D01*
X14977Y-30150D01*
X14965Y-30100D01*
X14842Y-29881D01*
X14644Y-29725D01*
X14402Y-29657D01*
X13950Y-29657D01*
X13950Y-30250D01*
X14955Y-30250D01*
X14977Y-30150D01*
X14977Y-30449D01*
X14955Y-30350D01*
X13950Y-30350D01*
X13950Y-30357D01*
X13850Y-30357D01*
X13850Y-30350D01*
X13850Y-30250D01*
X13850Y-29657D01*
X13642Y-29657D01*
X13642Y-28802D01*
X13642Y-28350D01*
X13642Y-28250D01*
X13642Y-27797D01*
X13574Y-27555D01*
X13418Y-27357D01*
X13199Y-27234D01*
X13149Y-27222D01*
X13050Y-27244D01*
X13050Y-28250D01*
X13642Y-28250D01*
X13642Y-28350D01*
X13050Y-28350D01*
X13050Y-29355D01*
X13149Y-29377D01*
X13199Y-29365D01*
X13418Y-29242D01*
X13574Y-29044D01*
X13642Y-28802D01*
X13642Y-29657D01*
X13397Y-29657D01*
X13155Y-29725D01*
X12957Y-29881D01*
X12950Y-29895D01*
X12950Y-29355D01*
X12950Y-28350D01*
X12950Y-28250D01*
X12950Y-27244D01*
X12850Y-27222D01*
X12800Y-27234D01*
X12581Y-27357D01*
X12425Y-27555D01*
X12357Y-27797D01*
X12357Y-28250D01*
X12950Y-28250D01*
X12950Y-28350D01*
X12357Y-28350D01*
X12357Y-28802D01*
X12425Y-29044D01*
X12581Y-29242D01*
X12800Y-29365D01*
X12850Y-29377D01*
X12950Y-29355D01*
X12950Y-29895D01*
X12834Y-30100D01*
X12822Y-30150D01*
X12844Y-30250D01*
X13850Y-30250D01*
X13850Y-30350D01*
X12844Y-30350D01*
X12822Y-30449D01*
X12834Y-30499D01*
X12957Y-30718D01*
X13063Y-30801D01*
X10420Y-30801D01*
X10324Y-30782D01*
X10260Y-30740D01*
X10217Y-30675D01*
X10198Y-30580D01*
X10198Y-26323D01*
X10235Y-26286D01*
X10361Y-26222D01*
X10503Y-26200D01*
X13797Y-26200D01*
X14003Y-26159D01*
X14178Y-26042D01*
X14972Y-25247D01*
X16210Y-26485D01*
X16210Y-26521D01*
X16259Y-26640D01*
X16351Y-26732D01*
X16470Y-26781D01*
X16506Y-26781D01*
X19035Y-29310D01*
X19116Y-29364D01*
X19212Y-29383D01*
X21960Y-29383D01*
X22000Y-29391D01*
X22039Y-29383D01*
X24581Y-29383D01*
X24750Y-29552D01*
X24750Y-29616D01*
X24745Y-29618D01*
X24618Y-29744D01*
X24550Y-29910D01*
X24549Y-30089D01*
X24618Y-30254D01*
X24744Y-30381D01*
X24910Y-30449D01*
X25089Y-30450D01*
X25254Y-30381D01*
X25381Y-30255D01*
X25449Y-30089D01*
X25450Y-29910D01*
X25381Y-29745D01*
X25255Y-29618D01*
X25250Y-29616D01*
X25250Y-29448D01*
X25249Y-29448D01*
X25250Y-29448D01*
X25246Y-29429D01*
X25230Y-29353D01*
X25230Y-29353D01*
X25176Y-29272D01*
X25176Y-29272D01*
X24861Y-28957D01*
X24780Y-28902D01*
X24685Y-28883D01*
X22007Y-28883D01*
X22003Y-28884D01*
X22003Y-28884D01*
X22000Y-28883D01*
X19316Y-28883D01*
X16860Y-26428D01*
X16860Y-26392D01*
X16811Y-26272D01*
X16719Y-26181D01*
X16600Y-26131D01*
X16564Y-26131D01*
X15299Y-24867D01*
X15309Y-24853D01*
X15350Y-24647D01*
X15350Y-23452D01*
X15309Y-23246D01*
X15192Y-23071D01*
X14794Y-22673D01*
X14892Y-22673D01*
X15759Y-23540D01*
X15759Y-23540D01*
X15824Y-23583D01*
X15824Y-23583D01*
X15900Y-23598D01*
X18617Y-23598D01*
X18626Y-23607D01*
X18626Y-23714D01*
X18675Y-23832D01*
X18766Y-23924D01*
X18885Y-23973D01*
X19014Y-23973D01*
X19132Y-23924D01*
X19224Y-23833D01*
X19273Y-23714D01*
X19273Y-23585D01*
X19224Y-23467D01*
X19133Y-23375D01*
X19014Y-23326D01*
X18907Y-23326D01*
X18849Y-23269D01*
X19488Y-23269D01*
X19564Y-23254D01*
X19564Y-23254D01*
X19628Y-23211D01*
X19982Y-22856D01*
X19996Y-22836D01*
X20313Y-23153D01*
X20313Y-23189D01*
X20234Y-23110D01*
X20114Y-23060D01*
X19985Y-23060D01*
X19866Y-23110D01*
X19774Y-23201D01*
X19725Y-23320D01*
X19724Y-23450D01*
X19774Y-23569D01*
X19800Y-23595D01*
X19800Y-24065D01*
X19819Y-24161D01*
X19873Y-24242D01*
X20891Y-25261D01*
X20891Y-26377D01*
X20910Y-26473D01*
X20964Y-26554D01*
X21319Y-26909D01*
X21400Y-26963D01*
X21496Y-26982D01*
X22034Y-26982D01*
X22059Y-27007D01*
X22179Y-27057D01*
X22308Y-27057D01*
X22427Y-27007D01*
X22519Y-26916D01*
X22569Y-26797D01*
X22569Y-26667D01*
X22519Y-26548D01*
X22428Y-26456D01*
X22309Y-26407D01*
X22179Y-26407D01*
X22060Y-26456D01*
X22034Y-26482D01*
X21599Y-26482D01*
X21537Y-26420D01*
X21665Y-26473D01*
X21833Y-26473D01*
X21989Y-26409D01*
X22108Y-26290D01*
X22173Y-26134D01*
X22173Y-25966D01*
X22109Y-25810D01*
X21990Y-25691D01*
X21834Y-25626D01*
X21666Y-25626D01*
X21510Y-25690D01*
X21391Y-25809D01*
X21391Y-25176D01*
X21631Y-25415D01*
X21695Y-25458D01*
X21695Y-25458D01*
X21771Y-25474D01*
X24839Y-25474D01*
X25057Y-25692D01*
X25057Y-25758D01*
X24990Y-25691D01*
X24834Y-25626D01*
X24666Y-25626D01*
X24510Y-25690D01*
X24391Y-25809D01*
X24326Y-25965D01*
X24326Y-26133D01*
X24390Y-26289D01*
X24509Y-26408D01*
X24665Y-26473D01*
X24833Y-26473D01*
X24989Y-26409D01*
X25057Y-26341D01*
X25057Y-26397D01*
X25072Y-26473D01*
X25115Y-26537D01*
X25332Y-26754D01*
X25332Y-26754D01*
X25396Y-26797D01*
X25396Y-26797D01*
X25472Y-26812D01*
X27480Y-26812D01*
X27556Y-26797D01*
X27556Y-26797D01*
X27620Y-26754D01*
X27890Y-26484D01*
X27922Y-26436D01*
X27922Y-26436D01*
X27989Y-26409D01*
X28108Y-26290D01*
X28173Y-26134D01*
X28173Y-25966D01*
X28109Y-25810D01*
X27990Y-25691D01*
X27834Y-25626D01*
X27666Y-25626D01*
X27510Y-25690D01*
X27391Y-25809D01*
X27326Y-25965D01*
X27326Y-26133D01*
X27390Y-26289D01*
X27457Y-26356D01*
X27398Y-26415D01*
X26977Y-26415D01*
X26990Y-26410D01*
X27110Y-26291D01*
X27174Y-26134D01*
X27175Y-25965D01*
X27110Y-25809D01*
X26991Y-25689D01*
X26834Y-25625D01*
X26665Y-25624D01*
X26509Y-25689D01*
X26389Y-25808D01*
X26325Y-25965D01*
X26324Y-26134D01*
X26389Y-26290D01*
X26508Y-26410D01*
X26522Y-26415D01*
X25973Y-26415D01*
X25989Y-26409D01*
X26108Y-26290D01*
X26173Y-26134D01*
X26173Y-25966D01*
X26109Y-25810D01*
X25990Y-25691D01*
X25948Y-25673D01*
X25948Y-25631D01*
X26145Y-25434D01*
X29402Y-25434D01*
X29111Y-25725D01*
X29068Y-25790D01*
X29064Y-25808D01*
X29063Y-25807D01*
X28992Y-25878D01*
X28992Y-25736D01*
X28962Y-25672D01*
X28801Y-25619D01*
X28633Y-25632D01*
X28537Y-25672D01*
X28507Y-25736D01*
X28750Y-25979D01*
X28992Y-25736D01*
X28992Y-25878D01*
X28820Y-26050D01*
X28826Y-26055D01*
X28755Y-26126D01*
X28750Y-26120D01*
X28679Y-26191D01*
X28679Y-26050D01*
X28436Y-25807D01*
X28372Y-25837D01*
X28319Y-25998D01*
X28332Y-26166D01*
X28372Y-26262D01*
X28436Y-26292D01*
X28679Y-26050D01*
X28679Y-26191D01*
X28507Y-26363D01*
X28537Y-26427D01*
X28698Y-26480D01*
X28866Y-26467D01*
X28962Y-26427D01*
X28992Y-26363D01*
X28992Y-26363D01*
X29020Y-26391D01*
X29053Y-26357D01*
X29053Y-26453D01*
X28992Y-26514D01*
X28264Y-27242D01*
X24806Y-27242D01*
X23978Y-26413D01*
X23989Y-26409D01*
X24108Y-26290D01*
X24173Y-26134D01*
X24173Y-25966D01*
X24109Y-25810D01*
X23990Y-25691D01*
X23834Y-25626D01*
X23666Y-25626D01*
X23510Y-25690D01*
X23391Y-25809D01*
X23326Y-25965D01*
X23326Y-26133D01*
X23390Y-26289D01*
X23509Y-26408D01*
X23551Y-26426D01*
X23551Y-26466D01*
X23566Y-26542D01*
X23609Y-26606D01*
X24584Y-27581D01*
X24584Y-27581D01*
X24648Y-27624D01*
X24648Y-27624D01*
X24700Y-27634D01*
X23173Y-27634D01*
X23173Y-25966D01*
X23109Y-25810D01*
X22990Y-25691D01*
X22834Y-25626D01*
X22666Y-25626D01*
X22510Y-25690D01*
X22391Y-25809D01*
X22326Y-25965D01*
X22326Y-26133D01*
X22390Y-26289D01*
X22509Y-26408D01*
X22665Y-26473D01*
X22833Y-26473D01*
X22989Y-26409D01*
X23108Y-26290D01*
X23173Y-26134D01*
X23173Y-25966D01*
X23173Y-27634D01*
X21440Y-27634D01*
X21365Y-27559D01*
X21246Y-27509D01*
X21116Y-27509D01*
X20997Y-27558D01*
X20905Y-27650D01*
X20856Y-27769D01*
X20856Y-27899D01*
X20905Y-28018D01*
X20996Y-28110D01*
X21116Y-28159D01*
X21245Y-28159D01*
X21364Y-28110D01*
X21440Y-28034D01*
X27358Y-28034D01*
X27800Y-28476D01*
X27800Y-29595D01*
X27745Y-29618D01*
X27618Y-29744D01*
X27550Y-29910D01*
X27549Y-30089D01*
X27618Y-30254D01*
X27744Y-30381D01*
X27910Y-30449D01*
X28089Y-30450D01*
X28254Y-30381D01*
X28381Y-30255D01*
X28449Y-30089D01*
X28450Y-29910D01*
X28381Y-29745D01*
X28255Y-29618D01*
X28200Y-29595D01*
X28200Y-28393D01*
X28187Y-28329D01*
X28184Y-28317D01*
X28184Y-28317D01*
X28141Y-28252D01*
X27582Y-27693D01*
X27517Y-27649D01*
X27464Y-27639D01*
X28346Y-27639D01*
X28422Y-27624D01*
X28422Y-27624D01*
X28486Y-27581D01*
X29392Y-26675D01*
X29435Y-26611D01*
X29435Y-26611D01*
X29450Y-26535D01*
X29450Y-26349D01*
X29509Y-26408D01*
X29665Y-26473D01*
X29833Y-26473D01*
X29989Y-26409D01*
X30108Y-26290D01*
X30173Y-26134D01*
X30173Y-25966D01*
X30109Y-25810D01*
X30048Y-25749D01*
X30451Y-25749D01*
X30391Y-25809D01*
X30326Y-25965D01*
X30326Y-26133D01*
X30390Y-26289D01*
X30509Y-26408D01*
X30665Y-26473D01*
X30833Y-26473D01*
X30989Y-26409D01*
X31108Y-26290D01*
X31173Y-26134D01*
X31173Y-25966D01*
X31109Y-25810D01*
X31048Y-25749D01*
X31451Y-25749D01*
X31391Y-25809D01*
X31326Y-25965D01*
X31326Y-26133D01*
X31390Y-26289D01*
X31509Y-26408D01*
X31665Y-26473D01*
X31833Y-26473D01*
X31989Y-26409D01*
X32108Y-26290D01*
X32173Y-26134D01*
X32173Y-25966D01*
X32109Y-25810D01*
X32048Y-25749D01*
X32451Y-25749D01*
X32391Y-25809D01*
X32326Y-25965D01*
X32326Y-26133D01*
X32390Y-26289D01*
X32509Y-26408D01*
X32665Y-26473D01*
X32833Y-26473D01*
X32989Y-26409D01*
X33108Y-26290D01*
X33173Y-26134D01*
X33173Y-25966D01*
X33109Y-25810D01*
X33048Y-25749D01*
X33451Y-25749D01*
X33391Y-25809D01*
X33326Y-25965D01*
X33326Y-26133D01*
X33390Y-26289D01*
X33509Y-26408D01*
X33665Y-26473D01*
X33833Y-26473D01*
X33989Y-26409D01*
X34108Y-26290D01*
X34173Y-26134D01*
X34173Y-25966D01*
X34109Y-25810D01*
X34048Y-25749D01*
X34451Y-25749D01*
X34391Y-25809D01*
X34326Y-25965D01*
X34326Y-26133D01*
X34390Y-26289D01*
X34509Y-26408D01*
X34665Y-26473D01*
X34833Y-26473D01*
X34989Y-26409D01*
X35108Y-26290D01*
X35173Y-26134D01*
X35173Y-25966D01*
X35109Y-25810D01*
X35048Y-25749D01*
X35196Y-25749D01*
X35272Y-25734D01*
X35272Y-25734D01*
X35337Y-25691D01*
X36203Y-24825D01*
X36203Y-24825D01*
X36203Y-24825D01*
X36246Y-24760D01*
X36246Y-24760D01*
X36258Y-24700D01*
X36261Y-24685D01*
X36261Y-24685D01*
X36261Y-24685D01*
X36261Y-22322D01*
X36246Y-22246D01*
X36246Y-22246D01*
X36203Y-22182D01*
X36203Y-22182D01*
X35749Y-21728D01*
X35749Y-21347D01*
X35761Y-21359D01*
X35789Y-21331D01*
X35822Y-21398D01*
X35992Y-21455D01*
X36170Y-21442D01*
X36277Y-21398D01*
X36310Y-21331D01*
X36050Y-21070D01*
X36044Y-21076D01*
X35973Y-21005D01*
X35979Y-21000D01*
X35973Y-20994D01*
X36044Y-20923D01*
X36050Y-20929D01*
X36310Y-20668D01*
X36277Y-20601D01*
X36107Y-20544D01*
X35929Y-20557D01*
X35822Y-20601D01*
X35789Y-20668D01*
X35761Y-20640D01*
X35749Y-20652D01*
X35749Y-20581D01*
X35905Y-20425D01*
X35960Y-20448D01*
X36138Y-20448D01*
X36303Y-20380D01*
X36429Y-20254D01*
X36498Y-20089D01*
X36498Y-19911D01*
X36430Y-19746D01*
X36304Y-19620D01*
X36139Y-19551D01*
X35961Y-19551D01*
X35796Y-19619D01*
X35670Y-19745D01*
X35601Y-19910D01*
X35601Y-20088D01*
X35624Y-20144D01*
X35410Y-20358D01*
X35367Y-20422D01*
X35352Y-20498D01*
X35352Y-20668D01*
X35304Y-20620D01*
X35139Y-20551D01*
X34961Y-20551D01*
X34796Y-20619D01*
X34725Y-20689D01*
X34725Y-20604D01*
X34905Y-20425D01*
X34960Y-20448D01*
X35138Y-20448D01*
X35303Y-20380D01*
X35429Y-20254D01*
X35498Y-20089D01*
X35498Y-19911D01*
X35430Y-19746D01*
X35304Y-19620D01*
X35139Y-19551D01*
X34961Y-19551D01*
X34796Y-19619D01*
X34670Y-19745D01*
X34601Y-19910D01*
X34601Y-20088D01*
X34624Y-20144D01*
X34489Y-20279D01*
X34489Y-19412D01*
X34601Y-19301D01*
X34601Y-19329D01*
X34624Y-19383D01*
X34665Y-19425D01*
X34720Y-19448D01*
X34779Y-19448D01*
X35379Y-19448D01*
X35433Y-19425D01*
X35475Y-19384D01*
X35498Y-19329D01*
X35498Y-19270D01*
X35498Y-18670D01*
X35475Y-18616D01*
X35448Y-18588D01*
X35448Y-11270D01*
X35448Y-10670D01*
X35425Y-10616D01*
X35384Y-10574D01*
X35329Y-10551D01*
X35270Y-10551D01*
X34670Y-10551D01*
X34616Y-10574D01*
X34574Y-10615D01*
X34551Y-10670D01*
X34551Y-10729D01*
X34551Y-11329D01*
X34574Y-11383D01*
X34615Y-11425D01*
X34655Y-11442D01*
X34198Y-11898D01*
X34198Y-11403D01*
X34253Y-11380D01*
X34379Y-11254D01*
X34448Y-11089D01*
X34448Y-10911D01*
X34380Y-10746D01*
X34254Y-10620D01*
X34089Y-10551D01*
X33911Y-10551D01*
X33746Y-10619D01*
X33620Y-10745D01*
X33551Y-10910D01*
X33551Y-11088D01*
X33619Y-11253D01*
X33745Y-11379D01*
X33801Y-11403D01*
X33801Y-11941D01*
X33162Y-12580D01*
X33183Y-12549D01*
X33183Y-12549D01*
X33198Y-12474D01*
X33198Y-11403D01*
X33253Y-11380D01*
X33379Y-11254D01*
X33448Y-11089D01*
X33448Y-10911D01*
X33380Y-10746D01*
X33254Y-10620D01*
X33089Y-10551D01*
X32911Y-10551D01*
X32746Y-10619D01*
X32620Y-10745D01*
X32551Y-10910D01*
X32551Y-11088D01*
X32619Y-11253D01*
X32745Y-11379D01*
X32801Y-11403D01*
X32801Y-12391D01*
X31828Y-13365D01*
X31785Y-13429D01*
X31770Y-13505D01*
X31770Y-22626D01*
X31666Y-22626D01*
X31510Y-22690D01*
X31391Y-22809D01*
X31326Y-22965D01*
X31326Y-23133D01*
X31390Y-23289D01*
X31509Y-23408D01*
X31665Y-23473D01*
X31833Y-23473D01*
X31989Y-23409D01*
X32108Y-23290D01*
X32173Y-23134D01*
X32173Y-22966D01*
X32150Y-22909D01*
X32151Y-22907D01*
X32151Y-22907D01*
X32166Y-22831D01*
X32166Y-22739D01*
X32182Y-22763D01*
X32343Y-22924D01*
X32326Y-22965D01*
X32326Y-23133D01*
X32390Y-23289D01*
X32509Y-23408D01*
X32665Y-23473D01*
X32833Y-23473D01*
X32989Y-23409D01*
X33108Y-23290D01*
X33173Y-23134D01*
X33173Y-22966D01*
X33109Y-22810D01*
X32990Y-22691D01*
X32834Y-22626D01*
X32666Y-22626D01*
X32624Y-22643D01*
X32521Y-22540D01*
X32521Y-18942D01*
X32620Y-18983D01*
X32749Y-18983D01*
X32833Y-18948D01*
X32833Y-22331D01*
X32848Y-22407D01*
X32891Y-22471D01*
X33343Y-22924D01*
X33326Y-22965D01*
X33326Y-23133D01*
X33390Y-23289D01*
X33509Y-23408D01*
X33665Y-23473D01*
X33833Y-23473D01*
X33989Y-23409D01*
X34108Y-23290D01*
X34173Y-23134D01*
X34173Y-22966D01*
X34109Y-22810D01*
X33990Y-22691D01*
X33834Y-22626D01*
X33666Y-22626D01*
X33624Y-22643D01*
X33229Y-22249D01*
X33229Y-21663D01*
X33321Y-21701D01*
X33428Y-21701D01*
X34383Y-22656D01*
X34349Y-22690D01*
X34326Y-22745D01*
X34326Y-22804D01*
X34326Y-23354D01*
X34349Y-23408D01*
X34390Y-23450D01*
X34445Y-23473D01*
X34504Y-23473D01*
X35054Y-23473D01*
X35108Y-23450D01*
X35150Y-23409D01*
X35173Y-23354D01*
X35173Y-23295D01*
X35173Y-22745D01*
X35150Y-22691D01*
X35109Y-22649D01*
X35054Y-22626D01*
X34995Y-22626D01*
X34906Y-22626D01*
X34890Y-22601D01*
X34890Y-22601D01*
X33709Y-21420D01*
X33709Y-21313D01*
X33660Y-21194D01*
X33569Y-21103D01*
X33450Y-21054D01*
X33321Y-21054D01*
X33229Y-21092D01*
X33229Y-18437D01*
X33622Y-18437D01*
X33670Y-18486D01*
X33789Y-18535D01*
X33918Y-18535D01*
X34036Y-18486D01*
X34128Y-18395D01*
X34177Y-18276D01*
X34177Y-18147D01*
X34128Y-18029D01*
X34037Y-17937D01*
X33918Y-17888D01*
X33789Y-17888D01*
X33671Y-17937D01*
X33579Y-18028D01*
X33574Y-18040D01*
X33229Y-18040D01*
X33229Y-13428D01*
X35140Y-11518D01*
X35140Y-11518D01*
X35140Y-11518D01*
X35183Y-11453D01*
X35183Y-11453D01*
X35184Y-11448D01*
X35329Y-11448D01*
X35383Y-11425D01*
X35425Y-11384D01*
X35448Y-11329D01*
X35448Y-11270D01*
X35448Y-18588D01*
X35434Y-18574D01*
X35379Y-18551D01*
X35320Y-18551D01*
X34720Y-18551D01*
X34666Y-18574D01*
X34624Y-18615D01*
X34601Y-18670D01*
X34601Y-18729D01*
X34601Y-18805D01*
X34546Y-18816D01*
X34481Y-18859D01*
X34151Y-19190D01*
X34108Y-19254D01*
X34092Y-19330D01*
X34092Y-21496D01*
X34108Y-21571D01*
X34151Y-21636D01*
X35195Y-22680D01*
X35195Y-24287D01*
X34839Y-24644D01*
X34514Y-24644D01*
X34604Y-24553D01*
X34654Y-24434D01*
X34654Y-24306D01*
X34605Y-24187D01*
X34514Y-24096D01*
X34395Y-24046D01*
X34266Y-24046D01*
X34147Y-24095D01*
X34111Y-24132D01*
X33490Y-24132D01*
X33581Y-24041D01*
X33630Y-23922D01*
X33630Y-23794D01*
X33581Y-23675D01*
X33490Y-23584D01*
X33371Y-23534D01*
X33243Y-23534D01*
X33124Y-23583D01*
X33048Y-23659D01*
X29845Y-23659D01*
X29655Y-23469D01*
X29665Y-23473D01*
X29833Y-23473D01*
X29989Y-23409D01*
X30108Y-23290D01*
X30173Y-23134D01*
X30173Y-22966D01*
X30109Y-22810D01*
X29990Y-22691D01*
X29948Y-22673D01*
X29948Y-19832D01*
X30551Y-19229D01*
X30551Y-22673D01*
X30510Y-22690D01*
X30391Y-22809D01*
X30326Y-22965D01*
X30326Y-23133D01*
X30390Y-23289D01*
X30509Y-23408D01*
X30665Y-23473D01*
X30833Y-23473D01*
X30989Y-23409D01*
X31108Y-23290D01*
X31173Y-23134D01*
X31173Y-22966D01*
X31109Y-22810D01*
X30990Y-22691D01*
X30948Y-22673D01*
X30948Y-19273D01*
X31557Y-18663D01*
X31557Y-18663D01*
X31557Y-18663D01*
X31600Y-18599D01*
X31600Y-18599D01*
X31612Y-18538D01*
X31615Y-18523D01*
X31615Y-18523D01*
X31615Y-18523D01*
X31615Y-11853D01*
X32021Y-11448D01*
X32088Y-11448D01*
X32253Y-11380D01*
X32379Y-11254D01*
X32448Y-11089D01*
X32448Y-10911D01*
X32380Y-10746D01*
X32254Y-10620D01*
X32089Y-10551D01*
X31911Y-10551D01*
X31746Y-10619D01*
X31620Y-10745D01*
X31551Y-10910D01*
X31551Y-11088D01*
X31619Y-11253D01*
X31637Y-11271D01*
X31277Y-11631D01*
X31234Y-11695D01*
X31218Y-11771D01*
X31218Y-18441D01*
X31198Y-18461D01*
X31198Y-11403D01*
X31253Y-11380D01*
X31379Y-11254D01*
X31448Y-11089D01*
X31448Y-10911D01*
X31380Y-10746D01*
X31254Y-10620D01*
X31089Y-10551D01*
X30911Y-10551D01*
X30746Y-10619D01*
X30620Y-10745D01*
X30551Y-10910D01*
X30551Y-11088D01*
X30619Y-11253D01*
X30745Y-11379D01*
X30801Y-11403D01*
X30801Y-18417D01*
X29609Y-19609D01*
X29566Y-19674D01*
X29551Y-19750D01*
X29551Y-21295D01*
X29526Y-21234D01*
X29435Y-21143D01*
X29316Y-21093D01*
X29187Y-21093D01*
X29069Y-21142D01*
X28977Y-21233D01*
X28928Y-21352D01*
X28928Y-21481D01*
X28977Y-21600D01*
X29053Y-21676D01*
X29053Y-22752D01*
X28991Y-22689D01*
X28834Y-22625D01*
X28665Y-22624D01*
X28509Y-22689D01*
X28426Y-22772D01*
X28426Y-21361D01*
X28502Y-21285D01*
X28551Y-21166D01*
X28551Y-21038D01*
X28502Y-20919D01*
X28411Y-20828D01*
X28292Y-20778D01*
X28164Y-20778D01*
X28045Y-20828D01*
X27954Y-20918D01*
X27904Y-21037D01*
X27904Y-21166D01*
X27954Y-21285D01*
X28029Y-21361D01*
X28029Y-22718D01*
X28020Y-22708D01*
X27992Y-22736D01*
X27962Y-22672D01*
X27801Y-22619D01*
X27633Y-22632D01*
X27537Y-22672D01*
X27507Y-22736D01*
X27750Y-22979D01*
X27755Y-22973D01*
X27826Y-23044D01*
X27820Y-23050D01*
X27826Y-23055D01*
X27755Y-23126D01*
X27750Y-23120D01*
X27679Y-23191D01*
X27679Y-23050D01*
X27436Y-22807D01*
X27372Y-22837D01*
X27319Y-22998D01*
X27332Y-23166D01*
X27372Y-23262D01*
X27436Y-23292D01*
X27679Y-23050D01*
X27679Y-23191D01*
X27507Y-23363D01*
X27537Y-23427D01*
X27698Y-23480D01*
X27866Y-23467D01*
X27962Y-23427D01*
X27992Y-23363D01*
X27992Y-23363D01*
X28020Y-23391D01*
X28029Y-23381D01*
X28029Y-23818D01*
X28045Y-23894D01*
X28088Y-23959D01*
X28599Y-24471D01*
X28599Y-24471D01*
X28664Y-24514D01*
X28664Y-24514D01*
X28740Y-24529D01*
X34046Y-24529D01*
X34056Y-24553D01*
X34147Y-24644D01*
X27992Y-24644D01*
X27173Y-24644D01*
X27173Y-22966D01*
X27109Y-22810D01*
X26990Y-22691D01*
X26834Y-22626D01*
X26666Y-22626D01*
X26510Y-22690D01*
X26391Y-22809D01*
X26326Y-22965D01*
X26326Y-23133D01*
X26390Y-23289D01*
X26509Y-23408D01*
X26665Y-23473D01*
X26833Y-23473D01*
X26989Y-23409D01*
X27108Y-23290D01*
X27173Y-23134D01*
X27173Y-22966D01*
X27173Y-24644D01*
X26173Y-24644D01*
X26173Y-22966D01*
X26109Y-22810D01*
X25990Y-22691D01*
X25834Y-22626D01*
X25666Y-22626D01*
X25510Y-22690D01*
X25391Y-22809D01*
X25326Y-22965D01*
X25326Y-23133D01*
X25390Y-23289D01*
X25509Y-23408D01*
X25665Y-23473D01*
X25833Y-23473D01*
X25989Y-23409D01*
X26108Y-23290D01*
X26173Y-23134D01*
X26173Y-22966D01*
X26173Y-24644D01*
X25948Y-24644D01*
X25809Y-24505D01*
X25745Y-24462D01*
X25669Y-24447D01*
X25140Y-24447D01*
X25065Y-24371D01*
X24946Y-24322D01*
X24817Y-24322D01*
X24698Y-24371D01*
X24622Y-24447D01*
X22286Y-24447D01*
X21300Y-23461D01*
X21300Y-22444D01*
X21949Y-21796D01*
X21920Y-21864D01*
X21920Y-21993D01*
X21969Y-22112D01*
X22060Y-22203D01*
X22179Y-22252D01*
X22269Y-22252D01*
X21877Y-22644D01*
X21834Y-22626D01*
X21666Y-22626D01*
X21510Y-22690D01*
X21391Y-22809D01*
X21326Y-22965D01*
X21326Y-23133D01*
X21390Y-23289D01*
X21509Y-23408D01*
X21665Y-23473D01*
X21833Y-23473D01*
X21989Y-23409D01*
X22108Y-23290D01*
X22173Y-23134D01*
X22173Y-22966D01*
X22157Y-22926D01*
X23310Y-21773D01*
X23409Y-21773D01*
X23349Y-21785D01*
X23284Y-21828D01*
X22609Y-22503D01*
X22566Y-22567D01*
X22551Y-22643D01*
X22551Y-22673D01*
X22510Y-22690D01*
X22391Y-22809D01*
X22326Y-22965D01*
X22326Y-23133D01*
X22390Y-23289D01*
X22509Y-23408D01*
X22665Y-23473D01*
X22833Y-23473D01*
X22989Y-23409D01*
X23108Y-23290D01*
X23173Y-23134D01*
X23173Y-22966D01*
X23109Y-22810D01*
X22990Y-22691D01*
X22985Y-22689D01*
X23507Y-22166D01*
X24016Y-22166D01*
X23993Y-22182D01*
X23609Y-22566D01*
X23566Y-22630D01*
X23558Y-22670D01*
X23510Y-22690D01*
X23391Y-22809D01*
X23326Y-22965D01*
X23326Y-23133D01*
X23390Y-23289D01*
X23509Y-23408D01*
X23665Y-23473D01*
X23833Y-23473D01*
X23989Y-23409D01*
X24108Y-23290D01*
X24173Y-23134D01*
X24173Y-22966D01*
X24109Y-22810D01*
X24018Y-22719D01*
X24216Y-22521D01*
X24603Y-22521D01*
X24566Y-22575D01*
X24551Y-22651D01*
X24551Y-22673D01*
X24510Y-22690D01*
X24391Y-22809D01*
X24326Y-22965D01*
X24326Y-23133D01*
X24390Y-23289D01*
X24509Y-23408D01*
X24665Y-23473D01*
X24833Y-23473D01*
X24989Y-23409D01*
X25108Y-23290D01*
X25173Y-23134D01*
X25173Y-22966D01*
X25109Y-22810D01*
X24990Y-22691D01*
X30140Y-17541D01*
X30140Y-17541D01*
X30140Y-17541D01*
X30183Y-17477D01*
X30183Y-17477D01*
X30195Y-17416D01*
X30198Y-17401D01*
X30198Y-17401D01*
X30198Y-17401D01*
X30198Y-11403D01*
X30253Y-11380D01*
X30379Y-11254D01*
X30448Y-11089D01*
X30448Y-10911D01*
X30380Y-10746D01*
X30254Y-10620D01*
X30089Y-10551D01*
X29911Y-10551D01*
X29746Y-10619D01*
X29620Y-10745D01*
X29551Y-10910D01*
X29551Y-11088D01*
X29619Y-11253D01*
X29745Y-11379D01*
X29801Y-11403D01*
X29801Y-17319D01*
X29198Y-17922D01*
X29198Y-11403D01*
X29253Y-11380D01*
X29379Y-11254D01*
X29448Y-11089D01*
X29448Y-10911D01*
X29380Y-10746D01*
X29254Y-10620D01*
X29089Y-10551D01*
X28911Y-10551D01*
X28746Y-10619D01*
X28620Y-10745D01*
X28551Y-10910D01*
X28551Y-11088D01*
X28619Y-11253D01*
X28745Y-11379D01*
X28801Y-11403D01*
X28801Y-17912D01*
X28191Y-18523D01*
X28198Y-18487D01*
X28198Y-11403D01*
X28253Y-11380D01*
X28379Y-11254D01*
X28448Y-11089D01*
X28448Y-10911D01*
X28380Y-10746D01*
X28254Y-10620D01*
X28089Y-10551D01*
X27911Y-10551D01*
X27746Y-10619D01*
X27620Y-10745D01*
X27551Y-10910D01*
X27551Y-11088D01*
X27619Y-11253D01*
X27745Y-11379D01*
X27801Y-11403D01*
X27801Y-18405D01*
X26598Y-19608D01*
X26598Y-11448D01*
X26729Y-11448D01*
X26783Y-11425D01*
X26825Y-11384D01*
X26848Y-11329D01*
X26848Y-11270D01*
X26848Y-10670D01*
X26825Y-10616D01*
X26784Y-10574D01*
X26729Y-10551D01*
X26670Y-10551D01*
X26070Y-10551D01*
X26016Y-10574D01*
X25974Y-10615D01*
X25951Y-10670D01*
X25951Y-10729D01*
X25951Y-11329D01*
X25974Y-11383D01*
X26015Y-11425D01*
X26070Y-11448D01*
X26129Y-11448D01*
X26201Y-11448D01*
X26201Y-19581D01*
X24407Y-21376D01*
X24109Y-21376D01*
X25258Y-20227D01*
X25258Y-20227D01*
X25258Y-20227D01*
X25301Y-20162D01*
X25301Y-20162D01*
X25313Y-20101D01*
X25316Y-20086D01*
X25316Y-20086D01*
X25316Y-20086D01*
X25316Y-11775D01*
X25540Y-11551D01*
X25540Y-11551D01*
X25540Y-11551D01*
X25583Y-11486D01*
X25583Y-11486D01*
X25595Y-11426D01*
X25598Y-11411D01*
X25598Y-11411D01*
X25598Y-11411D01*
X25598Y-11403D01*
X25653Y-11380D01*
X25779Y-11254D01*
X25848Y-11089D01*
X25848Y-10911D01*
X25780Y-10746D01*
X25654Y-10620D01*
X25489Y-10551D01*
X25311Y-10551D01*
X25146Y-10619D01*
X25020Y-10745D01*
X24951Y-10910D01*
X24951Y-11088D01*
X25019Y-11253D01*
X25145Y-11379D01*
X25149Y-11381D01*
X24977Y-11552D01*
X24962Y-11575D01*
X24962Y-11363D01*
X24947Y-11287D01*
X24947Y-11287D01*
X24904Y-11223D01*
X24864Y-11184D01*
X24825Y-11144D01*
X24848Y-11089D01*
X24848Y-10911D01*
X24780Y-10746D01*
X24654Y-10620D01*
X24489Y-10551D01*
X24311Y-10551D01*
X24146Y-10619D01*
X24020Y-10745D01*
X23951Y-10910D01*
X23951Y-11088D01*
X24019Y-11253D01*
X24145Y-11379D01*
X24310Y-11448D01*
X24488Y-11448D01*
X24544Y-11425D01*
X24565Y-11445D01*
X24565Y-19832D01*
X24526Y-19738D01*
X24435Y-19647D01*
X24316Y-19597D01*
X24209Y-19597D01*
X24178Y-19567D01*
X24178Y-12320D01*
X24163Y-12244D01*
X24163Y-12244D01*
X24120Y-12179D01*
X23598Y-11657D01*
X23598Y-11403D01*
X23653Y-11380D01*
X23779Y-11254D01*
X23848Y-11089D01*
X23848Y-10911D01*
X23780Y-10746D01*
X23654Y-10620D01*
X23489Y-10551D01*
X23311Y-10551D01*
X23146Y-10619D01*
X23020Y-10745D01*
X22951Y-10910D01*
X22951Y-11088D01*
X23019Y-11253D01*
X23145Y-11379D01*
X23201Y-11403D01*
X23201Y-11740D01*
X23216Y-11815D01*
X23259Y-11880D01*
X23781Y-12402D01*
X23781Y-12595D01*
X22598Y-11412D01*
X22598Y-11403D01*
X22653Y-11380D01*
X22779Y-11254D01*
X22848Y-11089D01*
X22848Y-10911D01*
X22780Y-10746D01*
X22654Y-10620D01*
X22489Y-10551D01*
X22311Y-10551D01*
X22146Y-10619D01*
X22020Y-10745D01*
X21951Y-10910D01*
X21951Y-11088D01*
X22019Y-11253D01*
X22145Y-11379D01*
X22201Y-11403D01*
X22201Y-11494D01*
X22208Y-11527D01*
X21825Y-11144D01*
X21848Y-11089D01*
X21848Y-10911D01*
X21780Y-10746D01*
X21654Y-10620D01*
X21489Y-10551D01*
X21311Y-10551D01*
X21146Y-10619D01*
X21020Y-10745D01*
X20951Y-10910D01*
X20951Y-11088D01*
X21019Y-11253D01*
X21145Y-11379D01*
X21310Y-11448D01*
X21488Y-11448D01*
X21544Y-11425D01*
X21613Y-11494D01*
X20855Y-11494D01*
X20855Y-11057D01*
X20842Y-10879D01*
X20798Y-10772D01*
X20731Y-10739D01*
X20660Y-10810D01*
X20660Y-10668D01*
X20627Y-10601D01*
X20457Y-10544D01*
X20279Y-10557D01*
X20172Y-10601D01*
X20139Y-10668D01*
X20400Y-10929D01*
X20660Y-10668D01*
X20660Y-10810D01*
X20470Y-11000D01*
X20731Y-11260D01*
X20798Y-11227D01*
X20855Y-11057D01*
X20855Y-11494D01*
X20660Y-11494D01*
X20660Y-11331D01*
X20400Y-11070D01*
X20329Y-11141D01*
X20329Y-11000D01*
X20068Y-10739D01*
X20001Y-10772D01*
X19944Y-10942D01*
X19957Y-11120D01*
X20001Y-11227D01*
X20068Y-11260D01*
X20329Y-11000D01*
X20329Y-11141D01*
X20139Y-11331D01*
X20172Y-11398D01*
X20342Y-11455D01*
X20520Y-11442D01*
X20627Y-11398D01*
X20660Y-11331D01*
X20660Y-11494D01*
X20101Y-11494D01*
X20025Y-11418D01*
X19907Y-11369D01*
X19778Y-11369D01*
X19659Y-11418D01*
X19568Y-11509D01*
X19519Y-11628D01*
X19519Y-11718D01*
X19204Y-11404D01*
X19310Y-11448D01*
X19488Y-11448D01*
X19653Y-11380D01*
X19779Y-11254D01*
X19848Y-11089D01*
X19848Y-10911D01*
X19780Y-10746D01*
X19654Y-10620D01*
X19489Y-10551D01*
X19311Y-10551D01*
X19146Y-10619D01*
X19020Y-10745D01*
X18951Y-10910D01*
X18951Y-11088D01*
X18995Y-11195D01*
X18848Y-11048D01*
X18848Y-10911D01*
X18780Y-10746D01*
X18654Y-10620D01*
X18489Y-10551D01*
X18311Y-10551D01*
X18146Y-10619D01*
X18020Y-10745D01*
X17951Y-10910D01*
X17951Y-11088D01*
X18019Y-11253D01*
X18024Y-11258D01*
X17956Y-11258D01*
X17830Y-11132D01*
X17848Y-11089D01*
X17848Y-10911D01*
X17780Y-10746D01*
X17654Y-10620D01*
X17489Y-10551D01*
X17311Y-10551D01*
X17146Y-10619D01*
X17020Y-10745D01*
X16951Y-10910D01*
X16951Y-11088D01*
X17019Y-11253D01*
X17145Y-11379D01*
X17310Y-11448D01*
X17488Y-11448D01*
X17557Y-11420D01*
X17670Y-11533D01*
X13228Y-11533D01*
X13203Y-11538D01*
X13174Y-11527D01*
X13046Y-11526D01*
X12927Y-11576D01*
X12836Y-11666D01*
X12786Y-11785D01*
X12786Y-11914D01*
X12835Y-12033D01*
X12926Y-12124D01*
X13045Y-12173D01*
X13174Y-12173D01*
X13293Y-12124D01*
X13384Y-12033D01*
X13427Y-11930D01*
X15935Y-11930D01*
X15820Y-12045D01*
X15751Y-12210D01*
X15751Y-12388D01*
X15819Y-12553D01*
X15945Y-12679D01*
X16110Y-12748D01*
X16288Y-12748D01*
X16453Y-12680D01*
X16579Y-12554D01*
X16648Y-12389D01*
X16648Y-12211D01*
X16580Y-12046D01*
X16464Y-11930D01*
X16935Y-11930D01*
X16820Y-12045D01*
X16751Y-12210D01*
X16751Y-12388D01*
X16819Y-12553D01*
X16945Y-12679D01*
X17110Y-12748D01*
X17288Y-12748D01*
X17453Y-12680D01*
X17579Y-12554D01*
X17648Y-12389D01*
X17648Y-12211D01*
X17580Y-12046D01*
X17464Y-11930D01*
X17768Y-11930D01*
X17751Y-11970D01*
X17751Y-12029D01*
X17751Y-12467D01*
X17579Y-12639D01*
X17536Y-12704D01*
X17521Y-12780D01*
X17521Y-12987D01*
X17454Y-12920D01*
X17289Y-12851D01*
X17111Y-12851D01*
X16946Y-12919D01*
X16820Y-13045D01*
X16751Y-13210D01*
X16751Y-13388D01*
X16819Y-13553D01*
X16945Y-13679D01*
X17110Y-13748D01*
X17288Y-13748D01*
X17453Y-13680D01*
X17521Y-13612D01*
X17521Y-13640D01*
X17536Y-13715D01*
X17579Y-13780D01*
X17739Y-13940D01*
X17804Y-13983D01*
X17804Y-13983D01*
X17869Y-13996D01*
X17820Y-14045D01*
X17751Y-14210D01*
X17751Y-14388D01*
X17819Y-14553D01*
X17945Y-14679D01*
X18110Y-14748D01*
X18288Y-14748D01*
X18453Y-14680D01*
X18579Y-14554D01*
X18648Y-14389D01*
X18648Y-14211D01*
X18580Y-14046D01*
X18532Y-13998D01*
X18607Y-13998D01*
X18681Y-14072D01*
X18681Y-14451D01*
X18605Y-14526D01*
X18556Y-14645D01*
X18556Y-14774D01*
X18605Y-14892D01*
X18696Y-14984D01*
X18815Y-15033D01*
X18944Y-15033D01*
X19062Y-14984D01*
X19154Y-14893D01*
X19203Y-14774D01*
X19203Y-14645D01*
X19154Y-14527D01*
X19078Y-14450D01*
X19078Y-14361D01*
X19629Y-14912D01*
X19587Y-14941D01*
X19587Y-14941D01*
X19373Y-15155D01*
X19319Y-15236D01*
X19300Y-15331D01*
X19300Y-18509D01*
X19268Y-18540D01*
X19219Y-18660D01*
X19218Y-18789D01*
X19268Y-18908D01*
X19300Y-18940D01*
X19300Y-19800D01*
X19264Y-19835D01*
X19215Y-19955D01*
X19214Y-20084D01*
X19264Y-20203D01*
X19300Y-20239D01*
X19300Y-22314D01*
X19109Y-22505D01*
X18878Y-22505D01*
X18878Y-20615D01*
X18813Y-20457D01*
X18693Y-20337D01*
X18648Y-20318D01*
X18648Y-15570D01*
X18648Y-14970D01*
X18625Y-14916D01*
X18584Y-14874D01*
X18529Y-14851D01*
X18470Y-14851D01*
X17870Y-14851D01*
X17816Y-14874D01*
X17774Y-14915D01*
X17751Y-14970D01*
X17751Y-15029D01*
X17751Y-15629D01*
X17774Y-15683D01*
X17815Y-15725D01*
X17870Y-15748D01*
X17929Y-15748D01*
X18529Y-15748D01*
X18583Y-15725D01*
X18625Y-15684D01*
X18648Y-15629D01*
X18648Y-15570D01*
X18648Y-20318D01*
X18629Y-20310D01*
X18629Y-18009D01*
X18629Y-17379D01*
X18629Y-17350D01*
X18629Y-17320D01*
X18629Y-16690D01*
X18607Y-16635D01*
X18565Y-16592D01*
X18509Y-16570D01*
X18450Y-16570D01*
X18252Y-16570D01*
X18214Y-16607D01*
X18214Y-16985D01*
X18592Y-16985D01*
X18629Y-16947D01*
X18629Y-16690D01*
X18629Y-17320D01*
X18629Y-17320D01*
X18629Y-17122D01*
X18592Y-17085D01*
X18214Y-17085D01*
X18214Y-17237D01*
X18214Y-17462D01*
X18214Y-17614D01*
X18592Y-17614D01*
X18629Y-17577D01*
X18629Y-17379D01*
X18629Y-17379D01*
X18629Y-18009D01*
X18629Y-17752D01*
X18592Y-17714D01*
X18214Y-17714D01*
X18214Y-18092D01*
X18252Y-18129D01*
X18450Y-18129D01*
X18509Y-18129D01*
X18565Y-18107D01*
X18607Y-18064D01*
X18629Y-18009D01*
X18629Y-20310D01*
X18535Y-20271D01*
X18365Y-20271D01*
X18207Y-20336D01*
X18114Y-20429D01*
X18114Y-18092D01*
X18114Y-17714D01*
X18114Y-17614D01*
X18114Y-17462D01*
X18114Y-17237D01*
X18114Y-17085D01*
X18114Y-16985D01*
X18114Y-16607D01*
X18077Y-16570D01*
X17879Y-16570D01*
X17850Y-16570D01*
X17820Y-16570D01*
X17648Y-16570D01*
X17648Y-15211D01*
X17648Y-14211D01*
X17580Y-14046D01*
X17454Y-13920D01*
X17289Y-13851D01*
X17111Y-13851D01*
X16946Y-13919D01*
X16820Y-14045D01*
X16751Y-14210D01*
X16751Y-14388D01*
X16819Y-14553D01*
X16945Y-14679D01*
X17110Y-14748D01*
X17288Y-14748D01*
X17453Y-14680D01*
X17579Y-14554D01*
X17648Y-14389D01*
X17648Y-14211D01*
X17648Y-15211D01*
X17580Y-15046D01*
X17454Y-14920D01*
X17289Y-14851D01*
X17111Y-14851D01*
X16946Y-14919D01*
X16820Y-15045D01*
X16751Y-15210D01*
X16751Y-15388D01*
X16819Y-15553D01*
X16945Y-15679D01*
X17110Y-15748D01*
X17288Y-15748D01*
X17453Y-15680D01*
X17579Y-15554D01*
X17648Y-15389D01*
X17648Y-15211D01*
X17648Y-16570D01*
X17622Y-16570D01*
X17585Y-16607D01*
X17585Y-16985D01*
X17737Y-16985D01*
X17962Y-16985D01*
X18114Y-16985D01*
X18114Y-17085D01*
X17962Y-17085D01*
X17737Y-17085D01*
X17585Y-17085D01*
X17585Y-17237D01*
X17585Y-17462D01*
X17585Y-17614D01*
X17737Y-17614D01*
X17962Y-17614D01*
X18114Y-17614D01*
X18114Y-17714D01*
X17962Y-17714D01*
X17737Y-17714D01*
X17585Y-17714D01*
X17585Y-18092D01*
X17622Y-18129D01*
X17820Y-18129D01*
X17850Y-18129D01*
X17879Y-18129D01*
X18077Y-18129D01*
X18114Y-18092D01*
X18114Y-20429D01*
X18087Y-20456D01*
X18021Y-20614D01*
X18021Y-20784D01*
X18086Y-20942D01*
X18206Y-21062D01*
X18364Y-21128D01*
X18534Y-21128D01*
X18692Y-21063D01*
X18812Y-20943D01*
X18878Y-20785D01*
X18878Y-20615D01*
X18878Y-22505D01*
X18528Y-22505D01*
X18168Y-22146D01*
X18087Y-22091D01*
X17992Y-22072D01*
X17485Y-22072D01*
X17485Y-18092D01*
X17485Y-17714D01*
X17485Y-17614D01*
X17485Y-17462D01*
X17485Y-17237D01*
X17485Y-17085D01*
X17485Y-16985D01*
X17485Y-16607D01*
X17447Y-16570D01*
X17249Y-16570D01*
X17190Y-16570D01*
X17134Y-16592D01*
X17092Y-16635D01*
X17070Y-16690D01*
X17070Y-16947D01*
X17107Y-16985D01*
X17485Y-16985D01*
X17485Y-17085D01*
X17107Y-17085D01*
X17070Y-17122D01*
X17070Y-17320D01*
X17070Y-17320D01*
X17070Y-17350D01*
X17070Y-17379D01*
X17070Y-17379D01*
X17070Y-17577D01*
X17107Y-17614D01*
X17485Y-17614D01*
X17485Y-17714D01*
X17107Y-17714D01*
X17070Y-17752D01*
X17070Y-18009D01*
X17092Y-18064D01*
X17134Y-18107D01*
X17190Y-18129D01*
X17249Y-18129D01*
X17447Y-18129D01*
X17485Y-18092D01*
X17485Y-22072D01*
X16878Y-22072D01*
X16878Y-20615D01*
X16813Y-20457D01*
X16693Y-20337D01*
X16655Y-20321D01*
X16655Y-13357D01*
X16642Y-13179D01*
X16598Y-13072D01*
X16531Y-13039D01*
X16460Y-13110D01*
X16460Y-12968D01*
X16427Y-12901D01*
X16257Y-12844D01*
X16079Y-12857D01*
X15972Y-12901D01*
X15939Y-12968D01*
X16200Y-13229D01*
X16460Y-12968D01*
X16460Y-13110D01*
X16270Y-13300D01*
X16531Y-13560D01*
X16598Y-13527D01*
X16655Y-13357D01*
X16655Y-20321D01*
X16535Y-20271D01*
X16460Y-20271D01*
X16460Y-13631D01*
X16200Y-13370D01*
X16129Y-13441D01*
X16129Y-13300D01*
X15868Y-13039D01*
X15801Y-13072D01*
X15744Y-13242D01*
X15757Y-13420D01*
X15801Y-13527D01*
X15868Y-13560D01*
X16129Y-13300D01*
X16129Y-13441D01*
X15945Y-13624D01*
X15925Y-13624D01*
X15806Y-13674D01*
X15780Y-13700D01*
X14318Y-13700D01*
X14317Y-13700D01*
X14298Y-13703D01*
X14222Y-13719D01*
X14141Y-13773D01*
X14141Y-13773D01*
X13683Y-14231D01*
X13629Y-14312D01*
X13610Y-14408D01*
X13610Y-16750D01*
X13629Y-16845D01*
X13683Y-16926D01*
X14023Y-17266D01*
X14023Y-17266D01*
X14104Y-17320D01*
X14104Y-17320D01*
X14180Y-17336D01*
X14199Y-17340D01*
X14199Y-17339D01*
X14200Y-17340D01*
X14332Y-17340D01*
X15670Y-18678D01*
X15670Y-18714D01*
X15719Y-18833D01*
X15811Y-18925D01*
X15930Y-18974D01*
X16060Y-18975D01*
X16179Y-18925D01*
X16271Y-18834D01*
X16320Y-18714D01*
X16320Y-18585D01*
X16271Y-18466D01*
X16180Y-18374D01*
X16060Y-18325D01*
X16024Y-18325D01*
X14612Y-16913D01*
X14531Y-16859D01*
X14435Y-16840D01*
X14303Y-16840D01*
X14286Y-16823D01*
X14364Y-16823D01*
X14482Y-16774D01*
X14561Y-16696D01*
X15143Y-16691D01*
X15146Y-16690D01*
X15770Y-16685D01*
X15829Y-16709D01*
X15958Y-16709D01*
X16076Y-16660D01*
X16168Y-16569D01*
X16217Y-16450D01*
X16217Y-16321D01*
X16168Y-16203D01*
X16077Y-16111D01*
X15958Y-16062D01*
X15829Y-16062D01*
X15711Y-16111D01*
X15619Y-16202D01*
X15583Y-16289D01*
X15236Y-16292D01*
X15236Y-16168D01*
X15302Y-16168D01*
X15356Y-16145D01*
X15398Y-16104D01*
X15421Y-16049D01*
X15421Y-15990D01*
X15421Y-15740D01*
X15408Y-15710D01*
X15423Y-15675D01*
X15423Y-15366D01*
X15400Y-15311D01*
X15358Y-15268D01*
X15302Y-15246D01*
X15243Y-15245D01*
X15135Y-15245D01*
X15098Y-15283D01*
X15098Y-15470D01*
X15385Y-15470D01*
X15423Y-15433D01*
X15423Y-15366D01*
X15423Y-15675D01*
X15423Y-15608D01*
X15385Y-15570D01*
X15098Y-15570D01*
X15098Y-15578D01*
X14998Y-15578D01*
X14998Y-15570D01*
X14998Y-15470D01*
X14998Y-15283D01*
X14960Y-15245D01*
X14852Y-15245D01*
X14793Y-15246D01*
X14737Y-15268D01*
X14695Y-15311D01*
X14672Y-15366D01*
X14673Y-15433D01*
X14710Y-15470D01*
X14998Y-15470D01*
X14998Y-15570D01*
X14710Y-15570D01*
X14673Y-15608D01*
X14672Y-15675D01*
X14687Y-15710D01*
X14674Y-15740D01*
X14674Y-15799D01*
X14674Y-16049D01*
X14697Y-16103D01*
X14738Y-16145D01*
X14793Y-16168D01*
X14852Y-16168D01*
X14859Y-16168D01*
X14859Y-16296D01*
X14556Y-16299D01*
X14483Y-16225D01*
X14364Y-16176D01*
X14235Y-16176D01*
X14117Y-16225D01*
X14110Y-16232D01*
X14110Y-14511D01*
X14421Y-14200D01*
X15780Y-14200D01*
X15805Y-14225D01*
X15925Y-14274D01*
X16054Y-14275D01*
X16173Y-14225D01*
X16265Y-14134D01*
X16314Y-14014D01*
X16315Y-13885D01*
X16265Y-13766D01*
X16247Y-13747D01*
X16320Y-13742D01*
X16427Y-13698D01*
X16460Y-13631D01*
X16460Y-20271D01*
X16365Y-20271D01*
X16207Y-20336D01*
X16087Y-20456D01*
X16021Y-20614D01*
X16021Y-20784D01*
X16086Y-20942D01*
X16206Y-21062D01*
X16364Y-21128D01*
X16534Y-21128D01*
X16692Y-21063D01*
X16812Y-20943D01*
X16878Y-20785D01*
X16878Y-20615D01*
X16878Y-22072D01*
X15694Y-22072D01*
X15334Y-21712D01*
X15253Y-21658D01*
X15157Y-21639D01*
X14400Y-21639D01*
X14400Y-19844D01*
X14426Y-19826D01*
X14826Y-19426D01*
X14826Y-19426D01*
X14826Y-19426D01*
X14880Y-19345D01*
X14880Y-19345D01*
X14896Y-19269D01*
X14900Y-19250D01*
X14899Y-19250D01*
X14900Y-19250D01*
X14900Y-18859D01*
X14925Y-18834D01*
X14974Y-18714D01*
X14975Y-18585D01*
X14925Y-18466D01*
X14834Y-18374D01*
X14714Y-18325D01*
X14585Y-18324D01*
X14466Y-18374D01*
X14374Y-18465D01*
X14325Y-18585D01*
X14324Y-18714D01*
X14374Y-18833D01*
X14400Y-18859D01*
X14400Y-19146D01*
X14354Y-19192D01*
X14295Y-19076D01*
X14173Y-18954D01*
X14020Y-18876D01*
X13853Y-18850D01*
X12275Y-18850D01*
X12275Y-16801D01*
X12275Y-15069D01*
X12226Y-14949D01*
X12134Y-14858D01*
X12015Y-14808D01*
X11885Y-14808D01*
X11765Y-14857D01*
X11674Y-14949D01*
X11624Y-15068D01*
X11624Y-15198D01*
X11673Y-15318D01*
X11765Y-15409D01*
X11884Y-15459D01*
X12014Y-15459D01*
X12134Y-15410D01*
X12225Y-15318D01*
X12275Y-15199D01*
X12275Y-15069D01*
X12275Y-16801D01*
X12226Y-16681D01*
X12134Y-16590D01*
X12015Y-16540D01*
X11885Y-16540D01*
X11765Y-16589D01*
X11674Y-16681D01*
X11624Y-16800D01*
X11624Y-16930D01*
X11673Y-17050D01*
X11765Y-17141D01*
X11884Y-17191D01*
X12014Y-17191D01*
X12134Y-17142D01*
X12225Y-17050D01*
X12275Y-16931D01*
X12275Y-16801D01*
X12275Y-18850D01*
X10198Y-18850D01*
X10198Y-10419D01*
X10217Y-10324D01*
X10260Y-10259D01*
X10324Y-10217D01*
X10420Y-10198D01*
X35317Y-10198D01*
X35801Y-10682D01*
X35801Y-15100D01*
X35816Y-15175D01*
X35859Y-15240D01*
X36801Y-16182D01*
X36801Y-28917D01*
X36801Y-28917D01*
G37*
G54D25*
X36801Y-28917D02*
X36505Y-29214D01*
X36505Y-21057D01*
X36500Y-20985D01*
X36500Y-18910D01*
X36431Y-18745D01*
X36305Y-18618D01*
X36139Y-18550D01*
X35960Y-18549D01*
X35795Y-18618D01*
X35668Y-18744D01*
X35600Y-18910D01*
X35599Y-19089D01*
X35668Y-19254D01*
X35794Y-19381D01*
X35960Y-19449D01*
X36139Y-19450D01*
X36304Y-19381D01*
X36431Y-19255D01*
X36499Y-19089D01*
X36500Y-18910D01*
X36500Y-20985D01*
X36492Y-20879D01*
X36448Y-20772D01*
X36381Y-20739D01*
X36310Y-20810D01*
X36120Y-21000D01*
X36381Y-21260D01*
X36448Y-21227D01*
X36505Y-21057D01*
X36505Y-29214D01*
X36310Y-29408D01*
X35859Y-29859D01*
X35816Y-29924D01*
X35801Y-30000D01*
X35801Y-30579D01*
X35782Y-30675D01*
X35740Y-30739D01*
X35675Y-30782D01*
X35580Y-30801D01*
X35448Y-30801D01*
X35448Y-29911D01*
X35380Y-29746D01*
X35254Y-29620D01*
X35089Y-29551D01*
X34911Y-29551D01*
X34746Y-29619D01*
X34620Y-29745D01*
X34551Y-29910D01*
X34551Y-30088D01*
X34619Y-30253D01*
X34745Y-30379D01*
X34910Y-30448D01*
X35088Y-30448D01*
X35253Y-30380D01*
X35379Y-30254D01*
X35448Y-30089D01*
X35448Y-29911D01*
X35448Y-30801D01*
X34448Y-30801D01*
X34448Y-29911D01*
X34380Y-29746D01*
X34254Y-29620D01*
X34089Y-29551D01*
X33911Y-29551D01*
X33746Y-29619D01*
X33620Y-29745D01*
X33551Y-29910D01*
X33551Y-30088D01*
X33619Y-30253D01*
X33745Y-30379D01*
X33910Y-30448D01*
X34088Y-30448D01*
X34253Y-30380D01*
X34379Y-30254D01*
X34448Y-30089D01*
X34448Y-29911D01*
X34448Y-30801D01*
X33448Y-30801D01*
X33448Y-29911D01*
X33380Y-29746D01*
X33254Y-29620D01*
X33089Y-29551D01*
X32911Y-29551D01*
X32746Y-29619D01*
X32620Y-29745D01*
X32551Y-29910D01*
X32551Y-30088D01*
X32619Y-30253D01*
X32745Y-30379D01*
X32910Y-30448D01*
X33088Y-30448D01*
X33253Y-30380D01*
X33379Y-30254D01*
X33448Y-30089D01*
X33448Y-29911D01*
X33448Y-30801D01*
X32448Y-30801D01*
X32448Y-29911D01*
X32380Y-29746D01*
X32254Y-29620D01*
X32089Y-29551D01*
X31911Y-29551D01*
X31746Y-29619D01*
X31620Y-29745D01*
X31551Y-29910D01*
X31551Y-30088D01*
X31619Y-30253D01*
X31745Y-30379D01*
X31910Y-30448D01*
X32088Y-30448D01*
X32253Y-30380D01*
X32379Y-30254D01*
X32448Y-30089D01*
X32448Y-29911D01*
X32448Y-30801D01*
X31448Y-30801D01*
X31448Y-29911D01*
X31380Y-29746D01*
X31254Y-29620D01*
X31089Y-29551D01*
X30911Y-29551D01*
X30746Y-29619D01*
X30620Y-29745D01*
X30551Y-29910D01*
X30551Y-30088D01*
X30619Y-30253D01*
X30745Y-30379D01*
X30910Y-30448D01*
X31088Y-30448D01*
X31253Y-30380D01*
X31379Y-30254D01*
X31448Y-30089D01*
X31448Y-29911D01*
X31448Y-30801D01*
X30448Y-30801D01*
X30448Y-30270D01*
X30448Y-29670D01*
X30425Y-29616D01*
X30384Y-29574D01*
X30329Y-29551D01*
X30270Y-29551D01*
X29670Y-29551D01*
X29616Y-29574D01*
X29574Y-29615D01*
X29551Y-29670D01*
X29551Y-29729D01*
X29551Y-30329D01*
X29574Y-30383D01*
X29615Y-30425D01*
X29670Y-30448D01*
X29729Y-30448D01*
X30329Y-30448D01*
X30383Y-30425D01*
X30425Y-30384D01*
X30448Y-30329D01*
X30448Y-30270D01*
X30448Y-30801D01*
X27455Y-30801D01*
X27455Y-30057D01*
X27442Y-29879D01*
X27398Y-29772D01*
X27331Y-29739D01*
X27260Y-29810D01*
X27260Y-29668D01*
X27227Y-29601D01*
X27057Y-29544D01*
X26879Y-29557D01*
X26772Y-29601D01*
X26739Y-29668D01*
X27000Y-29929D01*
X27260Y-29668D01*
X27260Y-29810D01*
X27070Y-30000D01*
X27331Y-30260D01*
X27398Y-30227D01*
X27455Y-30057D01*
X27455Y-30801D01*
X27260Y-30801D01*
X27260Y-30331D01*
X27000Y-30070D01*
X26929Y-30141D01*
X26929Y-30000D01*
X26668Y-29739D01*
X26601Y-29772D01*
X26544Y-29942D01*
X26557Y-30120D01*
X26601Y-30227D01*
X26668Y-30260D01*
X26929Y-30000D01*
X26929Y-30141D01*
X26739Y-30331D01*
X26772Y-30398D01*
X26942Y-30455D01*
X27120Y-30442D01*
X27227Y-30398D01*
X27260Y-30331D01*
X27260Y-30801D01*
X26455Y-30801D01*
X26455Y-30057D01*
X26442Y-29879D01*
X26398Y-29772D01*
X26331Y-29739D01*
X26260Y-29810D01*
X26260Y-29668D01*
X26227Y-29601D01*
X26057Y-29544D01*
X25879Y-29557D01*
X25772Y-29601D01*
X25739Y-29668D01*
X26000Y-29929D01*
X26260Y-29668D01*
X26260Y-29810D01*
X26070Y-30000D01*
X26331Y-30260D01*
X26398Y-30227D01*
X26455Y-30057D01*
X26455Y-30801D01*
X26260Y-30801D01*
X26260Y-30331D01*
X26000Y-30070D01*
X25929Y-30141D01*
X25929Y-30000D01*
X25668Y-29739D01*
X25601Y-29772D01*
X25544Y-29942D01*
X25557Y-30120D01*
X25601Y-30227D01*
X25668Y-30260D01*
X25929Y-30000D01*
X25929Y-30141D01*
X25739Y-30331D01*
X25772Y-30398D01*
X25942Y-30455D01*
X26120Y-30442D01*
X26227Y-30398D01*
X26260Y-30331D01*
X26260Y-30801D01*
X24450Y-30801D01*
X24450Y-29910D01*
X24381Y-29745D01*
X24255Y-29618D01*
X24089Y-29550D01*
X23910Y-29549D01*
X23745Y-29618D01*
X23618Y-29744D01*
X23550Y-29910D01*
X23549Y-30089D01*
X23618Y-30254D01*
X23744Y-30381D01*
X23910Y-30449D01*
X24089Y-30450D01*
X24254Y-30381D01*
X24381Y-30255D01*
X24449Y-30089D01*
X24450Y-29910D01*
X24450Y-30801D01*
X23448Y-30801D01*
X23448Y-30270D01*
X23448Y-29670D01*
X23425Y-29616D01*
X23384Y-29574D01*
X23329Y-29551D01*
X23270Y-29551D01*
X22670Y-29551D01*
X22616Y-29574D01*
X22574Y-29615D01*
X22551Y-29670D01*
X22551Y-29729D01*
X22551Y-30329D01*
X22574Y-30383D01*
X22615Y-30425D01*
X22670Y-30448D01*
X22729Y-30448D01*
X23329Y-30448D01*
X23383Y-30425D01*
X23425Y-30384D01*
X23448Y-30329D01*
X23448Y-30270D01*
X23448Y-30801D01*
X16040Y-30801D01*
X16040Y-29254D01*
X16040Y-27286D01*
X16018Y-27231D01*
X15976Y-27189D01*
X15921Y-27167D01*
X15862Y-27167D01*
X14878Y-27167D01*
X14823Y-27189D01*
X14782Y-27231D01*
X14759Y-27286D01*
X14759Y-27345D01*
X14759Y-29313D01*
X14781Y-29368D01*
X14823Y-29410D01*
X14878Y-29432D01*
X14937Y-29432D01*
X15921Y-29432D01*
X15976Y-29410D01*
X16017Y-29368D01*
X16040Y-29313D01*
X16040Y-29254D01*
X16040Y-30801D01*
X14736Y-30801D01*
X14842Y-30718D01*
X14965Y-30499D01*
X14977Y-30449D01*
X14977Y-30150D01*
X14965Y-30100D01*
X14842Y-29881D01*
X14644Y-29725D01*
X14402Y-29657D01*
X13950Y-29657D01*
X13950Y-30250D01*
X14955Y-30250D01*
X14977Y-30150D01*
X14977Y-30449D01*
X14955Y-30350D01*
X13950Y-30350D01*
X13950Y-30357D01*
X13850Y-30357D01*
X13850Y-30350D01*
X13850Y-30250D01*
X13850Y-29657D01*
X13642Y-29657D01*
X13642Y-28802D01*
X13642Y-28350D01*
X13642Y-28250D01*
X13642Y-27797D01*
X13574Y-27555D01*
X13418Y-27357D01*
X13199Y-27234D01*
X13149Y-27222D01*
X13050Y-27244D01*
X13050Y-28250D01*
X13642Y-28250D01*
X13642Y-28350D01*
X13050Y-28350D01*
X13050Y-29355D01*
X13149Y-29377D01*
X13199Y-29365D01*
X13418Y-29242D01*
X13574Y-29044D01*
X13642Y-28802D01*
X13642Y-29657D01*
X13397Y-29657D01*
X13155Y-29725D01*
X12957Y-29881D01*
X12950Y-29895D01*
X12950Y-29355D01*
X12950Y-28350D01*
X12950Y-28250D01*
X12950Y-27244D01*
X12850Y-27222D01*
X12800Y-27234D01*
X12581Y-27357D01*
X12425Y-27555D01*
X12357Y-27797D01*
X12357Y-28250D01*
X12950Y-28250D01*
X12950Y-28350D01*
X12357Y-28350D01*
X12357Y-28802D01*
X12425Y-29044D01*
X12581Y-29242D01*
X12800Y-29365D01*
X12850Y-29377D01*
X12950Y-29355D01*
X12950Y-29895D01*
X12834Y-30100D01*
X12822Y-30150D01*
X12844Y-30250D01*
X13850Y-30250D01*
X13850Y-30350D01*
X12844Y-30350D01*
X12822Y-30449D01*
X12834Y-30499D01*
X12957Y-30718D01*
X13063Y-30801D01*
X10420Y-30801D01*
X10324Y-30782D01*
X10260Y-30740D01*
X10217Y-30675D01*
X10198Y-30580D01*
X10198Y-26323D01*
X10235Y-26286D01*
X10361Y-26222D01*
X10503Y-26200D01*
X13797Y-26200D01*
X14003Y-26159D01*
X14178Y-26042D01*
X14972Y-25247D01*
X16210Y-26485D01*
X16210Y-26521D01*
X16259Y-26640D01*
X16351Y-26732D01*
X16470Y-26781D01*
X16506Y-26781D01*
X19035Y-29310D01*
X19116Y-29364D01*
X19212Y-29383D01*
X21960Y-29383D01*
X22000Y-29391D01*
X22039Y-29383D01*
X24581Y-29383D01*
X24750Y-29552D01*
X24750Y-29616D01*
X24745Y-29618D01*
X24618Y-29744D01*
X24550Y-29910D01*
X24549Y-30089D01*
X24618Y-30254D01*
X24744Y-30381D01*
X24910Y-30449D01*
X25089Y-30450D01*
X25254Y-30381D01*
X25381Y-30255D01*
X25449Y-30089D01*
X25450Y-29910D01*
X25381Y-29745D01*
X25255Y-29618D01*
X25250Y-29616D01*
X25250Y-29448D01*
X25249Y-29448D01*
X25250Y-29448D01*
X25246Y-29429D01*
X25230Y-29353D01*
X25230Y-29353D01*
X25176Y-29272D01*
X25176Y-29272D01*
X24861Y-28957D01*
X24780Y-28902D01*
X24685Y-28883D01*
X22007Y-28883D01*
X22003Y-28884D01*
X22003Y-28884D01*
X22000Y-28883D01*
X19316Y-28883D01*
X16860Y-26428D01*
X16860Y-26392D01*
X16811Y-26272D01*
X16719Y-26181D01*
X16600Y-26131D01*
X16564Y-26131D01*
X15299Y-24867D01*
X15309Y-24853D01*
X15350Y-24647D01*
X15350Y-23452D01*
X15309Y-23246D01*
X15192Y-23071D01*
X14794Y-22673D01*
X14892Y-22673D01*
X15759Y-23540D01*
X15759Y-23540D01*
X15824Y-23583D01*
X15824Y-23583D01*
X15900Y-23598D01*
X18617Y-23598D01*
X18626Y-23607D01*
X18626Y-23714D01*
X18675Y-23832D01*
X18766Y-23924D01*
X18885Y-23973D01*
X19014Y-23973D01*
X19132Y-23924D01*
X19224Y-23833D01*
X19273Y-23714D01*
X19273Y-23585D01*
X19224Y-23467D01*
X19133Y-23375D01*
X19014Y-23326D01*
X18907Y-23326D01*
X18849Y-23269D01*
X19488Y-23269D01*
X19564Y-23254D01*
X19564Y-23254D01*
X19628Y-23211D01*
X19982Y-22856D01*
X19996Y-22836D01*
X20313Y-23153D01*
X20313Y-23189D01*
X20234Y-23110D01*
X20114Y-23060D01*
X19985Y-23060D01*
X19866Y-23110D01*
X19774Y-23201D01*
X19725Y-23320D01*
X19724Y-23450D01*
X19774Y-23569D01*
X19800Y-23595D01*
X19800Y-24065D01*
X19819Y-24161D01*
X19873Y-24242D01*
X20891Y-25261D01*
X20891Y-26377D01*
X20910Y-26473D01*
X20964Y-26554D01*
X21319Y-26909D01*
X21400Y-26963D01*
X21496Y-26982D01*
X22034Y-26982D01*
X22059Y-27007D01*
X22179Y-27057D01*
X22308Y-27057D01*
X22427Y-27007D01*
X22519Y-26916D01*
X22569Y-26797D01*
X22569Y-26667D01*
X22519Y-26548D01*
X22428Y-26456D01*
X22309Y-26407D01*
X22179Y-26407D01*
X22060Y-26456D01*
X22034Y-26482D01*
X21599Y-26482D01*
X21537Y-26420D01*
X21665Y-26473D01*
X21833Y-26473D01*
X21989Y-26409D01*
X22108Y-26290D01*
X22173Y-26134D01*
X22173Y-25966D01*
X22109Y-25810D01*
X21990Y-25691D01*
X21834Y-25626D01*
X21666Y-25626D01*
X21510Y-25690D01*
X21391Y-25809D01*
X21391Y-25176D01*
X21631Y-25415D01*
X21695Y-25458D01*
X21695Y-25458D01*
X21771Y-25474D01*
X24839Y-25474D01*
X25057Y-25692D01*
X25057Y-25758D01*
X24990Y-25691D01*
X24834Y-25626D01*
X24666Y-25626D01*
X24510Y-25690D01*
X24391Y-25809D01*
X24326Y-25965D01*
X24326Y-26133D01*
X24390Y-26289D01*
X24509Y-26408D01*
X24665Y-26473D01*
X24833Y-26473D01*
X24989Y-26409D01*
X25057Y-26341D01*
X25057Y-26397D01*
X25072Y-26473D01*
X25115Y-26537D01*
X25332Y-26754D01*
X25332Y-26754D01*
X25396Y-26797D01*
X25396Y-26797D01*
X25472Y-26812D01*
X27480Y-26812D01*
X27556Y-26797D01*
X27556Y-26797D01*
X27620Y-26754D01*
X27890Y-26484D01*
X27922Y-26436D01*
X27922Y-26436D01*
X27989Y-26409D01*
X28108Y-26290D01*
X28173Y-26134D01*
X28173Y-25966D01*
X28109Y-25810D01*
X27990Y-25691D01*
X27834Y-25626D01*
X27666Y-25626D01*
X27510Y-25690D01*
X27391Y-25809D01*
X27326Y-25965D01*
X27326Y-26133D01*
X27390Y-26289D01*
X27457Y-26356D01*
X27398Y-26415D01*
X26977Y-26415D01*
X26990Y-26410D01*
X27110Y-26291D01*
X27174Y-26134D01*
X27175Y-25965D01*
X27110Y-25809D01*
X26991Y-25689D01*
X26834Y-25625D01*
X26665Y-25624D01*
X26509Y-25689D01*
X26389Y-25808D01*
X26325Y-25965D01*
X26324Y-26134D01*
X26389Y-26290D01*
X26508Y-26410D01*
X26522Y-26415D01*
X25973Y-26415D01*
X25989Y-26409D01*
X26108Y-26290D01*
X26173Y-26134D01*
X26173Y-25966D01*
X26109Y-25810D01*
X25990Y-25691D01*
X25948Y-25673D01*
X25948Y-25631D01*
X26145Y-25434D01*
X29402Y-25434D01*
X29111Y-25725D01*
X29068Y-25790D01*
X29064Y-25808D01*
X29063Y-25807D01*
X28992Y-25878D01*
X28992Y-25736D01*
X28962Y-25672D01*
X28801Y-25619D01*
X28633Y-25632D01*
X28537Y-25672D01*
X28507Y-25736D01*
X28750Y-25979D01*
X28992Y-25736D01*
X28992Y-25878D01*
X28820Y-26050D01*
X28826Y-26055D01*
X28755Y-26126D01*
X28750Y-26120D01*
X28679Y-26191D01*
X28679Y-26050D01*
X28436Y-25807D01*
X28372Y-25837D01*
X28319Y-25998D01*
X28332Y-26166D01*
X28372Y-26262D01*
X28436Y-26292D01*
X28679Y-26050D01*
X28679Y-26191D01*
X28507Y-26363D01*
X28537Y-26427D01*
X28698Y-26480D01*
X28866Y-26467D01*
X28962Y-26427D01*
X28992Y-26363D01*
X28992Y-26363D01*
X29020Y-26391D01*
X29053Y-26357D01*
X29053Y-26453D01*
X28992Y-26514D01*
X28264Y-27242D01*
X24806Y-27242D01*
X23978Y-26413D01*
X23989Y-26409D01*
X24108Y-26290D01*
X24173Y-26134D01*
X24173Y-25966D01*
X24109Y-25810D01*
X23990Y-25691D01*
X23834Y-25626D01*
X23666Y-25626D01*
X23510Y-25690D01*
X23391Y-25809D01*
X23326Y-25965D01*
X23326Y-26133D01*
X23390Y-26289D01*
X23509Y-26408D01*
X23551Y-26426D01*
X23551Y-26466D01*
X23566Y-26542D01*
X23609Y-26606D01*
X24584Y-27581D01*
X24584Y-27581D01*
X24648Y-27624D01*
X24648Y-27624D01*
X24700Y-27634D01*
X23173Y-27634D01*
X23173Y-25966D01*
X23109Y-25810D01*
X22990Y-25691D01*
X22834Y-25626D01*
X22666Y-25626D01*
X22510Y-25690D01*
X22391Y-25809D01*
X22326Y-25965D01*
X22326Y-26133D01*
X22390Y-26289D01*
X22509Y-26408D01*
X22665Y-26473D01*
X22833Y-26473D01*
X22989Y-26409D01*
X23108Y-26290D01*
X23173Y-26134D01*
X23173Y-25966D01*
X23173Y-27634D01*
X21440Y-27634D01*
X21365Y-27559D01*
X21246Y-27509D01*
X21116Y-27509D01*
X20997Y-27558D01*
X20905Y-27650D01*
X20856Y-27769D01*
X20856Y-27899D01*
X20905Y-28018D01*
X20996Y-28110D01*
X21116Y-28159D01*
X21245Y-28159D01*
X21364Y-28110D01*
X21440Y-28034D01*
X27358Y-28034D01*
X27800Y-28476D01*
X27800Y-29595D01*
X27745Y-29618D01*
X27618Y-29744D01*
X27550Y-29910D01*
X27549Y-30089D01*
X27618Y-30254D01*
X27744Y-30381D01*
X27910Y-30449D01*
X28089Y-30450D01*
X28254Y-30381D01*
X28381Y-30255D01*
X28449Y-30089D01*
X28450Y-29910D01*
X28381Y-29745D01*
X28255Y-29618D01*
X28200Y-29595D01*
X28200Y-28393D01*
X28187Y-28329D01*
X28184Y-28317D01*
X28184Y-28317D01*
X28141Y-28252D01*
X27582Y-27693D01*
X27517Y-27649D01*
X27464Y-27639D01*
X28346Y-27639D01*
X28422Y-27624D01*
X28422Y-27624D01*
X28486Y-27581D01*
X29392Y-26675D01*
X29435Y-26611D01*
X29435Y-26611D01*
X29450Y-26535D01*
X29450Y-26349D01*
X29509Y-26408D01*
X29665Y-26473D01*
X29833Y-26473D01*
X29989Y-26409D01*
X30108Y-26290D01*
X30173Y-26134D01*
X30173Y-25966D01*
X30109Y-25810D01*
X30048Y-25749D01*
X30451Y-25749D01*
X30391Y-25809D01*
X30326Y-25965D01*
X30326Y-26133D01*
X30390Y-26289D01*
X30509Y-26408D01*
X30665Y-26473D01*
X30833Y-26473D01*
X30989Y-26409D01*
X31108Y-26290D01*
X31173Y-26134D01*
X31173Y-25966D01*
X31109Y-25810D01*
X31048Y-25749D01*
X31451Y-25749D01*
X31391Y-25809D01*
X31326Y-25965D01*
X31326Y-26133D01*
X31390Y-26289D01*
X31509Y-26408D01*
X31665Y-26473D01*
X31833Y-26473D01*
X31989Y-26409D01*
X32108Y-26290D01*
X32173Y-26134D01*
X32173Y-25966D01*
X32109Y-25810D01*
X32048Y-25749D01*
X32451Y-25749D01*
X32391Y-25809D01*
X32326Y-25965D01*
X32326Y-26133D01*
X32390Y-26289D01*
X32509Y-26408D01*
X32665Y-26473D01*
X32833Y-26473D01*
X32989Y-26409D01*
X33108Y-26290D01*
X33173Y-26134D01*
X33173Y-25966D01*
X33109Y-25810D01*
X33048Y-25749D01*
X33451Y-25749D01*
X33391Y-25809D01*
X33326Y-25965D01*
X33326Y-26133D01*
X33390Y-26289D01*
X33509Y-26408D01*
X33665Y-26473D01*
X33833Y-26473D01*
X33989Y-26409D01*
X34108Y-26290D01*
X34173Y-26134D01*
X34173Y-25966D01*
X34109Y-25810D01*
X34048Y-25749D01*
X34451Y-25749D01*
X34391Y-25809D01*
X34326Y-25965D01*
X34326Y-26133D01*
X34390Y-26289D01*
X34509Y-26408D01*
X34665Y-26473D01*
X34833Y-26473D01*
X34989Y-26409D01*
X35108Y-26290D01*
X35173Y-26134D01*
X35173Y-25966D01*
X35109Y-25810D01*
X35048Y-25749D01*
X35196Y-25749D01*
X35272Y-25734D01*
X35272Y-25734D01*
X35337Y-25691D01*
X36203Y-24825D01*
X36203Y-24825D01*
X36203Y-24825D01*
X36246Y-24760D01*
X36246Y-24760D01*
X36258Y-24700D01*
X36261Y-24685D01*
X36261Y-24685D01*
X36261Y-24685D01*
X36261Y-22322D01*
X36246Y-22246D01*
X36246Y-22246D01*
X36203Y-22182D01*
X36203Y-22182D01*
X35749Y-21728D01*
X35749Y-21347D01*
X35761Y-21359D01*
X35789Y-21331D01*
X35822Y-21398D01*
X35992Y-21455D01*
X36170Y-21442D01*
X36277Y-21398D01*
X36310Y-21331D01*
X36050Y-21070D01*
X36044Y-21076D01*
X35973Y-21005D01*
X35979Y-21000D01*
X35973Y-20994D01*
X36044Y-20923D01*
X36050Y-20929D01*
X36310Y-20668D01*
X36277Y-20601D01*
X36107Y-20544D01*
X35929Y-20557D01*
X35822Y-20601D01*
X35789Y-20668D01*
X35761Y-20640D01*
X35749Y-20652D01*
X35749Y-20581D01*
X35905Y-20425D01*
X35960Y-20448D01*
X36138Y-20448D01*
X36303Y-20380D01*
X36429Y-20254D01*
X36498Y-20089D01*
X36498Y-19911D01*
X36430Y-19746D01*
X36304Y-19620D01*
X36139Y-19551D01*
X35961Y-19551D01*
X35796Y-19619D01*
X35670Y-19745D01*
X35601Y-19910D01*
X35601Y-20088D01*
X35624Y-20144D01*
X35410Y-20358D01*
X35367Y-20422D01*
X35352Y-20498D01*
X35352Y-20668D01*
X35304Y-20620D01*
X35139Y-20551D01*
X34961Y-20551D01*
X34796Y-20619D01*
X34725Y-20689D01*
X34725Y-20604D01*
X34905Y-20425D01*
X34960Y-20448D01*
X35138Y-20448D01*
X35303Y-20380D01*
X35429Y-20254D01*
X35498Y-20089D01*
X35498Y-19911D01*
X35430Y-19746D01*
X35304Y-19620D01*
X35139Y-19551D01*
X34961Y-19551D01*
X34796Y-19619D01*
X34670Y-19745D01*
X34601Y-19910D01*
X34601Y-20088D01*
X34624Y-20144D01*
X34489Y-20279D01*
X34489Y-19412D01*
X34601Y-19301D01*
X34601Y-19329D01*
X34624Y-19383D01*
X34665Y-19425D01*
X34720Y-19448D01*
X34779Y-19448D01*
X35379Y-19448D01*
X35433Y-19425D01*
X35475Y-19384D01*
X35498Y-19329D01*
X35498Y-19270D01*
X35498Y-18670D01*
X35475Y-18616D01*
X35448Y-18588D01*
X35448Y-11270D01*
X35448Y-10670D01*
X35425Y-10616D01*
X35384Y-10574D01*
X35329Y-10551D01*
X35270Y-10551D01*
X34670Y-10551D01*
X34616Y-10574D01*
X34574Y-10615D01*
X34551Y-10670D01*
X34551Y-10729D01*
X34551Y-11329D01*
X34574Y-11383D01*
X34615Y-11425D01*
X34655Y-11442D01*
X34198Y-11898D01*
X34198Y-11403D01*
X34253Y-11380D01*
X34379Y-11254D01*
X34448Y-11089D01*
X34448Y-10911D01*
X34380Y-10746D01*
X34254Y-10620D01*
X34089Y-10551D01*
X33911Y-10551D01*
X33746Y-10619D01*
X33620Y-10745D01*
X33551Y-10910D01*
X33551Y-11088D01*
X33619Y-11253D01*
X33745Y-11379D01*
X33801Y-11403D01*
X33801Y-11941D01*
X33162Y-12580D01*
X33183Y-12549D01*
X33183Y-12549D01*
X33198Y-12474D01*
X33198Y-11403D01*
X33253Y-11380D01*
X33379Y-11254D01*
X33448Y-11089D01*
X33448Y-10911D01*
X33380Y-10746D01*
X33254Y-10620D01*
X33089Y-10551D01*
X32911Y-10551D01*
X32746Y-10619D01*
X32620Y-10745D01*
X32551Y-10910D01*
X32551Y-11088D01*
X32619Y-11253D01*
X32745Y-11379D01*
X32801Y-11403D01*
X32801Y-12391D01*
X31828Y-13365D01*
X31785Y-13429D01*
X31770Y-13505D01*
X31770Y-22626D01*
X31666Y-22626D01*
X31510Y-22690D01*
X31391Y-22809D01*
X31326Y-22965D01*
X31326Y-23133D01*
X31390Y-23289D01*
X31509Y-23408D01*
X31665Y-23473D01*
X31833Y-23473D01*
X31989Y-23409D01*
X32108Y-23290D01*
X32173Y-23134D01*
X32173Y-22966D01*
X32150Y-22909D01*
X32151Y-22907D01*
X32151Y-22907D01*
X32166Y-22831D01*
X32166Y-22739D01*
X32182Y-22763D01*
X32343Y-22924D01*
X32326Y-22965D01*
X32326Y-23133D01*
X32390Y-23289D01*
X32509Y-23408D01*
X32665Y-23473D01*
X32833Y-23473D01*
X32989Y-23409D01*
X33108Y-23290D01*
X33173Y-23134D01*
X33173Y-22966D01*
X33109Y-22810D01*
X32990Y-22691D01*
X32834Y-22626D01*
X32666Y-22626D01*
X32624Y-22643D01*
X32521Y-22540D01*
X32521Y-18942D01*
X32620Y-18983D01*
X32749Y-18983D01*
X32833Y-18948D01*
X32833Y-22331D01*
X32848Y-22407D01*
X32891Y-22471D01*
X33343Y-22924D01*
X33326Y-22965D01*
X33326Y-23133D01*
X33390Y-23289D01*
X33509Y-23408D01*
X33665Y-23473D01*
X33833Y-23473D01*
X33989Y-23409D01*
X34108Y-23290D01*
X34173Y-23134D01*
X34173Y-22966D01*
X34109Y-22810D01*
X33990Y-22691D01*
X33834Y-22626D01*
X33666Y-22626D01*
X33624Y-22643D01*
X33229Y-22249D01*
X33229Y-21663D01*
X33321Y-21701D01*
X33428Y-21701D01*
X34383Y-22656D01*
X34349Y-22690D01*
X34326Y-22745D01*
X34326Y-22804D01*
X34326Y-23354D01*
X34349Y-23408D01*
X34390Y-23450D01*
X34445Y-23473D01*
X34504Y-23473D01*
X35054Y-23473D01*
X35108Y-23450D01*
X35150Y-23409D01*
X35173Y-23354D01*
X35173Y-23295D01*
X35173Y-22745D01*
X35150Y-22691D01*
X35109Y-22649D01*
X35054Y-22626D01*
X34995Y-22626D01*
X34906Y-22626D01*
X34890Y-22601D01*
X34890Y-22601D01*
X33709Y-21420D01*
X33709Y-21313D01*
X33660Y-21194D01*
X33569Y-21103D01*
X33450Y-21054D01*
X33321Y-21054D01*
X33229Y-21092D01*
X33229Y-18437D01*
X33622Y-18437D01*
X33670Y-18486D01*
X33789Y-18535D01*
X33918Y-18535D01*
X34036Y-18486D01*
X34128Y-18395D01*
X34177Y-18276D01*
X34177Y-18147D01*
X34128Y-18029D01*
X34037Y-17937D01*
X33918Y-17888D01*
X33789Y-17888D01*
X33671Y-17937D01*
X33579Y-18028D01*
X33574Y-18040D01*
X33229Y-18040D01*
X33229Y-13428D01*
X35140Y-11518D01*
X35140Y-11518D01*
X35140Y-11518D01*
X35183Y-11453D01*
X35183Y-11453D01*
X35184Y-11448D01*
X35329Y-11448D01*
X35383Y-11425D01*
X35425Y-11384D01*
X35448Y-11329D01*
X35448Y-11270D01*
X35448Y-18588D01*
X35434Y-18574D01*
X35379Y-18551D01*
X35320Y-18551D01*
X34720Y-18551D01*
X34666Y-18574D01*
X34624Y-18615D01*
X34601Y-18670D01*
X34601Y-18729D01*
X34601Y-18805D01*
X34546Y-18816D01*
X34481Y-18859D01*
X34151Y-19190D01*
X34108Y-19254D01*
X34092Y-19330D01*
X34092Y-21496D01*
X34108Y-21571D01*
X34151Y-21636D01*
X35195Y-22680D01*
X35195Y-24287D01*
X34839Y-24644D01*
X34514Y-24644D01*
X34604Y-24553D01*
X34654Y-24434D01*
X34654Y-24306D01*
X34605Y-24187D01*
X34514Y-24096D01*
X34395Y-24046D01*
X34266Y-24046D01*
X34147Y-24095D01*
X34111Y-24132D01*
X33490Y-24132D01*
X33581Y-24041D01*
X33630Y-23922D01*
X33630Y-23794D01*
X33581Y-23675D01*
X33490Y-23584D01*
X33371Y-23534D01*
X33243Y-23534D01*
X33124Y-23583D01*
X33048Y-23659D01*
X29845Y-23659D01*
X29655Y-23469D01*
X29665Y-23473D01*
X29833Y-23473D01*
X29989Y-23409D01*
X30108Y-23290D01*
X30173Y-23134D01*
X30173Y-22966D01*
X30109Y-22810D01*
X29990Y-22691D01*
X29948Y-22673D01*
X29948Y-19832D01*
X30551Y-19229D01*
X30551Y-22673D01*
X30510Y-22690D01*
X30391Y-22809D01*
X30326Y-22965D01*
X30326Y-23133D01*
X30390Y-23289D01*
X30509Y-23408D01*
X30665Y-23473D01*
X30833Y-23473D01*
X30989Y-23409D01*
X31108Y-23290D01*
X31173Y-23134D01*
X31173Y-22966D01*
X31109Y-22810D01*
X30990Y-22691D01*
X30948Y-22673D01*
X30948Y-19273D01*
X31557Y-18663D01*
X31557Y-18663D01*
X31557Y-18663D01*
X31600Y-18599D01*
X31600Y-18599D01*
X31612Y-18538D01*
X31615Y-18523D01*
X31615Y-18523D01*
X31615Y-18523D01*
X31615Y-11853D01*
X32021Y-11448D01*
X32088Y-11448D01*
X32253Y-11380D01*
X32379Y-11254D01*
X32448Y-11089D01*
X32448Y-10911D01*
X32380Y-10746D01*
X32254Y-10620D01*
X32089Y-10551D01*
X31911Y-10551D01*
X31746Y-10619D01*
X31620Y-10745D01*
X31551Y-10910D01*
X31551Y-11088D01*
X31619Y-11253D01*
X31637Y-11271D01*
X31277Y-11631D01*
X31234Y-11695D01*
X31218Y-11771D01*
X31218Y-18441D01*
X31198Y-18461D01*
X31198Y-11403D01*
X31253Y-11380D01*
X31379Y-11254D01*
X31448Y-11089D01*
X31448Y-10911D01*
X31380Y-10746D01*
X31254Y-10620D01*
X31089Y-10551D01*
X30911Y-10551D01*
X30746Y-10619D01*
X30620Y-10745D01*
X30551Y-10910D01*
X30551Y-11088D01*
X30619Y-11253D01*
X30745Y-11379D01*
X30801Y-11403D01*
X30801Y-18417D01*
X29609Y-19609D01*
X29566Y-19674D01*
X29551Y-19750D01*
X29551Y-21295D01*
X29526Y-21234D01*
X29435Y-21143D01*
X29316Y-21093D01*
X29187Y-21093D01*
X29069Y-21142D01*
X28977Y-21233D01*
X28928Y-21352D01*
X28928Y-21481D01*
X28977Y-21600D01*
X29053Y-21676D01*
X29053Y-22752D01*
X28991Y-22689D01*
X28834Y-22625D01*
X28665Y-22624D01*
X28509Y-22689D01*
X28426Y-22772D01*
X28426Y-21361D01*
X28502Y-21285D01*
X28551Y-21166D01*
X28551Y-21038D01*
X28502Y-20919D01*
X28411Y-20828D01*
X28292Y-20778D01*
X28164Y-20778D01*
X28045Y-20828D01*
X27954Y-20918D01*
X27904Y-21037D01*
X27904Y-21166D01*
X27954Y-21285D01*
X28029Y-21361D01*
X28029Y-22718D01*
X28020Y-22708D01*
X27992Y-22736D01*
X27962Y-22672D01*
X27801Y-22619D01*
X27633Y-22632D01*
X27537Y-22672D01*
X27507Y-22736D01*
X27750Y-22979D01*
X27755Y-22973D01*
X27826Y-23044D01*
X27820Y-23050D01*
X27826Y-23055D01*
X27755Y-23126D01*
X27750Y-23120D01*
X27679Y-23191D01*
X27679Y-23050D01*
X27436Y-22807D01*
X27372Y-22837D01*
X27319Y-22998D01*
X27332Y-23166D01*
X27372Y-23262D01*
X27436Y-23292D01*
X27679Y-23050D01*
X27679Y-23191D01*
X27507Y-23363D01*
X27537Y-23427D01*
X27698Y-23480D01*
X27866Y-23467D01*
X27962Y-23427D01*
X27992Y-23363D01*
X27992Y-23363D01*
X28020Y-23391D01*
X28029Y-23381D01*
X28029Y-23818D01*
X28045Y-23894D01*
X28088Y-23959D01*
X28599Y-24471D01*
X28599Y-24471D01*
X28664Y-24514D01*
X28664Y-24514D01*
X28740Y-24529D01*
X34046Y-24529D01*
X34056Y-24553D01*
X34147Y-24644D01*
X27992Y-24644D01*
X27173Y-24644D01*
X27173Y-22966D01*
X27109Y-22810D01*
X26990Y-22691D01*
X26834Y-22626D01*
X26666Y-22626D01*
X26510Y-22690D01*
X26391Y-22809D01*
X26326Y-22965D01*
X26326Y-23133D01*
X26390Y-23289D01*
X26509Y-23408D01*
X26665Y-23473D01*
X26833Y-23473D01*
X26989Y-23409D01*
X27108Y-23290D01*
X27173Y-23134D01*
X27173Y-22966D01*
X27173Y-24644D01*
X26173Y-24644D01*
X26173Y-22966D01*
X26109Y-22810D01*
X25990Y-22691D01*
X25834Y-22626D01*
X25666Y-22626D01*
X25510Y-22690D01*
X25391Y-22809D01*
X25326Y-22965D01*
X25326Y-23133D01*
X25390Y-23289D01*
X25509Y-23408D01*
X25665Y-23473D01*
X25833Y-23473D01*
X25989Y-23409D01*
X26108Y-23290D01*
X26173Y-23134D01*
X26173Y-22966D01*
X26173Y-24644D01*
X25948Y-24644D01*
X25809Y-24505D01*
X25745Y-24462D01*
X25669Y-24447D01*
X25140Y-24447D01*
X25065Y-24371D01*
X24946Y-24322D01*
X24817Y-24322D01*
X24698Y-24371D01*
X24622Y-24447D01*
X22286Y-24447D01*
X21300Y-23461D01*
X21300Y-22444D01*
X21949Y-21796D01*
X21920Y-21864D01*
X21920Y-21993D01*
X21969Y-22112D01*
X22060Y-22203D01*
X22179Y-22252D01*
X22269Y-22252D01*
X21877Y-22644D01*
X21834Y-22626D01*
X21666Y-22626D01*
X21510Y-22690D01*
X21391Y-22809D01*
X21326Y-22965D01*
X21326Y-23133D01*
X21390Y-23289D01*
X21509Y-23408D01*
X21665Y-23473D01*
X21833Y-23473D01*
X21989Y-23409D01*
X22108Y-23290D01*
X22173Y-23134D01*
X22173Y-22966D01*
X22157Y-22926D01*
X23310Y-21773D01*
X23409Y-21773D01*
X23349Y-21785D01*
X23284Y-21828D01*
X22609Y-22503D01*
X22566Y-22567D01*
X22551Y-22643D01*
X22551Y-22673D01*
X22510Y-22690D01*
X22391Y-22809D01*
X22326Y-22965D01*
X22326Y-23133D01*
X22390Y-23289D01*
X22509Y-23408D01*
X22665Y-23473D01*
X22833Y-23473D01*
X22989Y-23409D01*
X23108Y-23290D01*
X23173Y-23134D01*
X23173Y-22966D01*
X23109Y-22810D01*
X22990Y-22691D01*
X22985Y-22689D01*
X23507Y-22166D01*
X24016Y-22166D01*
X23993Y-22182D01*
X23609Y-22566D01*
X23566Y-22630D01*
X23558Y-22670D01*
X23510Y-22690D01*
X23391Y-22809D01*
X23326Y-22965D01*
X23326Y-23133D01*
X23390Y-23289D01*
X23509Y-23408D01*
X23665Y-23473D01*
X23833Y-23473D01*
X23989Y-23409D01*
X24108Y-23290D01*
X24173Y-23134D01*
X24173Y-22966D01*
X24109Y-22810D01*
X24018Y-22719D01*
X24216Y-22521D01*
X24603Y-22521D01*
X24566Y-22575D01*
X24551Y-22651D01*
X24551Y-22673D01*
X24510Y-22690D01*
X24391Y-22809D01*
X24326Y-22965D01*
X24326Y-23133D01*
X24390Y-23289D01*
X24509Y-23408D01*
X24665Y-23473D01*
X24833Y-23473D01*
X24989Y-23409D01*
X25108Y-23290D01*
X25173Y-23134D01*
X25173Y-22966D01*
X25109Y-22810D01*
X24990Y-22691D01*
X30140Y-17541D01*
X30140Y-17541D01*
X30140Y-17541D01*
X30183Y-17477D01*
X30183Y-17477D01*
X30195Y-17416D01*
X30198Y-17401D01*
X30198Y-17401D01*
X30198Y-17401D01*
X30198Y-11403D01*
X30253Y-11380D01*
X30379Y-11254D01*
X30448Y-11089D01*
X30448Y-10911D01*
X30380Y-10746D01*
X30254Y-10620D01*
X30089Y-10551D01*
X29911Y-10551D01*
X29746Y-10619D01*
X29620Y-10745D01*
X29551Y-10910D01*
X29551Y-11088D01*
X29619Y-11253D01*
X29745Y-11379D01*
X29801Y-11403D01*
X29801Y-17319D01*
X29198Y-17922D01*
X29198Y-11403D01*
X29253Y-11380D01*
X29379Y-11254D01*
X29448Y-11089D01*
X29448Y-10911D01*
X29380Y-10746D01*
X29254Y-10620D01*
X29089Y-10551D01*
X28911Y-10551D01*
X28746Y-10619D01*
X28620Y-10745D01*
X28551Y-10910D01*
X28551Y-11088D01*
X28619Y-11253D01*
X28745Y-11379D01*
X28801Y-11403D01*
X28801Y-17912D01*
X28191Y-18523D01*
X28198Y-18487D01*
X28198Y-11403D01*
X28253Y-11380D01*
X28379Y-11254D01*
X28448Y-11089D01*
X28448Y-10911D01*
X28380Y-10746D01*
X28254Y-10620D01*
X28089Y-10551D01*
X27911Y-10551D01*
X27746Y-10619D01*
X27620Y-10745D01*
X27551Y-10910D01*
X27551Y-11088D01*
X27619Y-11253D01*
X27745Y-11379D01*
X27801Y-11403D01*
X27801Y-18405D01*
X26598Y-19608D01*
X26598Y-11448D01*
X26729Y-11448D01*
X26783Y-11425D01*
X26825Y-11384D01*
X26848Y-11329D01*
X26848Y-11270D01*
X26848Y-10670D01*
X26825Y-10616D01*
X26784Y-10574D01*
X26729Y-10551D01*
X26670Y-10551D01*
X26070Y-10551D01*
X26016Y-10574D01*
X25974Y-10615D01*
X25951Y-10670D01*
X25951Y-10729D01*
X25951Y-11329D01*
X25974Y-11383D01*
X26015Y-11425D01*
X26070Y-11448D01*
X26129Y-11448D01*
X26201Y-11448D01*
X26201Y-19581D01*
X24407Y-21376D01*
X24109Y-21376D01*
X25258Y-20227D01*
X25258Y-20227D01*
X25258Y-20227D01*
X25301Y-20162D01*
X25301Y-20162D01*
X25313Y-20101D01*
X25316Y-20086D01*
X25316Y-20086D01*
X25316Y-20086D01*
X25316Y-11775D01*
X25540Y-11551D01*
X25540Y-11551D01*
X25540Y-11551D01*
X25583Y-11486D01*
X25583Y-11486D01*
X25595Y-11426D01*
X25598Y-11411D01*
X25598Y-11411D01*
X25598Y-11411D01*
X25598Y-11403D01*
X25653Y-11380D01*
X25779Y-11254D01*
X25848Y-11089D01*
X25848Y-10911D01*
X25780Y-10746D01*
X25654Y-10620D01*
X25489Y-10551D01*
X25311Y-10551D01*
X25146Y-10619D01*
X25020Y-10745D01*
X24951Y-10910D01*
X24951Y-11088D01*
X25019Y-11253D01*
X25145Y-11379D01*
X25149Y-11381D01*
X24977Y-11552D01*
X24962Y-11575D01*
X24962Y-11363D01*
X24947Y-11287D01*
X24947Y-11287D01*
X24904Y-11223D01*
X24864Y-11184D01*
X24825Y-11144D01*
X24848Y-11089D01*
X24848Y-10911D01*
X24780Y-10746D01*
X24654Y-10620D01*
X24489Y-10551D01*
X24311Y-10551D01*
X24146Y-10619D01*
X24020Y-10745D01*
X23951Y-10910D01*
X23951Y-11088D01*
X24019Y-11253D01*
X24145Y-11379D01*
X24310Y-11448D01*
X24488Y-11448D01*
X24544Y-11425D01*
X24565Y-11445D01*
X24565Y-19832D01*
X24526Y-19738D01*
X24435Y-19647D01*
X24316Y-19597D01*
X24209Y-19597D01*
X24178Y-19567D01*
X24178Y-12320D01*
X24163Y-12244D01*
X24163Y-12244D01*
X24120Y-12179D01*
X23598Y-11657D01*
X23598Y-11403D01*
X23653Y-11380D01*
X23779Y-11254D01*
X23848Y-11089D01*
X23848Y-10911D01*
X23780Y-10746D01*
X23654Y-10620D01*
X23489Y-10551D01*
X23311Y-10551D01*
X23146Y-10619D01*
X23020Y-10745D01*
X22951Y-10910D01*
X22951Y-11088D01*
X23019Y-11253D01*
X23145Y-11379D01*
X23201Y-11403D01*
X23201Y-11740D01*
X23216Y-11815D01*
X23259Y-11880D01*
X23781Y-12402D01*
X23781Y-12595D01*
X22598Y-11412D01*
X22598Y-11403D01*
X22653Y-11380D01*
X22779Y-11254D01*
X22848Y-11089D01*
X22848Y-10911D01*
X22780Y-10746D01*
X22654Y-10620D01*
X22489Y-10551D01*
X22311Y-10551D01*
X22146Y-10619D01*
X22020Y-10745D01*
X21951Y-10910D01*
X21951Y-11088D01*
X22019Y-11253D01*
X22145Y-11379D01*
X22201Y-11403D01*
X22201Y-11494D01*
X22208Y-11527D01*
X21825Y-11144D01*
X21848Y-11089D01*
X21848Y-10911D01*
X21780Y-10746D01*
X21654Y-10620D01*
X21489Y-10551D01*
X21311Y-10551D01*
X21146Y-10619D01*
X21020Y-10745D01*
X20951Y-10910D01*
X20951Y-11088D01*
X21019Y-11253D01*
X21145Y-11379D01*
X21310Y-11448D01*
X21488Y-11448D01*
X21544Y-11425D01*
X21613Y-11494D01*
X20855Y-11494D01*
X20855Y-11057D01*
X20842Y-10879D01*
X20798Y-10772D01*
X20731Y-10739D01*
X20660Y-10810D01*
X20660Y-10668D01*
X20627Y-10601D01*
X20457Y-10544D01*
X20279Y-10557D01*
X20172Y-10601D01*
X20139Y-10668D01*
X20400Y-10929D01*
X20660Y-10668D01*
X20660Y-10810D01*
X20470Y-11000D01*
X20731Y-11260D01*
X20798Y-11227D01*
X20855Y-11057D01*
X20855Y-11494D01*
X20660Y-11494D01*
X20660Y-11331D01*
X20400Y-11070D01*
X20329Y-11141D01*
X20329Y-11000D01*
X20068Y-10739D01*
X20001Y-10772D01*
X19944Y-10942D01*
X19957Y-11120D01*
X20001Y-11227D01*
X20068Y-11260D01*
X20329Y-11000D01*
X20329Y-11141D01*
X20139Y-11331D01*
X20172Y-11398D01*
X20342Y-11455D01*
X20520Y-11442D01*
X20627Y-11398D01*
X20660Y-11331D01*
X20660Y-11494D01*
X20101Y-11494D01*
X20025Y-11418D01*
X19907Y-11369D01*
X19778Y-11369D01*
X19659Y-11418D01*
X19568Y-11509D01*
X19519Y-11628D01*
X19519Y-11718D01*
X19204Y-11404D01*
X19310Y-11448D01*
X19488Y-11448D01*
X19653Y-11380D01*
X19779Y-11254D01*
X19848Y-11089D01*
X19848Y-10911D01*
X19780Y-10746D01*
X19654Y-10620D01*
X19489Y-10551D01*
X19311Y-10551D01*
X19146Y-10619D01*
X19020Y-10745D01*
X18951Y-10910D01*
X18951Y-11088D01*
X18995Y-11195D01*
X18848Y-11048D01*
X18848Y-10911D01*
X18780Y-10746D01*
X18654Y-10620D01*
X18489Y-10551D01*
X18311Y-10551D01*
X18146Y-10619D01*
X18020Y-10745D01*
X17951Y-10910D01*
X17951Y-11088D01*
X18019Y-11253D01*
X18024Y-11258D01*
X17956Y-11258D01*
X17830Y-11132D01*
X17848Y-11089D01*
X17848Y-10911D01*
X17780Y-10746D01*
X17654Y-10620D01*
X17489Y-10551D01*
X17311Y-10551D01*
X17146Y-10619D01*
X17020Y-10745D01*
X16951Y-10910D01*
X16951Y-11088D01*
X17019Y-11253D01*
X17145Y-11379D01*
X17310Y-11448D01*
X17488Y-11448D01*
X17557Y-11420D01*
X17670Y-11533D01*
X13228Y-11533D01*
X13203Y-11538D01*
X13174Y-11527D01*
X13046Y-11526D01*
X12927Y-11576D01*
X12836Y-11666D01*
X12786Y-11785D01*
X12786Y-11914D01*
X12835Y-12033D01*
X12926Y-12124D01*
X13045Y-12173D01*
X13174Y-12173D01*
X13293Y-12124D01*
X13384Y-12033D01*
X13427Y-11930D01*
X15935Y-11930D01*
X15820Y-12045D01*
X15751Y-12210D01*
X15751Y-12388D01*
X15819Y-12553D01*
X15945Y-12679D01*
X16110Y-12748D01*
X16288Y-12748D01*
X16453Y-12680D01*
X16579Y-12554D01*
X16648Y-12389D01*
X16648Y-12211D01*
X16580Y-12046D01*
X16464Y-11930D01*
X16935Y-11930D01*
X16820Y-12045D01*
X16751Y-12210D01*
X16751Y-12388D01*
X16819Y-12553D01*
X16945Y-12679D01*
X17110Y-12748D01*
X17288Y-12748D01*
X17453Y-12680D01*
X17579Y-12554D01*
X17648Y-12389D01*
X17648Y-12211D01*
X17580Y-12046D01*
X17464Y-11930D01*
X17768Y-11930D01*
X17751Y-11970D01*
X17751Y-12029D01*
X17751Y-12467D01*
X17579Y-12639D01*
X17536Y-12704D01*
X17521Y-12780D01*
X17521Y-12987D01*
X17454Y-12920D01*
X17289Y-12851D01*
X17111Y-12851D01*
X16946Y-12919D01*
X16820Y-13045D01*
X16751Y-13210D01*
X16751Y-13388D01*
X16819Y-13553D01*
X16945Y-13679D01*
X17110Y-13748D01*
X17288Y-13748D01*
X17453Y-13680D01*
X17521Y-13612D01*
X17521Y-13640D01*
X17536Y-13715D01*
X17579Y-13780D01*
X17739Y-13940D01*
X17804Y-13983D01*
X17804Y-13983D01*
X17869Y-13996D01*
X17820Y-14045D01*
X17751Y-14210D01*
X17751Y-14388D01*
X17819Y-14553D01*
X17945Y-14679D01*
X18110Y-14748D01*
X18288Y-14748D01*
X18453Y-14680D01*
X18579Y-14554D01*
X18648Y-14389D01*
X18648Y-14211D01*
X18580Y-14046D01*
X18532Y-13998D01*
X18607Y-13998D01*
X18681Y-14072D01*
X18681Y-14451D01*
X18605Y-14526D01*
X18556Y-14645D01*
X18556Y-14774D01*
X18605Y-14892D01*
X18696Y-14984D01*
X18815Y-15033D01*
X18944Y-15033D01*
X19062Y-14984D01*
X19154Y-14893D01*
X19203Y-14774D01*
X19203Y-14645D01*
X19154Y-14527D01*
X19078Y-14450D01*
X19078Y-14361D01*
X19629Y-14912D01*
X19587Y-14941D01*
X19587Y-14941D01*
X19373Y-15155D01*
X19319Y-15236D01*
X19300Y-15331D01*
X19300Y-18509D01*
X19268Y-18540D01*
X19219Y-18660D01*
X19218Y-18789D01*
X19268Y-18908D01*
X19300Y-18940D01*
X19300Y-19800D01*
X19264Y-19835D01*
X19215Y-19955D01*
X19214Y-20084D01*
X19264Y-20203D01*
X19300Y-20239D01*
X19300Y-22314D01*
X19109Y-22505D01*
X18878Y-22505D01*
X18878Y-20615D01*
X18813Y-20457D01*
X18693Y-20337D01*
X18648Y-20318D01*
X18648Y-15570D01*
X18648Y-14970D01*
X18625Y-14916D01*
X18584Y-14874D01*
X18529Y-14851D01*
X18470Y-14851D01*
X17870Y-14851D01*
X17816Y-14874D01*
X17774Y-14915D01*
X17751Y-14970D01*
X17751Y-15029D01*
X17751Y-15629D01*
X17774Y-15683D01*
X17815Y-15725D01*
X17870Y-15748D01*
X17929Y-15748D01*
X18529Y-15748D01*
X18583Y-15725D01*
X18625Y-15684D01*
X18648Y-15629D01*
X18648Y-15570D01*
X18648Y-20318D01*
X18629Y-20310D01*
X18629Y-18009D01*
X18629Y-17379D01*
X18629Y-17350D01*
X18629Y-17320D01*
X18629Y-16690D01*
X18607Y-16635D01*
X18565Y-16592D01*
X18509Y-16570D01*
X18450Y-16570D01*
X18252Y-16570D01*
X18214Y-16607D01*
X18214Y-16985D01*
X18592Y-16985D01*
X18629Y-16947D01*
X18629Y-16690D01*
X18629Y-17320D01*
X18629Y-17320D01*
X18629Y-17122D01*
X18592Y-17085D01*
X18214Y-17085D01*
X18214Y-17237D01*
X18214Y-17462D01*
X18214Y-17614D01*
X18592Y-17614D01*
X18629Y-17577D01*
X18629Y-17379D01*
X18629Y-17379D01*
X18629Y-18009D01*
X18629Y-17752D01*
X18592Y-17714D01*
X18214Y-17714D01*
X18214Y-18092D01*
X18252Y-18129D01*
X18450Y-18129D01*
X18509Y-18129D01*
X18565Y-18107D01*
X18607Y-18064D01*
X18629Y-18009D01*
X18629Y-20310D01*
X18535Y-20271D01*
X18365Y-20271D01*
X18207Y-20336D01*
X18114Y-20429D01*
X18114Y-18092D01*
X18114Y-17714D01*
X18114Y-17614D01*
X18114Y-17462D01*
X18114Y-17237D01*
X18114Y-17085D01*
X18114Y-16985D01*
X18114Y-16607D01*
X18077Y-16570D01*
X17879Y-16570D01*
X17850Y-16570D01*
X17820Y-16570D01*
X17648Y-16570D01*
X17648Y-15211D01*
X17648Y-14211D01*
X17580Y-14046D01*
X17454Y-13920D01*
X17289Y-13851D01*
X17111Y-13851D01*
X16946Y-13919D01*
X16820Y-14045D01*
X16751Y-14210D01*
X16751Y-14388D01*
X16819Y-14553D01*
X16945Y-14679D01*
X17110Y-14748D01*
X17288Y-14748D01*
X17453Y-14680D01*
X17579Y-14554D01*
X17648Y-14389D01*
X17648Y-14211D01*
X17648Y-15211D01*
X17580Y-15046D01*
X17454Y-14920D01*
X17289Y-14851D01*
X17111Y-14851D01*
X16946Y-14919D01*
X16820Y-15045D01*
X16751Y-15210D01*
X16751Y-15388D01*
X16819Y-15553D01*
X16945Y-15679D01*
X17110Y-15748D01*
X17288Y-15748D01*
X17453Y-15680D01*
X17579Y-15554D01*
X17648Y-15389D01*
X17648Y-15211D01*
X17648Y-16570D01*
X17622Y-16570D01*
X17585Y-16607D01*
X17585Y-16985D01*
X17737Y-16985D01*
X17962Y-16985D01*
X18114Y-16985D01*
X18114Y-17085D01*
X17962Y-17085D01*
X17737Y-17085D01*
X17585Y-17085D01*
X17585Y-17237D01*
X17585Y-17462D01*
X17585Y-17614D01*
X17737Y-17614D01*
X17962Y-17614D01*
X18114Y-17614D01*
X18114Y-17714D01*
X17962Y-17714D01*
X17737Y-17714D01*
X17585Y-17714D01*
X17585Y-18092D01*
X17622Y-18129D01*
X17820Y-18129D01*
X17850Y-18129D01*
X17879Y-18129D01*
X18077Y-18129D01*
X18114Y-18092D01*
X18114Y-20429D01*
X18087Y-20456D01*
X18021Y-20614D01*
X18021Y-20784D01*
X18086Y-20942D01*
X18206Y-21062D01*
X18364Y-21128D01*
X18534Y-21128D01*
X18692Y-21063D01*
X18812Y-20943D01*
X18878Y-20785D01*
X18878Y-20615D01*
X18878Y-22505D01*
X18528Y-22505D01*
X18168Y-22146D01*
X18087Y-22091D01*
X17992Y-22072D01*
X17485Y-22072D01*
X17485Y-18092D01*
X17485Y-17714D01*
X17485Y-17614D01*
X17485Y-17462D01*
X17485Y-17237D01*
X17485Y-17085D01*
X17485Y-16985D01*
X17485Y-16607D01*
X17447Y-16570D01*
X17249Y-16570D01*
X17190Y-16570D01*
X17134Y-16592D01*
X17092Y-16635D01*
X17070Y-16690D01*
X17070Y-16947D01*
X17107Y-16985D01*
X17485Y-16985D01*
X17485Y-17085D01*
X17107Y-17085D01*
X17070Y-17122D01*
X17070Y-17320D01*
X17070Y-17320D01*
X17070Y-17350D01*
X17070Y-17379D01*
X17070Y-17379D01*
X17070Y-17577D01*
X17107Y-17614D01*
X17485Y-17614D01*
X17485Y-17714D01*
X17107Y-17714D01*
X17070Y-17752D01*
X17070Y-18009D01*
X17092Y-18064D01*
X17134Y-18107D01*
X17190Y-18129D01*
X17249Y-18129D01*
X17447Y-18129D01*
X17485Y-18092D01*
X17485Y-22072D01*
X16878Y-22072D01*
X16878Y-20615D01*
X16813Y-20457D01*
X16693Y-20337D01*
X16655Y-20321D01*
X16655Y-13357D01*
X16642Y-13179D01*
X16598Y-13072D01*
X16531Y-13039D01*
X16460Y-13110D01*
X16460Y-12968D01*
X16427Y-12901D01*
X16257Y-12844D01*
X16079Y-12857D01*
X15972Y-12901D01*
X15939Y-12968D01*
X16200Y-13229D01*
X16460Y-12968D01*
X16460Y-13110D01*
X16270Y-13300D01*
X16531Y-13560D01*
X16598Y-13527D01*
X16655Y-13357D01*
X16655Y-20321D01*
X16535Y-20271D01*
X16460Y-20271D01*
X16460Y-13631D01*
X16200Y-13370D01*
X16129Y-13441D01*
X16129Y-13300D01*
X15868Y-13039D01*
X15801Y-13072D01*
X15744Y-13242D01*
X15757Y-13420D01*
X15801Y-13527D01*
X15868Y-13560D01*
X16129Y-13300D01*
X16129Y-13441D01*
X15945Y-13624D01*
X15925Y-13624D01*
X15806Y-13674D01*
X15780Y-13700D01*
X14318Y-13700D01*
X14317Y-13700D01*
X14298Y-13703D01*
X14222Y-13719D01*
X14141Y-13773D01*
X14141Y-13773D01*
X13683Y-14231D01*
X13629Y-14312D01*
X13610Y-14408D01*
X13610Y-16750D01*
X13629Y-16845D01*
X13683Y-16926D01*
X14023Y-17266D01*
X14023Y-17266D01*
X14104Y-17320D01*
X14104Y-17320D01*
X14180Y-17336D01*
X14199Y-17340D01*
X14199Y-17339D01*
X14200Y-17340D01*
X14332Y-17340D01*
X15670Y-18678D01*
X15670Y-18714D01*
X15719Y-18833D01*
X15811Y-18925D01*
X15930Y-18974D01*
X16060Y-18975D01*
X16179Y-18925D01*
X16271Y-18834D01*
X16320Y-18714D01*
X16320Y-18585D01*
X16271Y-18466D01*
X16180Y-18374D01*
X16060Y-18325D01*
X16024Y-18325D01*
X14612Y-16913D01*
X14531Y-16859D01*
X14435Y-16840D01*
X14303Y-16840D01*
X14286Y-16823D01*
X14364Y-16823D01*
X14482Y-16774D01*
X14561Y-16696D01*
X15143Y-16691D01*
X15146Y-16690D01*
X15770Y-16685D01*
X15829Y-16709D01*
X15958Y-16709D01*
X16076Y-16660D01*
X16168Y-16569D01*
X16217Y-16450D01*
X16217Y-16321D01*
X16168Y-16203D01*
X16077Y-16111D01*
X15958Y-16062D01*
X15829Y-16062D01*
X15711Y-16111D01*
X15619Y-16202D01*
X15583Y-16289D01*
X15236Y-16292D01*
X15236Y-16168D01*
X15302Y-16168D01*
X15356Y-16145D01*
X15398Y-16104D01*
X15421Y-16049D01*
X15421Y-15990D01*
X15421Y-15740D01*
X15408Y-15710D01*
X15423Y-15675D01*
X15423Y-15366D01*
X15400Y-15311D01*
X15358Y-15268D01*
X15302Y-15246D01*
X15243Y-15245D01*
X15135Y-15245D01*
X15098Y-15283D01*
X15098Y-15470D01*
X15385Y-15470D01*
X15423Y-15433D01*
X15423Y-15366D01*
X15423Y-15675D01*
X15423Y-15608D01*
X15385Y-15570D01*
X15098Y-15570D01*
X15098Y-15578D01*
X14998Y-15578D01*
X14998Y-15570D01*
X14998Y-15470D01*
X14998Y-15283D01*
X14960Y-15245D01*
X14852Y-15245D01*
X14793Y-15246D01*
X14737Y-15268D01*
X14695Y-15311D01*
X14672Y-15366D01*
X14673Y-15433D01*
X14710Y-15470D01*
X14998Y-15470D01*
X14998Y-15570D01*
X14710Y-15570D01*
X14673Y-15608D01*
X14672Y-15675D01*
X14687Y-15710D01*
X14674Y-15740D01*
X14674Y-15799D01*
X14674Y-16049D01*
X14697Y-16103D01*
X14738Y-16145D01*
X14793Y-16168D01*
X14852Y-16168D01*
X14859Y-16168D01*
X14859Y-16296D01*
X14556Y-16299D01*
X14483Y-16225D01*
X14364Y-16176D01*
X14235Y-16176D01*
X14117Y-16225D01*
X14110Y-16232D01*
X14110Y-14511D01*
X14421Y-14200D01*
X15780Y-14200D01*
X15805Y-14225D01*
X15925Y-14274D01*
X16054Y-14275D01*
X16173Y-14225D01*
X16265Y-14134D01*
X16314Y-14014D01*
X16315Y-13885D01*
X16265Y-13766D01*
X16247Y-13747D01*
X16320Y-13742D01*
X16427Y-13698D01*
X16460Y-13631D01*
X16460Y-20271D01*
X16365Y-20271D01*
X16207Y-20336D01*
X16087Y-20456D01*
X16021Y-20614D01*
X16021Y-20784D01*
X16086Y-20942D01*
X16206Y-21062D01*
X16364Y-21128D01*
X16534Y-21128D01*
X16692Y-21063D01*
X16812Y-20943D01*
X16878Y-20785D01*
X16878Y-20615D01*
X16878Y-22072D01*
X15694Y-22072D01*
X15334Y-21712D01*
X15253Y-21658D01*
X15157Y-21639D01*
X14400Y-21639D01*
X14400Y-19844D01*
X14426Y-19826D01*
X14826Y-19426D01*
X14826Y-19426D01*
X14826Y-19426D01*
X14880Y-19345D01*
X14880Y-19345D01*
X14896Y-19269D01*
X14900Y-19250D01*
X14899Y-19250D01*
X14900Y-19250D01*
X14900Y-18859D01*
X14925Y-18834D01*
X14974Y-18714D01*
X14975Y-18585D01*
X14925Y-18466D01*
X14834Y-18374D01*
X14714Y-18325D01*
X14585Y-18324D01*
X14466Y-18374D01*
X14374Y-18465D01*
X14325Y-18585D01*
X14324Y-18714D01*
X14374Y-18833D01*
X14400Y-18859D01*
X14400Y-19146D01*
X14354Y-19192D01*
X14295Y-19076D01*
X14173Y-18954D01*
X14020Y-18876D01*
X13853Y-18850D01*
X12275Y-18850D01*
X12275Y-16801D01*
X12275Y-15069D01*
X12226Y-14949D01*
X12134Y-14858D01*
X12015Y-14808D01*
X11885Y-14808D01*
X11765Y-14857D01*
X11674Y-14949D01*
X11624Y-15068D01*
X11624Y-15198D01*
X11673Y-15318D01*
X11765Y-15409D01*
X11884Y-15459D01*
X12014Y-15459D01*
X12134Y-15410D01*
X12225Y-15318D01*
X12275Y-15199D01*
X12275Y-15069D01*
X12275Y-16801D01*
X12226Y-16681D01*
X12134Y-16590D01*
X12015Y-16540D01*
X11885Y-16540D01*
X11765Y-16589D01*
X11674Y-16681D01*
X11624Y-16800D01*
X11624Y-16930D01*
X11673Y-17050D01*
X11765Y-17141D01*
X11884Y-17191D01*
X12014Y-17191D01*
X12134Y-17142D01*
X12225Y-17050D01*
X12275Y-16931D01*
X12275Y-16801D01*
X12275Y-18850D01*
X10198Y-18850D01*
X10198Y-10419D01*
X10217Y-10324D01*
X10260Y-10259D01*
X10324Y-10217D01*
X10420Y-10198D01*
X35317Y-10198D01*
X35801Y-10682D01*
X35801Y-15100D01*
X35816Y-15175D01*
X35859Y-15240D01*
X36801Y-16182D01*
X36801Y-28917D01*
M02*
